<svg width="176" height="176" viewBox="0 0 176 176" fill="none" xmlns="http://www.w3.org/2000/svg">
<rect width="176" height="176" rx="40" fill="url(#paint0_linear_137_4611)"/>
<path d="M38 49.4582C38 45.429 41.2667 42.1665 45.2917 42.1665H97.375C101.404 42.1665 104.667 45.429 104.667 49.4582V89.0415C104.667 90.9754 103.898 92.83 102.531 94.1975C101.164 95.5649 99.3089 96.3332 97.375 96.3332H71.5875L60.8625 107.054C60.0135 107.903 58.932 108.48 57.7546 108.715C56.5773 108.949 55.357 108.828 54.2479 108.369C53.1389 107.91 52.1909 107.132 51.5238 106.134C50.8567 105.136 50.5004 103.963 50.5 102.762V96.3332H45.2917C43.3578 96.3332 41.5031 95.5649 40.1357 94.1975C38.7682 92.83 38 90.9754 38 89.0415V49.4582ZM45.2917 48.4165C45.0154 48.4165 44.7504 48.5263 44.5551 48.7216C44.3597 48.917 44.25 49.1819 44.25 49.4582V89.0415C44.25 89.6165 44.7167 90.0832 45.2917 90.0832H53.625C54.4538 90.0832 55.2487 90.4124 55.8347 90.9985C56.4208 91.5845 56.75 92.3794 56.75 93.2082V102.329L68.0833 90.9998C68.6688 90.4136 69.4631 90.0839 70.2917 90.0832H97.375C97.6513 90.0832 97.9162 89.9734 98.1116 89.7781C98.3069 89.5827 98.4167 89.3178 98.4167 89.0415V49.4582C98.4167 49.1819 98.3069 48.917 98.1116 48.7216C97.9162 48.5263 97.6513 48.4165 97.375 48.4165H45.2917ZM130.708 73.4165H116.125C115.296 73.4165 114.501 73.0873 113.915 72.5012C113.329 71.9152 113 71.1203 113 70.2915C113 69.4627 113.329 68.6678 113.915 68.0818C114.501 67.4957 115.296 67.1665 116.125 67.1665H130.708C134.733 67.1665 138 70.4332 138 74.4582V114.042C138 115.975 137.232 117.83 135.864 119.197C134.497 120.565 132.642 121.333 130.708 121.333H125.5V127.762C125.5 128.963 125.143 130.136 124.476 131.134C123.809 132.132 122.861 132.91 121.752 133.369C120.643 133.828 119.423 133.949 118.245 133.715C117.068 133.48 115.987 132.903 115.137 132.054L104.412 121.333H82.7917C80.8578 121.333 79.0031 120.565 77.6357 119.197C76.2682 117.83 75.5 115.975 75.5 114.042V107.937C75.5 107.109 75.8292 106.314 76.4153 105.728C77.0013 105.142 77.7962 104.812 78.625 104.812C79.4538 104.812 80.2487 105.142 80.8347 105.728C81.4208 106.314 81.75 107.109 81.75 107.937V114.042C81.75 114.617 82.2167 115.083 82.7917 115.083H105.708C106.537 115.083 107.333 115.412 107.917 116L119.25 127.329V118.208C119.25 117.379 119.579 116.585 120.165 115.998C120.751 115.412 121.546 115.083 122.375 115.083H130.708C130.985 115.083 131.25 114.973 131.445 114.778C131.64 114.583 131.75 114.318 131.75 114.042V74.4582C131.75 74.1819 131.64 73.917 131.445 73.7216C131.25 73.5262 130.985 73.4165 130.708 73.4165ZM90.2083 59.9998L69.375 80.8332C69.0857 81.1244 68.7417 81.3556 68.3626 81.5133C67.9836 81.6711 67.5772 81.7523 67.1667 81.7523C66.7561 81.7523 66.3497 81.6711 65.9707 81.5133C65.5917 81.3556 65.2476 81.1244 64.9583 80.8332L54.5417 70.4165C54.2517 70.1265 54.0216 69.7822 53.8647 69.4033C53.7077 69.0244 53.6269 68.6183 53.6269 68.2082C53.6269 67.798 53.7077 67.3919 53.8647 67.013C54.0216 66.6341 54.2517 66.2898 54.5417 65.9998C54.8317 65.7098 55.176 65.4798 55.5549 65.3228C55.9338 65.1659 56.3399 65.0851 56.75 65.0851C57.1601 65.0851 57.5662 65.1659 57.9451 65.3228C58.324 65.4798 58.6683 65.7098 58.9583 65.9998L67.1667 74.204L85.7917 55.5832C86.0817 55.2932 86.4259 55.0631 86.8049 54.9062C87.1838 54.7492 87.5899 54.6684 88 54.6684C88.4101 54.6684 88.8162 54.7492 89.1951 54.9062C89.574 55.0631 89.9183 55.2932 90.2083 55.5832C90.4983 55.8732 90.7284 56.2175 90.8853 56.5964C91.0423 56.9753 91.1231 57.3814 91.1231 57.7915C91.1231 58.2016 91.0423 58.6077 90.8853 58.9866C90.7284 59.3656 90.4983 59.7098 90.2083 59.9998Z" fill="#43318A"/>
<defs>
<linearGradient id="paint0_linear_137_4611" x1="-2.62815e-06" y1="176" x2="151.671" y2="236.745" gradientUnits="userSpaceOnUse">
<stop stop-color="#CFC9FA"/>
<stop offset="1" stop-color="#56D6B8"/>
</linearGradient>
</defs>
</svg>
