<svg width="176" height="176" viewBox="0 0 176 176" fill="none" xmlns="http://www.w3.org/2000/svg">
<rect width="176" height="176" rx="40" fill="#CFC9FA"/>
<path d="M131.75 56.75V50.5H122.375V44.25H116.125V50.5H113C109.553 50.5 106.75 53.3062 106.75 56.75V63C106.75 66.4469 109.553 69.25 113 69.25H125.5V75.5H106.75V81.75H116.125V88H122.375V81.75H125.5C128.947 81.75 131.75 78.9469 131.75 75.5V69.25C131.75 65.8062 128.947 63 125.5 63H113V56.75H131.75ZM113 100.5V106.75H121.081L109.875 117.956L102.713 110.791C102.127 110.205 101.334 109.876 100.506 109.875H100.5C99.6723 109.876 98.8789 110.205 98.2938 110.791L81.75 127.331L86.1687 131.75L100.503 117.419L107.666 124.584C108.252 125.17 109.046 125.499 109.875 125.499C110.704 125.499 111.498 125.17 112.084 124.584L125.5 111.169V119.25H131.75V100.5H113ZM50.5 131.75H44.25V116.125C44.25 104.062 54.0625 94.25 66.125 94.25H84.875C91.0906 94.25 97.0312 96.9062 101.178 101.541L96.5219 105.709C95.0563 104.071 93.2614 102.759 91.2544 101.862C89.2474 100.964 87.0736 100.5 84.875 100.5H66.125C57.5094 100.5 50.5 107.509 50.5 116.125V131.75ZM75.5 88C81.3016 88 86.8656 85.6953 90.968 81.593C95.0703 77.4906 97.375 71.9266 97.375 66.125C97.375 60.3234 95.0703 54.7594 90.968 50.657C86.8656 46.5547 81.3016 44.25 75.5 44.25C69.6984 44.25 64.1344 46.5547 60.032 50.657C55.9297 54.7594 53.625 60.3234 53.625 66.125C53.625 71.9266 55.9297 77.4906 60.032 81.593C64.1344 85.6953 69.6984 88 75.5 88ZM75.5 50.5C79.644 50.5 83.6183 52.1462 86.5485 55.0765C89.4788 58.0067 91.125 61.981 91.125 66.125C91.125 70.269 89.4788 74.2433 86.5485 77.1735C83.6183 80.1038 79.644 81.75 75.5 81.75C71.356 81.75 67.3817 80.1038 64.4515 77.1735C61.5212 74.2433 59.875 70.269 59.875 66.125C59.875 61.981 61.5212 58.0067 64.4515 55.0765C67.3817 52.1462 71.356 50.5 75.5 50.5Z" fill="#43318A"/>
</svg>
