<svg width="176" height="176" viewBox="0 0 176 176" fill="none" xmlns="http://www.w3.org/2000/svg">
<rect width="176" height="176" rx="40" fill="url(#paint0_linear_137_4614)"/>
<path d="M110.745 75.8328L109.532 73.6912C108.615 72.0703 108.157 71.262 107.374 70.9412C106.595 70.6162 105.711 70.8703 103.949 71.3828L100.949 72.2412C99.8212 72.5038 98.6369 72.353 97.6112 71.8162L96.782 71.3328C95.896 70.7516 95.2175 69.9039 94.8445 68.912L94.0237 66.4203C93.4862 64.7703 93.2153 63.9453 92.5737 63.4703C91.932 62.9953 91.0778 62.9995 89.3778 62.9995H86.6362C84.9278 62.9995 84.0778 62.9995 83.4362 63.4703C82.7945 63.9453 82.5237 64.7703 81.9862 66.4203L81.1653 68.912C80.7916 69.9023 80.1132 70.7485 79.2278 71.3287L78.3987 71.8162C77.3695 72.3578 76.1903 72.5037 75.0612 72.2412L72.0612 71.3828C70.2987 70.8703 69.4153 70.6162 68.6362 70.9412C67.8528 71.262 67.3945 72.0703 66.4778 73.6912L65.2653 75.8328C64.407 77.3495 63.9737 78.112 64.057 78.9162C64.1403 79.7245 64.7195 80.3745 65.8695 81.6787L68.4028 84.562C69.0237 85.3578 69.4612 86.7495 69.4612 87.9995C69.4612 89.2495 69.0237 90.637 68.4028 91.437L65.8695 94.3203C64.7195 95.6203 64.1403 96.2703 64.057 97.0787C63.9737 97.887 64.407 98.6495 65.2653 100.162L66.4778 102.308C67.3945 103.925 67.8528 104.737 68.6362 105.058C69.4153 105.383 70.2987 105.129 72.0612 104.616L75.0612 103.758C76.1887 103.495 77.373 103.646 78.3987 104.183L79.2278 104.666C80.1112 105.241 80.7862 106.091 81.1653 107.087L81.9862 109.583C82.5237 111.233 82.7945 112.054 83.4362 112.529C84.0778 113.004 84.932 113 86.6362 113H89.3778C91.0862 113 91.9362 113 92.5778 112.529C93.2195 112.054 93.4903 111.233 94.0278 109.583L94.8487 107.087C95.2237 106.087 95.9028 105.241 96.7862 104.67L97.6153 104.183C98.6445 103.641 99.8237 103.495 100.953 103.758L103.953 104.616C105.715 105.129 106.599 105.383 107.378 105.058C108.161 104.737 108.62 103.925 109.536 102.308L110.749 100.166C111.607 98.6495 112.04 97.887 111.957 97.0828C111.874 96.2703 111.295 95.6245 110.145 94.3203L107.611 91.437C106.99 90.6412 106.553 89.2495 106.553 87.9995C106.553 86.7495 106.99 85.3578 107.611 84.562L110.145 81.6787C111.295 80.3787 111.874 79.7245 111.953 78.9203C112.032 78.1162 111.607 77.3495 110.749 75.837" stroke="white" stroke-width="6.25" stroke-linecap="round" stroke-linejoin="round"/>
<path d="M88.0007 95.2913C92.0277 95.2913 95.2923 92.0268 95.2923 87.9997C95.2923 83.9726 92.0277 80.708 88.0007 80.708C83.9736 80.708 80.709 83.9726 80.709 87.9997C80.709 92.0268 83.9736 95.2913 88.0007 95.2913Z" stroke="white" stroke-width="6.25" stroke-linecap="round" stroke-linejoin="round"/>
<path d="M117.167 46.333V58.2455C109.386 50.599 98.9099 46.3201 88.0007 46.333C64.9882 46.333 46.334 64.9872 46.334 87.9997C46.3302 93.7346 47.5104 99.4086 49.8007 104.666M58.834 129.666V117.754C66.6149 125.4 77.0914 129.679 88.0007 129.666C111.013 129.666 129.667 111.012 129.667 87.9997C129.671 82.2648 128.491 76.5908 126.201 71.333" stroke="white" stroke-width="6.25" stroke-linecap="round" stroke-linejoin="round"/>
<defs>
<linearGradient id="paint0_linear_137_4614" x1="-2.62815e-06" y1="176" x2="151.671" y2="236.745" gradientUnits="userSpaceOnUse">
<stop stop-color="#35C0A7"/>
<stop offset="1" stop-color="#5BD9BB"/>
</linearGradient>
</defs>
</svg>
