<svg width="339" height="373" viewBox="0 0 339 373" fill="none" xmlns="http://www.w3.org/2000/svg">
<g opacity="0.5">
<path fill-rule="evenodd" clip-rule="evenodd" d="M30.9626 262.634C26.4571 265.655 21.1306 272.922 19.3101 278.531C12.9175 298.229 27.5947 317.468 47.4368 315.4C54.6555 314.648 59.1739 312.657 64.481 307.892C68.1942 304.558 72.185 297.788 73.2592 293.002C74.0014 289.695 74.2154 281.634 73.6266 279.136C72.9401 276.22 68.3158 268.438 66.4431 267.045C65.6086 266.425 64.8287 265.514 64.7103 265.021C64.3156 263.377 56.5169 259.478 51.6771 258.506C46.238 257.412 35.5839 259.536 30.9626 262.634ZM33.063 265.798C31.7417 266.635 29.8124 268.184 28.7751 269.24C26.5711 271.482 22.0175 279.357 22.2838 280.467C22.3844 280.886 21.9814 282.235 21.3887 283.463C20.5276 285.249 20.721 287.406 22.3509 294.193C24.2932 302.28 24.5769 302.858 28.2707 306.251C33.1126 310.698 37.3343 312.589 44.011 313.304C50.2993 313.976 53.2926 313.196 58.402 309.555C69.7254 301.486 73.484 288.755 68.1833 276.427C65.0927 269.241 59.2083 264.334 51.2134 262.276C47.4466 261.307 36.9207 263.35 33.063 265.798ZM35.7197 285.735C36.4642 288.031 37.2455 289.018 38.1176 288.765C38.9896 288.511 39.2261 287.229 38.8422 284.828C38.3496 281.739 38.0306 281.337 36.4444 281.798C34.8581 282.258 34.7613 282.781 35.7197 285.735ZM47.7069 281.009C47.7283 284.145 49.0051 286.1 50.7095 285.605C51.6756 285.324 51.7903 284.223 51.1377 281.506C50.1086 277.22 47.6794 276.869 47.7069 281.009ZM55.8113 290.876C55.3301 292.557 47.1251 295.73 42.2095 296.136C39.7294 296.34 37.4196 296.827 37.0761 297.218C35.982 298.464 42.0184 299.977 46.0727 299.474C52.4112 298.687 60.2368 292.402 57.2231 290.519C56.5141 290.076 56.0036 290.205 55.8113 290.876Z" fill="#A7A7A7"/>
</g>
<path opacity="0.5" fill-rule="evenodd" clip-rule="evenodd" d="M40.0786 25.227C27.3213 25.3721 15.4148 35.4747 14.0746 47.2883C12.6449 59.8876 21.4483 72.679 33.8485 76.0223C54.7867 81.6679 73.4418 61.4399 65.3853 41.8275C61.5552 32.5066 50.2806 25.1094 40.0786 25.227ZM31.1548 39.7295C25.5893 43.894 26.6966 51.8704 33.7722 58.5834L37.8309 62.4341L41.8341 61.5811C48.12 60.2414 53.6135 56.0866 54.7611 51.8037C56.1259 46.7104 54.651 43.2974 50.6173 42.2165C48.3377 41.6057 46.6335 41.8883 44.9342 43.1608L42.5063 44.9773L41.0734 42.1263C39.0894 38.1793 34.6565 37.1085 31.1548 39.7295Z" fill="#A7A7A7"/>
<path opacity="0.5" fill-rule="evenodd" clip-rule="evenodd" d="M243.131 247.175C230.846 250.617 221.96 263.457 223.723 275.215C225.603 287.755 237.417 297.832 250.26 297.852C271.946 297.886 284.73 273.519 271.872 256.66C265.76 248.648 252.955 244.421 243.131 247.175ZM238.265 263.493C233.967 268.956 237.101 276.374 245.673 281.027L250.59 283.696L254.236 281.836C259.961 278.915 264.192 273.48 264.192 269.046C264.192 263.773 261.884 260.858 257.708 260.858C255.348 260.858 253.775 261.572 252.463 263.241L250.588 265.624L248.466 263.241C245.528 259.942 240.969 260.055 238.265 263.493Z" fill="#A7A7A7"/>
<g opacity="0.5">
<path fill-rule="evenodd" clip-rule="evenodd" d="M158.791 275.208C152.627 279.674 150.5 283.858 150.5 291.522C150.5 297.131 150.902 298.559 153.487 302.127C161.828 313.642 178.549 313.108 186.139 301.084C188.988 296.57 190.385 289.116 188.767 287.062C188.222 286.37 187.501 284.649 187.165 283.238C186.175 279.077 179.463 273.008 177.748 274.723C177.428 275.043 177.693 275.304 178.336 275.304C180.328 275.304 186.5 282.598 186.5 284.953C186.5 286.181 186.876 287.418 187.336 287.703C189.021 288.744 186.513 298.578 183.733 301.831C175.095 311.939 157.979 309.585 153.448 297.666C152.248 294.51 152.223 287.144 153.403 284.119C154.559 281.152 159.825 275.304 161.339 275.304C161.978 275.304 162.5 274.868 162.5 274.335C162.5 273.803 163.148 273.615 163.939 273.919C164.731 274.223 166.193 273.997 167.189 273.418C168.741 272.516 168.556 272.36 165.9 272.334C164.028 272.316 161.212 273.454 158.791 275.208ZM172.769 272.997C173.742 273.251 175.092 273.234 175.769 272.96C176.446 272.686 175.65 272.479 174 272.499C172.35 272.519 171.796 272.743 172.769 272.997ZM168.407 279.916C167.774 280.679 166.624 281.304 165.853 281.304C164.072 281.304 162.222 286.061 162.921 288.844C163.213 290.008 164.588 291.479 165.976 292.111C168.084 293.071 168.5 293.945 168.5 297.405C168.5 301.208 168.356 301.436 166.75 300.176C165.788 299.422 164.669 298.354 164.265 297.804C163.806 297.179 163.525 297.257 163.515 298.015C163.507 298.68 164.207 299.805 165.072 300.515C165.936 301.224 167.511 302.591 168.572 303.554C169.632 304.516 170.5 304.854 170.5 304.304C170.5 303.754 170.969 303.304 171.542 303.304C172.115 303.304 173.497 302.453 174.613 301.413C177.615 298.616 176.875 293.235 173.25 291.506C170.936 290.403 170.5 289.569 170.5 286.249C170.5 281.713 170.991 281.477 174.186 284.478C175.458 285.674 176.5 286.207 176.5 285.662C176.5 285.118 174.938 283.289 173.03 281.6C170.148 279.049 169.364 278.763 168.407 279.916ZM165.458 284.382C164.846 285.525 164.592 287.1 164.892 287.882C165.701 289.991 168.5 289.606 168.5 287.386C168.5 286.331 168.773 284.756 169.107 283.886C170.032 281.475 166.777 281.918 165.458 284.382ZM170.5 297.304C170.5 301.917 173.041 302.981 174.089 298.806C174.882 295.644 174.007 293.304 172.031 293.304C170.911 293.304 170.5 294.379 170.5 297.304Z" fill="#A7A7A7"/>
</g>
<g opacity="0.5">
<path fill-rule="evenodd" clip-rule="evenodd" d="M78.3213 333.828C74.3651 336.695 73 339.38 73 344.299C73 347.899 73.258 348.815 74.9171 351.105C80.2705 358.496 91.0022 358.153 95.8736 350.436C97.7021 347.539 98.5988 342.755 97.5603 341.436C97.2105 340.992 96.7478 339.888 96.5321 338.982C95.8967 336.311 91.5889 332.416 90.4881 333.517C90.2828 333.722 90.4528 333.89 90.8655 333.89C92.144 333.89 96.1053 338.571 96.1053 340.083C96.1053 340.871 96.3466 341.665 96.6419 341.848C97.7233 342.516 96.1136 348.827 94.3294 350.915C88.7854 357.403 77.8001 355.892 74.8921 348.242C74.1219 346.217 74.1058 341.489 74.8632 339.547C75.6051 337.643 78.9849 333.89 79.9566 333.89C80.3667 333.89 80.7018 333.61 80.7018 333.268C80.7018 332.926 81.1177 332.806 81.6253 333.001C82.1337 333.196 83.072 333.051 83.7112 332.679C84.7073 332.1 84.5886 332 82.8839 331.984C81.6825 331.972 79.8751 332.702 78.3213 333.828ZM87.2926 332.409C87.917 332.572 88.7835 332.561 89.218 332.385C89.6525 332.21 89.1416 332.077 88.0826 332.09C87.0236 332.102 86.6681 332.246 87.2926 332.409ZM84.493 336.85C84.0867 337.34 83.3486 337.741 82.8538 337.741C81.7107 337.741 80.5233 340.794 80.972 342.58C81.1594 343.327 82.0419 344.271 82.9327 344.677C84.2857 345.293 84.5527 345.854 84.5527 348.075C84.5527 350.515 84.4602 350.662 83.4295 349.853C82.8121 349.369 82.0939 348.684 81.8346 348.331C81.54 347.93 81.3596 347.98 81.3532 348.466C81.3481 348.893 81.7973 349.615 82.3525 350.071C82.907 350.526 83.9179 351.403 84.5989 352.021C85.2792 352.639 85.8363 352.855 85.8363 352.502C85.8363 352.149 86.1373 351.861 86.505 351.861C86.8728 351.861 87.7598 351.314 88.4761 350.647C90.4028 348.852 89.9278 345.398 87.6013 344.289C86.1161 343.581 85.8363 343.045 85.8363 340.914C85.8363 338.003 86.1514 337.852 88.202 339.778C89.0184 340.545 89.6872 340.888 89.6872 340.538C89.6872 340.189 88.6846 339.015 87.4601 337.931C85.6104 336.293 85.1072 336.11 84.493 336.85ZM82.6003 339.716C82.2075 340.45 82.0444 341.461 82.237 341.963C82.7562 343.316 84.5527 343.069 84.5527 341.644C84.5527 340.967 84.7279 339.956 84.9422 339.398C85.5359 337.85 83.4468 338.135 82.6003 339.716ZM85.8363 348.01C85.8363 350.97 87.4671 351.653 88.1398 348.974C88.6487 346.944 88.0871 345.442 86.8189 345.442C86.1001 345.442 85.8363 346.132 85.8363 348.01Z" fill="#A7A7A7"/>
</g>
<g opacity="0.5">
<path fill-rule="evenodd" clip-rule="evenodd" d="M283.321 138.178C279.365 141.045 278 143.73 278 148.649C278 152.249 278.258 153.165 279.917 155.455C285.27 162.846 296.002 162.503 300.874 154.786C302.702 151.889 303.599 147.105 302.56 145.786C302.211 145.342 301.748 144.238 301.532 143.332C300.897 140.661 296.589 136.766 295.488 137.867C295.283 138.072 295.453 138.24 295.866 138.24C297.144 138.24 301.105 142.921 301.105 144.433C301.105 145.221 301.347 146.015 301.642 146.198C302.723 146.866 301.114 153.177 299.329 155.265C293.785 161.753 282.8 160.242 279.892 152.592C279.122 150.566 279.106 145.839 279.863 143.897C280.605 141.993 283.985 138.24 284.957 138.24C285.367 138.24 285.702 137.96 285.702 137.618C285.702 137.276 286.118 137.156 286.625 137.351C287.134 137.546 288.072 137.401 288.711 137.029C289.707 136.45 289.589 136.35 287.884 136.334C286.682 136.322 284.875 137.052 283.321 138.178ZM292.293 136.759C292.917 136.922 293.783 136.911 294.218 136.735C294.653 136.56 294.142 136.427 293.083 136.44C292.024 136.452 291.668 136.596 292.293 136.759ZM289.493 141.2C289.087 141.69 288.349 142.091 287.854 142.091C286.711 142.091 285.523 145.144 285.972 146.93C286.159 147.677 287.042 148.621 287.933 149.027C289.286 149.643 289.553 150.204 289.553 152.425C289.553 154.865 289.46 155.012 288.429 154.203C287.812 153.719 287.094 153.034 286.835 152.681C286.54 152.28 286.36 152.33 286.353 152.816C286.348 153.243 286.797 153.965 287.353 154.421C287.907 154.876 288.918 155.753 289.599 156.371C290.279 156.988 290.836 157.205 290.836 156.852C290.836 156.499 291.137 156.211 291.505 156.211C291.873 156.211 292.76 155.664 293.476 154.997C295.403 153.202 294.928 149.748 292.601 148.638C291.116 147.931 290.836 147.395 290.836 145.264C290.836 142.353 291.151 142.202 293.202 144.128C294.018 144.895 294.687 145.238 294.687 144.888C294.687 144.539 293.685 143.365 292.46 142.281C290.61 140.643 290.107 140.46 289.493 141.2ZM287.6 144.066C287.207 144.8 287.044 145.811 287.237 146.313C287.756 147.666 289.553 147.419 289.553 145.994C289.553 145.317 289.728 144.306 289.942 143.748C290.536 142.2 288.447 142.485 287.6 144.066ZM290.836 152.36C290.836 155.32 292.467 156.003 293.14 153.324C293.649 151.294 293.087 149.792 291.819 149.792C291.1 149.792 290.836 150.482 290.836 152.36Z" fill="#A7A7A7"/>
</g>
<g opacity="0.5">
<path fill-rule="evenodd" clip-rule="evenodd" d="M283.321 328.178C279.365 331.045 278 333.73 278 338.649C278 342.249 278.258 343.165 279.917 345.455C285.27 352.846 296.002 352.503 300.874 344.786C302.702 341.889 303.599 337.105 302.56 335.786C302.211 335.342 301.748 334.238 301.532 333.332C300.897 330.661 296.589 326.766 295.488 327.867C295.283 328.072 295.453 328.24 295.866 328.24C297.144 328.24 301.105 332.921 301.105 334.433C301.105 335.221 301.347 336.015 301.642 336.198C302.723 336.866 301.114 343.177 299.329 345.265C293.785 351.753 282.8 350.242 279.892 342.592C279.122 340.566 279.106 335.839 279.863 333.897C280.605 331.993 283.985 328.24 284.957 328.24C285.367 328.24 285.702 327.96 285.702 327.618C285.702 327.276 286.118 327.156 286.625 327.351C287.134 327.546 288.072 327.401 288.711 327.029C289.707 326.45 289.589 326.35 287.884 326.334C286.682 326.322 284.875 327.052 283.321 328.178ZM292.293 326.759C292.917 326.922 293.783 326.911 294.218 326.735C294.653 326.56 294.142 326.427 293.083 326.44C292.024 326.452 291.668 326.596 292.293 326.759ZM289.493 331.2C289.087 331.69 288.349 332.091 287.854 332.091C286.711 332.091 285.523 335.144 285.972 336.93C286.159 337.677 287.042 338.621 287.933 339.027C289.286 339.643 289.553 340.204 289.553 342.425C289.553 344.865 289.46 345.012 288.429 344.203C287.812 343.719 287.094 343.034 286.835 342.681C286.54 342.28 286.36 342.33 286.353 342.816C286.348 343.243 286.797 343.965 287.353 344.421C287.907 344.876 288.918 345.753 289.599 346.371C290.279 346.988 290.836 347.205 290.836 346.852C290.836 346.499 291.137 346.211 291.505 346.211C291.873 346.211 292.76 345.664 293.476 344.997C295.403 343.202 294.928 339.748 292.601 338.638C291.116 337.931 290.836 337.395 290.836 335.264C290.836 332.353 291.151 332.202 293.202 334.128C294.018 334.895 294.687 335.238 294.687 334.888C294.687 334.539 293.685 333.365 292.46 332.281C290.61 330.643 290.107 330.46 289.493 331.2ZM287.6 334.066C287.207 334.8 287.044 335.811 287.237 336.313C287.756 337.666 289.553 337.419 289.553 335.994C289.553 335.317 289.728 334.306 289.942 333.748C290.536 332.2 288.447 332.485 287.6 334.066ZM290.836 342.36C290.836 345.32 292.467 346.003 293.14 343.324C293.649 341.294 293.087 339.792 291.819 339.792C291.1 339.792 290.836 340.482 290.836 342.36Z" fill="#A7A7A7"/>
</g>
<g opacity="0.5">
<path fill-rule="evenodd" clip-rule="evenodd" d="M97.291 74.2077C91.127 78.6737 89 82.8577 89 90.5217C89 96.1307 89.402 97.5587 91.987 101.127C100.328 112.642 117.049 112.108 124.639 100.084C127.488 95.5697 128.885 88.1157 127.267 86.0617C126.722 85.3697 126.001 83.6487 125.665 82.2377C124.675 78.0767 117.963 72.0077 116.248 73.7227C115.928 74.0427 116.193 74.3037 116.836 74.3037C118.828 74.3037 125 81.5977 125 83.9527C125 85.1807 125.376 86.4177 125.836 86.7027C127.521 87.7437 125.013 97.5777 122.233 100.831C113.595 110.939 96.479 108.585 91.948 96.6657C90.748 93.5097 90.723 86.1437 91.903 83.1187C93.059 80.1517 98.325 74.3037 99.839 74.3037C100.478 74.3037 101 73.8677 101 73.3347C101 72.8027 101.648 72.6147 102.439 72.9187C103.231 73.2227 104.693 72.9967 105.689 72.4177C107.241 71.5157 107.056 71.3597 104.4 71.3337C102.528 71.3157 99.712 72.4537 97.291 74.2077ZM111.269 71.9967C112.242 72.2507 113.592 72.2337 114.269 71.9597C114.946 71.6857 114.15 71.4787 112.5 71.4987C110.85 71.5187 110.296 71.7427 111.269 71.9967ZM106.907 78.9157C106.274 79.6787 105.124 80.3037 104.353 80.3037C102.572 80.3037 100.722 85.0607 101.421 87.8437C101.713 89.0077 103.088 90.4787 104.476 91.1107C106.584 92.0707 107 92.9447 107 96.4047C107 100.208 106.856 100.436 105.25 99.1757C104.288 98.4217 103.169 97.3537 102.765 96.8037C102.306 96.1787 102.025 96.2567 102.015 97.0147C102.007 97.6797 102.707 98.8047 103.572 99.5147C104.436 100.224 106.011 101.591 107.072 102.554C108.132 103.516 109 103.854 109 103.304C109 102.754 109.469 102.304 110.042 102.304C110.615 102.304 111.997 101.453 113.113 100.413C116.115 97.6157 115.375 92.2347 111.75 90.5057C109.436 89.4027 109 88.5687 109 85.2487C109 80.7127 109.491 80.4767 112.686 83.4777C113.958 84.6737 115 85.2067 115 84.6617C115 84.1177 113.438 82.2887 111.53 80.5997C108.648 78.0487 107.864 77.7627 106.907 78.9157ZM103.958 83.3817C103.346 84.5247 103.092 86.0997 103.392 86.8817C104.201 88.9907 107 88.6057 107 86.3857C107 85.3307 107.273 83.7557 107.607 82.8857C108.532 80.4747 105.277 80.9177 103.958 83.3817ZM109 96.3037C109 100.917 111.541 101.981 112.589 97.8057C113.382 94.6437 112.507 92.3037 110.531 92.3037C109.411 92.3037 109 93.3787 109 96.3037Z" fill="#A7A7A7"/>
</g>
<g opacity="0.5">
<path fill-rule="evenodd" clip-rule="evenodd" d="M286.551 14.8995C287.074 15.3835 289.123 16.2965 291.106 16.9295C295.885 18.4545 302.103 23.8875 304.537 28.6655C305.617 30.7855 306.929 32.8275 307.452 33.2035C307.975 33.5795 308.59 38.1615 308.818 43.3855C309.215 52.4475 309.086 53.1875 306.033 59.4545C302.715 66.2655 298.22 70.6505 290.579 74.5295C284.782 77.4725 271.235 77.3435 264.791 74.2845C258.723 71.4035 251.412 64.0675 248.724 58.1625C245.724 51.5745 245.765 39.3815 248.808 32.6815C251.796 26.1035 260.323 17.9745 266.552 15.7655C271.776 13.9135 284.872 13.3465 286.551 14.8995ZM286.281 16.5135C294.543 18.7865 300.889 24.3505 304.692 32.6575C306.935 37.5565 307.187 39.2025 306.794 46.3725C305.856 63.4535 294.956 73.9885 278.196 74.0105C261.094 74.0335 249.001 61.9475 249.001 44.8315C249.001 30.5065 258.077 19.1005 271.821 16.1525C278.237 14.7765 280.136 14.8235 286.281 16.5135ZM292.188 44.2135C292.374 50.9465 292.096 55.8435 291.501 56.3195C290.367 57.2245 266.038 56.7895 264.501 55.8365C263.948 55.4925 263.652 52.4925 263.84 49.1185L264.179 43.0205H268.09H272.001V48.5205C272.001 51.5455 272.451 54.0205 273.001 54.0205C273.564 54.0205 274.001 51.2145 274.001 47.6025C274.001 39.0535 274.498 38.0205 278.608 38.0205H282.001V46.0205C282.001 57.7715 283.88 55.8625 284.216 43.7705L284.501 33.5205L288.188 33.2135L291.874 32.9075L292.188 44.2135Z" fill="#A7A7A7"/>
</g>
<g opacity="0.5">
<path fill-rule="evenodd" clip-rule="evenodd" d="M107.275 284.182C107.455 284.349 108.161 284.664 108.844 284.882C110.49 285.407 112.631 287.278 113.47 288.924C113.842 289.654 114.294 290.357 114.474 290.487C114.654 290.616 114.866 292.194 114.944 293.994C115.081 297.115 115.037 297.37 113.985 299.528C112.842 301.874 111.294 303.384 108.662 304.72C106.666 305.734 102 305.69 99.7803 304.636C97.6903 303.644 95.1722 301.117 94.2464 299.083C93.2131 296.814 93.2272 292.615 94.2753 290.307C95.3045 288.041 98.2414 285.241 100.387 284.481C102.186 283.843 106.697 283.647 107.275 284.182ZM107.182 284.738C110.028 285.521 112.213 287.438 113.523 290.299C114.296 291.986 114.383 292.553 114.247 295.022C113.924 300.906 110.17 304.534 104.397 304.542C98.5069 304.55 94.3418 300.387 94.3418 294.492C94.3418 289.558 97.4678 285.629 102.202 284.614C104.411 284.14 105.065 284.156 107.182 284.738ZM109.216 294.279C109.281 296.598 109.185 298.285 108.98 298.448C108.589 298.76 100.21 298.61 99.6804 298.282C99.4899 298.164 99.388 297.13 99.4527 295.968L99.5695 293.868H100.917H102.264V295.762C102.264 296.804 102.419 297.657 102.608 297.657C102.802 297.657 102.952 296.69 102.952 295.446C102.952 292.502 103.124 292.146 104.539 292.146H105.708V294.901C105.708 298.949 106.355 298.291 106.471 294.126L106.569 290.596L107.839 290.49L109.108 290.385L109.216 294.279Z" fill="#A7A7A7"/>
</g>
<g opacity="0.5">
<path fill-rule="evenodd" clip-rule="evenodd" d="M170.971 33.2108C165.157 34.6148 159.038 39.1478 155.752 44.4858C154.019 47.3018 153.527 49.6448 153.502 55.1908C153.474 61.5148 153.798 62.7418 156.463 66.4218C160.862 72.4928 166.233 75.6688 173.154 76.2908C181.312 77.0238 186.7 75.2998 191.9 70.2938C205.643 57.0648 197.146 35.0688 177.56 33.1728C175.036 32.9278 172.071 32.9458 170.971 33.2108ZM171.465 36.4818C159.846 40.2188 154.119 49.0588 156.406 59.7238C157.847 66.4448 162.693 71.5728 169.926 74.0308C175.364 75.8788 175.579 75.8788 181.063 74.0148C188.046 71.6408 192.807 67.1058 194.885 60.8488C196.338 56.4738 196.345 55.5298 194.958 50.8588C191.968 40.7888 180.29 33.6428 171.465 36.4818ZM167.909 51.1358C168.793 52.4858 169.057 53.5908 168.494 53.5908C167.931 53.5908 167.471 54.2658 167.471 55.0908C167.471 56.8948 167.668 56.9138 170.924 55.4298C172.325 54.7918 173.471 53.4418 173.471 52.4298C173.471 51.4188 173.356 50.5908 173.214 50.5908C173.073 50.5908 171.46 50.1608 169.629 49.6358L166.3 48.6818L167.909 51.1358ZM178.925 50.0008C177.034 51.3838 177.033 51.4488 178.889 53.5008C181.28 56.1418 183.885 56.2818 183.218 53.7328C182.951 52.7108 183.146 51.1358 183.651 50.2328C184.838 48.1118 181.718 47.9588 178.925 50.0008ZM170.799 59.3188C163.237 60.0058 163 64.7158 170.351 68.2038C176.881 71.3028 186.471 67.6258 186.471 62.0238C186.471 58.6148 183.742 58.1438 170.799 59.3188ZM171.471 62.4908L166.971 63.0908L170.565 65.8408C174.868 69.1328 176.723 69.2598 180.567 66.5228C186.664 62.1808 183.689 60.8628 171.471 62.4908Z" fill="#A7A7A7"/>
</g>
</svg>
