<svg width="242" height="40" viewBox="0 0 242 40" fill="none" xmlns="http://www.w3.org/2000/svg">
<path d="M24.5539 16.6898C29.5726 18.239 33.7231 21.1975 33.4593 26.1455C33.3347 28.4811 32.8126 30.539 31.027 31.6183C28.8744 29.9261 26.6573 28.0175 24.2233 27.0462C20.2994 25.4804 15.9518 24.4927 11.8883 23.2382C6.86962 21.6889 2.22957 18.4147 2.83931 13.3513C3.10002 11.1863 3.3967 10.0421 5.18237 8.96287C7.33494 10.655 9.78488 11.9105 12.2187 12.8817C16.1426 14.4475 20.4905 15.4353 24.5539 16.6898Z" fill="#003357"/>
<path d="M3.02871 9.70986C4.01622 4.32743 9.48322 1.11673 15.2679 0.83085L32.0366 0.0021259C33.1118 -0.0510104 33.929 0.900646 33.6503 1.88134C31.8301 8.2875 31.5289 14.9466 23.3912 14.9466C18.536 14.9466 10.7396 14.5137 4.05695 18.2683C2.46385 16.0914 2.48613 12.6672 3.02871 9.70986Z" fill="#00D7B0"/>
<path d="M33.3418 30.2901C32.3543 35.6726 26.8873 38.8833 21.1026 39.1692L4.33387 39.9979C3.25868 40.051 2.44147 39.0994 2.72014 38.1187C4.54041 31.7125 4.84159 25.0534 12.9793 25.0534C17.8344 25.0534 25.6309 25.4863 32.3135 21.7317C33.9066 23.9086 33.8844 27.3328 33.3418 30.2901Z" fill="#00D7B0"/>
<path d="M64.8012 30.274C63.3079 30.274 61.8799 30.05 60.5172 29.602C59.1546 29.1353 58.0812 28.538 57.2972 27.81L58.3332 25.626C59.0799 26.2793 60.0319 26.8207 61.1892 27.25C62.3466 27.6793 63.5506 27.894 64.8012 27.894C65.9399 27.894 66.8639 27.7633 67.5732 27.502C68.2826 27.2407 68.8052 26.886 69.1412 26.438C69.4772 25.9713 69.6452 25.4487 69.6452 24.87C69.6452 24.198 69.4212 23.6567 68.9732 23.246C68.5439 22.8353 67.9746 22.5087 67.2652 22.266C66.5746 22.0047 65.8092 21.7807 64.9692 21.594C64.1292 21.4073 63.2799 21.1927 62.4212 20.95C61.5812 20.6887 60.8066 20.362 60.0972 19.97C59.4066 19.578 58.8466 19.0553 58.4172 18.402C57.9879 17.73 57.7732 16.8713 57.7732 15.826C57.7732 14.818 58.0346 13.894 58.5572 13.054C59.0986 12.1953 59.9199 11.514 61.0212 11.01C62.1412 10.4873 63.5599 10.226 65.2772 10.226C66.4159 10.226 67.5452 10.3753 68.6652 10.674C69.7852 10.9727 70.7559 11.402 71.5772 11.962L70.6532 14.202C69.8132 13.642 68.9266 13.2407 67.9932 12.998C67.0599 12.7367 66.1546 12.606 65.2772 12.606C64.1759 12.606 63.2706 12.746 62.5612 13.026C61.8519 13.306 61.3292 13.6793 60.9932 14.146C60.6759 14.6127 60.5172 15.1353 60.5172 15.714C60.5172 16.4047 60.7319 16.9553 61.1612 17.366C61.6092 17.7767 62.1786 18.1033 62.8692 18.346C63.5786 18.5887 64.3532 18.8127 65.1932 19.018C66.0332 19.2047 66.8732 19.4193 67.7132 19.662C68.5719 19.9047 69.3466 20.222 70.0372 20.614C70.7466 21.006 71.3159 21.5287 71.7452 22.182C72.1746 22.8353 72.3892 23.6753 72.3892 24.702C72.3892 25.6913 72.1186 26.6153 71.5772 27.474C71.0359 28.314 70.1959 28.9953 69.0572 29.518C67.9372 30.022 66.5186 30.274 64.8012 30.274Z" fill="#003357"/>
<path d="M79.2799 30.05V10.45H86.9239C88.6412 10.45 90.1065 10.7207 91.3199 11.262C92.5332 11.8033 93.4665 12.5873 94.1199 13.614C94.7732 14.6407 95.0999 15.8633 95.0999 17.282C95.0999 18.7007 94.7732 19.9233 94.1199 20.95C93.4665 21.958 92.5332 22.742 91.3199 23.302C90.1065 23.8433 88.6412 24.114 86.9239 24.114H80.8199L82.0799 22.798V30.05H79.2799ZM82.0799 23.078L80.8199 21.678H86.8399C88.6319 21.678 89.9852 21.2953 90.8999 20.53C91.8332 19.7647 92.2999 18.682 92.2999 17.282C92.2999 15.882 91.8332 14.7993 90.8999 14.034C89.9852 13.2687 88.6319 12.886 86.8399 12.886H80.8199L82.0799 11.486V23.078Z" fill="#003357"/>
<path d="M102.013 30.05V10.45H104.813V27.614H115.425V30.05H102.013Z" fill="#003357"/>
<path d="M123.986 18.906H134.066V21.286H123.986V18.906ZM124.238 27.614H135.662V30.05H121.438V10.45H135.27V12.886H124.238V27.614Z" fill="#003357"/>
<path d="M142.996 30.05V10.45H145.292L158.256 26.55H157.052V10.45H159.852V30.05H157.556L144.592 13.95H145.796V30.05H142.996Z" fill="#003357"/>
<path d="M168.519 30.05V10.45H176.779C178.87 10.45 180.708 10.8607 182.295 11.682C183.9 12.5033 185.142 13.6513 186.019 15.126C186.915 16.6007 187.363 18.3087 187.363 20.25C187.363 22.1913 186.915 23.8993 186.019 25.374C185.142 26.8487 183.9 27.9967 182.295 28.818C180.708 29.6393 178.87 30.05 176.779 30.05H168.519ZM171.319 27.614H176.611C178.235 27.614 179.635 27.306 180.811 26.69C182.006 26.074 182.93 25.2153 183.583 24.114C184.236 22.994 184.563 21.706 184.563 20.25C184.563 18.7753 184.236 17.4873 183.583 16.386C182.93 15.2847 182.006 14.426 180.811 13.81C179.635 13.194 178.235 12.886 176.611 12.886H171.319V27.614Z" fill="#003357"/>
<path d="M194.452 30.05V10.45H197.252V30.05H194.452Z" fill="#003357"/>
<path d="M208.44 19.718H218.548V22.126H208.44V19.718ZM208.72 30.05H205.92V10.45H219.752V12.886H208.72V30.05Z" fill="#003357"/>
<path d="M231.225 30.05V22.546L231.869 24.282L223.441 10.45H226.437L233.521 22.126H231.897L239.009 10.45H241.781L233.381 24.282L233.997 22.546V30.05H231.225Z" fill="#003357"/>
</svg>
