<svg width="37" height="40" viewBox="0 0 37 40" fill="none" xmlns="http://www.w3.org/2000/svg">
<path d="M24.5539 16.6898C29.5726 18.239 33.7231 21.1975 33.4593 26.1455C33.3347 28.4811 32.8126 30.539 31.027 31.6183C28.8744 29.9261 26.6573 28.0175 24.2233 27.0462C20.2994 25.4804 15.9518 24.4927 11.8883 23.2382C6.86962 21.6889 2.22957 18.4147 2.83931 13.3513C3.10002 11.1863 3.3967 10.0421 5.18237 8.96287C7.33494 10.655 9.78488 11.9105 12.2187 12.8817C16.1426 14.4475 20.4905 15.4353 24.5539 16.6898Z" fill="#003357"/>
<path d="M3.02847 9.70986C4.01598 4.32743 9.48297 1.11673 15.2676 0.83085L32.0364 0.0021259C33.1116 -0.0510104 33.9288 0.900646 33.6501 1.88134C31.8298 8.2875 31.5287 14.9466 23.391 14.9466C18.5358 14.9466 10.7393 14.5137 4.05671 18.2683C2.4636 16.0914 2.48589 12.6672 3.02847 9.70986Z" fill="#00D7B0"/>
<path d="M33.3416 30.2901C32.3541 35.6726 26.8871 38.8833 21.1025 39.1692L4.33375 39.9979C3.25856 40.051 2.44135 39.0994 2.72001 38.1187C4.54029 31.7125 4.84146 25.0534 12.9791 25.0534C17.8343 25.0534 25.6308 25.4863 32.3134 21.7317C33.9065 23.9086 33.8842 27.3328 33.3416 30.2901Z" fill="#00D7B0"/>
</svg>
