<svg width="30" height="30" viewBox="0 0 30 30" fill="none" xmlns="http://www.w3.org/2000/svg">
<g clip-path="url(#clip0_2061_2553)">
<path d="M3.43511 0H0V3.43511" stroke="black" stroke-width="0.5" stroke-linecap="round" stroke-linejoin="round"/>
<path d="M26.5649 0H30V3.43511" stroke="black" stroke-width="0.5" stroke-linecap="round" stroke-linejoin="round"/>
<path d="M3.43511 30H0V26.5649" stroke="black" stroke-width="0.5" stroke-linecap="round" stroke-linejoin="round"/>
<path d="M26.5649 30H30V26.5649" stroke="black" stroke-width="0.5" stroke-linecap="round" stroke-linejoin="round"/>
<path d="M6.64275 12.9076C6.71054 12.8705 7.32112 12.4746 7.32743 12.4312C7.40883 11.8698 7.31984 11.2789 7.39845 10.7132C7.49319 9.95356 7.76538 9.20998 8.00919 8.48626C8.03127 8.42069 8.16722 8.33025 8.18873 8.2484C10.8074 3.37045 18.9361 3.36413 21.619 8.1888C21.6483 8.24169 21.6763 8.29527 21.703 8.34948C21.8035 8.40975 21.9198 8.45824 21.944 8.58375C22.046 9.11234 22.2154 9.61182 22.3453 10.1374C22.4922 10.7315 22.4754 11.2672 22.4835 11.8784C22.4848 11.9824 22.471 12.3773 22.533 12.4941C22.7133 12.5899 23.0644 12.8379 23.2307 12.975C23.3049 13.1915 23.4429 13.4374 23.4906 13.6354C23.7557 14.7365 23.5355 16.0057 23.0604 17.0225C22.899 17.3678 22.6649 17.6288 22.4708 17.9394C22.2578 17.943 22.3091 17.9832 22.1549 18.1316C22.0981 18.1864 22.1099 18.2058 22.1023 18.2789C22.0237 18.3555 21.715 18.5227 21.7022 18.5574C21.4725 19.1782 21.4924 20.0053 21.3844 20.6465C21.3686 20.74 20.8737 21.4505 20.7836 21.599C20.7238 21.5872 20.6576 21.5642 20.6076 21.5889C20.5869 21.6639 20.5835 21.6829 20.5779 21.7604C20.3773 21.984 20.0602 22.2379 19.9166 22.4093C19.72 22.6051 19.4862 22.7991 19.3327 23.0276C19.2369 23.0229 19.3196 22.9517 19.2185 23.0339C19.0262 23.1901 18.5504 23.4807 18.4803 23.7326C18.3699 23.7464 18.3303 23.8024 18.3166 23.9123L18.1534 23.9808C18.123 23.9802 18.0855 23.9795 18.0408 23.9786C17.7168 24.1611 17.4705 24.4554 17.1794 24.674C17.061 24.7629 16.6898 24.8008 16.5669 24.9134C16.5265 24.9504 16.465 25.0348 16.4562 25.0883C15.2808 25.3174 13.4606 25.3702 12.4388 24.6253C11.9908 24.2987 11.8837 24.051 11.3224 23.8191C11.1871 23.5477 10.6024 23.1636 10.3599 22.9659C9.69412 22.4231 9.10736 21.829 8.72059 21.0539C8.66911 20.9508 8.52381 20.8186 8.49194 20.7123C8.41566 20.458 8.39696 20.1728 8.3701 19.9081C8.38963 19.7457 8.38797 19.5517 8.37798 19.3887L8.37782 19.3999C8.35966 19.2999 8.35172 19.2612 8.36 19.1598L8.36185 19.1386L8.34058 19.1193C8.27134 19.2241 8.37109 19.1564 8.26634 19.2719C8.23901 19.1327 8.22217 18.9441 8.2115 18.7934C8.20012 18.449 7.79054 18.3696 7.58468 18.1691C6.91669 17.5185 6.42676 16.4724 6.31416 15.5628C6.32876 15.4447 6.31939 15.2227 6.32304 15.0949C6.33513 14.6697 6.3225 14.273 6.29175 13.8492C6.30874 13.5619 6.50278 13.1642 6.64275 12.9076ZM7.98099 15.3022C7.9464 15.708 8.06819 15.9713 8.13667 16.3721L8.55083 18.7717C8.62519 19.2229 8.65945 19.6866 8.73598 20.1383C8.77809 20.3869 8.96358 20.3778 8.98536 20.6305C8.96013 20.6933 8.93697 20.7144 8.95548 20.7644C9.11476 21.4883 10.6316 22.8443 11.2934 23.2664C11.4139 23.3433 11.4941 23.3635 11.6311 23.3921L11.6402 23.4003C11.8164 23.5612 11.8253 23.6868 11.9292 23.7811C13.0855 24.8301 13.6233 24.8758 15.0959 24.926C15.2752 24.9579 15.9742 24.9092 16.2503 24.9185L16.2532 24.8864C16.2239 24.8428 16.222 24.8251 16.2221 24.7729C16.2943 24.7588 16.6095 24.6863 16.6774 24.6497C17.1627 24.3882 17.5758 24.076 17.9749 23.6974C18.0073 23.6666 18.047 23.5625 18.0616 23.5225C18.2204 23.4397 18.1893 23.3644 18.323 23.3438C18.3822 23.3545 18.4429 23.3383 18.4921 23.3037C19.178 22.8215 20.6894 21.5533 20.8883 20.7346L20.8891 20.6443C20.9132 20.4183 21.0205 20.4185 21.037 20.3187C21.0068 20.2859 20.9935 20.2785 20.9563 20.2532L20.9724 20.2124L21.0775 20.1962C21.1868 20.1015 21.2576 18.7942 21.3047 18.5321C21.4795 17.5604 21.6417 16.5804 21.8354 15.6123C21.8523 15.5703 21.716 15.3586 21.7539 15.3291C22.1036 15.0569 22.0326 14.8623 22.1233 14.4316L22.176 14.5217L22.2152 14.5224C22.2731 14.446 22.2262 13.9023 22.2109 13.7901L22.212 13.7774C22.2468 13.7024 22.2495 11.1497 22.2248 11.0205L22.2039 11.0235L22.1809 11.1374C22.1519 11.0956 22.1359 11.0371 22.1191 10.9879C22.0391 10.7256 22.0767 10.1538 21.9741 9.86252C21.9183 9.70432 21.8541 9.56613 21.7838 9.41531C21.6999 9.23512 21.7004 8.92882 21.5241 8.81808C21.5061 8.78824 21.5139 8.7396 21.5144 8.69874L21.4727 8.6664C21.4654 8.64605 21.4575 8.62595 21.4489 8.60611C20.5587 6.58934 18.2147 5.24179 16.0903 5.00047C15.2069 4.90012 14.3763 4.85482 13.4957 5.04627C13.2298 5.08816 12.954 5.11599 12.6946 5.19071C12.0611 5.37326 11.5161 5.67181 10.9263 5.9343C10.5481 5.90407 9.9773 6.47766 9.69759 6.71168C9.70041 6.70933 9.33661 7.01932 9.38747 6.95884C9.36311 7.04879 9.36468 7.07883 9.36445 7.17246C9.12775 7.41702 8.85077 7.81923 8.66014 8.10661C8.5755 8.23422 8.57163 8.34957 8.53824 8.48848C8.4868 8.53853 8.44386 8.58028 8.40942 8.61376C8.41358 8.78717 8.32055 8.67647 8.4043 8.76988C8.15425 8.90901 8.03632 9.39932 7.95691 9.67882C7.85177 10.0398 7.78124 10.41 7.74621 10.7843C7.68335 11.4292 7.58642 14.6149 7.83274 15.0643C7.87825 15.1473 7.94016 15.2147 7.98099 15.3022ZM22.169 17.7639C22.3169 17.6294 22.4146 17.4505 22.5226 17.2795C23.1714 16.2522 23.4616 14.9387 23.191 13.7452C23.1562 13.5918 23.0838 13.4426 23.0437 13.2936C22.8336 13.1452 22.7798 12.9159 22.5292 12.8794C22.5117 13.4195 22.5326 13.9964 22.4541 14.5307C22.3879 14.9819 22.223 15.5019 22.1235 15.9498C22.0462 16.2973 22.0065 16.6564 21.9309 17.007C21.8868 17.2115 21.6713 17.9659 21.7422 18.1116C21.8679 18.1199 22.0824 17.8594 22.169 17.7639ZM7.77001 17.888C7.81349 17.9473 8.02212 18.1021 8.09207 18.1133L8.11887 18.0906C8.04574 17.5262 7.89516 16.9082 7.78531 16.3472C7.7393 16.1122 7.72949 15.7112 7.57873 15.5363C7.526 15.4752 7.45687 15.4359 7.45727 15.3538C7.48158 15.3178 7.50587 15.2817 7.53018 15.2457C7.35151 14.7481 7.34087 14.2318 7.32311 13.7071C7.31828 13.5645 7.35185 12.9457 7.29151 12.8723C6.2707 13.2774 6.46755 15.3994 6.80281 16.1917C7.03584 16.7424 7.17792 17.2811 7.6348 17.7133C7.69077 17.7691 7.73101 17.8196 7.77001 17.888Z" fill="black" fill-opacity="0.972549"/>
<path d="M15.9304 17.5557C15.9657 17.5725 15.9641 17.5702 15.9942 17.594C16.0828 17.6644 16.1726 17.6368 16.3004 17.7022C16.3841 17.8197 16.3285 18.0602 16.207 18.1486C15.9778 18.1939 15.7833 18.0836 15.8012 17.836C15.8353 17.8101 15.8646 17.7899 15.9004 17.7665C15.9098 17.6961 15.9198 17.6258 15.9304 17.5557Z" fill="black" fill-opacity="0.968627"/>
<path d="M17.9755 21.0413C18.077 21.0213 18.2148 21.0776 18.3159 21.1101C18.3049 21.1959 18.3093 21.3085 18.31 21.397C18.2258 21.4491 18.1782 21.4825 18.1009 21.5443C18.0623 21.5373 17.8176 21.4518 17.752 21.4314C17.8116 21.1944 17.7215 21.127 17.9755 21.0413Z" fill="black" fill-opacity="0.968627"/>
<path d="M14.6575 18.9521C14.7143 18.6039 14.7356 18.6188 15.0749 18.6253C15.1492 18.7299 15.1433 18.795 15.1691 18.9217C15.0254 19.2266 14.8457 19.2455 14.6575 18.9521Z" fill="black" fill-opacity="0.968627"/>
<path d="M12.2039 16.4778C12.1576 16.5246 12.1601 16.5084 12.1485 16.5631C12.2123 16.6142 12.3164 16.7499 12.2825 16.8278C12.1555 16.725 12.1691 16.7263 12.0167 16.7531C11.5229 16.8398 11.6249 16.0102 12.1537 16.3751C12.188 16.4174 12.2031 16.4268 12.2039 16.4778Z" fill="black" fill-opacity="0.960784"/>
<path d="M14.8783 22.6981C15.0194 22.7055 15.1063 22.716 15.1521 22.8654C15.2022 23.0291 15.1146 23.1367 14.9708 23.1844C14.7459 23.163 14.5619 23.0541 14.7085 22.7734C14.7379 22.717 14.8151 22.7086 14.8783 22.6981Z" fill="black" fill-opacity="0.960784"/>
<path d="M11.656 21.0403C11.8401 21.0229 11.8678 21.0395 12.0363 21.1115C12.0106 21.2945 12.0631 21.3488 11.9434 21.4786C11.5274 21.5956 11.4339 21.2384 11.656 21.0403Z" fill="black" fill-opacity="0.968627"/>
<path d="M11.7326 6.79207C11.6748 6.78413 11.662 6.77523 11.61 6.74784C11.4706 6.56566 11.6385 6.3148 11.7616 6.34692C11.9639 6.39965 12.0444 6.55949 12.3203 6.62347C12.1495 6.66006 12.0337 6.70197 11.8769 6.77228L11.7326 6.79207Z" fill="black" fill-opacity="0.960784"/>
<path d="M20.4691 12.1848C20.8216 12.2473 20.9027 12.4672 20.5825 12.6743C20.2667 12.6788 20.1471 12.3722 20.4691 12.1848Z" fill="black" fill-opacity="0.960784"/>
<path d="M16.5839 10.8493C16.9475 10.6861 17.1463 10.9541 16.9648 11.1981C16.8608 11.2406 16.798 11.2369 16.6852 11.2395L16.5295 11.1673L16.5229 11.1319C16.6026 10.9896 16.4924 11.0143 16.5839 10.8493Z" fill="black" fill-opacity="0.964706"/>
<path d="M9.02222 12.413C9.02843 12.343 9.02575 12.289 9.07377 12.2372C9.58407 12.1039 9.60574 12.5491 9.3465 12.674C9.26592 12.6746 9.25288 12.6782 9.1793 12.6226L9.16356 12.5837L9.111 12.5817C9.03358 12.5107 9.05561 12.5266 9.02222 12.413Z" fill="black" fill-opacity="0.960784"/>
<path d="M18.0363 16.3514C18.1151 16.3041 18.2944 16.2629 18.3817 16.2932C18.479 16.4352 18.4467 16.541 18.5191 16.613C18.4706 16.6806 18.4591 16.7018 18.3902 16.7501C18.2963 16.7727 18.1842 16.7068 18.086 16.6677C18.0467 16.5439 18.0418 16.5109 18.0342 16.3809L18.0363 16.3514Z" fill="black" fill-opacity="0.964706"/>
<path d="M14.6757 14.7249C15.0626 14.7533 15.2664 14.7204 15.0856 15.1966C15.0022 15.0433 14.8316 15.0618 14.7023 15.1484C14.6674 14.9987 14.6745 14.8778 14.6757 14.7249Z" fill="black" fill-opacity="0.972549"/>
<path d="M13.1937 11.246C13.0195 11.3337 12.8081 11.1476 12.8649 10.9469C12.8813 10.8905 12.9209 10.8438 12.9738 10.8182C13.0728 10.77 13.2019 10.8088 13.3001 10.8375C13.2064 11.0269 13.3139 11.0928 13.1937 11.246Z" fill="black" fill-opacity="0.968627"/>
<path d="M13.678 17.6323C13.8438 17.6516 13.753 17.6468 13.91 17.5853C13.9195 17.6395 13.9298 17.7747 13.9406 17.8025C13.9418 17.9085 13.9315 17.9936 13.9307 18.0897C13.8698 18.1665 13.7722 18.1969 13.683 18.1451C13.6849 18.0268 13.6491 17.8917 13.6683 17.793C13.6833 17.7162 13.6801 17.7147 13.678 17.6323Z" fill="black" fill-opacity="0.964706"/>
<path d="M17.8582 6.40656C17.9537 6.3243 18.0016 6.33468 18.1172 6.35407L18.1201 6.37046C18.1581 6.58162 18.2042 6.51641 18.173 6.77767C18.1433 6.78896 18.0945 6.80571 18.0673 6.81906C18.0179 6.80356 17.9682 6.78869 17.9185 6.77442C17.8839 6.75964 17.8428 6.73721 17.8086 6.71986C17.8662 6.585 17.8687 6.55396 17.8582 6.40656Z" fill="black" fill-opacity="0.972549"/>
<path d="M11.661 12.2065C11.9938 12.1985 12.0812 12.2473 11.995 12.5828C11.6142 12.5905 11.6597 12.4813 11.661 12.2065Z" fill="black" fill-opacity="0.960784"/>
<path d="M17.7847 12.4872C17.7948 12.2057 17.8891 12.1746 18.1458 12.2287C18.1685 12.384 18.2135 12.5101 18.0336 12.5753C17.9876 12.5687 17.8171 12.5156 17.7847 12.4872Z" fill="black" fill-opacity="0.968627"/>
<path d="M18.1458 12.2286C18.5739 12.3815 18.0953 12.85 17.79 12.6182C17.7878 12.5745 17.786 12.5308 17.7847 12.4872C17.8171 12.5155 17.9876 12.5686 18.0336 12.5752C18.2135 12.51 18.1685 12.384 18.1458 12.2286Z" fill="black" fill-opacity="0.921569"/>
<path d="M11.9949 12.5827C11.7015 12.8949 11.3715 12.4394 11.661 12.2064C11.6597 12.4813 11.6142 12.5905 11.9949 12.5827Z" fill="black" fill-opacity="0.92549"/>
<path d="M13.6829 18.1451C13.3245 18.0342 13.5475 17.8037 13.6779 17.6323C13.68 17.7148 13.6832 17.7162 13.6682 17.7931C13.649 17.8917 13.6849 18.0268 13.6829 18.1451Z" fill="black" fill-opacity="0.945098"/>
<path d="M14.7024 15.1484C14.8316 15.0618 15.0022 15.0432 15.0857 15.1966C15.077 15.2152 15.0627 15.2259 15.0475 15.241C14.8981 15.2743 14.7845 15.2922 14.7024 15.1484Z" fill="black" fill-opacity="0.913725"/>
<path d="M13.3 10.8374C13.5088 10.9874 13.4064 11.1748 13.1936 11.2459C13.3139 11.0927 13.2063 11.0268 13.3 10.8374Z" fill="black" fill-opacity="0.933333"/>
<path d="M18.1169 6.354C18.3163 6.47128 18.4485 6.64856 18.1727 6.7776C18.204 6.51634 18.1579 6.58156 18.1198 6.3704L18.1169 6.354Z" fill="black" fill-opacity="0.941176"/>
<path d="M17.8583 6.40662C17.8688 6.55402 17.8663 6.58506 17.8087 6.71991C17.7081 6.6305 17.6218 6.71381 17.5068 6.62898L17.5184 6.59116C17.6026 6.55113 17.647 6.57692 17.7542 6.58674C17.8129 6.54878 17.8271 6.47977 17.8583 6.40662Z" fill="black" fill-opacity="0.858824"/>
<path d="M9.02222 12.413C9.05561 12.5266 9.03358 12.5107 9.111 12.5816L9.16356 12.5837L9.1793 12.6226L9.1282 12.632L9.10903 12.6711C9.13153 12.7368 9.14177 12.7576 9.13815 12.8294C9.08745 12.9009 9.11199 12.885 9.04346 12.9148C8.99301 12.8603 9.06064 12.7271 9.05151 12.6501C9.04212 12.5706 9.03036 12.4929 9.02222 12.413Z" fill="black" fill-opacity="0.858824"/>
<path d="M11.7327 6.79201L11.877 6.77222C11.8255 6.90942 11.9696 6.91964 11.978 7.06044L11.9561 7.09404C11.879 7.06883 11.7768 6.87382 11.7327 6.79201Z" fill="black" fill-opacity="0.772549"/>
<path d="M17.9183 6.77441C17.9681 6.78868 18.0177 6.80355 18.0671 6.81905C17.9963 6.90938 17.9652 7.00924 17.8862 7.09214C17.8631 7.01313 17.8817 6.89871 17.9358 6.83442L17.9183 6.77441Z" fill="black" fill-opacity="0.796078"/>
<path d="M16.6851 11.2396C16.7978 11.237 16.8607 11.2406 16.9646 11.1981C16.9963 11.2583 17.0397 11.2752 17.0967 11.3058L17.1199 11.3534L17.0937 11.3886C17.0102 11.3558 16.9346 11.3136 16.8536 11.2825C16.7896 11.2579 16.7595 11.2793 16.6851 11.2396Z" fill="black" fill-opacity="0.72549"/>
<path d="M16.4225 10.9188C16.4861 10.9027 16.5261 10.8789 16.5838 10.8492C16.4923 11.0142 16.6024 10.9896 16.5228 11.1319L16.5294 11.1673C16.5148 11.1612 16.3908 11.1314 16.3684 11.1258C16.3767 11.0807 16.3683 11.1019 16.4007 11.0631L16.5099 11.0564L16.5293 11.029C16.4948 10.9661 16.4932 11.0038 16.4013 10.962L16.4225 10.9188Z" fill="black" fill-opacity="0.603922"/>
<path d="M18.3818 16.2932C18.5421 16.3443 18.6396 16.4618 18.5192 16.613C18.4468 16.541 18.4791 16.4353 18.3818 16.2932Z" fill="black" fill-opacity="0.937255"/>
<path d="M16.5038 18.6824C16.6021 18.7016 16.6479 18.724 16.6899 18.8216C16.6855 18.918 16.6999 18.8824 16.6357 18.9551C16.5728 18.8922 16.5903 18.8252 16.479 18.7233L16.5038 18.6824Z" fill="black" fill-opacity="0.482353"/>
<path d="M16.9409 19.4979C17.0497 19.4983 17.0637 19.5006 17.1256 19.5896C17.1384 19.6654 17.1393 19.6751 17.111 19.7479L17.0615 19.7201C17.038 19.6242 17.0262 19.5935 16.9501 19.5473L16.9409 19.4979Z" fill="black" fill-opacity="0.584314"/>
<path d="M13.9405 17.8025C14.0177 17.8362 14.0616 17.8542 14.1421 17.8779L14.1478 17.9278C14.1051 17.9525 14.0999 17.9507 14.0494 17.9543L13.977 17.9596C13.9446 18.0077 13.943 18.0336 13.9307 18.0897C13.9314 17.9936 13.9417 17.9085 13.9405 17.8025Z" fill="black" fill-opacity="0.905882"/>
<path d="M20.9414 10.8682C21.0993 10.9063 21.0084 11.0547 20.9538 11.1471C20.9189 11.1381 20.9233 11.1365 20.8926 11.1145C20.9068 11.032 20.9231 10.9499 20.9414 10.8682Z" fill="black" fill-opacity="0.792157"/>
<path d="M15.177 6.56969C15.2913 6.56199 15.4192 6.53547 15.4646 6.65024C15.3718 6.66342 15.328 6.67223 15.2351 6.66335C15.177 6.62504 15.194 6.64852 15.177 6.56969Z" fill="black" fill-opacity="0.835294"/>
<path d="M15.2181 15.7931L15.2917 15.8291C15.3297 15.8948 15.3138 15.9931 15.3001 16.0668C15.2852 16.0653 15.254 16.0541 15.2381 16.049C15.1991 15.9772 15.2005 15.8715 15.2181 15.7931Z" fill="black" fill-opacity="0.878431"/>
<path d="M13.1799 17.4794L13.2114 17.4603C13.3724 17.4658 13.3918 17.5049 13.379 17.6463C13.2853 17.6124 13.2947 17.5471 13.1947 17.5196L13.1799 17.4794Z" fill="black" fill-opacity="0.521569"/>
<path d="M17.0352 6.56931C17.1097 6.56982 17.2485 6.55777 17.2922 6.62235L17.2665 6.66001C17.1839 6.66382 17.0554 6.68745 17.0085 6.61325L17.0352 6.56931Z" fill="black" fill-opacity="0.831373"/>
<path d="M21.0348 15.5996C21.099 15.6021 21.1195 15.5993 21.1736 15.6356L21.1663 15.6769L21.0977 15.7207C21.0049 15.7187 20.9906 15.7257 20.9346 15.6728C20.9614 15.6176 20.9673 15.6292 21.0348 15.5996Z" fill="black" fill-opacity="0.894118"/>
<path d="M17.2124 9.47545C17.2118 9.4689 17.2513 9.24982 17.2558 9.22705L17.3206 9.28916C17.2841 9.41694 17.2756 9.44767 17.2806 9.57973L17.2124 9.47545Z" fill="black" fill-opacity="0.0784314"/>
<path d="M12.7334 19.4728L12.8095 19.5013L12.8283 19.5447C12.8015 19.6139 12.7942 19.6485 12.7785 19.7202L12.7415 19.737L12.7119 19.7177C12.7088 19.6276 12.7206 19.562 12.7334 19.4728Z" fill="black" fill-opacity="0.835294"/>
<path d="M8.82701 10.8701C8.86017 10.8819 8.87791 10.8989 8.90548 10.9203C8.94392 10.9933 8.92798 11.0642 8.92004 11.1473L8.86675 11.1164C8.81687 11.0453 8.81873 10.9529 8.82701 10.8701Z" fill="black" fill-opacity="0.854902"/>
<path d="M9.45996 15.8322C9.60513 15.8182 9.70067 15.7832 9.75602 15.9231C9.63572 15.9177 9.52882 15.9377 9.45996 15.8322Z" fill="black" fill-opacity="0.87451"/>
<path d="M18.2624 18.4092C18.2698 18.4093 18.3008 18.4241 18.31 18.4281L18.3041 18.479C18.2372 18.558 18.2675 18.535 18.158 18.5605C18.1223 18.5398 18.1203 18.5314 18.0999 18.4967C18.1387 18.4385 18.184 18.4384 18.2624 18.4092Z" fill="black" fill-opacity="0.666667"/>
<path d="M8.06403 14.7758C8.09563 14.793 8.08731 14.7925 8.1065 14.8328C8.07331 14.895 7.97714 14.9314 7.90962 14.9655L7.88892 14.9711L7.89681 14.9229C7.95194 14.8438 7.98246 14.8287 8.06403 14.7758Z" fill="black" fill-opacity="0.835294"/>
<path d="M18.8865 9.90232C18.9798 9.90176 19.0021 9.90295 19.0929 9.9231L19.0978 9.95434L19.0479 9.95955C18.987 9.99272 18.9611 10.0094 18.8919 10.0265L18.8689 9.99348L18.8865 9.90232Z" fill="black" fill-opacity="0.733333"/>
<path d="M20.7278 11.7214L20.7698 11.745C20.7885 11.8291 20.7196 11.9327 20.6759 12.0042C20.6644 12.0007 20.6436 11.9861 20.6321 11.979C20.6301 11.9051 20.6936 11.7938 20.7278 11.7214Z" fill="black" fill-opacity="0.662745"/>
<path d="M16.7341 19.061C16.8264 19.0763 16.9091 19.2413 16.917 19.3314C16.7833 19.2965 16.7645 19.1837 16.7341 19.061Z" fill="black" fill-opacity="0.556863"/>
<path d="M15.5094 10.8983L15.5453 10.9243C15.58 11.0412 15.6141 11.0623 15.5815 11.1569C15.4949 11.1414 15.5156 11.158 15.4761 11.1059C15.4784 11.0302 15.4935 10.9719 15.5094 10.8983Z" fill="black" fill-opacity="0.494118"/>
<path d="M17.6035 20.6713C17.7385 20.6691 17.8004 20.7241 17.8378 20.8442C17.8009 20.8504 17.7939 20.8471 17.7576 20.8418C17.6742 20.7823 17.661 20.7578 17.6035 20.6713Z" fill="black" fill-opacity="0.721569"/>
<path d="M13.1458 13.5654C13.2521 13.5708 13.3716 13.6493 13.4148 13.747C13.2945 13.7444 13.1944 13.6716 13.1458 13.5654Z" fill="black" fill-opacity="0.701961"/>
<path d="M15.5953 16.6427C15.6809 16.6927 15.6783 16.8273 15.6603 16.9116C15.628 16.9073 15.6127 16.8953 15.5848 16.879C15.5507 16.8098 15.5795 16.7216 15.5953 16.6427Z" fill="black" fill-opacity="0.823529"/>
<path d="M15.9463 10.8928L15.9929 10.9217C16.0201 11.0319 16.0516 11.0745 16.0154 11.1661L15.9413 11.1403C15.9101 11.0741 15.9385 10.986 15.9463 10.8928Z" fill="black" fill-opacity="0.521569"/>
<path d="M14.2395 16.625C14.3253 16.7003 14.2716 16.8325 14.217 16.9146L14.1676 16.8798C14.1493 16.8164 14.2118 16.6935 14.2395 16.625Z" fill="black" fill-opacity="0.752941"/>
<path d="M20.47 19.4578C20.5218 19.4671 20.5248 19.4689 20.5716 19.4939C20.6022 19.5682 20.5782 19.5919 20.5555 19.688C20.5283 19.6931 20.5428 19.6932 20.5107 19.6728C20.4822 19.582 20.4701 19.5523 20.47 19.4578Z" fill="black" fill-opacity="0.831373"/>
<path d="M16.2888 18.2772C16.3736 18.2933 16.4544 18.4632 16.4656 18.5463C16.3319 18.5162 16.3105 18.3942 16.2888 18.2772Z" fill="black" fill-opacity="0.67451"/>
<path d="M16.3684 11.1258L16.3425 11.1036C16.3507 11.0435 16.3604 10.9835 16.3717 10.9239L16.4225 10.9188L16.4012 10.9621C16.4932 11.0038 16.4947 10.9662 16.5292 11.029L16.5098 11.0565L16.4007 11.0631C16.3682 11.1019 16.3767 11.0808 16.3684 11.1258Z" fill="black" fill-opacity="0.247059"/>
<path d="M18.2562 22.7299C18.3274 22.8134 18.3023 22.9504 18.2668 23.0439C18.1953 22.9617 18.1913 22.8169 18.2562 22.7299Z" fill="black" fill-opacity="0.772549"/>
<path d="M18.0973 21.8274C18.1347 21.8448 18.1384 21.8546 18.1623 21.8873C18.1829 21.9673 18.1554 22.0324 18.1322 22.1124C18.0442 22.0462 18.0759 21.9191 18.0973 21.8274Z" fill="black" fill-opacity="0.862745"/>
<path d="M12.4921 11.616C12.5244 11.6113 12.5608 11.6173 12.594 11.6206L12.6004 11.6514C12.5214 11.7055 12.5002 11.7131 12.4096 11.7463L12.3983 11.7685L12.3687 11.7564C12.4043 11.6646 12.404 11.6855 12.4921 11.616Z" fill="black" fill-opacity="0.658824"/>
<path d="M9.04673 11.719L9.09307 11.7378C9.15141 11.814 9.13531 11.9062 9.12552 11.9977L9.07784 11.9806C9.03557 11.9094 9.04621 11.8049 9.04673 11.719Z" fill="black" fill-opacity="0.815686"/>
<path d="M15.4032 14.5559L15.4554 14.5638L15.4697 14.6004C15.4034 14.6758 15.422 14.6539 15.3176 14.6896C15.2728 14.6671 15.2717 14.665 15.239 14.6259C15.2818 14.5731 15.3247 14.5772 15.4032 14.5559Z" fill="black" fill-opacity="0.839216"/>
<path d="M18.2429 17.402L18.3038 17.4487C18.3336 17.5168 18.3017 17.58 18.278 17.6533C18.1741 17.5795 18.1924 17.5054 18.2429 17.402Z" fill="black" fill-opacity="0.85098"/>
<path d="M18.4974 21.1153C18.5925 21.1086 18.6277 21.1058 18.7213 21.1186L18.7421 21.1478L18.713 21.1847C18.6172 21.1878 18.5605 21.1941 18.468 21.1699L18.458 21.1426L18.4974 21.1153Z" fill="black" fill-opacity="0.839216"/>
<path d="M21.7316 14.7588C21.8014 14.7759 21.7765 14.7619 21.8275 14.8102C21.8504 14.8761 21.8247 14.9401 21.8062 15.0081C21.7264 14.9455 21.7278 14.851 21.7316 14.7588Z" fill="black" fill-opacity="0.847059"/>
<path d="M8.57812 10.0188C8.63081 10.0253 8.63267 10.0281 8.67787 10.0583C8.70061 10.1548 8.68261 10.1538 8.6498 10.2631C8.57927 10.222 8.58383 10.092 8.57812 10.0188Z" fill="black" fill-opacity="0.878431"/>
<path d="M12.466 6.57665C12.5425 6.56771 12.5625 6.56368 12.6398 6.57587C12.678 6.62328 12.6698 6.59902 12.6623 6.67213C12.5866 6.66855 12.4872 6.67519 12.4399 6.61474L12.466 6.57665Z" fill="black" fill-opacity="0.807843"/>
<path d="M16.133 6.5769C16.214 6.5676 16.2831 6.54593 16.3365 6.61165L16.3298 6.67141C16.2551 6.6685 16.1539 6.67237 16.1064 6.61474L16.133 6.5769Z" fill="black" fill-opacity="0.807843"/>
<path d="M12.8227 11.2502L12.8869 11.2743L12.8963 11.3124C12.8515 11.3613 12.8102 11.401 12.7624 11.4468L12.7229 11.447L12.7188 11.4149C12.7457 11.3262 12.7576 11.3163 12.8227 11.2502Z" fill="black" fill-opacity="0.772549"/>
<path d="M15.6964 6.57156C15.7793 6.56801 15.7965 6.56691 15.8776 6.58532L15.8952 6.61987L15.8611 6.67256C15.7742 6.66589 15.7408 6.66614 15.6589 6.6345L15.6516 6.60676L15.6964 6.57156Z" fill="black" fill-opacity="0.803922"/>
<path d="M18.0944 19.7273C18.1211 19.742 18.1383 19.758 18.162 19.7771C18.1896 19.8437 18.1545 19.9229 18.1331 19.9948C18.0412 19.941 18.0757 19.8107 18.0944 19.7273Z" fill="black" fill-opacity="0.878431"/>
<path d="M20.5788 9.08438C20.6235 9.08303 20.6283 9.08643 20.6714 9.10088L20.6707 9.13384C20.6137 9.18906 20.5906 9.2167 20.5421 9.27928L20.5283 9.30171L20.5085 9.27179C20.5155 9.18034 20.5305 9.16319 20.5788 9.08438Z" fill="black" fill-opacity="0.721569"/>
<path d="M11.877 16.9722C11.9249 16.9738 11.9343 16.9808 11.9794 17C12.0064 17.0685 11.9856 17.1022 11.9709 17.1853L11.9269 17.183C11.8821 17.1307 11.8842 17.0458 11.877 16.9722Z" fill="black" fill-opacity="0.87451"/>
<path d="M8.61084 15.6078C8.71244 15.6108 8.85734 15.5949 8.87514 15.7074C8.76108 15.7005 8.63967 15.7256 8.61084 15.6078Z" fill="black" fill-opacity="0.745098"/>
<path d="M18.0884 20.1753C18.1193 20.1883 18.1327 20.2031 18.1575 20.225C18.1814 20.3013 18.1473 20.3635 18.1186 20.4398C18.0522 20.3592 18.0517 20.2681 18.0884 20.1753Z" fill="black" fill-opacity="0.87451"/>
<path d="M14.3637 16.2412C14.452 16.3206 14.4083 16.4379 14.3584 16.5268L14.3219 16.4852C14.3063 16.3917 14.3341 16.3322 14.3637 16.2412Z" fill="black" fill-opacity="0.858824"/>
<path d="M12.3645 8.58533C12.4664 8.64397 12.4614 8.71902 12.441 8.81957C12.3908 8.81313 12.3925 8.8153 12.3562 8.78121C12.3265 8.71544 12.3485 8.65669 12.3645 8.58533Z" fill="black" fill-opacity="0.866667"/>
<path d="M12.4795 23.3897C12.5562 23.3816 12.5838 23.3742 12.6571 23.3995L12.6694 23.4394L12.6356 23.4929C12.5691 23.492 12.501 23.496 12.4607 23.4415L12.4795 23.3897Z" fill="black" fill-opacity="0.831373"/>
<path d="M17.167 19.8646C17.2999 19.8761 17.348 19.966 17.3671 20.0827C17.2547 20.0553 17.2132 19.9625 17.167 19.8646Z" fill="black" fill-opacity="0.658824"/>
<path d="M14.7358 6.56772C14.8401 6.56459 14.9277 6.5429 14.9696 6.65004C14.8733 6.66771 14.8242 6.68334 14.7488 6.63463L14.7358 6.56772Z" fill="black" fill-opacity="0.831373"/>
<path d="M14.2891 6.5678C14.3931 6.56455 14.4805 6.54284 14.5217 6.65016C14.4261 6.66805 14.3768 6.68313 14.3017 6.63444L14.2891 6.5678Z" fill="black" fill-opacity="0.835294"/>
<path d="M16.5821 6.57642C16.6611 6.56694 16.7318 6.54589 16.7838 6.6116L16.7768 6.67138C16.6948 6.66836 16.6197 6.67303 16.5647 6.62117L16.5821 6.57642Z" fill="black" fill-opacity="0.823529"/>
<path d="M18.1021 19.2354C18.1286 19.2489 18.1437 19.2704 18.1636 19.2929C18.189 19.3726 18.1814 19.389 18.1606 19.4689C18.1317 19.4706 18.1165 19.4603 18.0902 19.4483C18.0567 19.3811 18.0844 19.3114 18.1021 19.2354Z" fill="black" fill-opacity="0.843137"/>
<path d="M9.96069 15.9681C10.0095 15.9658 10.0611 15.9689 10.1102 15.9706C10.1781 16.0138 10.1565 15.9887 10.1876 16.0712C10.0711 16.0665 9.98393 16.0901 9.96069 15.9681Z" fill="black" fill-opacity="0.835294"/>
<path d="M13.8423 6.56763C13.9445 6.56569 14.0303 6.55144 14.0826 6.64855C14.0028 6.66221 13.9746 6.66892 13.893 6.66384C13.8397 6.62473 13.8552 6.64794 13.8423 6.56763Z" fill="black" fill-opacity="0.827451"/>
<path d="M15.075 18.6252C15.1487 18.6335 15.122 18.6397 15.1812 18.6094L15.233 18.669L15.1859 18.6901C15.1604 18.7978 15.1858 18.847 15.1691 18.9216C15.1433 18.7949 15.1492 18.7298 15.075 18.6252Z" fill="black" fill-opacity="0.0705882"/>
<path d="M11.0723 21.1107C11.1527 21.1033 11.2589 21.0966 11.3297 21.1347L11.3388 21.1818C11.2161 21.1908 11.1345 21.223 11.0723 21.1107Z" fill="black" fill-opacity="0.862745"/>
<path d="M17.2071 23.3663C17.3183 23.3866 17.3666 23.3735 17.3759 23.4881C17.2983 23.4884 17.2798 23.4873 17.2034 23.4708L17.1785 23.4315L17.2071 23.3663Z" fill="black" fill-opacity="0.831373"/>
<path d="M20.8906 8.14844C20.9726 8.16181 21.0269 8.16029 21.0662 8.2327L21.0441 8.28515C20.9934 8.28381 20.9655 8.27732 20.9155 8.2677C20.8735 8.21625 20.886 8.23194 20.8906 8.14844Z" fill="black" fill-opacity="0.811765"/>
<path d="M21.0948 10.4398C21.1257 10.4462 21.139 10.4529 21.168 10.4642C21.1889 10.5421 21.1662 10.5649 21.1408 10.6556C21.1179 10.6565 21.1084 10.6513 21.085 10.6449C21.0509 10.5817 21.078 10.5116 21.0948 10.4398Z" fill="black" fill-opacity="0.839216"/>
<path d="M12.1613 12.7114C12.237 12.7306 12.2792 12.7452 12.3032 12.8181L12.2771 12.8646C12.2264 12.8488 12.1819 12.8322 12.1324 12.8135L12.1184 12.7735L12.1613 12.7114Z" fill="black" fill-opacity="0.819608"/>
<path d="M13.1814 18.762L13.1955 18.7223C13.2683 18.6982 13.278 18.6953 13.3556 18.703L13.3831 18.7342C13.3428 18.7912 13.3254 18.7616 13.2708 18.7813C13.2482 18.7894 13.2609 18.8893 13.2328 18.9368C13.2308 18.8765 13.227 18.8434 13.2175 18.7837L13.1814 18.762Z" fill="black" fill-opacity="0.568627"/>
<path d="M12.9152 6.57634C13.0061 6.56778 13.0493 6.55429 13.1105 6.60273L13.1076 6.67054C13.0155 6.66609 12.9645 6.67378 12.9004 6.62521L12.9152 6.57634Z" fill="black" fill-opacity="0.811765"/>
<path d="M11.3739 17.2043C11.4121 17.2418 11.4014 17.2194 11.4042 17.2749C11.3637 17.3468 11.2967 17.3769 11.2251 17.4195L11.2034 17.3703C11.2616 17.3064 11.3096 17.2624 11.3739 17.2043Z" fill="black" fill-opacity="0.67451"/>
<path d="M18.2458 17.897C18.2813 17.9133 18.2888 17.9379 18.3078 17.9729C18.3165 18.0443 18.2951 18.0785 18.2668 18.1433L18.2126 18.0959C18.191 18.0024 18.2096 18.0035 18.2458 17.897Z" fill="black" fill-opacity="0.823529"/>
<path d="M17.6608 7.71802C17.6946 7.72989 17.699 7.744 17.7185 7.77429C17.7319 7.85761 17.7167 7.88595 17.6882 7.96518L17.635 7.92931C17.6051 7.86144 17.6382 7.79238 17.6608 7.71802Z" fill="black" fill-opacity="0.858824"/>
<path d="M15.1812 18.6095C15.2391 18.5383 15.2471 18.5281 15.3337 18.4996L15.3806 18.5064C15.3785 18.5809 15.2924 18.6252 15.2329 18.6691L15.1812 18.6095Z" fill="black" fill-opacity="0.768627"/>
<path d="M13.3982 6.56846C13.5028 6.56821 13.5828 6.54945 13.6339 6.64888C13.5395 6.66451 13.4833 6.68298 13.4092 6.6347L13.3982 6.56846Z" fill="black" fill-opacity="0.827451"/>
<path d="M17.4561 8.58777C17.4818 8.60054 17.49 8.61516 17.5084 8.63762C17.5218 8.71726 17.4944 8.75387 17.4572 8.82621L17.4033 8.78052C17.3936 8.69467 17.4174 8.6793 17.4561 8.58777Z" fill="black" fill-opacity="0.843137"/>
<path d="M13.9861 17.1273C14.0283 17.1385 14.0285 17.143 14.0598 17.1719C14.0805 17.2371 14.06 17.2741 14.0375 17.3378C14.005 17.3375 13.9992 17.3313 13.9682 17.3192C13.9455 17.241 13.9659 17.2182 13.9861 17.1273Z" fill="black" fill-opacity="0.85098"/>
<path d="M15.3415 15.1501C15.4223 15.1569 15.4751 15.1577 15.5182 15.2261L15.4967 15.2825C15.3982 15.2578 15.3767 15.2701 15.3184 15.2079L15.3415 15.1501Z" fill="black" fill-opacity="0.901961"/>
<path d="M18.2261 16.9725C18.263 16.9775 18.2785 16.9862 18.312 17.0005C18.3386 17.0833 18.3189 17.088 18.2899 17.1884L18.2415 17.1626C18.2053 17.0891 18.2158 17.054 18.2261 16.9725Z" fill="black" fill-opacity="0.913725"/>
<path d="M10.3855 9.68189C10.4651 9.66679 10.4828 9.66049 10.5621 9.68182C10.626 9.75119 10.6075 9.73134 10.6285 9.83314C10.6191 9.82985 10.4133 9.69837 10.3855 9.68189Z" fill="black" fill-opacity="0.662745"/>
<path d="M8.63517 13.5302C8.6606 13.5462 8.67487 13.5619 8.69687 13.5823C8.70479 13.6759 8.69347 13.6637 8.65 13.7608C8.63638 13.7541 8.61052 13.7331 8.59711 13.723C8.57649 13.6552 8.60898 13.5965 8.63517 13.5302Z" fill="black" fill-opacity="0.839216"/>
<path d="M17.3528 16.0964C17.4247 16.0882 17.4987 16.0862 17.5619 16.1221C17.612 16.1923 17.5986 16.1653 17.6017 16.2585L17.5822 16.2544C17.519 16.1828 17.436 16.1431 17.3528 16.0964Z" fill="black" fill-opacity="0.588235"/>
<path d="M12.8201 17.2427C12.8919 17.2337 12.908 17.2338 12.9789 17.2394C13.0335 17.2958 13.0174 17.2789 13.0278 17.3714C12.9495 17.3592 12.8662 17.3076 12.8201 17.2427Z" fill="black" fill-opacity="0.835294"/>
<path d="M12.1596 23.4993C12.1959 23.5137 12.2003 23.5229 12.2253 23.5519C12.1979 23.6085 12.1794 23.6047 12.1165 23.6401C12.0662 23.6109 12.0574 23.6068 12.0232 23.5602C12.0606 23.5117 12.0882 23.5186 12.1596 23.4993Z" fill="black" fill-opacity="0.85098"/>
<path d="M21.344 9.5802L21.3884 9.62137C21.4145 9.69329 21.3783 9.75484 21.3492 9.82837C21.2533 9.77372 21.3036 9.65478 21.344 9.5802Z" fill="black" fill-opacity="0.862745"/>
<path d="M13.4082 22.1354C13.5153 22.1369 13.5591 22.1396 13.63 22.2247C13.5689 22.2531 13.5571 22.2506 13.4893 22.2456C13.4191 22.1986 13.4421 22.2248 13.4082 22.1354Z" fill="black" fill-opacity="0.866667"/>
<path d="M12.9524 10.384C12.9697 10.3949 13.0023 10.4237 13.0196 10.438C13.0404 10.5251 13.0302 10.5075 12.9972 10.6053C12.9549 10.5844 12.9515 10.5696 12.9262 10.5269C12.9161 10.4551 12.916 10.4463 12.9524 10.384Z" fill="black" fill-opacity="0.835294"/>
<path d="M13.5153 15.6008C13.5684 15.6038 13.6105 15.6118 13.6625 15.6205L13.6881 15.6569L13.6652 15.7097C13.6024 15.7162 13.5884 15.7167 13.526 15.7081L13.5012 15.6714L13.5153 15.6008Z" fill="black" fill-opacity="0.886275"/>
<path d="M9.30782 19.7502C9.3383 19.7581 9.3459 19.7644 9.37355 19.7787C9.37894 19.8575 9.35118 19.8809 9.31211 19.9632L9.26213 19.918C9.24958 19.8319 9.26233 19.8436 9.30782 19.7502Z" fill="black" fill-opacity="0.823529"/>
<path d="M17.8779 16.7557C17.9114 16.7673 17.9185 16.7783 17.9431 16.8031C17.9137 16.8612 17.8917 16.8551 17.8196 16.8882C17.7512 16.8663 17.7709 16.8825 17.7351 16.8322C17.7649 16.7847 17.8208 16.7753 17.8779 16.7557Z" fill="black" fill-opacity="0.858824"/>
<path d="M16.2761 23.1664C16.3881 23.1698 16.4739 23.1443 16.4826 23.2647C16.4209 23.2724 16.3913 23.2665 16.3312 23.2588C16.2728 23.2088 16.2857 23.2339 16.2761 23.1664Z" fill="black" fill-opacity="0.823529"/>
<path d="M19.6689 18.3822C19.7198 18.391 19.7215 18.3932 19.7647 18.4232C19.7966 18.5025 19.7865 18.4828 19.7745 18.5757L19.7161 18.5658C19.6606 18.4857 19.6776 18.4932 19.6689 18.3822Z" fill="black" fill-opacity="0.85098"/>
<path d="M18.5649 16.9023C18.6958 16.9488 18.7473 16.9449 18.7475 17.088C18.6667 17.0569 18.5674 16.9932 18.5649 16.9023Z" fill="black" fill-opacity="0.776471"/>
<path d="M12.4473 10.7079C12.5162 10.7009 12.5304 10.7012 12.5989 10.7113C12.6617 10.746 12.6691 10.7825 12.6957 10.8478C12.6199 10.8395 12.504 10.7624 12.4473 10.7079Z" fill="black" fill-opacity="0.819608"/>
<path d="M17.6544 23.4469C17.7151 23.4902 17.7724 23.4942 17.8059 23.5618L17.7783 23.6059C17.7236 23.6058 17.7137 23.6044 17.6609 23.5896C17.6278 23.5238 17.6403 23.5339 17.6544 23.4469Z" fill="black" fill-opacity="0.843137"/>
<path d="M17.0934 13.1101C17.1584 13.1149 17.1728 13.1159 17.2341 13.1372L17.2297 13.1688L17.1363 13.2381C17.1155 13.2456 17.092 13.2457 17.0693 13.2478C17.0483 13.191 17.0673 13.1808 17.0934 13.1101Z" fill="black" fill-opacity="0.835294"/>
<path d="M12.833 13.3266C12.9024 13.3216 12.9318 13.3178 13.0027 13.3287C13.048 13.3781 13.0367 13.3521 13.0342 13.4367C12.9281 13.4248 12.8821 13.4278 12.833 13.3266Z" fill="black" fill-opacity="0.839216"/>
<path d="M18.9187 12.439C19.0341 12.4183 19.1337 12.3757 19.1953 12.4857C19.1094 12.491 18.9641 12.5181 18.9187 12.439Z" fill="black" fill-opacity="0.635294"/>
<path d="M13.04 19.0803L13.0686 19.0932C13.0789 19.1461 13.0263 19.2535 13.0034 19.3104L12.9612 19.3011L12.9446 19.2477C12.9673 19.1571 12.9748 19.1477 13.04 19.0803Z" fill="black" fill-opacity="0.772549"/>
<path d="M8.94711 8.17334C8.99204 8.20183 8.97426 8.18322 8.9989 8.23408C8.96654 8.28605 8.91973 8.29426 8.85957 8.31656C8.84027 8.29983 8.8263 8.28096 8.80981 8.26125C8.83529 8.20248 8.87098 8.20557 8.94711 8.17334Z" fill="black" fill-opacity="0.901961"/>
<path d="M15.8876 22.4505C15.8637 22.5302 15.8628 22.5525 15.7904 22.5853L15.7668 22.5556C15.7614 22.4528 15.7784 22.387 15.8666 22.3353C15.8258 22.4053 15.8225 22.385 15.8369 22.4435L15.8876 22.4505Z" fill="black" fill-opacity="0.505882"/>
<path d="M17.4868 21.5298C17.5355 21.5624 17.5215 21.544 17.5442 21.5968C17.4957 21.65 17.4832 21.6406 17.4048 21.6665C17.3875 21.6482 17.3672 21.6214 17.3508 21.6013L17.3654 21.5678L17.4868 21.5298Z" fill="black" fill-opacity="0.87451"/>
<path d="M10.6734 18.0012C10.6964 17.9867 10.7256 17.9862 10.7491 18C10.7725 18.0138 10.7863 18.0395 10.7848 18.0667C10.7832 18.0939 10.7666 18.1179 10.7418 18.129C10.707 18.1444 10.6662 18.1304 10.6482 18.0969C10.6303 18.0633 10.6413 18.0216 10.6734 18.0012Z" fill="black" fill-opacity="0.839216"/>
<path d="M18.0853 22.2952C18.158 22.3317 18.141 22.3116 18.1763 22.3699C18.1625 22.4327 18.1461 22.4748 18.1241 22.5343L18.105 22.5379C18.0835 22.4301 18.0803 22.4042 18.0853 22.2952Z" fill="black" fill-opacity="0.772549"/>
<path d="M14.4304 18.507C14.498 18.5062 14.5144 18.5133 14.5772 18.5335C14.634 18.5957 14.6175 18.574 14.636 18.6628C14.5417 18.6499 14.4839 18.577 14.4304 18.507Z" fill="black" fill-opacity="0.815686"/>
<path d="M11.6086 16.885L11.6671 16.9109L11.6714 16.9466C11.6175 16.9814 11.563 17.0154 11.508 17.0485L11.4651 17.0421C11.4807 16.9797 11.5551 16.9303 11.6086 16.885Z" fill="black" fill-opacity="0.701961"/>
<path d="M8.48332 9.57898L8.54125 9.62433C8.5682 9.71493 8.55679 9.69547 8.5245 9.80094C8.42502 9.74577 8.44132 9.66475 8.48332 9.57898Z" fill="black" fill-opacity="0.823529"/>
<path d="M9.02271 15.7202C9.14322 15.7201 9.24147 15.7329 9.34428 15.7969C9.23047 15.8219 9.10017 15.8166 9.02271 15.7202Z" fill="black" fill-opacity="0.631373"/>
<path d="M12.2661 16.3456C12.3005 16.2808 12.3192 16.2281 12.3877 16.201L12.4242 16.2115C12.4262 16.2954 12.3765 16.3175 12.3119 16.3622L12.2661 16.3456Z" fill="black" fill-opacity="0.741176"/>
<path d="M10.8469 9.87622L10.9644 9.89069C11.0344 9.94559 11.0133 9.92562 11.0476 10.0152C10.9273 9.99023 10.8721 10.0003 10.8469 9.87622Z" fill="black" fill-opacity="0.87451"/>
<path d="M14.4361 15.1686C14.4893 15.1783 14.4718 15.1684 14.5121 15.2016C14.488 15.2608 14.4329 15.2846 14.3729 15.3284C14.3427 15.3319 14.3582 15.3323 14.325 15.3128C14.3404 15.2543 14.3916 15.2139 14.4361 15.1686Z" fill="black" fill-opacity="0.772549"/>
<path d="M9.08333 20.0708C9.1087 20.0866 9.11241 20.1037 9.1246 20.1312C9.10675 20.1962 9.04771 20.231 8.99218 20.2763L8.95825 20.2542C8.96416 20.194 9.0401 20.121 9.08333 20.0708Z" fill="black" fill-opacity="0.756863"/>
<path d="M13.1468 15.7938C13.1916 15.8056 13.2277 15.8229 13.2701 15.8411L13.2788 15.8757L13.2215 15.9239C13.1583 15.9167 13.1372 15.919 13.083 15.8844C13.0878 15.8321 13.0992 15.8375 13.1468 15.7938Z" fill="black" fill-opacity="0.870588"/>
<path d="M18.4648 12.4393C18.5961 12.4188 18.6646 12.3857 18.7608 12.4818C18.7403 12.484 18.7199 12.4859 18.6994 12.4876C18.5905 12.497 18.5419 12.504 18.4648 12.4393Z" fill="black" fill-opacity="0.639216"/>
<path d="M9.85477 19.0142C9.88887 19.0254 9.91524 19.0435 9.94603 19.062C9.95429 19.1346 9.94281 19.1243 9.89643 19.2018C9.86112 19.195 9.86912 19.1937 9.83799 19.1651C9.8205 19.0997 9.83348 19.0765 9.85477 19.0142Z" fill="black" fill-opacity="0.862745"/>
<path d="M15.7367 14.277C15.7462 14.2807 15.7652 14.298 15.7743 14.3055C15.7603 14.3685 15.7016 14.4035 15.6482 14.4479C15.6211 14.4451 15.6116 14.4335 15.5894 14.4167C15.6247 14.3385 15.6566 14.3353 15.7367 14.277Z" fill="black" fill-opacity="0.72549"/>
<path d="M15.0349 15.3866C15.0929 15.3921 15.1022 15.3921 15.1498 15.4248C15.1911 15.4874 15.174 15.5546 15.1662 15.6311C15.1294 15.6084 15.0728 15.4544 15.0349 15.3866Z" fill="black" fill-opacity="0.635294"/>
<path d="M13.5074 18.2584L13.5322 18.2889C13.5243 18.3794 13.4893 18.4542 13.4558 18.5382C13.3792 18.4601 13.4553 18.3311 13.5074 18.2584Z" fill="black" fill-opacity="0.768627"/>
<path d="M10.8315 16.1913C10.9145 16.1843 10.9706 16.1727 11.0317 16.2289L11.0271 16.2897C10.9532 16.2796 10.8799 16.2787 10.824 16.2323L10.8315 16.1913Z" fill="black" fill-opacity="0.847059"/>
<path d="M19.3503 18.0417C19.427 18.0395 19.4359 18.0428 19.5046 18.0738C19.5477 18.1416 19.5385 18.11 19.5348 18.1954C19.4428 18.1553 19.3905 18.1252 19.3503 18.0417Z" fill="black" fill-opacity="0.807843"/>
<path d="M12.1302 7.76001C12.162 7.76459 12.1782 7.77862 12.2052 7.79604C12.2395 7.85772 12.2279 7.88948 12.2168 7.95784C12.1982 7.95256 12.1607 7.9347 12.1413 7.92617C12.1042 7.84987 12.1185 7.85866 12.1302 7.76001Z" fill="black" fill-opacity="0.819608"/>
<path d="M11.7087 21.7419C11.7327 21.7542 11.7461 21.769 11.7666 21.787C11.7938 21.8549 11.7643 21.912 11.7404 21.9827C11.7306 21.9741 11.7031 21.9356 11.6935 21.9228C11.6737 21.84 11.6832 21.8223 11.7087 21.7419Z" fill="black" fill-opacity="0.796078"/>
<path d="M11.3248 6.78406C11.3544 6.79367 11.3841 6.80812 11.4128 6.8208L11.4105 6.84958L11.3247 6.9084C11.2629 6.90169 11.2551 6.90467 11.2119 6.86472C11.2423 6.80226 11.2428 6.81839 11.3248 6.78406Z" fill="black" fill-opacity="0.839216"/>
<path d="M14.1172 18.2208C14.2144 18.2278 14.2385 18.2192 14.2931 18.2748L14.2815 18.3511C14.1631 18.33 14.1471 18.3379 14.1172 18.2208Z" fill="black" fill-opacity="0.878431"/>
<path d="M19.1846 16.1894C19.2605 16.181 19.3233 16.1629 19.3846 16.2006L19.391 16.2572C19.2915 16.2704 19.2886 16.2861 19.2072 16.2536L19.1846 16.1894Z" fill="black" fill-opacity="0.854902"/>
<path d="M12.0782 20.668C12.1411 20.6807 12.1426 20.6698 12.1773 20.7076C12.1416 20.748 12.1068 20.789 12.0727 20.8308L12.0604 20.8512L12.032 20.8289C12.0308 20.7225 12.0234 20.7611 12.0782 20.668Z" fill="black" fill-opacity="0.705882"/>
<path d="M15.8018 23.0763C15.8801 23.0805 15.9062 23.0774 15.9748 23.1162C16.0009 23.1766 15.9989 23.1488 15.9683 23.2267C15.8849 23.1325 15.8742 23.1721 15.7705 23.1078L15.8018 23.0763Z" fill="black" fill-opacity="0.709804"/>
<path d="M18.8044 7.03655C18.9548 7.02372 18.9617 7.05044 19.0732 7.15271C19.0477 7.15113 19.0222 7.14909 18.9968 7.14663C18.8818 7.13514 18.8674 7.11478 18.8044 7.03655Z" fill="black" fill-opacity="0.87451"/>
<path d="M15.7788 15.3577C15.8628 15.3645 15.9064 15.3676 15.9551 15.423L15.9436 15.4744C15.8521 15.462 15.8101 15.4686 15.7612 15.4118L15.7788 15.3577Z" fill="black" fill-opacity="0.870588"/>
<path d="M17.4074 20.3041C17.4752 20.3009 17.4951 20.2967 17.5586 20.327C17.5923 20.3972 17.5807 20.3843 17.5723 20.4719C17.5171 20.4018 17.4781 20.3813 17.4028 20.3413L17.4074 20.3041Z" fill="black" fill-opacity="0.733333"/>
<path d="M10.195 18.6567C10.2202 18.6792 10.2153 18.6785 10.2303 18.7114C10.2068 18.7561 10.1598 18.8531 10.1317 18.8867L10.1269 18.8813C10.1401 18.8151 10.0905 18.8081 10.1161 18.7027L10.195 18.6567Z" fill="black" fill-opacity="0.839216"/>
<path d="M12.5955 19.8677L12.6185 19.8933C12.6165 19.9631 12.5731 20.0397 12.5424 20.1055C12.5114 20.0836 12.509 20.0565 12.4978 20.019C12.5104 19.941 12.5387 19.9231 12.5955 19.8677Z" fill="black" fill-opacity="0.85098"/>
<path d="M18.4211 6.79041C18.4509 6.79246 18.4985 6.8013 18.5296 6.80613C18.599 6.8655 18.5784 6.84088 18.6054 6.93535C18.4795 6.90346 18.4467 6.91763 18.4211 6.79041Z" fill="black" fill-opacity="0.858824"/>
<path d="M9.21704 9.07483L9.33461 9.08006C9.40152 9.12126 9.38101 9.1039 9.4121 9.18933C9.29158 9.17931 9.23699 9.19844 9.21704 9.07483Z" fill="black" fill-opacity="0.858824"/>
<path d="M13.9058 14.1423C13.9396 14.1515 13.978 14.1688 14.0112 14.1823C14.0644 14.2591 14.0497 14.2314 14.0543 14.3323L14.0067 14.3267C13.9496 14.2895 13.9303 14.2088 13.9058 14.1423Z" fill="black" fill-opacity="0.847059"/>
<path d="M19.8469 12.4369C19.9653 12.4151 20.0449 12.3877 20.1227 12.4868C20.0223 12.4937 19.9163 12.5177 19.8469 12.4369Z" fill="black" fill-opacity="0.729412"/>
<path d="M17.38 16.9862C17.4408 16.9847 17.456 16.9865 17.5157 16.9984L17.5348 17.032L17.5079 17.1058C17.4593 17.1032 17.4359 17.0969 17.3882 17.0861L17.3645 17.0463L17.38 16.9862Z" fill="black" fill-opacity="0.878431"/>
<path d="M8.26675 14.3391L8.30633 14.3853C8.2843 14.4674 8.24156 14.4858 8.17145 14.5525L8.15112 14.5179C8.1621 14.4466 8.21754 14.3969 8.26675 14.3391Z" fill="black" fill-opacity="0.701961"/>
<path d="M21.4246 15.4902C21.4902 15.4873 21.5117 15.4867 21.5772 15.4951L21.5985 15.5242L21.5783 15.5861C21.5248 15.5826 21.4714 15.5781 21.4182 15.5725L21.3962 15.5392L21.4246 15.4902Z" fill="black" fill-opacity="0.741176"/>
<path d="M10.6167 21.0218C10.7264 21.0015 10.8445 21.0074 10.9276 21.0856C10.7943 21.0973 10.7289 21.0947 10.6167 21.0218Z" fill="black" fill-opacity="0.65098"/>
<path d="M20.6609 12.7592L20.7512 12.7814C20.8102 12.8496 20.793 12.8296 20.8062 12.9308C20.6984 12.8863 20.6647 12.8802 20.6609 12.7592Z" fill="black" fill-opacity="0.823529"/>
<path d="M14.523 15.8346C14.5496 15.8835 14.5747 15.9309 14.6046 15.9779L14.5844 16.0277C14.5304 16.0661 14.5561 16.057 14.4829 16.0563C14.4683 15.9489 14.5312 16.0243 14.523 15.8346Z" fill="black" fill-opacity="0.611765"/>
<path d="M12.5037 16.925C12.6094 16.9633 12.6203 16.9478 12.6778 17.0233L12.6634 17.0956C12.5915 17.0755 12.514 17.0008 12.5037 16.925Z" fill="black" fill-opacity="0.827451"/>
<path d="M13.4366 23.1609C13.4901 23.1666 13.5444 23.1763 13.5975 23.185L13.6123 23.2114L13.5588 23.2536C13.4949 23.2718 13.48 23.28 13.4201 23.2544C13.4051 23.2034 13.4078 23.2224 13.4366 23.1609Z" fill="black" fill-opacity="0.780392"/>
<path d="M12.1729 11.923C12.2092 11.9164 12.2444 11.939 12.2535 11.9748C12.2626 12.0106 12.2425 12.0473 12.2075 12.0588C12.1825 12.067 12.1551 12.0607 12.1363 12.0423C12.1176 12.0239 12.1106 11.9966 12.1183 11.9716C12.126 11.9464 12.1471 11.9277 12.1729 11.923Z" fill="black" fill-opacity="0.886275"/>
<path d="M12.6172 21.6744C12.6816 21.7003 12.769 21.8089 12.8208 21.8652C12.6831 21.8502 12.6175 21.8179 12.6172 21.6744Z" fill="black" fill-opacity="0.792157"/>
<path d="M15.5743 18.2117C15.6265 18.2231 15.6432 18.2311 15.692 18.2535C15.7052 18.3115 15.7002 18.2939 15.6619 18.3628C15.6162 18.3568 15.605 18.3465 15.5641 18.3229C15.5437 18.2598 15.5449 18.2872 15.5743 18.2117Z" fill="black" fill-opacity="0.890196"/>
<path d="M21.0662 13.5393L21.142 13.5582C21.2012 13.6071 21.2019 13.6441 21.2176 13.7179C21.098 13.668 21.0678 13.671 21.0662 13.5393Z" fill="black" fill-opacity="0.878431"/>
<path d="M12.0874 10.4817C12.1292 10.4822 12.1576 10.4911 12.1977 10.5007C12.2538 10.5441 12.2565 10.5788 12.2745 10.6459C12.1697 10.6036 12.127 10.5915 12.0874 10.4817Z" fill="black" fill-opacity="0.764706"/>
<path d="M12.5085 9.04456L12.5711 9.086C12.6151 9.149 12.604 9.19254 12.5982 9.26996C12.4973 9.18207 12.4855 9.17474 12.5085 9.04456Z" fill="black" fill-opacity="0.843137"/>
<path d="M8.78491 8.85079C8.85339 8.84795 8.86641 8.8502 8.93336 8.86555C8.97747 8.92007 8.96637 8.89292 8.96248 8.98059C8.95188 8.97705 8.94133 8.97334 8.93082 8.96947C8.84219 8.93682 8.81971 8.92669 8.78491 8.85079Z" fill="black" fill-opacity="0.835294"/>
<path d="M14.1836 22.61C14.3221 22.6021 14.3643 22.595 14.4679 22.6868C14.3446 22.6929 14.2758 22.7057 14.1836 22.61Z" fill="black" fill-opacity="0.772549"/>
<path d="M13.9187 15.3801C14.0196 15.3829 14.0287 15.3662 14.0967 15.4152L14.0874 15.4645C14.0462 15.4727 14.0013 15.4787 13.9595 15.4851L13.9238 15.4573L13.9187 15.3801Z" fill="black" fill-opacity="0.862745"/>
<path d="M12.1602 21.4639C12.3057 21.472 12.3247 21.4855 12.3822 21.6212C12.2839 21.6188 12.2247 21.5322 12.1602 21.4639Z" fill="black" fill-opacity="0.698039"/>
<path d="M16.669 17.4449L16.7427 17.4628C16.7496 17.5279 16.7144 17.5463 16.664 17.6134C16.6374 17.6098 16.6339 17.6032 16.6086 17.5875C16.6101 17.5149 16.6247 17.5166 16.669 17.4449Z" fill="black" fill-opacity="0.796078"/>
<path d="M17.2556 9.22711C17.2883 9.13361 17.2761 9.12272 17.3409 9.06506C17.3984 9.12978 17.3486 9.21627 17.3204 9.28922L17.2556 9.22711Z" fill="black" fill-opacity="0.768627"/>
<path d="M13.5156 13.9308C13.663 13.9126 13.6682 13.9006 13.7627 14.0109C13.6426 14.0189 13.5986 14.0304 13.5156 13.9308Z" fill="black" fill-opacity="0.819608"/>
<path d="M11.2581 10.109C11.3053 10.1039 11.3549 10.1042 11.4026 10.1033C11.4644 10.1405 11.4453 10.1179 11.471 10.1924C11.3769 10.1921 11.2881 10.2087 11.2581 10.109Z" fill="black" fill-opacity="0.854902"/>
<path d="M19.4179 9.67822L19.4316 9.70099C19.4116 9.77072 19.3519 9.81008 19.2949 9.86067C19.2736 9.84005 19.2723 9.82757 19.26 9.79917C19.3058 9.72302 19.3289 9.72856 19.4179 9.67822Z" fill="black" fill-opacity="0.709804"/>
<path d="M17.1247 9.87256L17.1364 10.014C17.0953 10.0875 17.1148 10.0647 17.0245 10.0998C17.005 10.016 17.0779 9.94356 17.1247 9.87256Z" fill="black" fill-opacity="0.788235"/>
<path d="M16.3108 22.1603C16.3271 22.1817 16.3211 22.1968 16.322 22.2304C16.2803 22.3018 16.2598 22.3089 16.1887 22.3496L16.1558 22.3158C16.1655 22.2639 16.2493 22.221 16.3108 22.1603Z" fill="black" fill-opacity="0.690196"/>
<path d="M13.5776 11.0736C13.6889 11.0561 13.7688 11.0169 13.8204 11.1242C13.722 11.1355 13.6202 11.1717 13.5776 11.0736Z" fill="black" fill-opacity="0.501961"/>
<path d="M11.8326 20.1768L11.8751 20.2224C11.8911 20.3148 11.8747 20.3497 11.8469 20.4403C11.7846 20.3433 11.7855 20.2786 11.8326 20.1768Z" fill="black" fill-opacity="0.819608"/>
<path d="M18.0341 16.381C17.9479 16.3878 17.8998 16.4063 17.8474 16.3303L17.8795 16.3034C17.9441 16.2907 17.9793 16.3194 18.0363 16.3515L18.0341 16.381Z" fill="black" fill-opacity="0.827451"/>
<path d="M14.0273 11.0753C14.1415 11.0579 14.209 11.0226 14.2675 11.1262C14.1881 11.1349 14.1182 11.1499 14.0436 11.1228L14.0273 11.0753Z" fill="black" fill-opacity="0.462745"/>
<path d="M18.4397 10.1084C18.5104 10.1027 18.5639 10.0887 18.6206 10.1253L18.6303 10.1801C18.5307 10.1931 18.526 10.2109 18.4528 10.1726L18.4397 10.1084Z" fill="black" fill-opacity="0.839216"/>
<path d="M17.3038 10.6974C17.3549 10.704 17.3566 10.7044 17.4005 10.7323C17.3756 10.7897 17.3491 10.7874 17.2817 10.8233C17.2515 10.8412 17.2533 10.8368 17.2166 10.8423C17.2229 10.7836 17.2646 10.7455 17.3038 10.6974Z" fill="black" fill-opacity="0.729412"/>
<path d="M20.2219 19.1086C20.3434 19.1439 20.334 19.1697 20.3538 19.2787L20.2992 19.2866C20.2331 19.225 20.2482 19.2127 20.2219 19.1086Z" fill="black" fill-opacity="0.666667"/>
<path d="M10.4405 7.23792C10.4925 7.23885 10.5304 7.24384 10.5815 7.25051L10.5986 7.28949L10.566 7.35694C10.492 7.3549 10.4654 7.33712 10.4255 7.28414L10.4405 7.23792Z" fill="black" fill-opacity="0.847059"/>
<path d="M11.8733 17.4268L11.9584 17.4479C11.9996 17.5107 11.9833 17.5033 11.9662 17.6009C11.9474 17.5976 11.9178 17.5868 11.8985 17.5805C11.8597 17.5308 11.8696 17.4893 11.8733 17.4268Z" fill="black" fill-opacity="0.882353"/>
<path d="M17.0205 15.9596C17.1263 15.9611 17.1693 15.9598 17.235 16.053C17.1783 16.0568 17.1349 16.0546 17.0786 16.0525C17.0206 16.0134 17.0374 16.037 17.0205 15.9596Z" fill="black" fill-opacity="0.768627"/>
<path d="M19.2136 7.2422C19.3261 7.23921 19.3792 7.21738 19.4255 7.32509C19.3771 7.33083 19.3317 7.32842 19.283 7.32757C19.2206 7.28807 19.2389 7.31084 19.2136 7.2422Z" fill="black" fill-opacity="0.839216"/>
<path d="M10.8662 7.00232C10.9018 7.00842 10.9352 7.01849 10.97 7.02793C10.998 7.08571 10.9914 7.06304 10.9677 7.14239C10.9249 7.13823 10.8943 7.12993 10.8525 7.11986C10.8317 7.06789 10.845 7.0663 10.8662 7.00232Z" fill="black" fill-opacity="0.878431"/>
<path d="M11.0431 17.5651C11.1152 17.6392 11.0494 17.7316 10.9924 17.7906L10.9599 17.7449C10.9541 17.6787 11.0045 17.6219 11.0431 17.5651Z" fill="black" fill-opacity="0.760784"/>
<path d="M10.4788 18.2723L10.5223 18.3028C10.5439 18.3685 10.5097 18.4309 10.4842 18.4967L10.436 18.4515C10.4195 18.3853 10.4508 18.3346 10.4788 18.2723Z" fill="black" fill-opacity="0.745098"/>
<path d="M16.9817 10.3971C16.9854 10.4031 16.9914 10.4388 16.9933 10.4485C16.9648 10.5117 16.9207 10.5288 16.8608 10.5623L16.832 10.5029C16.8697 10.4326 16.8936 10.4402 16.9817 10.3971Z" fill="black" fill-opacity="0.847059"/>
<path d="M14.328 23.0507C14.3873 23.0543 14.4003 23.0594 14.4567 23.0791L14.4598 23.1063L14.3945 23.1502L14.2457 23.1211L14.2356 23.0968L14.328 23.0507Z" fill="black" fill-opacity="0.733333"/>
<path d="M14.7021 15.3656L14.7437 15.394C14.7721 15.4627 14.7383 15.538 14.7168 15.6131L14.6983 15.6171L14.6762 15.5939C14.665 15.5099 14.6841 15.4482 14.7021 15.3656Z" fill="black" fill-opacity="0.803922"/>
<path d="M9.72893 7.69482L9.76902 7.71831C9.77276 7.7975 9.7455 7.80629 9.69097 7.88796C9.66056 7.87685 9.66568 7.87331 9.64258 7.84319C9.64437 7.77569 9.68344 7.74427 9.72893 7.69482Z" fill="black" fill-opacity="0.811765"/>
<path d="M17.0682 17.1997C17.1083 17.2112 17.1132 17.2178 17.1446 17.2435C17.1319 17.3102 17.1136 17.3082 17.0557 17.3634L16.9985 17.3401C16.9993 17.2669 17.0147 17.2718 17.0682 17.1997Z" fill="black" fill-opacity="0.827451"/>
<path d="M10.6323 12.4368C10.7356 12.4197 10.8211 12.397 10.9065 12.4732C10.7786 12.4983 10.7361 12.5203 10.6323 12.4368Z" fill="black" fill-opacity="0.709804"/>
<path d="M11.6146 22.6617C11.6341 22.6776 11.6433 22.6942 11.6582 22.7149C11.6667 22.7862 11.6446 22.8169 11.6133 22.8801C11.587 22.8534 11.5848 22.8391 11.5684 22.8044C11.5739 22.7065 11.5616 22.7441 11.6146 22.6617Z" fill="black" fill-opacity="0.756863"/>
<path d="M19.9596 20.8068C20.0071 20.8412 19.9927 20.8219 20.0093 20.8814C19.9764 20.9418 19.9469 20.9475 19.8847 20.9731L19.8628 20.9464C19.8794 20.8672 19.8931 20.8751 19.9596 20.8068Z" fill="black" fill-opacity="0.772549"/>
<path d="M18.0477 20.6444L18.1362 20.6698L18.158 20.7099L18.1269 20.8046C18.1019 20.8087 18.0864 20.8055 18.0611 20.8035C18.0249 20.7363 18.0398 20.7349 18.0477 20.6444Z" fill="black" fill-opacity="0.878431"/>
<path d="M11.8046 20.6394L11.8569 20.6742C11.8846 20.7644 11.8701 20.758 11.8483 20.8627L11.8077 20.845C11.774 20.7799 11.7935 20.7136 11.8046 20.6394Z" fill="black" fill-opacity="0.886275"/>
<path d="M11.8627 17.9681C11.8949 17.9574 11.9299 17.9727 11.9441 18.0035C11.9582 18.0343 11.9469 18.0709 11.9178 18.0883C11.8959 18.1014 11.8685 18.1008 11.8472 18.0869C11.8258 18.0729 11.8144 18.0479 11.8177 18.0226C11.821 17.9973 11.8385 17.9762 11.8627 17.9681Z" fill="black" fill-opacity="0.843137"/>
<path d="M11.8409 19.7341L11.8692 19.7613C11.8993 19.8311 11.8774 19.8986 11.8631 19.9747C11.7731 19.92 11.8111 19.8125 11.8409 19.7341Z" fill="black" fill-opacity="0.803922"/>
<path d="M10.063 9.49011C10.1581 9.5184 10.2067 9.53204 10.248 9.6262C10.145 9.60694 10.1405 9.62197 10.0693 9.56342L10.063 9.49011Z" fill="black" fill-opacity="0.764706"/>
<path d="M19.4408 20.9023C19.4904 20.9004 19.5275 20.9028 19.5767 20.9059L19.5992 20.9354L19.585 21.0014C19.4976 20.9981 19.4918 21.012 19.4304 20.9702L19.4408 20.9023Z" fill="black" fill-opacity="0.854902"/>
<path d="M21.2369 10.0007L21.2698 10.0307C21.2934 10.104 21.2656 10.1699 21.2446 10.2454L21.208 10.2098C21.1842 10.1415 21.2154 10.0727 21.2369 10.0007Z" fill="black" fill-opacity="0.811765"/>
<path d="M20.8533 13.1622C20.9415 13.2033 20.9977 13.221 21.056 13.2978C21.01 13.3023 20.9735 13.2969 20.9281 13.2926C20.8624 13.2336 20.8818 13.2535 20.8533 13.1622Z" fill="black" fill-opacity="0.741176"/>
<path d="M16.1919 15.5188C16.3343 15.5605 16.3289 15.5628 16.3679 15.7001C16.2685 15.6801 16.2349 15.6004 16.1919 15.5188Z" fill="black" fill-opacity="0.694118"/>
<path d="M12.282 20.2629L12.334 20.2963C12.3566 20.3702 12.3361 20.3843 12.3106 20.473L12.2686 20.465C12.2461 20.3979 12.2674 20.3334 12.282 20.2629Z" fill="black" fill-opacity="0.858824"/>
<path d="M16.7178 23.2779C16.8331 23.2686 16.8531 23.2717 16.9306 23.3566L16.8107 23.3725C16.7372 23.3418 16.7608 23.3579 16.7178 23.2779Z" fill="black" fill-opacity="0.807843"/>
<path d="M21.4684 9.21344C21.4855 9.19423 21.5121 9.1866 21.5368 9.19387C21.5614 9.20112 21.5797 9.22198 21.5836 9.24739C21.5875 9.27277 21.5764 9.29818 21.5551 9.31254C21.5274 9.33123 21.4901 9.32638 21.4681 9.30122C21.4461 9.27606 21.4462 9.23844 21.4684 9.21344Z" fill="black" fill-opacity="0.827451"/>
<path d="M17.5733 8.1488C17.5821 8.15692 17.6003 8.18799 17.6079 8.19995C17.6132 8.29283 17.6041 8.30929 17.5701 8.39631L17.5353 8.35303C17.5137 8.28115 17.5465 8.2207 17.5733 8.1488Z" fill="black" fill-opacity="0.835294"/>
<path d="M20.431 20.6766C20.4464 20.6843 20.4491 20.6944 20.4609 20.7117C20.454 20.7794 20.4227 20.8105 20.3821 20.866L20.3296 20.8174C20.3384 20.7475 20.371 20.7373 20.431 20.6766Z" fill="black" fill-opacity="0.752941"/>
<path d="M11.0793 12.4365C11.2012 12.4143 11.2442 12.3983 11.3396 12.4829C11.327 12.4845 11.3143 12.4859 11.3017 12.4873C11.1861 12.4996 11.1634 12.5041 11.0793 12.4365Z" fill="black" fill-opacity="0.741176"/>
<path d="M19.9409 18.8677C19.9219 18.772 19.9081 18.7776 19.9359 18.6975C20.0342 18.741 19.9914 18.7645 20.0362 18.844L19.9409 18.8677Z" fill="black" fill-opacity="0.643137"/>
<path d="M11.8467 18.3478L11.8817 18.3876C11.9055 18.4685 11.8922 18.503 11.8737 18.5852L11.8292 18.5501C11.8002 18.4746 11.8235 18.4262 11.8467 18.3478Z" fill="black" fill-opacity="0.807843"/>
<path d="M20.0496 7.68726C20.1719 7.69515 20.1835 7.71438 20.255 7.79809C20.1138 7.80261 20.1089 7.81001 20.0496 7.68726Z" fill="black" fill-opacity="0.823529"/>
<path d="M11.3212 16.2856C11.3887 16.3104 11.4303 16.3174 11.4563 16.3828L11.4261 16.4227C11.3529 16.3935 11.3241 16.3976 11.2891 16.3418L11.3212 16.2856Z" fill="black" fill-opacity="0.815686"/>
<path d="M10.3655 16.1015C10.5043 16.0837 10.5384 16.0749 10.6497 16.1576C10.5176 16.1759 10.4783 16.169 10.3655 16.1015Z" fill="black" fill-opacity="0.67451"/>
<path d="M11.8429 18.7933L11.8748 18.8262C11.8979 18.9156 11.8858 18.9436 11.8618 19.034L11.8206 18.9888C11.7997 18.9092 11.8182 18.872 11.8429 18.7933Z" fill="black" fill-opacity="0.819608"/>
<path d="M17.7325 10.4949L17.7559 10.5178C17.7586 10.5849 17.7141 10.6294 17.6726 10.6877C17.653 10.661 17.6452 10.6336 17.6335 10.6026C17.6615 10.5286 17.6578 10.5479 17.7325 10.4949Z" fill="black" fill-opacity="0.839216"/>
<path d="M15.4497 22.6071L15.5035 22.6359C15.501 22.7005 15.4659 22.7126 15.4083 22.7713L15.3894 22.7705L15.3616 22.736C15.3738 22.6741 15.4048 22.6528 15.4497 22.6071Z" fill="black" fill-opacity="0.788235"/>
<path d="M8.8725 13.1793C8.90688 13.1812 8.93385 13.2095 8.93412 13.2439C8.93436 13.2783 8.90784 13.307 8.87349 13.3094C8.84929 13.3111 8.82612 13.2993 8.8134 13.2786C8.80067 13.2579 8.80047 13.2319 8.81288 13.211C8.82529 13.1902 8.84826 13.178 8.8725 13.1793Z" fill="black" fill-opacity="0.843137"/>
<path d="M8.71097 10.4491L8.77987 10.4899C8.80376 10.5717 8.7937 10.5539 8.76447 10.6487C8.68881 10.5682 8.67859 10.5558 8.71097 10.4491Z" fill="black" fill-opacity="0.792157"/>
<path d="M10.2007 12.434C10.3107 12.4163 10.3659 12.3905 10.436 12.4846C10.329 12.4962 10.2762 12.5161 10.2007 12.434Z" fill="black" fill-opacity="0.768627"/>
<path d="M8.95692 11.3422L8.997 11.3659C9.03904 11.4311 9.02359 11.5054 9.01827 11.5851L8.98828 11.5632C8.94228 11.4995 8.95498 11.4233 8.95692 11.3422Z" fill="black" fill-opacity="0.768627"/>
<path d="M11.843 19.2426L11.8745 19.2826C11.8903 19.3732 11.8825 19.3896 11.8551 19.4778C11.8372 19.4614 11.8231 19.4363 11.8091 19.4154C11.7961 19.3452 11.8175 19.308 11.843 19.2426Z" fill="black" fill-opacity="0.835294"/>
<path d="M9.82153 20.8016C9.93425 20.8357 9.94355 20.8417 9.95851 20.9581L9.86657 20.9337C9.81715 20.873 9.83162 20.8893 9.82153 20.8016Z" fill="black" fill-opacity="0.843137"/>
<path d="M19.3921 12.4379C19.5104 12.415 19.5501 12.3935 19.6482 12.4696C19.5306 12.5019 19.4952 12.5067 19.3921 12.4379Z" fill="black" fill-opacity="0.709804"/>
<path d="M12.6023 9.53418C12.7032 9.54143 12.7402 9.59836 12.7865 9.67742C12.7607 9.6768 12.7206 9.66964 12.6938 9.66588C12.6314 9.62487 12.6276 9.60199 12.6023 9.53418Z" fill="black" fill-opacity="0.764706"/>
<path d="M20.1095 9.34174C20.1745 9.33481 20.2052 9.33835 20.2686 9.34362L20.2833 9.36957L20.2417 9.40251L20.1252 9.44035L20.0979 9.42118L20.1095 9.34174Z" fill="black" fill-opacity="0.690196"/>
<path d="M13.9033 23.0765L13.9521 23.0992C13.9692 23.1612 13.9401 23.1927 13.9108 23.2652L13.8662 23.2349C13.8436 23.1601 13.8594 23.1689 13.9033 23.0765Z" fill="black" fill-opacity="0.823529"/>
<path d="M16.6238 21.959L16.6977 21.9747L16.7117 22.0185L16.6599 22.1151L16.5908 22.0853C16.5736 22.0265 16.5891 22.0271 16.6238 21.959Z" fill="black" fill-opacity="0.780392"/>
<path d="M20.448 7.93716C20.5408 7.92849 20.6028 7.93506 20.6756 7.99746C20.5512 8.03187 20.5272 8.03793 20.448 7.93716Z" fill="black" fill-opacity="0.823529"/>
<path d="M11.6797 10.3267C11.6958 10.3274 11.7119 10.3285 11.728 10.33C11.8283 10.3397 11.8425 10.3683 11.8972 10.434C11.7723 10.4291 11.7508 10.4287 11.6797 10.3267Z" fill="black" fill-opacity="0.690196"/>
<path d="M19.7076 9.53198C19.7481 9.53936 19.7896 9.54842 19.8301 9.55672L19.8422 9.59292L19.8019 9.64919L19.685 9.62256L19.6694 9.58995L19.7076 9.53198Z" fill="black" fill-opacity="0.768627"/>
<path d="M16.3833 13.6682C16.4158 13.674 16.4557 13.6846 16.4885 13.6925L16.4989 13.7272L16.43 13.8012L16.3762 13.7999C16.3495 13.7408 16.363 13.7426 16.3833 13.6682Z" fill="black" fill-opacity="0.792157"/>
<path d="M18.8198 17.2952C18.939 17.3092 18.9519 17.3054 19.0092 17.412C18.8728 17.4196 18.8832 17.4012 18.8198 17.2952Z" fill="black" fill-opacity="0.85098"/>
<path d="M16.8008 13.3561L16.8267 13.3793C16.8334 13.4335 16.7956 13.5025 16.7728 13.5569C16.7432 13.5374 16.7394 13.5211 16.7244 13.489C16.7297 13.4233 16.7556 13.4059 16.8008 13.3561Z" fill="black" fill-opacity="0.764706"/>
<path d="M17.5583 12.8203L17.5508 12.878C17.4886 12.9434 17.497 12.9257 17.3985 12.9542L17.3926 12.9063C17.4276 12.8548 17.4949 12.8423 17.5583 12.8203Z" fill="black" fill-opacity="0.811765"/>
<path d="M17.2125 9.47546L17.2807 9.57975C17.2619 9.6154 17.2389 9.63487 17.2108 9.66346L17.1833 9.66033C17.1654 9.55817 17.1728 9.58411 17.2125 9.47546Z" fill="black" fill-opacity="0.843137"/>
<path d="M8.31613 9.20425C8.3421 9.1809 8.38206 9.18293 8.4055 9.20883C8.42894 9.23473 8.42702 9.27469 8.40118 9.29822C8.37524 9.32181 8.33508 9.31987 8.31155 9.29388C8.28802 9.26787 8.29008 9.22771 8.31613 9.20425Z" fill="black" fill-opacity="0.898039"/>
<path d="M15.4509 16.2852C15.5348 16.3287 15.538 16.4096 15.547 16.4935L15.5021 16.4852C15.4444 16.4034 15.4616 16.3996 15.4509 16.2852Z" fill="black" fill-opacity="0.615686"/>
<path d="M16.9803 21.7916C17.0227 21.7909 17.063 21.7941 17.1052 21.7967L17.1267 21.8269L17.0898 21.8899L16.968 21.8766L16.9487 21.8495L16.9803 21.7916Z" fill="black" fill-opacity="0.780392"/>
<path d="M13.0324 23.2614C13.0655 23.2736 13.0678 23.2816 13.0906 23.3086C13.0763 23.3672 13.06 23.3675 13.0115 23.4142L12.9563 23.3708C12.9618 23.3028 12.9647 23.3204 13.0324 23.2614Z" fill="black" fill-opacity="0.752941"/>
<path d="M19.6417 16.0707C19.6932 16.0653 19.727 16.0663 19.7782 16.0673L19.8012 16.0933L19.7695 16.1525L19.6517 16.1532L19.6267 16.1283L19.6417 16.0707Z" fill="black" fill-opacity="0.72549"/>
<path d="M12.7297 9.96838C12.8412 9.99001 12.859 9.99616 12.915 10.0766C12.878 10.0781 12.827 10.0719 12.7891 10.0685C12.7314 10.0231 12.7485 10.0482 12.7297 9.96838Z" fill="black" fill-opacity="0.784314"/>
<path d="M19.154 17.6045L19.185 17.6161C19.2359 17.6814 19.2207 17.6818 19.2307 17.7783C19.205 17.7835 19.1945 17.7795 19.168 17.7763C19.1302 17.7032 19.1459 17.701 19.154 17.6045Z" fill="black" fill-opacity="0.862745"/>
<path d="M18.0545 10.342C18.1061 10.3474 18.1415 10.3556 18.1915 10.3666L18.2091 10.3991L18.1747 10.4436L18.0409 10.4277L18.0217 10.399L18.0545 10.342Z" fill="black" fill-opacity="0.776471"/>
<path d="M9.74536 12.4349C9.85081 12.414 9.89741 12.3992 9.98783 12.4712C9.86203 12.5043 9.85083 12.5092 9.74536 12.4349Z" fill="black" fill-opacity="0.776471"/>
<path d="M14.5129 17.8847C14.5576 17.878 14.5892 17.8789 14.6344 17.8787C14.6827 17.9186 14.668 17.8971 14.681 17.975C14.5792 17.9705 14.553 17.9836 14.5129 17.8847Z" fill="black" fill-opacity="0.854902"/>
<path d="M14.9651 17.8853C15.0521 17.8781 15.0496 17.864 15.1125 17.9003L15.1304 17.976C15.0297 17.9723 14.998 17.9863 14.9651 17.8853Z" fill="black" fill-opacity="0.854902"/>
<path d="M9.53003 19.4755C9.58442 19.4279 9.59379 19.4257 9.66475 19.4102L9.69921 19.427C9.66828 19.4884 9.65489 19.4787 9.58082 19.5146C9.57476 19.4915 9.55389 19.4754 9.53003 19.4755Z" fill="black" fill-opacity="0.603922"/>
<path d="M19.6272 7.51347C19.7447 7.48343 19.7848 7.50255 19.8768 7.56844C19.7469 7.58246 19.7248 7.58783 19.6272 7.51347Z" fill="black" fill-opacity="0.760784"/>
<path d="M16.5552 15.7424C16.6802 15.726 16.7128 15.7057 16.7854 15.8127C16.6854 15.8188 16.6317 15.8006 16.5552 15.7424Z" fill="black" fill-opacity="0.741176"/>
<path d="M17.2468 11.6264C17.3792 11.6133 17.3934 11.6117 17.4811 11.713C17.3836 11.7106 17.3141 11.6964 17.2468 11.6264Z" fill="black" fill-opacity="0.756863"/>
<path d="M20.5312 15.7335C20.6054 15.7382 20.6366 15.7258 20.6812 15.7666L20.6408 15.8232C20.5943 15.8281 20.5732 15.8269 20.5263 15.8247L20.5049 15.7951L20.5312 15.7335Z" fill="black" fill-opacity="0.784314"/>
<path d="M15.3579 23.0557C15.4902 23.0441 15.5111 23.0252 15.5877 23.1346C15.4796 23.1388 15.4371 23.1185 15.3579 23.0557Z" fill="black" fill-opacity="0.768627"/>
<path d="M12.6908 16.0788C12.7741 16.0723 12.8061 16.0526 12.8555 16.0937L12.8356 16.1495C12.7523 16.1542 12.7381 16.1702 12.6804 16.1313L12.6908 16.0788Z" fill="black" fill-opacity="0.835294"/>
<path d="M12.6209 12.9951C12.6515 13.105 12.6642 13.0904 12.6411 13.1891L12.6104 13.1776C12.597 13.1481 12.5784 13.1102 12.5684 13.0804L12.6209 12.9951Z" fill="black" fill-opacity="0.545098"/>
<path d="M9.65576 9.29785L9.74607 9.30405C9.80799 9.34985 9.79041 9.34267 9.81513 9.43349C9.7967 9.42609 9.77845 9.41826 9.7604 9.40998C9.68407 9.37496 9.67857 9.36031 9.65576 9.29785Z" fill="black" fill-opacity="0.690196"/>
<path d="M10.0205 7.51119C10.086 7.50256 10.1333 7.4872 10.1871 7.51945L10.1903 7.57071C10.1224 7.5792 10.0747 7.59349 10.0156 7.56366L10.0205 7.51119Z" fill="black" fill-opacity="0.827451"/>
<path d="M10.3169 21.0072C10.287 20.9937 10.2578 20.9749 10.2292 20.9581L10.2212 20.9243C10.3062 20.8936 10.286 20.9042 10.3856 20.9226L10.3169 21.0072Z" fill="black" fill-opacity="0.862745"/>
<path d="M18.7727 16.2968C18.8496 16.2964 18.8657 16.2825 18.9183 16.3203L18.9202 16.3804C18.8492 16.3993 18.8699 16.4042 18.8071 16.3866L18.7727 16.2968Z" fill="black" fill-opacity="0.823529"/>
<path d="M20.9478 8.90503L21.0199 8.91567L21.0406 8.9441L20.9894 9.04628L20.9365 9.0364C20.9094 8.97684 20.923 8.98131 20.9478 8.90503Z" fill="black" fill-opacity="0.878431"/>
<path d="M13.8534 22.3735C13.8647 22.3522 13.8874 22.3395 13.9114 22.3409C13.9354 22.3423 13.9565 22.3576 13.9652 22.38C13.974 22.4024 13.9689 22.4279 13.9522 22.4452C13.9309 22.4674 13.8965 22.4704 13.8716 22.4523C13.8467 22.4343 13.839 22.4006 13.8534 22.3735Z" fill="black" fill-opacity="0.898039"/>
<path d="M14.2522 14.4913C14.3689 14.4665 14.3968 14.472 14.4833 14.546C14.3641 14.5641 14.3449 14.5728 14.2522 14.4913Z" fill="black" fill-opacity="0.85098"/>
<path d="M9.22027 7.96068C9.28419 7.9508 9.32856 7.93543 9.38311 7.96491L9.38767 8.02229C9.32292 8.02601 9.27037 8.03705 9.21558 8.00713L9.22027 7.96068Z" fill="black" fill-opacity="0.807843"/>
<path d="M12.2658 8.19275C12.3481 8.23437 12.3272 8.31305 12.3261 8.39089L12.2761 8.36696C12.2408 8.28641 12.2551 8.29265 12.2658 8.19275Z" fill="black" fill-opacity="0.760784"/>
<path d="M9.38868 20.6703C9.48192 20.7039 9.47483 20.7504 9.49167 20.8354L9.42111 20.806C9.37133 20.7394 9.38412 20.7661 9.38868 20.6703Z" fill="black" fill-opacity="0.866667"/>
<path d="M12.1536 16.3751L12.2659 16.3457L12.3117 16.3623C12.2913 16.3854 12.2242 16.4653 12.2037 16.4778C12.203 16.4269 12.1879 16.4174 12.1536 16.3751Z" fill="black" fill-opacity="0.364706"/>
<path d="M20.8373 11.403L20.8639 11.5363C20.803 11.567 20.8073 11.5785 20.7534 11.5638C20.755 11.4969 20.7952 11.4589 20.8373 11.403Z" fill="black" fill-opacity="0.737255"/>
<path d="M8.41403 13.9957L8.48387 14.0135L8.49662 14.0433L8.44965 14.1251C8.42228 14.1192 8.38755 14.1073 8.36004 14.099L8.35425 14.0676L8.41403 13.9957Z" fill="black" fill-opacity="0.784314"/>
<path d="M15.9979 14.0099L16.1108 14.0224L16.1353 14.0571L16.1135 14.1131C16.0409 14.1034 16.0194 14.115 15.9824 14.0709L15.9979 14.0099Z" fill="black" fill-opacity="0.839216"/>
<path d="M13.1815 18.762L13.2176 18.7837C13.2271 18.8434 13.2309 18.8765 13.2329 18.9368C13.2137 18.9357 13.1845 18.9285 13.1647 18.9244C13.139 18.8577 13.1588 18.8441 13.1815 18.762Z" fill="black" fill-opacity="0.811765"/>
<path d="M14.1423 17.8779L14.2373 17.9172L14.237 17.9464C14.1788 17.9672 14.109 17.979 14.0496 17.9543C14.1001 17.9507 14.1053 17.9525 14.1479 17.9279L14.1423 17.8779Z" fill="black" fill-opacity="0.67451"/>
<path d="M20.0364 18.8439C20.0662 18.8601 20.0693 18.8669 20.0936 18.8904L20.0696 18.9124C20.0044 18.9205 19.9877 18.9261 19.9294 18.8983L19.9411 18.8676L20.0364 18.8439Z" fill="black" fill-opacity="0.756863"/>
<path d="M20.1625 15.8212L20.2699 15.8471L20.2827 15.8768L20.236 15.9176C20.1858 15.917 20.1761 15.9126 20.1272 15.8987L20.1199 15.8653L20.1625 15.8212Z" fill="black" fill-opacity="0.588235"/>
<path d="M14.5229 15.8345L14.6138 15.8231L14.6452 15.8482C14.6343 15.9096 14.6307 15.9213 14.6045 15.9779C14.5747 15.9308 14.5496 15.8834 14.5229 15.8345Z" fill="black" fill-opacity="0.8"/>
<path d="M12.5683 13.0804L12.489 13.0207L12.4891 12.9824C12.5608 12.9646 12.5423 12.9708 12.6209 12.9951L12.5683 13.0804Z" fill="black" fill-opacity="0.717647"/>
<path d="M20.8374 11.403L20.8461 11.3452L20.8765 11.3271C20.8944 11.4191 20.8854 11.4443 20.8641 11.5363L20.8374 11.403Z" fill="black" fill-opacity="0.611765"/>
<path d="M10.3854 20.9225L10.4504 20.967L10.455 20.9957C10.3944 21.007 10.3781 21.0091 10.3167 21.0071L10.3854 20.9225Z" fill="black" fill-opacity="0.733333"/>
<path d="M9.58084 19.5147C9.58655 19.5363 9.57782 19.5592 9.55917 19.5716C9.5405 19.584 9.51601 19.5832 9.49823 19.5695C9.48047 19.5558 9.47336 19.5324 9.48056 19.5112C9.48774 19.4899 9.50765 19.4756 9.53005 19.4756C9.55392 19.4755 9.57478 19.4916 9.58084 19.5147Z" fill="black" fill-opacity="0.803922"/>
<path d="M19.0419 21.0187C19.1173 21.0147 19.1041 21.0031 19.1501 21.0385C19.1084 21.0828 19.1282 21.0696 19.057 21.0789C19.0335 21.0498 19.0432 21.0662 19.0419 21.0187Z" fill="black" fill-opacity="0.784314"/>
<path d="M19.0568 21.0788C18.9943 21.0859 18.9843 21.0918 18.9329 21.0623C18.9668 21.0189 18.9749 21.0301 19.0418 21.0186C19.0431 21.0661 19.0334 21.0497 19.0568 21.0788Z" fill="black" fill-opacity="0.592157"/>
<path d="M15.8666 22.3353L15.9156 22.3919L15.8876 22.4505L15.8369 22.4435C15.8225 22.385 15.8258 22.4053 15.8666 22.3353Z" fill="black" fill-opacity="0.862745"/>
<path d="M14.5769 10.9498C14.6009 10.9271 14.5919 10.935 14.6259 10.9238L14.6285 10.9722L14.5986 10.9828L14.5769 10.9498Z" fill="black" fill-opacity="0.298039"/>
<path d="M17.829 7.2345L17.8874 7.27482L17.8555 7.29891L17.8024 7.31333L17.7874 7.28828L17.829 7.2345Z" fill="black" fill-opacity="0.603922"/>
<path d="M11.9536 7.28287L12.0035 7.2627L12.0078 7.30586L11.9726 7.31751L11.9536 7.28287Z" fill="black" fill-opacity="0.243137"/>
<path d="M9.3645 7.17254C9.36473 7.0789 9.36316 7.04887 9.38751 6.95892C9.33666 7.01939 9.70045 6.7094 9.69764 6.71175C9.97734 6.47773 10.5482 5.90414 10.9264 5.93438C10.5669 6.12119 9.62551 6.86269 9.3645 7.17254Z" fill="black" fill-opacity="0.941176"/>
<path d="M22.1191 10.9879C22.136 11.0372 22.152 11.0957 22.181 11.1374L22.204 11.0235L22.2248 11.0205C22.2496 11.1497 22.2469 13.7025 22.2121 13.7774C22.2022 13.6631 22.2079 13.4948 22.2099 13.3778C22.2238 12.5856 22.1327 11.7746 22.1191 10.9879Z" fill="black" fill-opacity="0.901961"/>
<path d="M15.0959 24.926C15.1528 24.9172 15.2305 24.9127 15.2896 24.9101C15.6135 24.8958 15.9068 24.842 16.2222 24.7729C16.222 24.8252 16.2239 24.8429 16.2533 24.8865L16.2503 24.9185C15.9742 24.9093 15.2753 24.9579 15.0959 24.926Z" fill="black" fill-opacity="0.913725"/>
<path d="M22.2108 13.7902C22.2261 13.9024 22.2731 14.4461 22.2151 14.5225L22.176 14.5218L22.1233 14.4317C22.1257 14.3224 22.1954 13.9541 22.2108 13.7902Z" fill="black" fill-opacity="0.960784"/>
<path d="M18.0618 23.5226C18.0833 23.4745 18.2319 23.2202 18.2734 23.2123C18.3033 23.263 18.3076 23.2883 18.3232 23.3439C18.1895 23.3645 18.2206 23.4398 18.0618 23.5226Z" fill="black" fill-opacity="0.792157"/>
<path d="M21.4727 8.6665L21.5144 8.69884C21.5139 8.7397 21.5061 8.78834 21.5241 8.81818C21.4665 8.82728 21.354 8.83553 21.3049 8.80174C21.3814 8.71054 21.4087 8.78222 21.4727 8.6665Z" fill="black" fill-opacity="0.858824"/>
<path d="M8.40423 8.77001C8.32047 8.6766 8.41351 8.7873 8.40935 8.61389C8.47845 8.72008 8.55597 8.72379 8.60662 8.81347C8.55456 8.82926 8.45582 8.79137 8.40423 8.77001Z" fill="black" fill-opacity="0.756863"/>
<path d="M8.9853 20.6306C9.04298 20.6464 9.12912 20.6607 9.1662 20.7006C9.08567 20.7293 9.06675 20.7278 8.98268 20.7298L8.95542 20.7645C8.9369 20.7146 8.96007 20.6935 8.9853 20.6306Z" fill="black" fill-opacity="0.733333"/>
<path d="M20.8883 20.7347C20.8176 20.7391 20.7484 20.7528 20.7051 20.6924C20.7817 20.6396 20.7839 20.6551 20.8891 20.6444L20.8883 20.7347Z" fill="black" fill-opacity="0.858824"/>
<path d="M16.4563 25.0883C16.4651 25.0349 16.5266 24.9504 16.567 24.9135C16.6899 24.8009 17.0611 24.763 17.1795 24.6741C17.4706 24.4554 17.7169 24.1611 18.0409 23.9786C18.0856 23.9795 18.1231 23.9803 18.1535 23.9809C17.6831 24.3715 17.3749 24.7212 16.7935 24.9533C16.691 24.9942 16.5611 25.0641 16.4563 25.0883Z" fill="black" fill-opacity="0.941176"/>
<path d="M18.4802 23.7327C18.5504 23.4807 19.0262 23.1902 19.2185 23.0339C19.3196 22.9518 19.2368 23.0229 19.3327 23.0276C19.4862 22.7992 19.72 22.6051 19.9166 22.4093L19.9265 22.5805C19.7467 22.7223 19.59 22.8764 19.4245 23.0083C19.0629 23.2964 18.8252 23.4519 18.5068 23.7995L18.4802 23.7327Z" fill="black" fill-opacity="0.945098"/>
<path d="M6.31434 15.5628C6.14766 15.0048 6.1399 14.4114 6.29193 13.8492C6.32268 14.273 6.33532 14.6697 6.32322 15.0949C6.31957 15.2227 6.32894 15.4447 6.31434 15.5628Z" fill="black" fill-opacity="0.941176"/>
<path d="M19.9165 22.4093C20.0601 22.238 20.3771 21.9841 20.5778 21.7605C20.5834 21.683 20.5867 21.6639 20.6075 21.589C20.6575 21.5643 20.7237 21.5873 20.7835 21.5991C20.6146 21.8857 20.1604 22.3448 19.9264 22.5806L19.9165 22.4093Z" fill="black" fill-opacity="0.933333"/>
<path d="M8.26636 19.272C8.37111 19.1565 8.27137 19.2242 8.34061 19.1194L8.36187 19.1387L8.36002 19.1599C8.35174 19.2613 8.35968 19.3 8.37784 19.4L8.378 19.3888C8.388 19.5518 8.38965 19.7458 8.37013 19.9081C8.33987 19.7946 8.2904 19.4105 8.26636 19.272Z" fill="black" fill-opacity="0.929412"/>
<path d="M22.1023 18.279C22.1099 18.2058 22.0981 18.1864 22.1549 18.1317C22.3091 17.9833 22.2578 17.9431 22.4708 17.9395C22.3462 18.0819 22.2582 18.168 22.1023 18.279Z" fill="black" fill-opacity="0.941176"/>
<path d="M18.4803 23.7328L18.5068 23.7996C18.4387 23.8458 18.3927 23.8798 18.3167 23.9124C18.3304 23.8025 18.3699 23.7465 18.4803 23.7328Z" fill="black" fill-opacity="0.956863"/>
</g>
<defs>
<clipPath id="clip0_2061_2553">
<rect width="30" height="30" fill="white"/>
</clipPath>
</defs>
</svg>
