<svg width="400" height="534" viewBox="0 0 400 534" fill="none" xmlns="http://www.w3.org/2000/svg">
<g clip-path="url(#clip0_207_7465)">
<path fill-rule="evenodd" clip-rule="evenodd" d="M101.348 241.71V243.362C101.348 243.825 101.532 244.269 101.859 244.596C102.187 244.923 102.63 245.107 103.093 245.107C103.556 245.107 104 244.923 104.327 244.596C104.654 244.269 104.838 243.825 104.838 243.362V241.617C104.814 241.158 104.615 240.726 104.282 240.41C103.948 240.094 103.506 239.918 103.047 239.919C102.817 239.922 102.589 239.971 102.379 240.063C102.168 240.155 101.977 240.289 101.819 240.456C101.661 240.623 101.537 240.82 101.457 241.035C101.376 241.251 101.339 241.48 101.348 241.71ZM100.674 236.848C103.233 236.243 105.327 234.521 101.604 234.754C100.682 234.882 99.7718 235.084 98.882 235.358C95.392 236.801 98.4166 237.383 100.674 236.848ZM314.145 253.041C313.073 255.291 311.28 257.117 309.05 258.23C308.963 258.26 308.89 258.32 308.843 258.399C308.796 258.478 308.778 258.571 308.791 258.661C308.805 258.752 308.85 258.835 308.918 258.897C308.987 258.958 309.074 258.994 309.166 258.997C309.919 259.13 310.693 259.075 311.42 258.837C312.147 258.599 312.804 258.186 313.333 257.634C313.862 257.082 314.247 256.408 314.453 255.672C314.66 254.936 314.682 254.16 314.517 253.413C314.517 253.315 314.478 253.22 314.408 253.15C314.339 253.08 314.244 253.041 314.145 253.041ZM304.885 234.591C304.438 234.476 303.964 234.541 303.564 234.771C303.164 235.002 302.87 235.38 302.745 235.824C302.534 236.581 302.494 237.376 302.628 238.15C302.628 238.613 302.812 239.057 303.139 239.384C303.467 239.712 303.91 239.895 304.373 239.895C304.836 239.895 305.28 239.712 305.607 239.384C305.934 239.057 306.118 238.613 306.118 238.15C306.118 236.475 306.49 235.033 304.885 234.591ZM224.871 463.186C222.986 462.232 186.946 464.582 186.039 468.63C185.853 469.514 186.434 472.911 187.458 473.47C189.482 474.54 224.15 472.585 226.058 468.816C226.6 467.899 226.779 466.813 226.559 465.77C226.34 464.728 225.737 463.806 224.871 463.186ZM187.9 472.492C187.183 471.365 186.796 470.059 186.783 468.723C187.249 466.629 206.444 465.489 208.561 465.349C208.511 467.229 208.995 469.085 209.957 470.701C207.305 471.12 189.157 473.167 187.9 472.562V472.492ZM224.359 467.839C222.521 469.142 213.191 470.329 210.958 470.608C211.153 468.766 210.762 466.909 209.841 465.303C212.609 465.117 221.474 464.628 224.103 464.861C224.801 465.373 224.824 466.955 224.359 467.886V467.839ZM163.726 468.7C163.663 468.661 163.591 468.64 163.517 468.64C163.443 468.64 163.37 468.661 163.307 468.7C163.307 468.467 118.868 493.502 117.519 496.155C117.458 496.282 117.427 496.421 117.427 496.562C117.427 496.703 117.458 496.842 117.519 496.969C118.938 501.041 165.308 542.967 167.239 543.921C167.798 544.2 168.496 543.712 170.683 542.548C175.336 540.059 215.052 518.84 219.147 515.419C220.287 514.256 220.985 503.786 220.357 502.599C219.729 501.413 163.726 468.933 163.726 468.7ZM167.751 541.99C162.796 538.058 123.545 502.692 119.194 496.69C123.242 492.874 162.4 470.189 163.587 469.491C169.589 473.144 212.796 499.435 218.333 503.158C215.406 504.004 212.622 505.282 210.073 506.95C208.747 508.23 212.051 510.603 216.635 515.047C209.631 519.561 174.894 538.174 167.751 541.99ZM217.961 513.721C217.728 513.488 212.121 508.021 211.865 507.811C214.125 506.4 216.455 505.103 218.845 503.926C218.852 507.213 218.541 510.494 217.914 513.721H217.961Z" fill="black"/>
<path fill-rule="evenodd" clip-rule="evenodd" d="M198.638 509.44C197.009 510.138 177.139 516.722 171.532 519.002C169.884 519.823 168.088 520.306 166.25 520.421C165.925 520.421 167.809 516.792 182.072 505.67C183.561 504.507 186.423 502.297 186.725 500.482C188.098 494.479 171.835 503.46 157.293 509.137C155.789 509.945 154.148 510.466 152.453 510.673C152.29 509.719 155.571 506.717 155.78 506.485C164.459 496.899 175.464 492.943 174.72 489.407C173.579 483.869 153.384 494.642 149.126 496.387C145.543 497.899 139.82 499.714 140.169 499.714C139.401 500.017 140.169 500.552 140.308 500.482C140.448 500.412 147.823 498.155 149.615 497.364C152.29 496.34 170.183 487.708 173.161 489.733C174.347 490.57 161.69 497.387 154.547 505.275C153.291 506.624 149.894 509.37 150.941 511.603C151.133 511.949 151.424 512.228 151.777 512.407C152.129 512.585 152.527 512.654 152.919 512.604C156.385 512.604 180.024 500.761 184.887 500.389C183.771 501.862 182.437 503.156 180.932 504.228C177.465 506.973 167.414 515.163 165.087 518.932C163.877 520.887 164.878 522.05 166.46 522.073C168.554 522.073 171.113 520.654 177.419 518.281C198.801 510.044 199.475 510.417 199.126 509.649C199.108 509.603 199.081 509.561 199.047 509.525C199.013 509.49 198.971 509.461 198.926 509.442C198.88 509.422 198.832 509.412 198.782 509.412C198.733 509.411 198.683 509.421 198.638 509.44Z" fill="black"/>
<path fill-rule="evenodd" clip-rule="evenodd" d="M421.366 420.723C421.063 396.386 418.876 346.712 414.06 322.631C411.524 309.858 406.033 292.384 395.819 283.939C391.491 280.379 385.116 276.959 373.553 270.56C373.692 270.258 355.288 262.813 354.427 265.279C353.713 261.035 352.71 256.845 351.426 252.738C353.148 252.18 352.38 247.154 353.101 244.316C353.823 241.477 356.545 239.453 357.941 237.126C361.082 231.938 361.617 222.887 361.035 216.861C360.477 211.254 352.287 198.736 346.889 196.689C341.491 194.641 335.954 194.711 330.253 193.571C325.6 192.617 322.157 190.034 316.945 189.383C311.733 188.731 308.615 191.71 304.148 191.71C299.681 191.71 294.655 188.243 289.979 187.964C287.438 187.924 284.969 188.808 283.031 190.451C281.092 192.094 279.816 194.385 279.439 196.898C278.875 200.644 279.319 204.472 280.725 207.989C282.132 211.506 284.451 214.584 287.443 216.907C291.086 219.212 295.179 220.711 299.448 221.305C299.169 233.194 300.426 230.007 299.03 231.054C297.634 232.101 298.076 239.43 298.564 241.454C298.774 242.268 298.983 242.571 299.983 242.896C299.425 245.223 295.493 250.249 299.03 251.482C299.495 251.645 301.356 251.97 301.542 252.04C302.019 254.247 302.721 256.398 303.636 258.462C304.539 260.536 305.857 262.403 307.51 263.948C309.163 265.493 311.115 266.682 313.245 267.443C316.596 268.746 319.248 269.095 321.203 269.769C321.472 270.731 321.613 271.725 321.621 272.724C313.313 274.908 305.485 278.625 298.541 283.683C285.954 293.897 268.062 336.265 263.385 340.919C261.57 342.71 218.829 350.993 212.524 355.274C211.291 356.112 211.244 356.833 211.407 358.322C209.872 358.601 203.403 359.811 202.682 361.184C202.469 362.181 202.525 363.217 202.845 364.185C197.088 363.11 191.279 362.334 185.442 361.859C184.373 361.884 183.322 362.133 182.356 362.59C181.39 363.046 180.531 363.701 179.834 364.511C177.88 366.838 179.462 366.442 177.391 366.117C172.994 365.488 157.242 370.77 155.265 371.701C155.265 370.863 155.265 370.281 154.381 369.816C151.784 369.063 149.071 368.795 146.377 369.025C144.748 370.118 151.03 369.746 153.636 371.096C153.636 372.887 153.869 391.268 153.636 394.874C153.636 395.526 153.636 395.433 153.147 395.502C150.821 395.828 147.47 395.502 146.447 396.247C146.819 388.15 146.447 368.327 145.33 367.164C144.655 366.466 132.231 364.976 118.713 363.348C118.761 353.567 118.217 343.793 117.084 334.078C114.595 312.487 109.383 287.033 93.0962 274.12C94.04 274.506 95.0787 274.595 96.0744 274.376C97.4041 273.848 98.8352 273.626 100.262 273.725C102.589 274.353 102.891 276.051 108.708 272.142C109.08 271.887 110.058 271.956 110.825 271.189C113.455 268.559 112.128 265 112.128 262.347C112.514 260.544 112.639 258.695 112.501 256.856C112.429 256.582 112.296 256.328 112.11 256.114C111.924 255.9 111.692 255.732 111.43 255.623C111.43 254.855 112.245 253.483 111.081 251.994C112.757 251.109 114.571 250.086 113.641 248.271C111.863 245.427 110.396 242.401 109.267 239.243C108.545 236.544 109.522 233.101 109.476 230.193C109.476 228.192 109.685 225.795 109.476 223.608C111.271 222.355 112.642 220.586 113.408 218.536C113.578 217.707 113.541 216.85 113.302 216.038C113.063 215.227 112.628 214.487 112.035 213.883C111.267 213.394 111.105 213.883 111.128 212.44C111.212 211.934 111.189 211.416 111.061 210.919C110.933 210.422 110.702 209.957 110.383 209.555C109.406 208.601 107.173 207.554 106.475 206.577C105.288 204.832 104.59 203.087 102.356 202.389C100.774 201.877 99.2852 202.878 98.2149 202.529C96.7491 202.063 95.2368 200.481 93.5616 202.156C93.1875 202.359 92.7771 202.486 92.3539 202.53C91.9307 202.574 91.503 202.534 91.0953 202.412C89.6993 201.226 89.3503 199.178 86.9771 198.736C85.6276 198.503 82.9752 199.155 81.9515 198.736C80.2744 197.502 78.4241 196.522 76.4606 195.828C74.2654 195.619 72.0505 195.808 69.9226 196.386C68.4336 196.689 66.5257 196.526 64.9668 196.758C61.7328 197.27 60.8021 200.062 58.6616 201.412C56.521 202.761 52.9147 202.785 50.8672 205.809C49.1455 208.369 49.5178 211.137 48.843 213.697C48.5638 214.79 47.0748 216.023 46.5164 217.14C45.2134 219.723 46.2139 222.329 46.1906 224.562C46.1674 226.796 44.6085 228.843 45.0506 231.542C45.4097 232.89 46.0001 234.165 46.7956 235.311C46.8052 235.688 46.7581 236.065 46.656 236.428C45.9462 238.259 45.8003 240.26 46.2372 242.175C46.618 244.01 47.5045 245.703 48.7965 247.061C50.4252 248.48 51.2628 248.108 52.4494 250.132C52.9484 251.203 53.6987 252.136 54.6364 252.854C56.3582 254.018 58.4754 253.017 59.4992 253.529C60.136 253.866 60.8307 254.079 61.5466 254.157C60.9739 254.447 60.4791 254.87 60.1041 255.39C47.447 256.996 30.7416 266.233 20.5508 278.867C16.5256 284.055 9.75502 291.547 7.21895 297.55C-6.41531 328.355 0.238954 376.656 -5.25198 391.57L-18.8397 427.005C-19.4912 428.704 -21.1664 437.15 -20.5614 440.058C-19.5842 444.386 -15.0472 438.964 -12.2785 435.893C-14.0002 442.012 -13.977 443.618 -14.8844 467.699C-15.1636 475.237 -15.4195 483.45 -15.5358 490.361C-15.5425 490.41 -15.5385 490.461 -15.5239 490.508C-15.5094 490.556 -15.4848 490.6 -15.4517 490.638C-15.4186 490.675 -15.3778 490.705 -15.3321 490.726C-15.2864 490.746 -15.2369 490.757 -15.1868 490.756C-14.5354 490.756 -14.9542 491.501 -14.0002 472.282C-13.3255 458.764 -12.5577 446.154 -12.4879 445.13C-12.1435 441.153 -11.2671 437.241 -9.88205 433.497C-3.38441 428.642 3.92736 424.987 11.7094 422.701C20.3704 420.384 29.5163 420.618 38.0473 423.376C40.374 424.144 46.6327 425.702 48.8663 424.655C53.5196 422.329 65.502 414.628 67.4796 409.951C68.4568 407.624 69.2479 405.74 70.0157 403.995C73.5755 404.32 77.9496 405.228 81.8352 405.274C86.186 405.274 88.978 404.576 93.7942 400.319C111.5 400.714 131.021 400.179 140.328 399.83C146.54 402.157 165.618 408.974 170.248 413.557C172.063 415.326 173.134 420.258 173.785 425.749C174.643 432.312 174.869 438.943 174.46 445.549C161.71 447.992 145.469 451.854 132.905 454.972C132.202 454.776 131.467 454.721 130.742 454.809C127.415 455.158 128.973 456.508 127.88 453.134C127.932 453.146 127.987 453.145 128.039 453.131C128.091 453.117 128.138 453.091 128.178 453.054C128.217 453.017 128.246 452.971 128.263 452.92C128.28 452.869 128.285 452.815 128.275 452.762C128.241 448.29 127.718 443.835 126.717 439.476C126.554 438.825 125.414 438.499 124.716 438.29C117.177 436.103 88.0706 433.171 81.6723 434.823C77.5076 435.917 48.6802 450.807 47.3772 453.971C46.0743 457.136 42.5378 476.168 41.8863 479.681C26.8095 484.079 14.9202 487.708 9.10355 489.686C9.05535 489.701 9.01083 489.727 8.97272 489.76C8.93462 489.793 8.90373 489.834 8.88195 489.88C8.86017 489.926 8.84795 489.975 8.84605 490.026C8.84415 490.077 8.8526 490.127 8.87089 490.174C9.15009 491.035 16.7816 487.08 94.9576 466.536C95.7431 468.541 96.7498 470.453 97.959 472.236C95.6323 472.794 93.0032 473.818 92.2354 475.958C92.0989 476.41 92.0763 476.889 92.1697 477.352C92.263 477.815 92.4694 478.247 92.7705 478.611C94.6792 480.748 97.2239 482.216 100.03 482.799C104.949 484.032 110.061 484.301 115.083 483.59C119.905 483.169 124.657 482.153 129.229 480.565C134.208 478.471 133.883 475.354 131.975 473.934C130.009 472.778 127.848 471.99 125.6 471.608C127.717 467.769 125.739 469.467 128.904 468.699C130.694 468.272 132.33 467.353 133.627 466.047C135.674 463.953 137.047 458.788 135.093 456.298C144.911 453.971 184.395 444.199 194.05 444.921C211.57 446.2 338.955 498.574 369.109 508.671C369.156 508.687 369.206 508.692 369.256 508.688C369.305 508.684 369.353 508.671 369.398 508.648C369.442 508.625 369.481 508.594 369.514 508.556C369.546 508.518 369.57 508.474 369.586 508.427C369.601 508.38 369.607 508.33 369.603 508.28C369.599 508.231 369.585 508.182 369.562 508.138C369.54 508.094 369.508 508.054 369.471 508.022C369.433 507.99 369.389 507.965 369.341 507.95C361.454 505.205 343.864 498.201 322.808 489.779C323.832 487.313 326.531 479.355 328.625 476.61C329.486 475.493 329.439 475.4 337.117 475.842C357.243 477.006 374.972 476.47 394.283 470.305C406.079 466.512 411.873 457.764 415.223 446.061C415.898 446.27 417.736 446.875 418.388 447.015C418.573 447.06 418.767 447.06 418.953 447.016C419.139 446.971 419.312 446.883 419.458 446.759C421.761 444.409 421.366 425.307 421.366 420.723ZM103.124 260.742C102.494 260.971 101.815 261.027 101.156 260.905C100.497 260.782 99.8831 260.485 99.3782 260.044C98.876 259.642 98.4828 259.12 98.2348 258.527C97.9868 257.933 97.892 257.287 97.959 256.647C97.9281 256.551 97.9365 256.447 97.9823 256.358C98.0281 256.268 98.1076 256.201 98.2033 256.17C98.2989 256.139 98.4029 256.147 98.4923 256.193C98.5818 256.239 98.6494 256.319 98.6802 256.414C99.829 258.066 101.451 259.332 103.334 260.044C103.393 260.093 103.437 260.159 103.46 260.234C103.483 260.308 103.483 260.388 103.46 260.462C103.438 260.537 103.394 260.603 103.334 260.653C103.275 260.702 103.201 260.733 103.124 260.742ZM81.2768 240.36C81.3562 239.677 81.6309 239.03 82.0678 238.499C82.5797 237.987 84.1386 238.313 85.2321 237.568C86.0499 236.922 86.6705 236.059 87.0236 235.079C88.3266 232.496 90.3973 234.497 93.2824 230.239C94.0188 229.042 94.5901 227.751 94.9808 226.4C96.6095 225.632 98.7268 226.749 100.774 223.376C101.449 222.235 101.891 221.049 103.101 220.723C104.008 221.7 104.916 225.376 108.592 223.957C108.592 225.214 108.313 231.565 108.243 232.077C107.941 233.611 107.778 235.168 107.754 236.731C107.754 241.384 109.895 243.943 112.268 248.806C112.64 249.574 110.686 250.318 109.709 250.853C108.33 250.346 106.903 249.979 105.451 249.76C100.937 248.666 97.3308 251.016 93.4452 252.087C92.7866 252.091 92.1301 252.013 91.4908 251.854C90.025 251.714 88.4894 253.203 86.4187 253.483C85.8788 253.589 85.3195 253.53 84.8134 253.314C84.3072 253.098 83.8776 252.736 83.5802 252.273C83.3293 251.421 83.1503 250.549 83.045 249.667C82.8356 248.829 82.5797 247.992 82.3936 247.177C82.0213 245.502 83.1148 244.851 81.8352 242.524C80.951 240.942 80.9743 241.64 81.2768 240.36ZM82.1609 287.824C83.7275 284.851 85.0053 281.735 85.9766 278.518C87.2796 286.614 87.9776 290.709 88.3033 292.757C86.6048 291.337 86.442 290.802 82.1609 287.731V287.824ZM89.1409 297.294C90.281 304.274 90.025 302.692 90.2344 304.134C89.6786 303.087 88.999 302.111 88.2102 301.226C88.4707 299.689 88.5875 298.131 88.5592 296.572L89.1409 297.294ZM80.7184 301.482C79.3289 300.037 78.0605 298.481 76.9259 296.828C78.0763 294.138 79.3735 291.513 80.8114 288.964C85.6974 292.71 85.3252 292.664 86.535 294.176C86.7126 296.157 86.7126 298.151 86.535 300.132L80.7184 301.482ZM81.0208 302.994C83.7896 309.16 84.9064 319.281 85.488 326.028C82.5835 317.529 78.6783 309.407 73.8547 301.831C74.798 300.542 75.6382 299.18 76.3675 297.759C77.3258 299.544 78.4724 301.221 79.7877 302.761C79.9557 302.867 80.1451 302.934 80.3421 302.959C80.5392 302.983 80.7392 302.963 80.9278 302.901L81.0208 302.994ZM67.2004 253.203C67.3898 253.262 67.5847 253.301 67.7821 253.32C68.3239 253.295 68.8432 253.096 69.2625 252.753C69.6819 252.409 69.9788 251.938 70.1088 251.412C70.481 251.179 70.7602 250.923 70.737 250.481C70.7137 250.039 65.7114 243.199 72.0864 239.685C72.6486 239.625 73.2138 239.77 73.6762 240.096C74.1387 240.421 74.4668 240.904 74.5992 241.454C74.9003 242.695 75.536 243.83 76.4373 244.734C76.5077 246.222 76.7023 247.7 77.019 249.155C77.2051 250.016 76.5536 251.133 76.414 252.319C76.0883 254.646 78.3452 257.205 79.1595 259.299C80.253 262.115 79.5085 265.139 82.1144 267.629C84.7202 270.118 84.2316 268.071 85.139 273.655C84.0535 278.043 82.5579 282.32 80.6718 286.428C78.0427 282.706 64.7342 260.974 62.0585 256.019C63.059 255.414 66.1767 253.645 67.1074 253.11L67.2004 253.203ZM60.2204 256.298C61.9189 260.253 78.8338 287.056 78.8338 287.289C78.0194 289.872 73.3428 300.574 71.1325 301.738C66.2698 298.271 52.938 261.812 51.984 258.508C54.6089 257.384 57.3703 256.609 60.1972 256.205L60.2204 256.298ZM84.2316 359.02C81.6723 358.206 73.4126 330.17 66.0371 314.651C61.6164 305.344 52.938 289.965 43.4684 285.87C33.2311 281.472 14.199 292.012 12.1748 305.693C10.9388 314.716 11.669 323.899 14.3153 332.613C25.2972 365.814 40.1646 392.292 71.9236 399.876C72.6681 398.387 70.039 399.621 90.9324 400.179C89.9084 400.975 88.8187 401.684 87.6751 402.296C83.7663 404.413 76.3442 402.715 70.8533 402.11L71.5513 400.598C38.8384 393.292 23.5289 365.698 12.5703 333.124C9.80267 324.148 9.00898 314.679 10.2436 305.367C12.3376 290.57 32.0445 279.96 42.9566 283.636C45.7389 284.673 48.286 286.255 50.4484 288.29C49.4108 278.966 49.1539 269.573 49.6806 260.207C50.1082 259.827 50.5674 259.484 51.0534 259.183C53.0543 266.163 64.455 299.527 70.2484 303.227C70.6158 303.444 71.046 303.53 71.4687 303.471C71.8913 303.412 72.2814 303.211 72.575 302.901C77.81 311.905 82.696 321.119 84.6504 330.821C85.7561 336.176 86.0385 341.668 85.488 347.108C82.1842 333.427 73.0404 313.65 62.6402 304.181C73.273 322.538 81.0208 351.901 84.4876 357.694C85.8743 358.076 87.2909 358.341 88.7221 358.485C88.1172 344.525 87.6518 315.418 81.7421 302.785C82.4634 302.785 87.5588 301.691 87.5588 301.691C88.4777 302.794 89.259 304.005 89.8854 305.297C90.8394 307.136 90.5136 305.74 91.9562 315.512C98.9362 360.626 98.5406 360.393 99.448 360.882C94.8878 360.3 86.8608 359.811 84.2316 359.02ZM99.6807 349.714C90.6067 298.201 90.5136 296.759 86.6979 275.26C87.0004 274.236 87.233 273.399 87.3959 272.794C88.8384 274.632 96.7026 284.706 97.5634 286.917C96.2838 288.057 91.677 290.011 93.073 291.57C93.7012 292.291 98.8896 296.782 100.518 298.411C101.402 302.156 100.006 343.199 99.6807 349.714ZM42.817 479.379C43.4684 476.424 47.7262 457.206 48.9128 454.507C49.7737 452.506 77.8333 437.615 82.254 436.498C88.629 434.823 123.343 438.266 125.763 439.825C126.855 443.884 127.495 448.051 127.67 452.25C123.762 447.596 93.515 448.83 93.1893 455.391C93.1829 455.606 93.2281 455.82 93.3212 456.014C93.4143 456.208 93.5526 456.378 93.7244 456.508C93.7092 459.32 94.0294 462.124 94.6784 464.86C76.8096 469.676 58.9408 474.702 42.817 479.379ZM131.533 475.749C132.719 479.588 118.783 481.24 114.757 481.705C109.978 482.386 105.112 482.141 100.425 480.984C98.3778 480.426 94.5853 478.937 93.864 477.075C93.515 476.191 94.6551 475.354 95.4927 474.911C96.5539 474.357 97.6791 473.935 98.8431 473.655C100.111 475.402 101.81 476.789 103.776 477.68C106.102 478.704 116.037 477.983 119.481 477.238C120.993 476.912 122.598 476.47 124.879 472.818C126.275 473.027 131.137 474.469 131.533 475.749ZM120.411 474.935C118.666 475.982 106.335 476.819 104.45 476.052C98.2149 473.562 94.818 463.837 94.562 456.973C99.631 458.088 104.833 458.472 110.011 458.113C113.897 457.601 123.087 456.019 126.461 454.321C128.485 461.952 124.204 472.724 120.411 474.935ZM133.417 462.929C132.788 464.175 131.903 465.275 130.821 466.156C129.738 467.038 128.483 467.683 127.135 468.048C128.353 464.784 128.929 461.316 128.834 457.834C129.017 457.449 129.284 457.11 129.615 456.841C129.945 456.571 130.331 456.378 130.745 456.276C131.159 456.174 131.59 456.164 132.008 456.249C132.426 456.333 132.82 456.509 133.161 456.763C134.906 457.904 134.139 460.952 133.417 462.929ZM373.064 271.235C388.792 279.914 395.772 283.543 400.798 291.151C397.637 288.433 393.613 286.924 389.444 286.894C374.53 286.382 367.201 308.462 363.385 322.747C357.057 346.573 360.942 376.726 360.593 381.147C356.568 384.893 335.954 395.595 326.74 400.598C328.02 395.2 332.58 374.376 335.558 366.163C339.56 355.135 351.077 329.448 351.845 323.864C352.054 322.212 351.729 322.003 346.843 318.839C348.727 318.839 353.823 318.327 355.405 318.024C356.079 318.024 356.428 317.722 356.684 316.303C357.545 311.37 359.22 270.723 359.36 266.396C359.197 266.303 371.063 270.095 373.134 271.235H373.064ZM355.125 265.674C356.185 265.598 357.25 265.716 358.266 266.023C357.103 282.892 355.94 312.557 354.846 316.349C353.613 316.582 349.239 316.884 347.541 317.001C343.911 317.21 343.818 317.001 343.446 317.512C343.073 318.024 343.585 318.722 344.26 319.188C345.447 320.025 349.402 322.515 349.96 323.166C349.423 325.936 348.597 328.642 347.494 331.24C334.348 366.14 335.139 355.414 326.298 393.688C326.889 375.353 328.583 357.072 331.37 338.941C333.232 328.96 335.488 319.583 343.004 298.224C345.958 289.965 352.078 274.143 352.31 274.236C353.477 271.456 354.442 268.594 355.195 265.674H355.125ZM314.711 408.462C315.153 410.184 315.153 409.951 315.014 409.974L314.292 409.835C314.292 409.602 313.036 386.242 313.641 376.587C314.734 359.486 316.131 340.942 317.433 323.073C318.062 314.418 320.435 295.828 320.365 296.526L322.692 294.804C323.657 296.73 324.753 298.588 325.972 300.365C326.438 300.993 327.066 301.784 327.81 301.854C327.299 306.065 319.551 358.02 317.271 391.221C316.014 409.299 317.271 405.46 315.433 407.112C315.214 407.26 315.039 407.462 314.925 407.699C314.81 407.936 314.761 408.199 314.781 408.462H314.711ZM328.532 301.877C330.3 301.877 332.208 298.155 334.534 296.572C335.442 297.526 338.187 302.087 340.002 302.692C332.301 323.818 324.064 353.273 324.088 401.901C322.11 402.971 319.434 404.507 317.457 405.647C318.62 385.847 327.043 320.863 328.601 301.877H328.532ZM352.962 270.607C352.217 272.934 341.165 299.62 340.398 300.854C339.198 299.677 338.129 298.374 337.21 296.968C335.256 294.339 334.581 293.478 331.254 297.224C336.186 287.917 345.819 278.471 349.867 273.771C353.729 269.35 353.218 269.723 352.962 270.607ZM300.844 221.747C302.58 222.281 304.437 222.281 306.172 221.747C307.501 221.157 308.967 220.947 310.407 221.142C312.44 222.079 314.531 222.887 316.666 223.562C319.306 223.538 321.942 223.328 324.553 222.933C325.75 223.493 326.763 224.38 327.475 225.492C328.188 226.604 328.57 227.895 328.578 229.215C324.242 229.845 320.056 231.256 316.224 233.38C315.988 232.616 315.522 231.944 314.888 231.457C314.255 230.969 313.486 230.69 312.687 230.658C308.872 230.199 305.018 230.152 301.193 230.518C300.854 227.545 300.737 224.551 300.844 221.561V221.747ZM299.937 241.593C299.355 240.57 298.215 232.636 299.379 231.775C299.565 232.007 298.75 231.286 303.171 231.333C306.287 231.431 309.394 231.711 312.478 232.17C314.572 232.543 314.921 233.497 314.804 235.521C314.804 239.267 314.921 238.894 314.804 240.058C314.804 240.383 314.665 241.244 314.409 241.43C309.623 242.297 304.72 242.289 299.937 241.407V241.593ZM321.319 267.815C314.944 266 309.104 265.767 305.172 257.671C302.636 252.459 304.032 250.947 301.728 250.272C300.874 250.17 300.033 249.983 299.216 249.713C299.216 248.155 301.17 244.897 301.542 243.245C305.406 243.707 309.312 243.707 313.176 243.245C315.502 242.896 316.735 242.501 316.363 237.778V234.171C320.016 233.054 327.764 231.216 328.695 230.96C328.7 232.226 328.872 233.486 329.206 234.706C329.57 235.474 330.198 236.085 330.975 236.428C331.099 236.483 331.234 236.509 331.37 236.504C331.506 236.498 331.639 236.461 331.758 236.396C331.877 236.331 331.98 236.239 332.058 236.127C332.136 236.016 332.187 235.888 332.208 235.753C332.743 233.59 333.162 231.658 333.325 230.728C333.325 231.24 333.534 229.099 335.07 228.262C337.396 227.052 341.003 229.751 341.259 233.566C341.398 235.428 339.537 238.801 338.141 242.687C337.303 245.014 342.375 246.014 344.144 246.875C344.795 248.387 344.4 250.086 345.284 250.993C346.611 251.811 348.066 252.401 349.588 252.738C351.193 257.881 352.36 263.15 353.078 268.49C347.168 274.702 345.842 276.191 344.26 277.796C338.079 283.669 332.837 290.457 328.718 297.922C327.066 288.22 323.925 279.658 323.576 276.842C323.297 274.655 323.762 270.793 322.738 268.722C322.583 268.476 322.375 268.267 322.13 268.11C321.885 267.953 321.608 267.852 321.319 267.815ZM321.994 275.702C323.111 279.844 326.089 293.292 326.95 298.69C325.53 296.549 323.785 293.013 323.785 293.013C323.725 292.886 323.637 292.776 323.527 292.688C323.418 292.601 323.291 292.539 323.154 292.508C323.018 292.476 322.876 292.476 322.74 292.507C322.603 292.538 322.475 292.6 322.366 292.687L320.668 293.99C321.319 287.941 321.97 281.775 322.064 275.702H321.994ZM321.319 273.632C321.11 290.756 317.689 306.019 316.293 323.073C311.64 380.402 311.64 377.587 312.105 397.876C309.593 379.541 306.079 343.874 304.148 324.539C305.521 323.492 312.152 318.443 312.896 316.908C313.245 316.163 312.896 315.395 311.221 315.395C308.309 315.615 305.385 315.615 302.473 315.395C304.241 308.183 314.362 281.868 317.061 274.888C318.434 274.492 319.574 274.097 321.319 273.632ZM213.152 357.019C216.759 353.227 262.012 344.385 264.479 341.989C267.945 338.499 277.485 316.838 287.21 300.411C295.47 286.451 299.96 281.286 316.037 275.353C312.175 284.916 304.637 303.622 301.24 314.511C301.03 315.186 300.728 315.93 301.24 316.372C302.52 317.629 307.871 316.884 310.942 316.931C308.778 319.095 302.822 323.492 302.822 323.492C302.707 323.577 302.617 323.69 302.56 323.821C302.502 323.951 302.481 324.095 302.496 324.237C303.473 335.032 309.476 399.458 312.082 408.811L307.894 407.741C305.187 406.411 302.247 405.621 299.239 405.414C304.544 379.03 302.636 371.654 303.287 357.275C303.287 355.786 297.005 325.865 296.959 325.633C296.959 325.534 296.92 325.439 296.85 325.369C296.78 325.3 296.685 325.26 296.587 325.26C296.488 325.26 296.393 325.3 296.323 325.369C296.253 325.439 296.214 325.534 296.214 325.633C296.61 335.823 299.495 345.526 301.473 356.647C294.027 363.627 286.233 373.283 273.553 376.424C265.712 378.401 228.997 386.405 224.111 386.754C220.109 382.287 212.524 359.997 213.152 357.019ZM208.732 360.114C208.732 360.114 211.524 359.439 211.477 358.997C213.65 367.172 216.386 375.188 219.667 382.985C217.552 383.639 215.389 384.129 213.199 384.451C211.873 384.451 212.803 385.614 209.569 377.936C207.576 373.163 205.867 368.276 204.45 363.301C204.055 361.696 203.38 361.859 208.732 360.114ZM181.486 365.023C183.324 362.999 184.651 362.696 203.031 365.023C204.666 370.571 206.647 376.01 208.964 381.31C205.182 384.258 200.846 386.418 196.214 387.661C196.075 386.661 195.749 386.963 196.54 387.033C197.208 387.052 197.872 386.921 198.483 386.649C199.093 386.377 199.635 385.972 200.068 385.463C200.501 384.954 200.815 384.354 200.985 383.708C201.156 383.061 201.179 382.385 201.054 381.728C200.867 379.402 194.213 374.562 192.329 373.236C193.447 373.466 194.608 373.378 195.679 372.98C195.775 372.949 195.854 372.882 195.9 372.792C195.946 372.703 195.954 372.599 195.923 372.503C195.892 372.408 195.825 372.328 195.735 372.282C195.646 372.236 195.542 372.228 195.446 372.259C191.537 373.283 187.582 368.629 187.07 368.49C185.279 368.048 186.396 372.212 182.417 374.702C181.835 375.074 179.602 374.237 179.462 373.097C179.169 371.685 179.199 370.226 179.55 368.828C179.9 367.43 180.562 366.129 181.486 365.023ZM155.474 372.352C158.452 371.282 173.622 366.582 177.996 367.699C177.504 369.557 177.393 371.496 177.671 373.399C177.818 374.003 178.095 374.569 178.481 375.057C178.867 375.545 179.354 375.943 179.908 376.226C180.462 376.509 181.071 376.669 181.693 376.695C182.315 376.721 182.934 376.612 183.51 376.377C185.132 375.296 186.351 373.709 186.977 371.863C189.048 373.12 199.332 379.937 199.192 382.357C199.192 383.985 198.331 385.358 196.703 385.218C195.328 384.726 194.028 384.045 192.84 383.194C191.645 382.24 190.386 381.369 189.071 380.588C188.862 380.48 188.62 380.453 188.392 380.512C188.164 380.571 187.966 380.712 187.836 380.909C187.706 381.105 187.654 381.343 187.688 381.576C187.723 381.809 187.843 382.021 188.024 382.171C188.024 382.171 189.769 383.473 191.7 384.73C194.609 387.057 195.609 389.197 192.003 390.291C191.438 390.458 190.845 390.508 190.261 390.435C189.676 390.363 189.113 390.172 188.606 389.872C188.013 388.701 187.226 387.639 186.279 386.731C185.857 385.644 185.099 384.72 184.116 384.092C183.133 383.465 181.975 383.167 180.812 383.241C179.602 383.38 179.509 383.985 179.625 383.427C180.183 380.658 176.647 378.983 174.181 379.448C170.202 380.239 167.992 385.498 166.689 389.337C165.898 391.012 169.015 389.151 155.404 393.99C155.788 387.233 155.788 380.459 155.404 373.701C155.288 372.096 155.241 372.468 155.474 372.352ZM167.34 389.593C168.62 386.847 171.435 381.705 174.436 381.24C175.6 381.03 177.95 381.822 177.694 383.008C177.19 386.159 175.737 389.081 173.529 391.384C173.808 391.849 166.526 391.989 167.34 389.593ZM180.509 385.149C181.068 384.59 184.325 385.73 184.418 387.475C184.581 390.384 181.812 393.85 179.416 395.456C178.648 395.991 175.623 393.525 174.925 392.524C176.587 389.921 178.454 387.454 180.509 385.149ZM184.441 392.896C184.604 392.664 186.931 387.499 187.326 391.78C187.489 393.455 185 394.339 183.371 394.106C183.749 393.723 184.107 393.319 184.441 392.896ZM236.186 423.143C226.391 430.751 224.995 440.756 226.6 452.692C210.872 447.108 198.866 443.385 194.19 442.99C187.86 443.12 181.561 443.9 175.39 445.316C176.019 439.058 175.739 417.094 171.295 412.58C166.852 408.066 150.728 401.901 144.655 399.574H146.028C146.563 399.295 145.679 396.852 147.703 396.712C150.146 396.573 153.566 397.503 154.683 396.526C155.017 396.019 155.209 395.433 155.241 394.828C157.801 394.013 163.827 392.175 166.875 391.384C167.899 392.197 169.099 392.762 170.379 393.032C171.659 393.303 172.984 393.272 174.25 392.943C174.948 394.502 178.206 397.922 180.23 396.805C180.791 396.481 181.328 396.115 181.835 395.712C183.307 396.12 184.87 396.055 186.302 395.526C187.061 395.319 187.737 394.885 188.241 394.281C188.744 393.678 189.05 392.935 189.118 392.152C190.336 392.502 191.635 392.446 192.818 391.993C194.002 391.539 195.006 390.713 195.679 389.639C200.78 388.493 205.554 386.201 209.639 382.938C210.081 383.892 210.5 384.707 210.849 385.265C210.964 385.461 211.127 385.626 211.322 385.744C211.517 385.861 211.738 385.929 211.966 385.94C214.292 386.172 219.783 383.613 220.016 383.613C220.813 385.276 221.805 386.838 222.971 388.266C223.39 388.685 224.088 388.569 224.739 388.499C231.486 387.685 264.99 380.472 273.948 378.238C285.581 375.33 293.166 367.164 301.147 359.392C300.705 372.748 302.45 379.262 297.168 405.484C286.186 406.849 275.305 408.932 264.595 411.719C255.218 414.395 244.05 417.047 236.186 423.166V423.143ZM270.132 469.048L269.318 468.723C269.132 456.903 272.063 446.014 280.719 437.941C281.484 438.136 282.261 438.283 283.045 438.383C274.134 446.014 270.621 457.136 270.132 469.048ZM306.87 430.263C299.89 434.358 301.938 436.568 295.54 437.243C290.414 437.595 285.264 437.195 280.253 436.056C276.205 434.753 278.345 433.194 282.58 432.729C283.301 432.845 288.978 432.892 291.654 432.729C291.873 432.694 292.072 432.582 292.215 432.414C292.359 432.246 292.438 432.031 292.438 431.81C292.438 431.589 292.359 431.374 292.215 431.206C292.072 431.038 291.873 430.926 291.654 430.891C288.636 430.631 285.604 430.585 282.58 430.751C280.654 430.723 278.736 430.497 276.856 430.077C276.669 429.772 276.561 429.425 276.54 429.068C276.52 428.71 276.589 428.353 276.74 428.029C279.183 426.563 290.7 427.122 292.608 427.052C292.832 427.017 293.037 426.902 293.185 426.729C293.332 426.557 293.413 426.337 293.413 426.11C293.413 425.882 293.332 425.663 293.185 425.49C293.037 425.317 292.832 425.203 292.608 425.167C288.79 425.248 284.972 425.046 281.184 424.562C279.555 424.283 275.763 423.469 276.042 421.817C276.554 418.839 282.673 421.398 286.977 421.096C290.014 421.05 293.02 420.484 295.865 419.42C296.078 419.356 296.257 419.209 296.361 419.013C296.466 418.816 296.488 418.586 296.424 418.373C296.359 418.161 296.212 417.982 296.016 417.877C295.819 417.773 295.59 417.75 295.377 417.815C292.465 418.515 289.512 419.028 286.535 419.351C286.347 419.312 286.179 419.205 286.063 419.051C285.947 418.896 285.892 418.705 285.907 418.513C285.94 418.078 286.051 417.653 286.233 417.257C287.433 415.692 289.044 414.492 290.886 413.79C297.494 411.044 302.52 413.79 310.081 414.279C311.03 418.581 312.234 422.823 313.688 426.982C311.369 427.909 309.121 429.006 306.963 430.263H306.87ZM315.758 427.424C314.944 424.679 311.919 414.721 311.617 412.394C312.818 411.807 314.082 411.362 315.386 411.068C316.456 415.046 318.434 421.957 319.714 425.819C318.465 426.443 317.175 426.98 315.851 427.424H315.758ZM322.343 427.424C321.11 424.632 317.457 411.626 316.619 408.369C320.621 405.088 356.545 387.429 361.896 382.054C363.571 380.379 357.917 348.853 364.548 322.91C368.085 308.95 375.018 287.01 389.327 287.498C399.146 287.824 404.753 295.316 407.941 304.669C413.781 321.887 411.454 345.781 411.454 345.549C411.454 365.07 404.474 394.409 390.514 408.369C379.974 418.932 328.904 428.611 322.436 427.494L322.343 427.424ZM418.271 445.107C415.549 444.386 403.055 439.779 397.773 439.337C370.342 437.01 372.04 431.798 355.079 424.353C364.386 422.026 385.07 416.628 391.933 409.835C406.428 395.456 413.129 365.814 413.059 345.758C413.598 338.734 413.598 331.679 413.059 324.655C418.201 353.832 421.366 436.266 418.271 445.107Z" fill="black"/>
<path fill-rule="evenodd" clip-rule="evenodd" d="M58.5233 287.825L50.8918 288.709C53.2184 290.897 55.337 293.296 57.2204 295.875L59.3376 288.895C59.4022 288.77 59.43 288.629 59.4178 288.489C59.4056 288.348 59.3539 288.215 59.2686 288.103C59.1834 287.99 59.0681 287.905 58.9362 287.856C58.8043 287.807 58.6611 287.796 58.5233 287.825ZM279.231 500.156C277.312 498.941 275.193 498.075 272.972 497.597C278.254 489.012 277.3 478.984 275.904 478.099C274.59 476.76 272.84 475.935 270.971 475.773C263.991 474.307 247.076 474.191 242.609 477.913C241.632 478.728 241.05 480.054 242.004 480.938C241.55 486.453 242.706 491.981 245.331 496.852C243.005 497.294 240.306 498.179 239.422 500.273C239.269 500.723 239.228 501.203 239.301 501.673C239.373 502.143 239.559 502.589 239.84 502.972C241.626 505.186 244.071 506.776 246.82 507.509C251.676 508.986 256.771 509.516 261.827 509.067C266.658 508.871 271.447 508.089 276.09 506.741C281.232 504.833 281.185 501.692 279.231 500.156ZM242.819 481.357C247.82 482.723 252.991 483.365 258.175 483.265C263.826 482.878 269.408 481.784 274.787 480.007C275.253 483.208 275.082 486.469 274.283 489.604C273.485 492.738 272.074 495.684 270.134 498.272C269.665 499.093 268.988 499.778 268.171 500.255C267.354 500.733 266.426 500.988 265.48 500.994C262.223 501.413 253.335 501.645 251.52 500.831C245.634 498.109 242.726 488.22 242.819 481.357ZM261.734 506.95C256.932 507.405 252.086 506.915 247.472 505.508C245.383 504.938 243.46 503.877 241.865 502.413C241.492 502.018 240.887 501.227 241.074 500.738C241.679 499.202 244.633 498.411 246.262 498.132C247.428 499.91 249.03 501.36 250.915 502.343C253.242 503.53 266.132 503.39 268.528 502.157C270.022 501.245 271.288 500.004 272.228 498.528C273.6 498.923 278.393 500.552 278.719 501.855C279.766 505.857 265.922 506.811 261.734 507.066V506.95Z" fill="black"/>
</g>
<rect x="0.333333" y="0.333333" width="399.333" height="532.667" rx="33" stroke="#646464" stroke-width="0.666667"/>
<defs>
<clipPath id="clip0_207_7465">
<rect width="400" height="533.333" rx="33.3333" fill="white"/>
</clipPath>
</defs>
</svg>
