<svg width="100" height="100" viewBox="0 0 100 100" fill="none" xmlns="http://www.w3.org/2000/svg">
<path d="M50 12.5C47.0992 12.5 44.3172 13.6523 42.266 15.7035C40.2148 17.7547 39.0625 20.5367 39.0625 23.4375C39.0625 26.3383 40.2148 29.1203 42.266 31.1715C44.3172 33.2227 47.0992 34.375 50 34.375C52.9008 34.375 55.6828 33.2227 57.734 31.1715C59.7852 29.1203 60.9375 26.3383 60.9375 23.4375C60.9375 20.5367 59.7852 17.7547 57.734 15.7035C55.6828 13.6523 52.9008 12.5 50 12.5ZM35.9375 23.4375C35.9375 19.7079 37.4191 16.131 40.0563 13.4938C42.6935 10.8566 46.2704 9.375 50 9.375C53.7296 9.375 57.3065 10.8566 59.9437 13.4938C62.5809 16.131 64.0625 19.7079 64.0625 23.4375C64.0625 27.1671 62.5809 30.744 59.9437 33.3812C57.3065 36.0184 53.7296 37.5 50 37.5C46.2704 37.5 42.6935 36.0184 40.0563 33.3812C37.4191 30.744 35.9375 27.1671 35.9375 23.4375ZM18.75 21.875C16.2636 21.875 13.879 22.8627 12.1209 24.6209C10.3627 26.379 9.375 28.7636 9.375 31.25C9.375 33.7364 10.3627 36.121 12.1209 37.8791C13.879 39.6373 16.2636 40.625 18.75 40.625C21.2364 40.625 23.621 39.6373 25.3791 37.8791C27.1373 36.121 28.125 33.7364 28.125 31.25C28.125 28.7636 27.1373 26.379 25.3791 24.6209C23.621 22.8627 21.2364 21.875 18.75 21.875ZM6.25 31.25C6.25 27.9348 7.56696 24.7554 9.91117 22.4112C12.2554 20.067 15.4348 18.75 18.75 18.75C22.0652 18.75 25.2446 20.067 27.5888 22.4112C29.933 24.7554 31.25 27.9348 31.25 31.25C31.25 34.5652 29.933 37.7446 27.5888 40.0888C25.2446 42.433 22.0652 43.75 18.75 43.75C15.4348 43.75 12.2554 42.433 9.91117 40.0888C7.56696 37.7446 6.25 34.5652 6.25 31.25ZM71.875 31.25C71.875 28.7636 72.8627 26.379 74.6209 24.6209C76.379 22.8627 78.7636 21.875 81.25 21.875C83.7364 21.875 86.121 22.8627 87.8791 24.6209C89.6373 26.379 90.625 28.7636 90.625 31.25C90.625 33.7364 89.6373 36.121 87.8791 37.8791C86.121 39.6373 83.7364 40.625 81.25 40.625C78.7636 40.625 76.379 39.6373 74.6209 37.8791C72.8627 36.121 71.875 33.7364 71.875 31.25ZM81.25 18.75C77.9348 18.75 74.7554 20.067 72.4112 22.4112C70.067 24.7554 68.75 27.9348 68.75 31.25C68.75 34.5652 70.067 37.7446 72.4112 40.0888C74.7554 42.433 77.9348 43.75 81.25 43.75C84.5652 43.75 87.7446 42.433 90.0888 40.0888C92.433 37.7446 93.75 34.5652 93.75 31.25C93.75 27.9348 92.433 24.7554 90.0888 22.4112C87.7446 20.067 84.5652 18.75 81.25 18.75ZM31.25 51.5625C31.25 49.4905 32.0731 47.5034 33.5382 46.0382C35.0034 44.5731 36.9905 43.75 39.0625 43.75H60.9375C63.0095 43.75 64.9966 44.5731 66.4618 46.0382C67.9269 47.5034 68.75 49.4905 68.75 51.5625V68.75C68.75 73.7228 66.7746 78.492 63.2583 82.0083C59.7419 85.5246 54.9728 87.5 50 87.5C45.0272 87.5 40.2581 85.5246 36.7417 82.0083C33.2254 78.492 31.25 73.7228 31.25 68.75V51.5625ZM39.0625 46.875C37.8193 46.875 36.627 47.3689 35.7479 48.2479C34.8689 49.127 34.375 50.3193 34.375 51.5625V68.75C34.375 72.894 36.0212 76.8683 38.9515 79.7985C41.8817 82.7288 45.856 84.375 50 84.375C54.144 84.375 58.1183 82.7288 61.0485 79.7985C63.9788 76.8683 65.625 72.894 65.625 68.75V51.5625C65.625 50.3193 65.1311 49.127 64.2521 48.2479C63.373 47.3689 62.1807 46.875 60.9375 46.875H39.0625ZM28.4062 49.0844C28.2183 49.897 28.124 50.7284 28.125 51.5625V52.3969L12.85 56.4906C11.6503 56.8129 10.6276 57.5981 10.0065 58.6739C9.3854 59.7497 9.21672 61.028 9.5375 62.2281L12.3687 72.7938C12.9463 74.9503 13.9792 76.9581 15.398 78.6818C16.8168 80.4055 18.5885 81.8052 20.5939 82.7865C22.5992 83.7679 24.7915 84.3081 27.0232 84.3708C29.2548 84.4335 31.474 84.0172 33.5312 83.15C34.2667 83.9896 35.0615 84.7698 35.9156 85.4906C33.4272 86.7482 30.6896 87.4349 27.9022 87.5009C25.1149 87.5668 22.3479 87.0103 19.8027 85.8719C17.2576 84.7334 14.9984 83.0417 13.1896 80.9199C11.3809 78.798 10.0681 76.2995 9.34687 73.6063L6.51875 63.0375C6.25316 62.0464 6.1854 61.0128 6.31933 59.9955C6.45326 58.9782 6.78626 57.9973 7.29931 57.1088C7.81236 56.2202 8.49542 55.4414 9.30948 54.8168C10.1235 54.1923 11.0526 53.7342 12.0438 53.4688L28.4062 49.0844ZM64.0844 85.4906C65.2156 86.0594 66.4177 86.5167 67.6906 86.8625C72.4939 88.1491 77.6116 87.4749 81.9179 84.9883C86.2241 82.5017 89.3663 78.4064 90.6531 73.6031L93.4844 63.0406C94.0209 61.0395 93.7405 58.9072 92.705 57.1128C91.6695 55.3183 89.9636 54.0087 87.9625 53.4719L71.5938 49.0844C71.7812 49.8823 71.875 50.7083 71.875 51.5625V52.3969L87.1531 56.4906C88.3528 56.8129 89.3755 57.5981 89.9966 58.6739C90.6177 59.7497 90.7864 61.028 90.4656 62.2281L87.6375 72.7938C87.0602 74.9511 86.027 76.9596 84.6078 78.6839C83.1886 80.4082 81.4162 81.8083 79.4101 82.7897C77.4041 83.7711 75.2109 84.3111 72.9785 84.3733C70.7461 84.4354 68.5263 84.0183 66.4688 83.15C65.7333 83.9875 64.9385 84.7698 64.0844 85.4906Z" fill="#518575"/>
</svg>
