<svg width="80" height="80" viewBox="0 0 80 80" fill="none" xmlns="http://www.w3.org/2000/svg">
<path d="M33.3333 33.3334C40.6971 33.3334 46.6667 27.3639 46.6667 20.0001C46.6667 12.6363 40.6971 6.66675 33.3333 6.66675C25.9695 6.66675 20 12.6363 20 20.0001C20 27.3639 25.9695 33.3334 33.3333 33.3334Z" stroke="#2C2A29" stroke-width="5"/>
<path d="M63.334 28.9665L61.604 30.7731C62.0694 31.2193 62.6892 31.4684 63.334 31.4684C63.9787 31.4684 64.5985 31.2193 65.064 30.7731L63.334 28.9665ZM61.6207 39.1998C60.2307 38.1765 58.694 36.8998 57.5307 35.5565C56.304 34.1365 55.834 33.0331 55.834 32.3198H50.834C50.834 34.8865 52.304 37.1531 53.7507 38.8265C55.2607 40.5765 57.1307 42.1065 58.664 43.2298L61.6207 39.1998ZM55.834 32.3198C55.834 30.3998 56.7107 29.5665 57.474 29.2998C58.3073 29.0065 59.854 29.0998 61.6073 30.7765L65.064 27.1665C62.314 24.5331 58.8607 23.5131 55.8207 24.5798C52.7107 25.6698 50.834 28.6631 50.834 32.3198H55.834ZM68.0006 43.2331C69.534 42.1098 71.4073 40.5798 72.9173 38.8331C74.364 37.1598 75.834 34.8898 75.834 32.3231H70.834C70.834 33.0365 70.364 34.1398 69.134 35.5598C67.974 36.9031 66.4373 38.1798 65.0473 39.2031L68.0006 43.2331ZM75.834 32.3231C75.834 28.6665 73.9606 25.6698 70.8473 24.5798C67.8073 23.5131 64.354 24.5331 61.604 27.1665L65.064 30.7731C66.814 29.0965 68.3607 29.0065 69.1973 29.2998C69.9573 29.5665 70.834 30.3998 70.834 32.3231H75.834ZM58.6673 43.2331C59.894 44.1331 61.274 45.2598 63.334 45.2598V40.2598C63.254 40.2598 63.2007 40.2598 63.0207 40.1598C62.5342 39.871 62.0699 39.5514 61.624 39.2031L58.6673 43.2331ZM65.044 39.1998C64.5983 39.5504 64.1307 39.8721 63.644 40.1631C63.4673 40.2598 63.414 40.2598 63.334 40.2598V45.2598C65.394 45.2598 66.774 44.1365 68.0006 43.2331L65.044 39.1998Z" fill="#2C2A29"/>
<path d="M59.9927 59.9999C59.9971 59.4533 59.9993 58.8977 59.9993 58.3333C59.9993 50.0499 48.0593 43.3333 33.3327 43.3333C18.606 43.3333 6.66602 50.0499 6.66602 58.3333C6.66602 66.6166 6.66602 73.3333 33.3327 73.3333C40.7693 73.3333 46.1327 72.8099 49.9993 71.8766" stroke="#2C2A29" stroke-width="5" stroke-linecap="round"/>
</svg>
