<svg width="381" height="173" viewBox="0 0 381 173" fill="none" xmlns="http://www.w3.org/2000/svg">
<path d="M10.412 120.607C9.64645 120.607 8.98294 120.352 8.4215 119.842C7.86007 119.28 7.57936 118.54 7.57936 117.622V78.8061C7.57936 75.2333 8.19183 72.0944 9.41677 69.3893C10.6417 66.6842 12.4536 64.5916 14.8525 63.1115C17.2513 61.5803 20.1861 60.8147 23.6568 60.8147C24.5244 60.8147 25.239 61.0699 25.8004 61.5803C26.3619 62.0907 26.6426 62.7287 26.6426 63.4943C26.6426 64.2599 26.3619 64.8979 25.8004 65.4082C25.239 65.9186 24.5244 66.1738 23.6568 66.1738C21.36 66.1738 19.446 66.7097 17.9148 67.7816C16.4347 68.8024 15.3118 70.257 14.5462 72.1455C13.8317 73.9829 13.4744 76.101 13.4744 78.4999V117.622C13.4744 118.54 13.1937 119.28 12.6323 119.842C12.1219 120.352 11.3818 120.607 10.412 120.607ZM2.67957 85.3902C1.86294 85.3902 1.19943 85.1605 0.689032 84.7011C0.229677 84.1908 0 83.5783 0 82.8637C0 82.0981 0.229677 81.4857 0.689032 81.0263C1.19943 80.5159 1.86294 80.2607 2.67957 80.2607H22.6615C23.4781 80.2607 24.1161 80.5159 24.5755 81.0263C25.0859 81.4857 25.3411 82.0981 25.3411 82.8637C25.3411 83.5783 25.0859 84.1908 24.5755 84.7011C24.1161 85.1605 23.4781 85.3902 22.6615 85.3902H2.67957Z" fill="#003357"/>
<path d="M50.1983 120.99C46.2682 120.99 42.7465 120.071 39.6331 118.234C36.5197 116.346 34.0443 113.794 32.2069 110.578C30.4205 107.363 29.5273 103.739 29.5273 99.7067C29.5273 95.6236 30.446 91.9743 32.2834 88.7588C34.1719 85.5433 36.7239 83.0168 39.9394 81.1794C43.1548 79.291 46.7786 78.3467 50.8107 78.3467C54.8429 78.3467 58.4411 79.291 61.6056 81.1794C64.8211 83.0168 67.3475 85.5433 69.1849 88.7588C71.0734 91.9743 72.0432 95.6236 72.0942 99.7067L69.7209 101.544C69.7209 105.219 68.8532 108.537 67.1179 111.497C65.4335 114.406 63.1113 116.728 60.151 118.464C57.2417 120.148 53.9242 120.99 50.1983 120.99ZM50.8107 115.631C53.771 115.631 56.3996 114.942 58.6963 113.564C61.0442 112.186 62.8816 110.297 64.2086 107.899C65.5867 105.449 66.2757 102.718 66.2757 99.7067C66.2757 96.6444 65.5867 93.9138 64.2086 91.5149C62.8816 89.1161 61.0442 87.2276 58.6963 85.8495C56.3996 84.4204 53.771 83.7059 50.8107 83.7059C47.9015 83.7059 45.273 84.4204 42.9252 85.8495C40.5773 87.2276 38.7144 89.1161 37.3363 91.5149C35.9583 93.9138 35.2692 96.6444 35.2692 99.7067C35.2692 102.718 35.9583 105.449 37.3363 107.899C38.7144 110.297 40.5773 112.186 42.9252 113.564C45.273 114.942 47.9015 115.631 50.8107 115.631ZM69.1084 120.607C68.2407 120.607 67.5262 120.352 66.9647 119.842C66.4033 119.28 66.1226 118.566 66.1226 117.698V104.607L67.5772 98.5584L72.0942 99.7067V117.698C72.0942 118.566 71.8135 119.28 71.252 119.842C70.6906 120.352 69.9761 120.607 69.1084 120.607Z" fill="#003357"/>
<path d="M104.766 120.99C100.785 120.99 97.187 120.071 93.9716 118.234C90.8071 116.397 88.2807 113.896 86.3922 110.731C84.5548 107.516 83.6106 103.917 83.5595 99.9364V63.8005C83.5595 62.8818 83.8147 62.1672 84.3251 61.6568C84.8865 61.0954 85.6266 60.8147 86.5453 60.8147C87.413 60.8147 88.102 61.0954 88.6124 61.6568C89.1739 62.1672 89.4546 62.8818 89.4546 63.8005V86.3089C91.1389 83.91 93.3591 81.9961 96.1152 80.567C98.9224 79.0868 102.036 78.3467 105.455 78.3467C109.385 78.3467 112.907 79.291 116.021 81.1794C119.134 83.0168 121.584 85.5433 123.37 88.7588C125.208 91.9743 126.126 95.5981 126.126 99.6302C126.126 103.713 125.182 107.363 123.294 110.578C121.456 113.794 118.93 116.346 115.714 118.234C112.499 120.071 108.85 120.99 104.766 120.99ZM104.766 115.631C107.727 115.631 110.381 114.942 112.729 113.564C115.076 112.135 116.914 110.221 118.241 107.822C119.619 105.423 120.308 102.693 120.308 99.6302C120.308 96.6189 119.619 93.9138 118.241 91.5149C116.914 89.065 115.076 87.151 112.729 85.773C110.381 84.3949 107.727 83.7059 104.766 83.7059C101.857 83.7059 99.2286 84.3949 96.8808 85.773C94.533 87.151 92.6956 89.065 91.3685 91.5149C90.0415 93.9138 89.378 96.6189 89.378 99.6302C89.378 102.693 90.0415 105.423 91.3685 107.822C92.6956 110.221 94.533 112.135 96.8808 113.564C99.2286 114.942 101.857 115.631 104.766 115.631Z" fill="#003357"/>
<path d="M155.91 121.067C152.286 121.067 149.046 120.327 146.187 118.847C143.329 117.315 141.058 115.095 139.374 112.186C137.74 109.277 136.924 105.729 136.924 101.544V81.6388C136.924 80.8222 137.204 80.1331 137.766 79.5717C138.327 79.0103 139.016 78.7295 139.833 78.7295C140.701 78.7295 141.415 79.0103 141.977 79.5717C142.538 80.1331 142.819 80.8222 142.819 81.6388V101.544C142.819 104.709 143.406 107.312 144.58 109.353C145.804 111.395 147.438 112.926 149.479 113.947C151.572 114.968 153.92 115.478 156.523 115.478C159.024 115.478 161.269 114.993 163.26 114.023C165.302 113.054 166.909 111.727 168.083 110.042C169.257 108.358 169.844 106.444 169.844 104.3H174.055C173.902 107.516 173.009 110.4 171.375 112.951C169.793 115.452 167.649 117.443 164.944 118.923C162.239 120.352 159.228 121.067 155.91 121.067ZM172.753 120.607C171.886 120.607 171.171 120.352 170.61 119.842C170.099 119.28 169.844 118.54 169.844 117.622V81.6388C169.844 80.7711 170.099 80.0821 170.61 79.5717C171.171 79.0103 171.886 78.7295 172.753 78.7295C173.621 78.7295 174.336 79.0103 174.897 79.5717C175.458 80.0821 175.739 80.7711 175.739 81.6388V117.622C175.739 118.54 175.458 119.28 174.897 119.842C174.336 120.352 173.621 120.607 172.753 120.607Z" fill="#003357"/>
<path d="M198.535 120.607C196.494 120.607 194.656 120.046 193.023 118.923C191.441 117.8 190.19 116.244 189.272 114.253C188.404 112.262 187.97 109.966 187.97 107.363V63.7239C187.97 62.8563 188.225 62.1672 188.736 61.6568C189.297 61.0954 190.012 60.8147 190.879 60.8147C191.747 60.8147 192.436 61.0954 192.946 61.6568C193.508 62.1672 193.789 62.8563 193.789 63.7239V107.363C193.789 109.557 194.222 111.344 195.09 112.722C196.009 114.1 197.157 114.789 198.535 114.789H200.449C201.215 114.789 201.827 115.07 202.287 115.631C202.746 116.141 202.976 116.83 202.976 117.698C202.976 118.566 202.644 119.28 201.98 119.842C201.368 120.352 200.551 120.607 199.53 120.607H198.535Z" fill="#003357"/>
<path d="M227.241 120.99C223.311 120.99 219.79 120.071 216.676 118.234C213.563 116.346 211.087 113.794 209.25 110.578C207.464 107.363 206.57 103.739 206.57 99.7067C206.57 95.6236 207.489 91.9743 209.326 88.7588C211.215 85.5433 213.767 83.0168 216.982 81.1794C220.198 79.291 223.822 78.3467 227.854 78.3467C231.886 78.3467 235.484 79.291 238.649 81.1794C241.864 83.0168 244.391 85.5433 246.228 88.7588C248.116 91.9743 249.086 95.6236 249.137 99.7067L246.764 101.544C246.764 105.219 245.896 108.537 244.161 111.497C242.477 114.406 240.154 116.728 237.194 118.464C234.285 120.148 230.967 120.99 227.241 120.99ZM227.854 115.631C230.814 115.631 233.443 114.942 235.739 113.564C238.087 112.186 239.925 110.297 241.252 107.899C242.63 105.449 243.319 102.718 243.319 99.7067C243.319 96.6444 242.63 93.9138 241.252 91.5149C239.925 89.1161 238.087 87.2276 235.739 85.8495C233.443 84.4204 230.814 83.7059 227.854 83.7059C224.945 83.7059 222.316 84.4204 219.968 85.8495C217.62 87.2276 215.757 89.1161 214.379 91.5149C213.001 93.9138 212.312 96.6444 212.312 99.7067C212.312 102.718 213.001 105.449 214.379 107.899C215.757 110.297 217.62 112.186 219.968 113.564C222.316 114.942 224.945 115.631 227.854 115.631ZM246.151 120.607C245.284 120.607 244.569 120.352 244.008 119.842C243.446 119.28 243.166 118.566 243.166 117.698V104.607L244.62 98.5584L249.137 99.7067V117.698C249.137 118.566 248.857 119.28 248.295 119.842C247.734 120.352 247.019 120.607 246.151 120.607Z" fill="#003357"/>
<path d="M275.225 120.99C272.214 120.99 269.228 120.48 266.268 119.459C263.308 118.438 260.909 116.907 259.071 114.865C258.51 114.253 258.28 113.564 258.382 112.798C258.484 112.033 258.867 111.369 259.531 110.808C260.245 110.297 260.985 110.093 261.751 110.195C262.517 110.297 263.155 110.629 263.665 111.191C264.89 112.62 266.498 113.717 268.488 114.483C270.53 115.248 272.775 115.631 275.225 115.631C279.002 115.631 281.733 114.993 283.417 113.717C285.101 112.39 285.969 110.808 286.02 108.97C286.02 107.133 285.152 105.627 283.417 104.453C281.682 103.228 278.824 102.284 274.843 101.621C269.688 100.804 265.911 99.375 263.512 97.3334C261.113 95.2918 259.914 92.8675 259.914 90.0603C259.914 87.4573 260.603 85.2881 261.981 83.5528C263.359 81.8174 265.196 80.5159 267.493 79.6482C269.79 78.7806 272.316 78.3467 275.072 78.3467C278.492 78.3467 281.427 78.9337 283.877 80.1076C286.377 81.2815 288.393 82.8637 289.925 84.8543C290.435 85.5178 290.639 86.2068 290.537 86.9214C290.435 87.6359 290.027 88.2229 289.312 88.6822C288.7 89.0395 287.985 89.1671 287.169 89.065C286.403 88.9119 285.739 88.5291 285.178 87.9166C283.902 86.4365 282.422 85.3647 280.738 84.7011C279.053 83.9866 277.114 83.6293 274.919 83.6293C272.112 83.6293 269.866 84.2163 268.182 85.3902C266.498 86.513 265.655 87.9422 265.655 89.6775C265.655 90.8514 265.962 91.8722 266.574 92.7399C267.238 93.6075 268.335 94.3731 269.866 95.0366C271.448 95.7001 273.643 96.2616 276.45 96.7209C280.278 97.3334 283.29 98.2521 285.484 99.4771C287.73 100.651 289.312 102.055 290.231 103.688C291.201 105.27 291.686 107.005 291.686 108.894C291.686 111.293 290.971 113.411 289.542 115.248C288.164 117.035 286.224 118.438 283.723 119.459C281.273 120.48 278.441 120.99 275.225 120.99Z" fill="#003357"/>
<path d="M368.159 0.5L364.656 5.00154C358.169 13.3372 347.421 17.02 337.209 14.4058L331.875 13.0401L336.19 16.5025C344.451 23.1302 348.112 34.0223 345.541 44.3171L344.152 49.8764L347.655 45.375C354.142 37.0392 364.89 33.3566 375.102 35.9708L380.436 37.3364L376.121 33.874C367.861 27.2462 364.199 16.3542 366.771 6.05936L368.159 0.5Z" fill="#76E0C2"/>
<path d="M332.077 38.0312L330.971 39.429C328.923 42.0176 325.53 43.1612 322.305 42.3494L320.621 41.9252L321.983 43.0004C324.592 45.0585 325.748 48.4408 324.937 51.6376L324.497 53.364L325.604 51.9662C327.652 49.3776 331.045 48.234 334.27 49.0458L335.954 49.47L334.592 48.3948C331.983 46.3367 330.827 42.9544 331.638 39.7576L332.077 38.0312Z" fill="#76E0C2"/>
<path d="M326.517 60.5405L325.813 61.4301C324.509 63.0773 322.35 63.805 320.298 63.2884L319.227 63.0186L320.094 63.7027C321.754 65.0124 322.49 67.1648 321.973 69.1992L321.694 70.2977L322.398 69.4081C323.701 67.761 325.86 67.0332 327.912 67.5498L328.984 67.8197L328.117 67.1355C326.457 65.8258 325.721 63.6734 326.238 61.639L326.517 60.5405Z" fill="#76E0C2"/>
<path d="M338.709 73.189L337.905 74.2055C336.416 76.0881 333.948 76.9198 331.603 76.3294L330.378 76.0209L331.369 76.8029C333.266 78.2998 334.107 80.7596 333.516 83.0845L333.198 84.34L334.002 83.3235C335.491 81.4409 337.959 80.6092 340.304 81.1996L341.529 81.5081L340.538 80.7261C338.641 79.2292 337.8 76.7694 338.391 74.4444L338.709 73.189Z" fill="#76E0C2"/>
<path d="M318.755 81.5522L318.252 82.1876C317.321 83.3642 315.779 83.8841 314.313 83.515L313.548 83.3222L314.167 83.811C315.353 84.7465 315.878 86.2839 315.509 87.7369L315.31 88.5217L315.813 87.8863C316.744 86.7097 318.286 86.1898 319.752 86.5589L320.517 86.7517L319.898 86.2629C318.712 85.3274 318.187 83.79 318.556 82.337L318.755 81.5522Z" fill="#76E0C2"/>
<path d="M360.146 54.9651L358.638 56.8712C355.845 60.4009 351.217 61.9604 346.821 60.8534L344.523 60.2751L346.381 61.7413C349.937 64.5477 351.515 69.16 350.407 73.5192L349.809 75.8733L351.317 73.9672C354.111 70.4375 358.738 68.878 363.135 69.985L365.432 70.5633L363.574 69.0971C360.018 66.2907 358.44 61.6784 359.548 57.3192L360.146 54.9651Z" fill="#76E0C2"/>
<path d="M4.79199 157.788H2.20117V156.428H4.79199C5.24316 156.428 5.60775 156.355 5.88574 156.209C6.16374 156.063 6.36654 155.863 6.49414 155.607C6.6263 155.348 6.69238 155.051 6.69238 154.719C6.69238 154.404 6.6263 154.11 6.49414 153.837C6.36654 153.559 6.16374 153.336 5.88574 153.167C5.60775 152.998 5.24316 152.914 4.79199 152.914H2.72754V161.5H1.01172V151.547H4.79199C5.56217 151.547 6.21615 151.684 6.75391 151.957C7.29622 152.226 7.70866 152.6 7.99121 153.078C8.27376 153.552 8.41504 154.094 8.41504 154.705C8.41504 155.348 8.27376 155.899 7.99121 156.359C7.70866 156.82 7.29622 157.173 6.75391 157.419C6.21615 157.665 5.56217 157.788 4.79199 157.788ZM11.4434 155.512V161.5H9.7959V154.104H11.3682L11.4434 155.512ZM13.7061 154.056L13.6924 155.587C13.5921 155.569 13.4827 155.555 13.3643 155.546C13.2503 155.537 13.1364 155.532 13.0225 155.532C12.7399 155.532 12.4915 155.573 12.2773 155.655C12.0632 155.733 11.8831 155.847 11.7373 155.997C11.596 156.143 11.4867 156.321 11.4092 156.53C11.3317 156.74 11.2861 156.975 11.2725 157.234L10.8965 157.262C10.8965 156.797 10.9421 156.366 11.0332 155.97C11.1243 155.573 11.2611 155.225 11.4434 154.924C11.6302 154.623 11.8626 154.388 12.1406 154.22C12.4232 154.051 12.749 153.967 13.1182 153.967C13.2184 153.967 13.3255 153.976 13.4395 153.994C13.5579 154.012 13.6468 154.033 13.7061 154.056ZM14.2461 157.884V157.727C14.2461 157.193 14.3236 156.699 14.4785 156.243C14.6335 155.783 14.8568 155.384 15.1484 155.047C15.4447 154.705 15.8047 154.441 16.2285 154.254C16.6569 154.062 17.14 153.967 17.6777 153.967C18.2201 153.967 18.7031 154.062 19.127 154.254C19.5553 154.441 19.9176 154.705 20.2139 155.047C20.5101 155.384 20.7357 155.783 20.8906 156.243C21.0456 156.699 21.123 157.193 21.123 157.727V157.884C21.123 158.417 21.0456 158.911 20.8906 159.367C20.7357 159.823 20.5101 160.222 20.2139 160.563C19.9176 160.901 19.5576 161.165 19.1338 161.356C18.71 161.543 18.2292 161.637 17.6914 161.637C17.1491 161.637 16.6637 161.543 16.2354 161.356C15.8115 161.165 15.4515 160.901 15.1553 160.563C14.859 160.222 14.6335 159.823 14.4785 159.367C14.3236 158.911 14.2461 158.417 14.2461 157.884ZM15.8936 157.727V157.884C15.8936 158.216 15.9277 158.531 15.9961 158.827C16.0645 159.123 16.1715 159.383 16.3174 159.606C16.4632 159.83 16.6501 160.005 16.8779 160.133C17.1058 160.26 17.377 160.324 17.6914 160.324C17.9967 160.324 18.2611 160.26 18.4844 160.133C18.7122 160.005 18.8991 159.83 19.0449 159.606C19.1908 159.383 19.2979 159.123 19.3662 158.827C19.4391 158.531 19.4756 158.216 19.4756 157.884V157.727C19.4756 157.398 19.4391 157.089 19.3662 156.797C19.2979 156.501 19.1885 156.239 19.0381 156.011C18.8923 155.783 18.7054 155.605 18.4775 155.478C18.2542 155.345 17.9876 155.279 17.6777 155.279C17.3678 155.279 17.099 155.345 16.8711 155.478C16.6478 155.605 16.4632 155.783 16.3174 156.011C16.1715 156.239 16.0645 156.501 15.9961 156.797C15.9277 157.089 15.8936 157.398 15.8936 157.727ZM27.0156 159.969V151H28.6699V161.5H27.1729L27.0156 159.969ZM22.2031 157.884V157.74C22.2031 157.18 22.2692 156.669 22.4014 156.209C22.5335 155.744 22.7249 155.345 22.9756 155.013C23.2262 154.675 23.5316 154.418 23.8916 154.24C24.2516 154.058 24.6572 153.967 25.1084 153.967C25.555 153.967 25.9469 154.053 26.2842 154.227C26.6214 154.4 26.9085 154.648 27.1455 154.972C27.3825 155.291 27.5716 155.674 27.7129 156.12C27.8542 156.562 27.9544 157.054 28.0137 157.597V158.055C27.9544 158.583 27.8542 159.066 27.7129 159.504C27.5716 159.941 27.3825 160.32 27.1455 160.639C26.9085 160.958 26.6191 161.204 26.2773 161.377C25.9401 161.55 25.5459 161.637 25.0947 161.637C24.6481 161.637 24.2448 161.543 23.8848 161.356C23.5293 161.17 23.2262 160.908 22.9756 160.57C22.7249 160.233 22.5335 159.837 22.4014 159.381C22.2692 158.921 22.2031 158.422 22.2031 157.884ZM23.8506 157.74V157.884C23.8506 158.221 23.8802 158.535 23.9395 158.827C24.0033 159.119 24.1012 159.376 24.2334 159.6C24.3656 159.818 24.5365 159.992 24.7461 160.119C24.9603 160.242 25.2155 160.304 25.5117 160.304C25.8854 160.304 26.193 160.222 26.4346 160.058C26.6761 159.894 26.8652 159.673 27.002 159.395C27.1432 159.112 27.2389 158.798 27.2891 158.451V157.214C27.2617 156.945 27.2048 156.694 27.1182 156.462C27.0361 156.229 26.9245 156.027 26.7832 155.854C26.6419 155.676 26.4665 155.539 26.2568 155.443C26.0518 155.343 25.8079 155.293 25.5254 155.293C25.2246 155.293 24.9694 155.357 24.7598 155.484C24.5501 155.612 24.377 155.787 24.2402 156.011C24.1081 156.234 24.0101 156.494 23.9463 156.79C23.8825 157.086 23.8506 157.403 23.8506 157.74ZM34.8428 159.757V154.104H36.4971V161.5H34.9385L34.8428 159.757ZM35.0752 158.219L35.6289 158.205C35.6289 158.702 35.5742 159.16 35.4648 159.579C35.3555 159.994 35.1868 160.356 34.959 160.666C34.7311 160.971 34.4395 161.211 34.084 161.384C33.7285 161.552 33.3024 161.637 32.8057 161.637C32.4456 161.637 32.1152 161.584 31.8145 161.479C31.5137 161.375 31.2539 161.213 31.0352 160.994C30.821 160.775 30.6546 160.491 30.5361 160.14C30.4176 159.789 30.3584 159.369 30.3584 158.882V154.104H32.0059V158.896C32.0059 159.164 32.0378 159.39 32.1016 159.572C32.1654 159.75 32.252 159.894 32.3613 160.003C32.4707 160.112 32.5983 160.19 32.7441 160.235C32.89 160.281 33.0449 160.304 33.209 160.304C33.6784 160.304 34.0475 160.213 34.3164 160.03C34.5898 159.843 34.7835 159.593 34.8975 159.278C35.016 158.964 35.0752 158.611 35.0752 158.219ZM41.207 160.324C41.4759 160.324 41.7174 160.272 41.9316 160.167C42.1504 160.058 42.3258 159.907 42.458 159.716C42.5947 159.524 42.6699 159.303 42.6836 159.053H44.2354C44.2262 159.531 44.085 159.966 43.8115 160.358C43.5381 160.75 43.1758 161.062 42.7246 161.295C42.2734 161.523 41.7744 161.637 41.2275 161.637C40.6624 161.637 40.1702 161.541 39.751 161.35C39.3317 161.154 38.9831 160.885 38.7051 160.543C38.4271 160.201 38.2174 159.807 38.0762 159.36C37.9395 158.914 37.8711 158.435 37.8711 157.925V157.686C37.8711 157.175 37.9395 156.697 38.0762 156.25C38.2174 155.799 38.4271 155.402 38.7051 155.061C38.9831 154.719 39.3317 154.452 39.751 154.261C40.1702 154.065 40.6602 153.967 41.2207 153.967C41.8132 153.967 42.3327 154.085 42.7793 154.322C43.2259 154.555 43.5768 154.881 43.832 155.3C44.0918 155.715 44.2262 156.198 44.2354 156.749H42.6836C42.6699 156.476 42.6016 156.229 42.4785 156.011C42.36 155.787 42.1914 155.61 41.9727 155.478C41.7585 155.345 41.501 155.279 41.2002 155.279C40.8675 155.279 40.5918 155.348 40.373 155.484C40.1543 155.617 39.9834 155.799 39.8604 156.031C39.7373 156.259 39.6484 156.517 39.5938 156.804C39.5436 157.086 39.5186 157.38 39.5186 157.686V157.925C39.5186 158.23 39.5436 158.526 39.5938 158.813C39.6439 159.101 39.7305 159.358 39.8535 159.586C39.9811 159.809 40.1543 159.989 40.373 160.126C40.5918 160.258 40.8698 160.324 41.207 160.324ZM48.8906 154.104V155.307H44.7207V154.104H48.8906ZM45.9238 152.292H47.5713V159.456C47.5713 159.684 47.6032 159.859 47.667 159.982C47.7354 160.101 47.8288 160.181 47.9473 160.222C48.0658 160.263 48.2048 160.283 48.3643 160.283C48.4782 160.283 48.5876 160.276 48.6924 160.263C48.7972 160.249 48.8815 160.235 48.9453 160.222L48.9521 161.479C48.8154 161.521 48.6559 161.557 48.4736 161.589C48.2959 161.621 48.0908 161.637 47.8584 161.637C47.4801 161.637 47.1452 161.571 46.8535 161.438C46.5618 161.302 46.334 161.081 46.1699 160.775C46.0059 160.47 45.9238 160.064 45.9238 159.559V152.292ZM53.6553 151H55.3027V159.921L55.1455 161.5H53.6553V151ZM60.1289 157.733V157.877C60.1289 158.424 60.0674 158.927 59.9443 159.388C59.8258 159.843 59.6436 160.24 59.3975 160.577C59.1559 160.914 58.8551 161.176 58.4951 161.363C58.1396 161.546 57.7272 161.637 57.2578 161.637C56.7975 161.637 56.3965 161.55 56.0547 161.377C55.7129 161.204 55.4258 160.958 55.1934 160.639C54.9655 160.32 54.7809 159.939 54.6396 159.497C54.4984 159.055 54.3981 158.567 54.3389 158.034V157.576C54.3981 157.038 54.4984 156.551 54.6396 156.113C54.7809 155.671 54.9655 155.291 55.1934 154.972C55.4258 154.648 55.7106 154.4 56.0479 154.227C56.3896 154.053 56.7884 153.967 57.2441 153.967C57.7181 153.967 58.1351 154.058 58.4951 154.24C58.8597 154.423 59.1628 154.682 59.4043 155.02C59.6458 155.352 59.8258 155.749 59.9443 156.209C60.0674 156.669 60.1289 157.177 60.1289 157.733ZM58.4814 157.877V157.733C58.4814 157.401 58.4541 157.089 58.3994 156.797C58.3447 156.501 58.2536 156.241 58.126 156.018C58.0029 155.794 57.8343 155.619 57.6201 155.491C57.4105 155.359 57.1484 155.293 56.834 155.293C56.5423 155.293 56.2917 155.343 56.082 155.443C55.8724 155.544 55.6969 155.68 55.5557 155.854C55.4144 156.027 55.3027 156.227 55.2207 156.455C55.1432 156.683 55.0908 156.929 55.0635 157.193V158.431C55.1045 158.772 55.1911 159.087 55.3232 159.374C55.46 159.657 55.6514 159.884 55.8975 160.058C56.1436 160.226 56.4603 160.311 56.8477 160.311C57.153 160.311 57.4105 160.249 57.6201 160.126C57.8298 160.003 57.9961 159.832 58.1191 159.613C58.2467 159.39 58.3379 159.13 58.3926 158.834C58.4518 158.538 58.4814 158.219 58.4814 157.877ZM63.5879 160.693L65.5977 154.104H67.3613L64.3945 162.628C64.3262 162.81 64.2373 163.008 64.1279 163.223C64.0186 163.437 63.875 163.64 63.6973 163.831C63.5241 164.027 63.3076 164.184 63.0479 164.303C62.7881 164.426 62.4736 164.487 62.1045 164.487C61.9587 164.487 61.8174 164.474 61.6807 164.446C61.5485 164.424 61.4232 164.398 61.3047 164.371L61.2979 163.113C61.3434 163.118 61.3981 163.122 61.4619 163.127C61.5303 163.132 61.585 163.134 61.626 163.134C61.8994 163.134 62.1273 163.1 62.3096 163.031C62.4919 162.967 62.64 162.863 62.7539 162.717C62.8724 162.571 62.9727 162.375 63.0547 162.129L63.5879 160.693ZM62.4531 154.104L64.21 159.641L64.5039 161.377L63.3623 161.671L60.6758 154.104H62.4531Z" fill="#003357"/>
<path d="M99.6431 153.852C103.658 155.091 106.979 157.458 106.767 161.416C106.668 163.285 106.25 164.931 104.822 165.795C103.1 164.441 101.326 162.914 99.3787 162.137C96.2395 160.884 92.7614 160.094 89.5106 159.091C85.4957 157.851 81.7837 155.232 82.2715 151.181C82.48 149.449 82.7174 148.534 84.1459 147.67C85.868 149.024 87.8279 150.028 89.775 150.805C92.9141 152.058 96.3924 152.848 99.6431 153.852Z" fill="#003357"/>
<path d="M82.4228 148.268C83.2128 143.962 87.5864 141.393 92.2141 141.165L105.629 140.502C106.489 140.459 107.143 141.221 106.92 142.005C105.464 147.13 105.223 152.457 98.7128 152.457C94.8286 152.457 88.5915 152.111 83.2454 155.115C81.9709 153.373 81.9887 150.634 82.4228 148.268Z" fill="#00D7B0"/>
<path d="M106.673 164.732C105.883 169.038 101.509 171.607 96.8816 171.835L83.4666 172.498C82.6065 172.541 81.9527 171.779 82.1756 170.995C83.6318 165.87 83.8728 160.543 90.3829 160.543C94.2671 160.543 100.504 160.889 105.85 157.885C107.125 159.627 107.107 162.366 106.673 164.732Z" fill="#00D7B0"/>
<path d="M131.841 164.719C130.646 164.719 129.504 164.54 128.414 164.181C127.324 163.808 126.465 163.33 125.838 162.748L126.667 161.001C127.264 161.523 128.026 161.956 128.951 162.3C129.877 162.643 130.841 162.815 131.841 162.815C132.752 162.815 133.491 162.711 134.059 162.501C134.626 162.292 135.044 162.009 135.313 161.65C135.582 161.277 135.716 160.859 135.716 160.396C135.716 159.858 135.537 159.425 135.179 159.097C134.835 158.768 134.38 158.507 133.812 158.313C133.26 158.104 132.647 157.924 131.975 157.775C131.303 157.626 130.624 157.454 129.937 157.26C129.265 157.051 128.645 156.789 128.078 156.476C127.525 156.162 127.077 155.744 126.734 155.221C126.39 154.684 126.219 153.997 126.219 153.161C126.219 152.354 126.428 151.615 126.846 150.943C127.279 150.256 127.936 149.711 128.817 149.308C129.713 148.89 130.848 148.681 132.222 148.681C133.133 148.681 134.036 148.8 134.932 149.039C135.828 149.278 136.605 149.621 137.262 150.069L136.523 151.861C135.851 151.413 135.141 151.092 134.395 150.898C133.648 150.689 132.924 150.585 132.222 150.585C131.341 150.585 130.617 150.697 130.049 150.921C129.482 151.145 129.063 151.443 128.795 151.817C128.541 152.19 128.414 152.608 128.414 153.071C128.414 153.624 128.586 154.064 128.929 154.393C129.287 154.721 129.743 154.983 130.295 155.177C130.863 155.371 131.483 155.55 132.155 155.714C132.827 155.864 133.499 156.035 134.171 156.229C134.858 156.424 135.477 156.677 136.03 156.991C136.597 157.305 137.053 157.723 137.396 158.245C137.74 158.768 137.911 159.44 137.911 160.261C137.911 161.053 137.695 161.792 137.262 162.479C136.829 163.151 136.157 163.696 135.246 164.114C134.35 164.517 133.215 164.719 131.841 164.719Z" fill="#003357"/>
<path d="M143.424 164.54V148.86H149.539C150.913 148.86 152.085 149.076 153.056 149.509C154.027 149.943 154.773 150.57 155.296 151.391C155.819 152.212 156.08 153.191 156.08 154.325C156.08 155.46 155.819 156.439 155.296 157.26C154.773 158.066 154.027 158.693 153.056 159.141C152.085 159.575 150.913 159.791 149.539 159.791H144.656L145.664 158.738V164.54H143.424ZM145.664 158.962L144.656 157.842H149.472C150.906 157.842 151.988 157.536 152.72 156.924C153.467 156.312 153.84 155.445 153.84 154.325C153.84 153.205 153.467 152.339 152.72 151.727C151.988 151.115 150.906 150.809 149.472 150.809H144.656L145.664 149.689V158.962Z" fill="#003357"/>
<path d="M161.611 164.54V148.86H163.851V162.591H172.34V164.54H161.611Z" fill="#003357"/>
<path d="M179.189 155.625H187.253V157.529H179.189V155.625ZM179.391 162.591H188.53V164.54H177.151V148.86H188.216V150.809H179.391V162.591Z" fill="#003357"/>
<path d="M194.397 164.54V148.86H196.234L206.605 161.74H205.642V148.86H207.882V164.54H206.045L195.674 151.66H196.637V164.54H194.397Z" fill="#003357"/>
<path d="M214.815 164.54V148.86H221.423C223.096 148.86 224.567 149.188 225.836 149.845C227.12 150.503 228.113 151.421 228.815 152.601C229.532 153.78 229.89 155.147 229.89 156.7C229.89 158.253 229.532 159.619 228.815 160.799C228.113 161.979 227.12 162.897 225.836 163.554C224.567 164.211 223.096 164.54 221.423 164.54H214.815ZM217.055 162.591H221.289C222.588 162.591 223.708 162.345 224.649 161.852C225.605 161.359 226.344 160.672 226.866 159.791C227.389 158.895 227.65 157.865 227.65 156.7C227.65 155.52 227.389 154.49 226.866 153.609C226.344 152.728 225.605 152.041 224.649 151.548C223.708 151.055 222.588 150.809 221.289 150.809H217.055V162.591Z" fill="#003357"/>
<path d="M235.562 164.54V148.86H237.801V164.54H235.562Z" fill="#003357"/>
<path d="M246.752 156.274H254.838V158.201H246.752V156.274ZM246.976 164.54H244.736V148.86H255.801V150.809H246.976V164.54Z" fill="#003357"/>
<path d="M264.98 164.54V158.537L265.495 159.925L258.753 148.86H261.15L266.817 158.201H265.518L271.207 148.86H273.425L266.705 159.925L267.198 158.537V164.54H264.98Z" fill="#003357"/>
</svg>
