<svg width="30" height="30" viewBox="0 0 30 30" fill="none" xmlns="http://www.w3.org/2000/svg">
<rect x="0.25" y="0.25" width="29.5" height="29.5" rx="4.55" stroke="#2C2A29" stroke-width="0.5"/>
<path d="M20.2179 4.16016L19.3649 5.2569C17.7852 7.28778 15.1679 8.18504 12.6813 7.54812L11.3823 7.21538L12.4332 8.05894C14.4446 9.67371 15.3363 12.3274 14.71 14.8356L14.372 16.1901L15.225 15.0934C16.8046 13.0625 19.4219 12.1652 21.9086 12.8021L23.2075 13.1349L22.1567 12.2913C20.1453 10.6765 19.2536 8.02281 19.8798 5.51462L20.2179 4.16016Z" fill="#2C2A29"/>
<path d="M11.4313 13.3042L11.1618 13.6448C10.6632 14.2754 9.83705 14.554 9.05162 14.3562L8.6416 14.2529L8.97322 14.5149C9.60862 15.0163 9.89 15.8403 9.69246 16.6192L9.58554 17.0398L9.85504 16.6993C10.3537 16.0686 11.1798 15.79 11.9653 15.9878L12.3753 16.0911L12.0437 15.8291C11.4083 15.3277 11.1269 14.5037 11.3244 13.7248L11.4313 13.3042Z" fill="#2C2A29"/>
<path d="M10.0774 18.7882L9.90603 19.0049C9.58867 19.4062 9.0629 19.5836 8.56326 19.4577L8.30225 19.392L8.51337 19.5586C8.91762 19.8777 9.09684 20.4021 8.97091 20.8978L8.90303 21.1654L9.07444 20.9487C9.3918 20.5474 9.91757 20.3701 10.4172 20.4959L10.6782 20.5617L10.4671 20.395C10.0628 20.0759 9.88363 19.5515 10.0096 19.0558L10.0774 18.7882Z" fill="#2C2A29"/>
<path d="M13.0466 21.8699L12.8507 22.1175C12.4882 22.5762 11.8871 22.7788 11.3162 22.635L11.0178 22.5598L11.2592 22.7504C11.7211 23.1151 11.9258 23.7143 11.7819 24.2808L11.7045 24.5867L11.9003 24.339C12.2628 23.8803 12.864 23.6777 13.4349 23.8216L13.7332 23.8967L13.4919 23.7062C13.0299 23.3415 12.8253 22.7422 12.9692 22.1758L13.0466 21.8699Z" fill="#2C2A29"/>
<path d="M8.18752 23.9075L8.06499 24.0623C7.83826 24.3489 7.46285 24.4756 7.10578 24.3857L6.91943 24.3387L7.07014 24.4578C7.35899 24.6857 7.48695 25.0603 7.397 25.4143L7.34847 25.6055L7.471 25.4507C7.69773 25.164 8.07314 25.0374 8.43021 25.1273L8.61656 25.1743L8.46585 25.0552C8.177 24.8272 8.04904 24.4527 8.13899 24.0987L8.18752 23.9075Z" fill="#2C2A29"/>
<path d="M18.2667 17.4298L17.8994 17.8942C17.2192 18.7542 16.0923 19.1341 15.0218 18.8644L14.4624 18.7235L14.9149 19.0807C15.7807 19.7645 16.165 20.8882 15.8951 21.9503L15.7495 22.5238L16.1168 22.0594C16.797 21.1994 17.9239 20.8195 18.9944 21.0892L19.5538 21.2301L19.1013 20.8729C18.2354 20.1891 17.8512 19.0654 18.1211 18.0034L18.2667 17.4298Z" fill="#2C2A29"/>
</svg>
