<svg width="395" height="126" viewBox="0 0 395 126" fill="none" xmlns="http://www.w3.org/2000/svg">
<path d="M10.8047 125.137C10.0102 125.137 9.3217 124.872 8.7391 124.342C8.15649 123.76 7.86519 122.992 7.86519 122.038V81.7591C7.86519 78.0516 8.50076 74.7943 9.7719 71.9872C11.043 69.1801 12.9233 67.0086 15.4126 65.4726C17.9019 63.8837 20.9474 63.0892 24.5489 63.0892C25.4493 63.0892 26.1908 63.3541 26.7734 63.8837C27.356 64.4133 27.6473 65.0754 27.6473 65.8699C27.6473 66.6643 27.356 67.3264 26.7734 67.856C26.1908 68.3857 25.4493 68.6505 24.5489 68.6505C22.1655 68.6505 20.1794 69.2066 18.5904 70.3188C17.0545 71.3781 15.8893 72.8876 15.0948 74.8473C14.3533 76.754 13.9826 78.952 13.9826 81.4413V122.038C13.9826 122.992 13.6913 123.76 13.1086 124.342C12.579 124.872 11.811 125.137 10.8047 125.137ZM2.78062 88.5915C1.93319 88.5915 1.24466 88.3532 0.715017 87.8765C0.238339 87.3468 0 86.7113 0 85.9698C0 85.1753 0.238339 84.5397 0.715017 84.0631C1.24466 83.5334 1.93319 83.2686 2.78062 83.2686H23.5161C24.3635 83.2686 25.0256 83.5334 25.5023 84.0631C26.0319 84.5397 26.2967 85.1753 26.2967 85.9698C26.2967 86.7113 26.0319 87.3468 25.5023 87.8765C25.0256 88.3532 24.3635 88.5915 23.5161 88.5915H2.78062Z" fill="#003357"/>
<path d="M52.0914 125.534C48.0131 125.534 44.3586 124.581 41.1278 122.674C37.8969 120.714 35.3282 118.066 33.4215 114.729C31.5677 111.393 30.6408 107.632 30.6408 103.448C30.6408 99.2108 31.5942 95.4239 33.5009 92.0871C35.4606 88.7504 38.1088 86.1287 41.4455 84.222C44.7823 82.2623 48.5427 81.2824 52.7269 81.2824C56.9111 81.2824 60.6451 82.2623 63.9289 84.222C67.2656 86.1287 69.8873 88.7504 71.794 92.0871C73.7537 95.4239 74.76 99.2108 74.813 103.448L72.3502 105.355C72.3502 109.168 71.4498 112.611 69.649 115.683C67.9012 118.702 65.4913 121.112 62.4194 122.912C59.4004 124.66 55.9577 125.534 52.0914 125.534ZM52.7269 119.973C55.7988 119.973 58.5265 119.258 60.9099 117.828C63.3463 116.398 65.253 114.438 66.63 111.949C68.0601 109.406 68.7751 106.573 68.7751 103.448C68.7751 100.27 68.0601 97.4365 66.63 94.9472C65.253 92.4579 63.3463 90.4982 60.9099 89.0682C58.5265 87.5852 55.7988 86.8437 52.7269 86.8437C49.708 86.8437 46.9803 87.5852 44.544 89.0682C42.1076 90.4982 40.1744 92.4579 38.7444 94.9472C37.3143 97.4365 36.5993 100.27 36.5993 103.448C36.5993 106.573 37.3143 109.406 38.7444 111.949C40.1744 114.438 42.1076 116.398 44.544 117.828C46.9803 119.258 49.708 119.973 52.7269 119.973ZM71.7146 125.137C70.8142 125.137 70.0727 124.872 69.4901 124.342C68.9075 123.76 68.6162 123.018 68.6162 122.118V108.533L70.1257 102.256L74.813 103.448V122.118C74.813 123.018 74.5217 123.76 73.9391 124.342C73.3565 124.872 72.615 125.137 71.7146 125.137Z" fill="#003357"/>
<path d="M108.717 125.534C104.586 125.534 100.852 124.581 97.5154 122.674C94.2316 120.767 91.6099 118.172 89.6502 114.888C87.7435 111.551 86.7637 107.818 86.7107 103.686V66.1876C86.7107 65.2343 86.9755 64.4928 87.5052 63.9631C88.0878 63.3805 88.8558 63.0892 89.8091 63.0892C90.7095 63.0892 91.4245 63.3805 91.9542 63.9631C92.5368 64.4928 92.8281 65.2343 92.8281 66.1876V89.5449C94.5759 87.0555 96.8798 85.0694 99.7399 83.5864C102.653 82.0504 105.884 81.2824 109.432 81.2824C113.511 81.2824 117.165 82.2623 120.396 84.222C123.627 86.1287 126.169 88.7504 128.023 92.0871C129.93 95.4239 130.883 99.1843 130.883 103.369C130.883 107.606 129.903 111.393 127.943 114.729C126.037 118.066 123.415 120.714 120.078 122.674C116.741 124.581 112.954 125.534 108.717 125.534ZM108.717 119.973C111.789 119.973 114.543 119.258 116.98 117.828C119.416 116.345 121.323 114.359 122.7 111.869C124.13 109.38 124.845 106.546 124.845 103.369C124.845 100.244 124.13 97.4365 122.7 94.9472C121.323 92.4049 119.416 90.4188 116.98 88.9887C114.543 87.5587 111.789 86.8437 108.717 86.8437C105.698 86.8437 102.971 87.5587 100.534 88.9887C98.098 90.4188 96.1913 92.4049 94.8142 94.9472C93.4372 97.4365 92.7486 100.244 92.7486 103.369C92.7486 106.546 93.4372 109.38 94.8142 111.869C96.1913 114.359 98.098 116.345 100.534 117.828C102.971 119.258 105.698 119.973 108.717 119.973Z" fill="#003357"/>
<path d="M161.79 125.613C158.03 125.613 154.666 124.846 151.7 123.31C148.734 121.721 146.377 119.417 144.63 116.398C142.935 113.379 142.087 109.698 142.087 105.355V84.6986C142.087 83.8512 142.379 83.1362 142.961 82.5536C143.544 81.971 144.259 81.6797 145.106 81.6797C146.007 81.6797 146.748 81.971 147.331 82.5536C147.913 83.1362 148.205 83.8512 148.205 84.6986V105.355C148.205 108.638 148.814 111.34 150.032 113.458C151.303 115.577 152.998 117.166 155.116 118.225C157.288 119.284 159.724 119.814 162.426 119.814C165.021 119.814 167.351 119.311 169.417 118.304C171.535 117.298 173.204 115.921 174.422 114.173C175.64 112.425 176.249 110.439 176.249 108.215H180.619C180.46 111.551 179.533 114.544 177.838 117.192C176.196 119.787 173.972 121.853 171.165 123.389C168.358 124.872 165.233 125.613 161.79 125.613ZM179.268 125.137C178.368 125.137 177.626 124.872 177.044 124.342C176.514 123.76 176.249 122.992 176.249 122.038V84.6986C176.249 83.7982 176.514 83.0832 177.044 82.5536C177.626 81.971 178.368 81.6797 179.268 81.6797C180.169 81.6797 180.91 81.971 181.493 82.5536C182.075 83.0832 182.367 83.7982 182.367 84.6986V122.038C182.367 122.992 182.075 123.76 181.493 124.342C180.91 124.872 180.169 125.137 179.268 125.137Z" fill="#003357"/>
<path d="M206.022 125.137C203.904 125.137 201.997 124.554 200.302 123.389C198.66 122.224 197.363 120.608 196.409 118.543C195.509 116.477 195.059 114.094 195.059 111.393V66.1082C195.059 65.2078 195.324 64.4928 195.853 63.9631C196.436 63.3805 197.177 63.0892 198.078 63.0892C198.978 63.0892 199.693 63.3805 200.223 63.9631C200.805 64.4928 201.097 65.2078 201.097 66.1082V111.393C201.097 113.67 201.547 115.524 202.447 116.954C203.401 118.384 204.592 119.099 206.022 119.099H208.009C208.803 119.099 209.439 119.39 209.915 119.973C210.392 120.502 210.63 121.217 210.63 122.118C210.63 123.018 210.286 123.76 209.597 124.342C208.962 124.872 208.114 125.137 207.055 125.137H206.022Z" fill="#003357"/>
<path d="M235.811 125.534C231.733 125.534 228.078 124.581 224.847 122.674C221.617 120.714 219.048 118.066 217.141 114.729C215.287 111.393 214.361 107.632 214.361 103.448C214.361 99.2108 215.314 95.4239 217.221 92.0871C219.18 88.7504 221.828 86.1287 225.165 84.222C228.502 82.2623 232.262 81.2824 236.447 81.2824C240.631 81.2824 244.365 82.2623 247.649 84.222C250.985 86.1287 253.607 88.7504 255.514 92.0871C257.473 95.4239 258.48 99.2108 258.533 103.448L256.07 105.355C256.07 109.168 255.169 112.611 253.369 115.683C251.621 118.702 249.211 121.112 246.139 122.912C243.12 124.66 239.677 125.534 235.811 125.534ZM236.447 119.973C239.519 119.973 242.246 119.258 244.63 117.828C247.066 116.398 248.973 114.438 250.35 111.949C251.78 109.406 252.495 106.573 252.495 103.448C252.495 100.27 251.78 97.4365 250.35 94.9472C248.973 92.4579 247.066 90.4982 244.63 89.0682C242.246 87.5852 239.519 86.8437 236.447 86.8437C233.428 86.8437 230.7 87.5852 228.264 89.0682C225.827 90.4982 223.894 92.4579 222.464 94.9472C221.034 97.4365 220.319 100.27 220.319 103.448C220.319 106.573 221.034 109.406 222.464 111.949C223.894 114.438 225.827 116.398 228.264 117.828C230.7 119.258 233.428 119.973 236.447 119.973ZM255.434 125.137C254.534 125.137 253.792 124.872 253.21 124.342C252.627 123.76 252.336 123.018 252.336 122.118V108.533L253.845 102.256L258.533 103.448V122.118C258.533 123.018 258.241 123.76 257.659 124.342C257.076 124.872 256.335 125.137 255.434 125.137Z" fill="#003357"/>
<path d="M285.605 125.534C282.48 125.534 279.381 125.004 276.309 123.945C273.237 122.886 270.748 121.297 268.841 119.178C268.259 118.543 268.021 117.828 268.126 117.033C268.232 116.239 268.63 115.55 269.318 114.968C270.06 114.438 270.828 114.226 271.622 114.332C272.417 114.438 273.079 114.782 273.608 115.365C274.879 116.848 276.548 117.987 278.613 118.781C280.732 119.576 283.062 119.973 285.605 119.973C289.524 119.973 292.358 119.311 294.105 117.987C295.853 116.61 296.754 114.968 296.807 113.061C296.807 111.154 295.906 109.592 294.105 108.374C292.305 107.103 289.339 106.123 285.207 105.434C279.858 104.587 275.939 103.104 273.449 100.985C270.96 98.8666 269.715 96.3508 269.715 93.4377C269.715 90.7366 270.43 88.4856 271.86 86.6848C273.29 84.884 275.197 83.5334 277.581 82.633C279.964 81.7326 282.586 81.2824 285.446 81.2824C288.994 81.2824 292.04 81.8915 294.582 83.1097C297.177 84.3279 299.269 85.9698 300.858 88.0354C301.388 88.7239 301.6 89.4389 301.494 90.1804C301.388 90.9219 300.964 91.531 300.223 92.0077C299.587 92.3784 298.846 92.5109 297.998 92.4049C297.204 92.246 296.515 91.8488 295.933 91.2132C294.609 89.6773 293.073 88.565 291.325 87.8765C289.577 87.135 287.564 86.7642 285.287 86.7642C282.374 86.7642 280.043 87.3733 278.296 88.5915C276.548 89.7567 275.674 91.2397 275.674 93.0405C275.674 94.2587 275.992 95.318 276.627 96.2184C277.316 97.1187 278.454 97.9132 280.043 98.6017C281.685 99.2903 283.963 99.8729 286.876 100.35C290.848 100.985 293.973 101.938 296.25 103.21C298.581 104.428 300.223 105.884 301.176 107.579C302.182 109.221 302.686 111.022 302.686 112.982C302.686 115.471 301.944 117.669 300.461 119.576C299.031 121.429 297.018 122.886 294.423 123.945C291.881 125.004 288.941 125.534 285.605 125.534Z" fill="#003357"/>
<path d="M382.044 0.5L378.409 5.1713C371.677 13.8213 360.524 17.643 349.927 14.9302L344.391 13.513L348.87 17.1059C357.441 23.9837 361.241 35.2865 358.572 45.9695L357.132 51.7385L360.767 47.0674C367.499 38.4172 378.652 34.5957 389.249 37.3085L394.784 38.7256L390.306 35.1326C381.734 28.2549 377.935 16.952 380.603 6.26901L382.044 0.5Z" fill="#76E0C2"/>
<path d="M344.601 39.4465L343.453 40.897C341.328 43.5832 337.807 44.7699 334.46 43.9275L332.713 43.4873L334.126 44.6031C336.834 46.7388 338.033 50.2486 337.191 53.566L336.735 55.3575L337.884 53.907C340.009 51.2208 343.529 50.0341 346.876 50.8765L348.624 51.3167L347.21 50.2009C344.503 48.0652 343.304 44.5554 344.145 41.238L344.601 39.4465Z" fill="#76E0C2"/>
<path d="M338.831 62.8047L338.101 63.7278C336.748 65.4371 334.508 66.1923 332.378 65.6562L331.266 65.3762L332.166 66.0861C333.889 67.4452 334.652 69.6788 334.116 71.7899L333.826 72.9298L334.557 72.0067C335.909 70.2974 338.15 69.5422 340.279 70.0783L341.391 70.3583L340.492 69.6484C338.769 68.2893 338.005 66.0557 338.542 63.9446L338.831 62.8047Z" fill="#76E0C2"/>
<path d="M351.483 75.9303L350.649 76.9852C349.104 78.9388 346.542 79.8019 344.109 79.1891L342.838 78.869L343.866 79.6805C345.835 81.2338 346.707 83.7864 346.094 86.1991L345.764 87.5019L346.599 86.447C348.143 84.4934 350.705 83.6303 353.138 84.243L354.409 84.5631L353.381 83.7517C351.412 82.1983 350.54 79.6458 351.154 77.2331L351.483 75.9303Z" fill="#76E0C2"/>
<path d="M330.777 84.609L330.255 85.2683C329.288 86.4893 327.689 87.0288 326.167 86.6457L325.373 86.4457L326.015 86.953C327.246 87.9237 327.791 89.5191 327.408 91.0269L327.201 91.8412L327.723 91.182C328.69 89.961 330.289 89.4215 331.811 89.8045L332.605 90.0046L331.963 89.4973C330.732 88.5266 330.187 86.9311 330.57 85.4234L330.777 84.609Z" fill="#76E0C2"/>
<path d="M373.729 57.0189L372.164 58.9969C369.265 62.6598 364.463 64.2781 359.901 63.1293L357.517 62.5292L359.445 64.0507C363.135 66.963 364.772 71.7491 363.623 76.2727L363.002 78.7156L364.567 76.7376C367.466 73.0748 372.268 71.4565 376.83 72.6053L379.214 73.2054L377.286 71.6839C373.596 68.7716 371.958 63.9854 373.108 59.4618L373.729 57.0189Z" fill="#76E0C2"/>
</svg>
