<svg width="100" height="100" viewBox="0 0 100 100" fill="none" xmlns="http://www.w3.org/2000/svg">
<path d="M44.8945 72.2831H24.1904C24.0305 72.2736 23.8703 72.2969 23.7197 72.3515C23.5691 72.4061 23.4313 72.491 23.3147 72.6008C23.1981 72.7107 23.1052 72.8432 23.0417 72.9903C22.9782 73.1374 22.9454 73.2959 22.9454 73.4561C22.9454 73.6162 22.9782 73.7747 23.0417 73.9218C23.1052 74.0689 23.1981 74.2014 23.3147 74.3113C23.4313 74.4211 23.5691 74.506 23.7197 74.5606C23.8703 74.6152 24.0305 74.6385 24.1904 74.629H44.8987C45.0586 74.6385 45.2188 74.6152 45.3694 74.5606C45.52 74.506 45.6578 74.4211 45.7744 74.3113C45.891 74.2014 45.9839 74.0689 46.0474 73.9218C46.1109 73.7747 46.1436 73.6162 46.1436 73.4561C46.1436 73.2959 46.1109 73.1374 46.0474 72.9903C45.9839 72.8432 45.891 72.7107 45.7744 72.6008C45.6578 72.491 45.52 72.4061 45.3694 72.3515C45.2188 72.2969 45.0586 72.2736 44.8987 72.2831M75.3987 72.2831H54.6945C54.5346 72.2736 54.3745 72.2969 54.2239 72.3515C54.0733 72.4061 53.9354 72.491 53.8188 72.6008C53.7022 72.7107 53.6093 72.8432 53.5458 72.9903C53.4823 73.1374 53.4496 73.2959 53.4496 73.4561C53.4496 73.6162 53.4823 73.7747 53.5458 73.9218C53.6093 74.0689 53.7022 74.2014 53.8188 74.3113C53.9354 74.4211 54.0733 74.506 54.2239 74.5606C54.3745 74.6152 54.5346 74.6385 54.6945 74.629H75.3987C75.6977 74.6111 75.9786 74.4798 76.184 74.2618C76.3894 74.0438 76.5038 73.7556 76.5038 73.4561C76.5038 73.1565 76.3894 72.8683 76.184 72.6503C75.9786 72.4323 75.6977 72.301 75.3987 72.2831ZM44.8404 45.304H24.1945C24.0346 45.2944 23.8745 45.3177 23.7239 45.3723C23.5733 45.427 23.4354 45.5118 23.3188 45.6217C23.2023 45.7315 23.1093 45.8641 23.0458 46.0111C22.9823 46.1582 22.9496 46.3167 22.9496 46.4769C22.9496 46.6371 22.9823 46.7956 23.0458 46.9427C23.1093 47.0897 23.2023 47.2223 23.3188 47.3321C23.4354 47.442 23.5733 47.5268 23.7239 47.5814C23.8745 47.6361 24.0346 47.6593 24.1945 47.6498H44.8362C44.9961 47.6593 45.1563 47.6361 45.3069 47.5814C45.4575 47.5268 45.5953 47.442 45.7119 47.3321C45.8285 47.2223 45.9214 47.0897 45.9849 46.9427C46.0484 46.7956 46.0811 46.6371 46.0811 46.4769C46.0811 46.3167 46.0484 46.1582 45.9849 46.0111C45.9214 45.8641 45.8285 45.7315 45.7119 45.6217C45.5953 45.5118 45.4575 45.427 45.3069 45.3723C45.1563 45.3177 44.9961 45.2944 44.8362 45.304M75.3362 45.304H54.6904C54.5305 45.2944 54.3703 45.3177 54.2197 45.3723C54.0691 45.427 53.9313 45.5118 53.8147 45.6217C53.6981 45.7315 53.6052 45.8641 53.5417 46.0111C53.4782 46.1582 53.4454 46.3167 53.4454 46.4769C53.4454 46.6371 53.4782 46.7956 53.5417 46.9427C53.6052 47.0897 53.6981 47.2223 53.8147 47.3321C53.9313 47.442 54.0691 47.5268 54.2197 47.5814C54.3703 47.6361 54.5305 47.6593 54.6904 47.6498H75.3362C75.6352 47.632 75.9161 47.5006 76.1215 47.2826C76.3269 47.0646 76.4413 46.7764 76.4413 46.4769C76.4413 46.1774 76.3269 45.8892 76.1215 45.6711C75.9161 45.4531 75.6352 45.3218 75.3362 45.304ZM77.6362 6.97064H59.5487C58.9024 4.94754 57.6299 3.18221 55.9148 1.92961C54.1997 0.677002 52.1308 0.00195312 50.007 0.00195312C47.8832 0.00195313 45.8144 0.677002 44.0993 1.92961C42.3842 3.18221 41.1116 4.94754 40.4654 6.97064H22.357C18.9361 6.97174 15.6556 8.3312 13.2366 10.7502C10.8176 13.1692 9.45814 16.4497 9.45703 19.8706V87.0956C9.45703 90.518 10.8166 93.8003 13.2366 96.2203C15.6566 98.6403 18.9388 99.9998 22.3612 99.9998H77.6362C81.0579 99.9987 84.339 98.6387 86.7581 96.2188C89.1772 93.7989 90.5362 90.5173 90.5362 87.0956V19.8748C90.5351 16.4538 89.1756 13.1733 86.7566 10.7543C84.3377 8.33537 81.0571 6.97591 77.6362 6.9748M41.3654 9.32064C41.6384 9.32731 41.9052 9.23797 42.1191 9.06818C42.3331 8.89839 42.4807 8.65891 42.5362 8.39147C42.9082 6.67999 43.8546 5.14734 45.2183 4.04825C46.5819 2.94915 48.2806 2.3498 50.032 2.3498C51.7835 2.3498 53.4822 2.94915 54.8458 4.04825C56.2094 5.14734 57.1559 6.67999 57.5279 8.39147C57.5835 8.65963 57.7317 8.89967 57.9465 9.06954C58.1614 9.23942 58.4291 9.32831 58.7029 9.32064H65.0112V16.9998C65.0101 17.9321 64.6392 18.826 63.98 19.4852C63.3207 20.1445 62.4269 20.5154 61.4945 20.5165H38.5612C37.6289 20.5154 36.735 20.1445 36.0758 19.4852C35.4165 18.826 35.0456 17.9321 35.0445 16.9998V9.31647L41.3654 9.32064ZM88.1904 87.0998C88.1904 92.9331 83.4654 97.6581 77.6362 97.6581H22.3612C19.5617 97.657 16.8772 96.5442 14.898 94.5642C12.9189 92.5843 11.807 89.8993 11.807 87.0998V19.8748C11.807 17.0757 12.919 14.3912 14.8983 12.4119C16.8776 10.4326 19.5621 9.32064 22.3612 9.32064H32.6945V16.9998C32.6945 20.2373 35.3195 22.8623 38.5612 22.8623H61.4362C64.6737 22.8623 67.2987 20.2373 67.2987 16.9998V9.31647H77.632C83.4654 9.31647 88.1904 14.0415 88.1904 19.8706V87.0998Z" fill="#518575"/>
</svg>
