<svg width="80" height="80" viewBox="0 0 80 80" fill="none" xmlns="http://www.w3.org/2000/svg">
<path fill-rule="evenodd" clip-rule="evenodd" d="M36.48 4.16675H43.52C49.6467 4.16675 54.5 4.16675 58.2967 4.67675C62.2033 5.20341 65.3667 6.31008 67.8633 8.80342C68.3049 9.27733 68.5453 9.90415 68.5339 10.5518C68.5225 11.1995 68.2601 11.8174 67.8021 12.2755C67.344 12.7335 66.7261 12.9959 66.0784 13.0073C65.4307 13.0188 64.8039 12.7783 64.33 12.3367C62.9167 10.9301 60.9833 10.0834 57.63 9.63342C54.2067 9.17342 49.69 9.16675 43.3333 9.16675H36.6667C30.31 9.16675 25.7967 9.17342 22.3667 9.63342C19.0167 10.0834 17.0833 10.9301 15.6733 12.3401C14.2633 13.7501 13.4167 15.6834 12.9667 19.0334C12.5067 22.4634 12.5 26.9767 12.5 33.3334V46.6668C12.5 53.0234 12.5067 57.5401 12.9667 60.9668C13.4167 64.3168 14.2633 66.2501 15.6733 67.6601C17.0833 69.0701 19.0167 69.9168 22.37 70.3668C25.7967 70.8268 30.31 70.8334 36.6667 70.8334H43.3333C49.69 70.8334 54.2067 70.8268 57.6333 70.3668C60.9833 69.9168 62.9167 69.0701 64.3267 67.6601C66.6467 65.3401 67.35 61.7368 67.47 53.2968C67.4797 52.6337 67.7524 52.0017 68.2282 51.5397C68.4637 51.311 68.742 51.1309 69.0472 51.0097C69.3523 50.8885 69.6784 50.8286 70.0067 50.8334C70.335 50.8382 70.6591 50.9077 70.9606 51.0378C71.2621 51.1678 71.535 51.356 71.7637 51.5916C71.9924 51.8271 72.1725 52.1054 72.2937 52.4106C72.4149 52.7157 72.4748 53.0418 72.47 53.3701C72.3533 61.4601 71.83 67.2301 67.8633 71.1967C65.3667 73.6901 62.2033 74.7968 58.2967 75.3234C54.4967 75.8334 49.6467 75.8334 43.52 75.8334H36.48C30.3533 75.8334 25.5 75.8334 21.7033 75.3234C17.7967 74.7968 14.6333 73.6901 12.1367 71.1967C9.64333 68.7001 8.53667 65.5368 8.01 61.6301C7.5 57.8301 7.5 52.9801 7.5 46.8534V33.1468C7.5 27.0201 7.5 22.1667 8.01 18.3701C8.53667 14.4634 9.64333 11.3001 12.1367 8.80342C14.6333 6.31008 17.7967 5.20341 21.7033 4.67675C25.5033 4.16675 30.3533 4.16675 36.48 4.16675ZM60.38 23.4867C61.2133 22.6145 62.2125 21.9175 63.3189 21.4368C64.4253 20.9562 65.6166 20.7014 66.8229 20.6876C68.0291 20.6739 69.2259 20.9013 70.3431 21.3565C71.4602 21.8118 72.475 22.4857 73.328 23.3387C74.181 24.1917 74.855 25.2066 75.3102 26.3237C75.7655 27.4408 75.9929 28.6376 75.9791 29.8439C75.9653 31.0501 75.7106 32.2415 75.2299 33.3479C74.7492 34.4543 74.0523 35.4535 73.18 36.2867L57.3333 52.1434C56.6742 52.8381 55.9728 53.4916 55.2333 54.1001C54.4644 54.7001 53.6378 55.2112 52.7533 55.6334C52.0067 55.9901 51.22 56.2501 50.0667 56.6334L43.12 58.9501C42.3678 59.2018 41.5603 59.2388 40.7883 59.057C40.0162 58.8752 39.3101 58.4818 38.7492 57.9209C38.1883 57.36 37.7949 56.6539 37.6131 55.8818C37.4313 55.1098 37.4683 54.3023 37.72 53.5501L39.99 46.7501L40.0367 46.6068C40.4233 45.4501 40.6833 44.6667 41.04 43.9201C41.4589 43.0398 41.9731 42.2082 42.5733 41.4401C43.0833 40.7868 43.6667 40.2034 44.53 39.3401L44.6333 39.2367L60.38 23.4867ZM69.6467 27.0201C69.2703 26.6435 68.8234 26.3448 68.3315 26.141C67.8396 25.9373 67.3124 25.8324 66.78 25.8324C66.2476 25.8324 65.7204 25.9373 65.2285 26.141C64.7366 26.3448 64.2897 26.6435 63.9133 27.0201L63.3067 27.6267L63.42 27.9834C63.7333 28.8834 64.33 30.0834 65.4567 31.2101C66.4536 32.2138 67.6853 32.9528 69.04 33.3601L69.6467 32.7534C70.0232 32.377 70.3219 31.9301 70.5257 31.4382C70.7295 30.9464 70.8344 30.4192 70.8344 29.8867C70.8344 29.3543 70.7295 28.8271 70.5257 28.3353C70.3219 27.8434 70.0232 27.3965 69.6467 27.0201ZM65.22 37.1801C64.0011 36.544 62.888 35.7232 61.92 34.7467C60.9436 33.7788 60.1228 32.6656 59.4867 31.4467L48.1667 42.7667C47.1633 43.7701 46.81 44.1301 46.5133 44.5101C46.1356 44.9945 45.8144 45.5134 45.55 46.0667C45.3433 46.5034 45.18 46.9801 44.73 48.3268L43.3967 52.3268L44.34 53.2701L48.34 51.9368C49.6867 51.4868 50.1633 51.3234 50.6 51.1168C51.1511 50.8501 51.67 50.529 52.1567 50.1534C52.5367 49.8567 52.8967 49.5034 53.9 48.5001L65.22 37.1801ZM24.1667 30.0001C24.1667 29.337 24.4301 28.7012 24.8989 28.2323C25.3677 27.7635 26.0036 27.5001 26.6667 27.5001H48.3333C48.9964 27.5001 49.6323 27.7635 50.1011 28.2323C50.5699 28.7012 50.8333 29.337 50.8333 30.0001C50.8333 30.6631 50.5699 31.299 50.1011 31.7678C49.6323 32.2367 48.9964 32.5001 48.3333 32.5001H26.6667C26.0036 32.5001 25.3677 32.2367 24.8989 31.7678C24.4301 31.299 24.1667 30.6631 24.1667 30.0001ZM24.1667 43.3334C24.1667 42.6704 24.4301 42.0345 24.8989 41.5657C25.3677 41.0968 26.0036 40.8334 26.6667 40.8334H35C35.663 40.8334 36.2989 41.0968 36.7678 41.5657C37.2366 42.0345 37.5 42.6704 37.5 43.3334C37.5 43.9965 37.2366 44.6323 36.7678 45.1012C36.2989 45.57 35.663 45.8334 35 45.8334H26.6667C26.0036 45.8334 25.3677 45.57 24.8989 45.1012C24.4301 44.6323 24.1667 43.9965 24.1667 43.3334ZM24.1667 56.6668C24.1667 56.0037 24.4301 55.3678 24.8989 54.899C25.3677 54.4301 26.0036 54.1668 26.6667 54.1668H31.6667C32.3297 54.1668 32.9656 54.4301 33.4344 54.899C33.9033 55.3678 34.1667 56.0037 34.1667 56.6668C34.1667 57.3298 33.9033 57.9657 33.4344 58.4345C32.9656 58.9034 32.3297 59.1668 31.6667 59.1668H26.6667C26.0036 59.1668 25.3677 58.9034 24.8989 58.4345C24.4301 57.9657 24.1667 57.3298 24.1667 56.6668Z" fill="#2C2A29"/>
</svg>
