<svg width="800" height="800" viewBox="0 0 800 800" fill="none" xmlns="http://www.w3.org/2000/svg">
<path d="M779.6 53.9247C779.296 46.3607 778.732 38.8007 778.212 31.2407C778.212 22.4127 770.9 20.5567 766.956 24.1567C738.184 51.2287 689.252 93.6887 662.656 116.957C661.668 117.829 660.967 118.98 660.645 120.259C660.323 121.537 660.396 122.883 660.853 124.12C661.31 125.356 662.131 126.425 663.208 127.187C664.284 127.948 665.566 128.365 666.884 128.385C666.704 129.053 666.536 129.729 666.388 130.417C620.368 147.722 573.459 162.563 525.86 174.877C515.996 177.453 489.592 183.841 486.284 184.645C487.223 181.989 489.074 179.754 491.508 178.337C503.204 170.165 506.004 171.537 511.54 165.825C512.787 164.51 513.535 162.801 513.655 160.994C513.776 159.186 513.261 157.393 512.2 155.925C509.868 153.337 505.304 152.913 504.436 149.825C502.664 143.457 513.716 133.825 513.14 125.241C512.484 115.473 499.94 102.233 480.872 99.4687C470.013 97.7429 458.928 98.0386 448.176 100.341C440.103 102.01 432.717 106.065 426.976 111.981C422.46 116.673 415.68 122.149 413.4 128.381C412.04 131.981 411.584 136.137 408.6 138.189C407.408 138.83 406.096 139.216 404.747 139.323C403.399 139.431 402.042 139.257 400.764 138.813C387.084 135.361 378.816 121.293 365.74 115.189C359.921 112.558 353.482 111.605 347.151 112.439C340.82 113.273 334.847 115.861 329.908 119.909C327.65 122.427 324.83 124.377 321.676 125.601C319.735 125.943 317.743 125.854 315.84 125.341C301.008 121.533 290.98 111.865 276.7 109.869C270.059 108.966 263.299 109.688 256.998 111.972C250.697 114.255 245.044 118.033 240.524 122.981C238.306 125.157 236.617 127.814 235.586 130.746C234.556 133.678 234.212 136.807 234.58 139.893C236.58 148.261 245.608 152.425 249.404 153.829C255.804 156.197 262.916 157.897 268.108 162.481C268.944 163.102 269.574 163.961 269.916 164.945C270.648 167.241 268.12 169.345 265.82 169.881C263.224 170.087 260.643 170.452 258.092 170.973C258.031 170.985 257.976 171.016 257.936 171.062C257.895 171.109 257.871 171.167 257.866 171.229C257.862 171.29 257.879 171.352 257.913 171.403C257.947 171.454 257.998 171.493 258.056 171.513C264.05 173.668 270.438 174.504 276.784 173.965C279.953 173.592 282.93 172.251 285.307 170.123C287.685 167.995 289.348 165.185 290.068 162.077C290.286 160.228 290.373 158.366 290.328 156.505C291.056 150.105 295.316 151.485 300.572 155.225C306.399 159.439 313.131 162.233 320.229 163.381C327.328 164.53 334.597 164.003 341.456 161.841C346.844 160.117 350.04 154.553 355.712 154.553C357.1 154.554 358.46 154.947 359.637 155.684C360.813 156.422 361.758 157.476 362.364 158.725C362.805 160.5 363.339 162.25 363.964 163.969C349.838 165.133 335.982 168.499 322.896 173.945C315.713 176.966 309.326 181.607 304.232 187.505C299.103 186.292 293.761 186.292 288.632 187.505C275.832 190.773 271.76 202.193 269.8 210.725C269.784 210.975 269.839 211.225 269.958 211.446C270.076 211.667 270.255 211.851 270.473 211.976C270.69 212.101 270.939 212.162 271.19 212.153C271.44 212.144 271.684 212.065 271.892 211.925C279.561 206.424 288.042 202.154 297.028 199.269C293.467 208.584 293.171 218.831 296.188 228.337C288.3 230.409 279.716 232.265 274.848 238.909C270.719 244.823 268.338 251.78 267.98 258.985C266.641 277.799 269.109 296.69 275.236 314.529C275.286 314.684 275.359 314.831 275.452 314.965C270.488 317.661 265.68 320.637 261.052 323.877C257.919 325.535 254.748 327.135 251.54 328.677C251.552 328.586 251.552 328.495 251.54 328.405C251.447 327.181 250.973 326.016 250.184 325.076C249.394 324.136 248.33 323.468 247.14 323.165C243.538 322.241 239.838 321.751 236.12 321.705C213.012 319.449 213.58 319.305 210.064 319.305C208.599 319.134 207.114 319.346 205.755 319.919C204.396 320.493 203.208 321.408 202.308 322.577C202.018 323.076 201.842 323.633 201.791 324.208C201.739 324.784 201.815 325.363 202.012 325.906C202.21 326.448 202.523 326.941 202.932 327.35C203.34 327.758 203.833 328.072 204.376 328.269C215.132 335.097 218.148 333.133 226.176 338.817C167.94 357.897 115.736 348.629 111.216 349.545C110.388 349.925 109.624 350.43 108.948 351.041C105.533 348.264 101.931 345.725 98.168 343.441C96.8522 342.659 95.3283 342.3 93.8019 342.411C92.2755 342.523 90.8201 343.1 89.632 344.065C86.68 346.241 84.432 348.953 81.724 351.177C70.64 360.281 57.012 364.277 56.676 371.245C56.488 375.133 59.676 375.361 61.076 375.461C73.384 376.085 82.172 371.177 99.52 370.829C100.624 370.805 100.792 370.853 101.12 370.701C101.58 379.673 110.116 383.729 118.612 386.413C181.364 406.349 258.124 405.753 336.9 376.765C340.054 375.264 343.289 373.944 346.592 372.809C333.792 390.117 332.896 390.905 330.904 395.277C322.576 392.141 320.26 390.785 316.844 389.449C307.186 393.247 297.225 396.228 287.068 398.361C278.068 400.266 268.952 401.581 259.78 402.297C263.184 405.837 261.236 404.565 293.616 435.609C301.505 444.202 310.754 451.44 320.992 457.033C328.132 460.718 335.998 462.781 344.028 463.073C351.552 462.631 358.804 460.103 364.972 455.773C377.254 447.342 388.294 437.233 397.772 425.741C417.12 402.377 419.492 401.945 433.724 375.237C436.924 377.237 465.6 373.177 481.228 333.933C485.231 323.234 488.688 312.338 491.584 301.289C497.608 281.897 501.761 261.973 503.984 241.789C526.448 236.309 539.224 228.865 575.264 211.441C598.699 200.235 621.174 187.124 642.464 172.241C654.122 163.793 664.919 154.216 674.696 143.649C674.866 143.387 674.951 143.08 674.94 142.769C678.044 141.523 680.752 139.459 682.775 136.797C684.799 134.134 686.063 130.973 686.432 127.649C687.955 127.649 689.476 127.757 690.984 127.973C670.42 174.893 624 236.245 592.296 279.125C497.896 406.649 360.236 567.093 221.168 642.041C217.736 643.865 187.356 661.465 185.272 659.425L202.348 676.805C166.685 700.72 126.301 716.696 83.928 723.653C83.568 723.681 83.2295 723.835 82.972 724.089C82.8951 724.244 82.8551 724.415 82.8551 724.589C82.8551 724.762 82.8951 724.933 82.972 725.089C84.172 731.189 88.172 732.141 107.74 749.089C84.276 762.549 58.72 771.109 20 775.629V776.457C71.108 781.845 119.388 766.765 142.9 753.293C134.556 746.037 123.516 741.473 115.128 734.173C142.464 727.437 206.696 710.137 244.504 685.065C238.856 679.329 225.036 670.593 219.34 664.857C221.296 667.029 258.192 646.689 262.104 644.649C346.8 599.885 419.92 543.601 492.736 472.685C516.028 450.045 539.136 427.793 560.876 403.849C590.148 371.593 656.356 292.845 715.456 210.937C728.504 193.746 740.408 175.716 751.092 156.965C752.044 155.061 753.348 155.313 754.136 157.225C755.916 161.569 757.48 165.481 758.96 169.625C759.457 170.966 760.378 172.108 761.584 172.877C762.789 173.647 764.213 174.002 765.638 173.889C767.064 173.776 768.414 173.201 769.482 172.251C770.551 171.3 771.281 170.027 771.56 168.625C778.406 130.798 781.102 92.3367 779.6 53.9247ZM101.164 368.481C92.8179 368.143 84.4677 369.041 76.384 371.145C71.3847 372.114 66.3082 372.633 61.216 372.693C59.296 372.489 59.98 370.373 60.756 369.417C65.496 364.325 68.96 364.757 85.06 352.413C87.936 349.913 91.692 344.565 95.36 345.613C97.4311 346.486 99.3498 347.684 101.044 349.161L107.12 353.413C104.136 357.981 102.11 363.107 101.164 368.481ZM228.364 338.113C227.17 336.143 225.307 334.667 223.116 333.957C217.24 331.904 211.59 329.257 206.252 326.057C205.708 325.689 205.084 325.129 205.196 324.537C205.344 323.737 206.608 322.821 207.888 322.537C210.368 322.161 210.472 322.357 242.14 325.485C245.292 325.793 248.384 326.285 248.584 328.505C248.582 328.759 248.649 329.009 248.777 329.229C248.905 329.448 249.09 329.629 249.312 329.753C242.488 332.919 235.497 335.71 228.368 338.113H228.364ZM462.564 136.245C466.831 134.249 470.993 132.038 475.036 129.621C476.563 128.875 478.263 128.553 479.958 128.689C481.652 128.824 483.279 129.413 484.668 130.393C484.173 130.586 483.733 130.9 483.389 131.304C483.044 131.709 482.805 132.193 482.692 132.713C482.685 132.989 482.773 133.258 482.942 133.477C483.11 133.695 483.349 133.849 483.618 133.912C483.887 133.975 484.169 133.943 484.417 133.822C484.665 133.702 484.864 133.499 484.98 133.249C485.087 133.033 485.264 132.859 485.481 132.755C485.699 132.651 485.945 132.624 486.18 132.677C486.875 132.886 487.507 133.264 488.02 133.777C488.397 134.159 488.876 134.423 489.4 134.537C489.603 134.547 489.806 134.507 489.989 134.42C490.173 134.333 490.332 134.201 490.452 134.037L491.096 134.185C494.648 140.851 496.867 148.146 497.628 155.661C497.856 158.839 497.403 162.03 496.299 165.019C495.195 168.009 493.467 170.729 491.228 172.997C485.664 177.857 480.948 177.281 478.34 181.797C476.26 184.865 479.88 183.225 472.312 183.281C465.531 183.364 458.852 181.626 452.972 178.249C454.352 177.463 455.816 176.837 457.336 176.381C459.521 175.691 461.408 174.281 462.688 172.381C463.483 170.448 463.546 168.291 462.867 166.315C462.187 164.338 460.811 162.676 458.996 161.641C457.754 160.961 456.653 160.05 455.752 158.957C451.832 152.753 459.62 143.061 454.256 136.157C455.558 136.751 456.971 137.066 458.403 137.081C459.834 137.096 461.253 136.811 462.568 136.245H462.564ZM439.332 153.737C441.704 152.913 446.624 156.285 447.864 158.165C449.576 160.741 454.94 167.481 454.948 170.077C454.817 170.755 454.544 171.399 454.148 171.966C453.752 172.532 453.241 173.009 452.648 173.365C451.64 173.965 450.659 174.606 449.704 175.289C448.838 174.289 448.058 173.219 447.372 172.089C448.561 170.873 449.415 169.371 449.852 167.729C449.863 167.687 449.864 167.642 449.856 167.6C449.847 167.557 449.828 167.517 449.802 167.483C449.775 167.448 449.741 167.42 449.702 167.401C449.663 167.382 449.62 167.372 449.576 167.373C439.664 167.369 435.552 155.041 439.336 153.737H439.332ZM367.956 166.593C372.708 167.793 373.2 164.165 409.58 167.073C419.732 169.653 430.804 175.005 439.288 175.053C438.568 177.613 437.656 183.953 434.732 194.093C422.798 191.165 410.456 190.266 398.224 191.433C398.049 191.247 397.822 191.119 397.573 191.064C397.324 191.01 397.064 191.032 396.828 191.128C396.591 191.224 396.39 191.39 396.249 191.602C396.109 191.815 396.036 192.066 396.04 192.321C396.095 194.344 396.281 196.361 396.596 198.361C391.815 195.407 387.51 191.746 383.828 187.501C383.572 187.311 383.259 187.213 382.94 187.223C382.622 187.234 382.316 187.351 382.072 187.557C376.462 192.664 369.805 196.486 362.565 198.754C355.325 201.022 347.677 201.682 340.156 200.689C339.917 200.689 339.682 200.752 339.474 200.871C339.266 200.99 339.094 201.162 338.972 201.368C338.851 201.574 338.786 201.809 338.783 202.048C338.78 202.287 338.84 202.523 338.956 202.733C343.348 208.889 348.979 214.058 355.488 217.909C356.072 219.613 356.595 221.334 357.056 223.073C357.056 223.073 353.76 223.265 352.38 223.325C352.141 223.361 351.916 223.464 351.732 223.621C351.547 223.778 351.41 223.983 351.336 224.213C351.262 224.444 351.253 224.691 351.311 224.926C351.369 225.161 351.491 225.375 351.664 225.545C366.492 245.461 369.768 261.457 374.864 275.769C375.228 276.795 375.348 277.892 375.215 278.973C375.082 280.054 374.699 281.089 374.096 281.997C372.283 285.542 369.291 288.345 365.636 289.925C364.008 290.265 361.552 288.725 360.324 288.041C348.306 282.395 337.056 275.24 326.848 266.749C317.136 258.806 309.095 249.017 303.188 237.949C299.855 231.942 297.89 225.272 297.435 218.418C296.979 211.563 298.044 204.692 300.552 198.297C303.916 197.466 307.344 196.926 310.8 196.681C316.46 197.738 321.869 199.853 326.744 202.917C327.011 203.074 327.327 203.128 327.631 203.069C327.935 203.01 328.207 202.842 328.396 202.596C328.585 202.351 328.678 202.044 328.658 201.735C328.637 201.426 328.504 201.135 328.284 200.917C323.484 194.293 316.34 190.765 306.856 188.149C321.644 173.113 346.944 168.349 367.956 166.593ZM447.688 216.073L458.088 231.809C456.808 235.219 455.459 238.607 454.04 241.973C450.559 233.604 445.629 225.915 439.476 219.261C441.34 213.261 443.196 207.153 444.7 201.033C449.751 206.549 453.866 212.853 456.884 219.697C458.884 224.057 458.484 224.333 459.744 227.265L459.288 228.545L450.024 214.545C449.923 214.391 449.792 214.259 449.64 214.156C449.487 214.054 449.316 213.982 449.136 213.945C448.956 213.908 448.77 213.907 448.59 213.942C448.409 213.977 448.237 214.047 448.084 214.149C447.931 214.25 447.799 214.381 447.696 214.533C447.593 214.685 447.521 214.857 447.484 215.037C447.447 215.217 447.447 215.402 447.481 215.583C447.516 215.763 447.587 215.935 447.688 216.089V216.073ZM432.708 254.949L440.572 269.445C435.466 278.859 429.81 287.964 423.632 296.713L415.796 279.513C417.641 276.027 419.401 272.498 421.076 268.925L426.352 278.381C426.533 278.705 426.835 278.945 427.193 279.046C427.55 279.148 427.933 279.104 428.258 278.923C428.583 278.742 428.822 278.439 428.924 278.082C429.025 277.724 428.981 277.341 428.8 277.017C423.672 267.841 422.892 266.249 422.508 265.817C426.108 257.817 429.988 247.765 432.692 240.121L440.172 254.749C440.254 254.915 440.369 255.064 440.509 255.185C440.649 255.307 440.811 255.4 440.988 255.458C441.164 255.517 441.35 255.539 441.535 255.525C441.72 255.511 441.9 255.46 442.066 255.375C442.231 255.291 442.378 255.174 442.497 255.032C442.617 254.891 442.707 254.726 442.763 254.549C442.819 254.372 442.839 254.186 442.822 254.001C442.805 253.816 442.751 253.637 442.664 253.473L433.964 236.461C434.524 234.818 435.076 233.163 435.62 231.497L442.208 243.097C442.299 243.257 442.42 243.397 442.566 243.51C442.711 243.623 442.877 243.706 443.054 243.755C443.231 243.804 443.417 243.818 443.599 243.795C443.782 243.772 443.958 243.714 444.118 243.623C444.278 243.532 444.418 243.41 444.531 243.265C444.644 243.12 444.728 242.954 444.777 242.777C444.825 242.599 444.839 242.414 444.816 242.231C444.793 242.049 444.735 241.873 444.644 241.713L436.8 227.869C436.98 227.297 438.52 222.365 438.52 222.365C444.518 229.182 449.268 237.003 452.552 245.469C449.408 252.637 445.957 259.662 442.2 266.545L435.168 253.601C435.083 253.435 434.965 253.288 434.822 253.169C434.679 253.049 434.514 252.959 434.336 252.905C434.157 252.85 433.97 252.831 433.785 252.85C433.599 252.868 433.419 252.923 433.256 253.012C433.092 253.101 432.948 253.222 432.831 253.367C432.715 253.513 432.628 253.68 432.577 253.859C432.526 254.039 432.512 254.226 432.534 254.411C432.557 254.596 432.616 254.775 432.708 254.937V254.949ZM391.756 286.001C391.945 285.79 392.125 285.566 392.296 285.329C392.648 284.602 392.762 283.782 392.622 282.987C392.482 282.191 392.095 281.46 391.516 280.897C390.829 280.422 390.032 280.131 389.201 280.052C388.37 279.973 387.532 280.108 386.768 280.445C385.52 280.747 384.243 280.912 382.96 280.937C383.466 280.521 383.885 280.009 384.193 279.431C384.501 278.854 384.693 278.221 384.756 277.569C384.624 276.81 384.232 276.122 383.649 275.62C383.065 275.118 382.326 274.834 381.556 274.817C382.911 270.587 384.191 266.333 385.396 262.053C391.188 265.653 391.796 266.133 396.56 269.529C397.895 270.771 399.425 271.785 401.088 272.533C397.032 283.153 397 283.285 393.788 290.253C393.652 290.577 392.828 292.941 392.532 293.617C392.056 293.335 391.609 293.008 391.196 292.641C391.128 292.345 391.017 292.061 390.868 291.797C394.176 289.809 393.6 286.749 391.756 286.001ZM387.964 293.601L387.916 293.649C385.575 294.677 383.02 295.124 380.47 294.95C377.919 294.777 375.448 293.989 373.268 292.653C372.17 292.182 371.149 291.548 370.24 290.773C371.632 289.757 372.869 288.545 373.912 287.173C375.768 285.178 377.087 282.745 377.744 280.101C378.711 278.801 380.097 277.874 381.668 277.477C381.456 277.877 382.068 277.829 380.648 279.017C379.721 279.688 379.07 280.673 378.816 281.789C378.769 281.986 378.767 282.192 378.809 282.391C378.85 282.589 378.935 282.777 379.057 282.939C379.18 283.101 379.336 283.234 379.515 283.329C379.695 283.424 379.893 283.479 380.096 283.489C382.728 283.735 385.384 283.5 387.932 282.797C388.68 282.769 390.096 282.397 389.432 283.741C388.957 284.581 388.233 285.253 387.36 285.665C387.15 285.682 386.947 285.751 386.77 285.866C386.594 285.982 386.448 286.139 386.348 286.324C386.247 286.51 386.195 286.718 386.195 286.929C386.195 287.14 386.247 287.347 386.348 287.533C386.348 289.289 389.408 288.361 390.404 288.505C389.762 289.293 388.885 289.854 387.9 290.105C386.152 290.185 385.708 291.405 386.16 292.261C386.54 293.001 387.6 293.225 387.964 293.625V293.601ZM381.9 249.309C380.9 249.009 366.756 246.073 366.356 245.989C364.74 242.61 362.991 239.294 361.108 236.041C361.254 234.322 361.19 232.592 360.92 230.889C363.972 231.289 367.092 231.593 370.12 231.873C376.744 232.485 381.92 233.097 389.148 234.001C388.855 235.411 388.557 236.815 388.256 238.213C384.205 237.402 380.114 236.806 376 236.425C375.751 236.404 375.502 236.477 375.305 236.631C375.107 236.784 374.974 237.006 374.931 237.253C374.889 237.499 374.941 237.753 375.077 237.963C375.212 238.173 375.422 238.325 375.664 238.389C377.236 238.789 381.016 239.217 387.696 240.701C385.024 252.749 381.728 264.477 378.096 276.397C377.92 276.549 377.752 276.701 377.588 276.853C377.114 274.069 376.225 271.373 374.952 268.853C372.992 261.898 370.508 255.103 367.52 248.525C369.572 249.037 371.628 249.501 373.672 249.977C376.278 250.709 378.922 251.298 381.592 251.741C381.892 251.74 382.182 251.63 382.407 251.431C382.632 251.232 382.777 250.958 382.814 250.66C382.852 250.362 382.78 250.061 382.612 249.812C382.444 249.563 382.191 249.384 381.9 249.309ZM356.864 214.801C361.82 215.468 366.809 215.869 371.808 216.001C373.328 216.053 381.52 215.889 387.088 215.269C387.928 215.269 391.592 214.437 392.744 214.329C392.512 216.533 392.138 218.72 391.624 220.877C391.148 223.609 389.832 230.677 389.668 231.481C383.036 230.681 367.312 228.813 360.616 228.621C359.834 223.899 358.577 219.269 356.864 214.801ZM358.904 232.377C357.571 230.243 356.181 228.129 354.736 226.033L357.732 225.869C358.215 228.013 358.605 230.178 358.904 232.365V232.377ZM353.916 213.765C353.984 213.925 354.048 214.089 354.112 214.249C351.783 212.51 349.574 210.616 347.5 208.581C345.872 206.978 344.34 205.28 342.912 203.497C351.454 204.173 360.034 202.802 367.94 199.497C367.776 200.665 368.084 200.849 368.596 201.661C366.308 203.625 366.9 205.661 369.144 206.721C370.152 207.092 371.229 207.242 372.3 207.161C373.54 207.133 375.244 207.225 375.876 208.293C376.276 208.949 374.76 209.441 373.936 209.261C371.32 208.689 370.86 207.773 370.04 208.305C369.86 208.43 369.72 208.606 369.637 208.81C369.555 209.013 369.533 209.237 369.576 209.453C369.576 210.253 371.576 212.169 374.156 212.169C374.756 212.158 375.353 212.082 375.936 211.941C376.044 212.021 376.964 212.741 377.076 212.793C376.52 212.945 375.96 213.085 375.4 213.221C368.657 213.336 361.916 212.928 355.236 212.001C355.019 211.988 354.802 212.028 354.605 212.119C354.408 212.21 354.236 212.349 354.106 212.522C353.975 212.696 353.889 212.899 353.856 213.114C353.823 213.328 353.844 213.548 353.916 213.753V213.765ZM418.456 222.889C418.293 222.875 418.128 222.896 417.973 222.951C417.819 223.006 417.678 223.093 417.559 223.206C417.441 223.32 417.348 223.457 417.287 223.609C417.225 223.761 417.197 223.925 417.204 224.089C417.214 224.315 417.297 224.532 417.441 224.707C417.586 224.882 417.783 225.005 418.004 225.057C421.604 226.073 424.236 227.057 426.652 227.957C428.995 228.493 431.199 229.517 433.12 230.961C432.672 232.31 432.216 233.657 431.752 235.001L424.844 232.149C424.672 232.068 424.486 232.023 424.296 232.016C424.106 232.01 423.917 232.042 423.74 232.111C423.563 232.179 423.401 232.283 423.266 232.416C423.13 232.549 423.023 232.708 422.95 232.883C422.877 233.058 422.841 233.247 422.843 233.437C422.846 233.627 422.887 233.814 422.963 233.988C423.04 234.161 423.152 234.318 423.291 234.447C423.43 234.576 423.593 234.676 423.772 234.741L430.832 237.657C426.16 251.493 420.398 264.936 413.6 277.861L407.452 274.945C407.286 274.866 407.106 274.821 406.922 274.811C406.738 274.802 406.554 274.829 406.381 274.891C406.208 274.953 406.048 275.048 405.912 275.172C405.776 275.295 405.665 275.444 405.586 275.611C405.507 275.777 405.462 275.957 405.453 276.141C405.444 276.325 405.471 276.508 405.533 276.682C405.594 276.855 405.69 277.014 405.813 277.151C405.937 277.287 406.086 277.398 406.252 277.477L412.252 280.329C409.105 286.094 405.729 291.726 402.124 297.225C400.426 295.069 398.515 293.089 396.42 291.317C402.588 277.717 413.064 248.993 415.62 231.285C415.815 231.175 415.981 231.021 416.107 230.837C416.233 230.652 416.314 230.44 416.345 230.219C416.375 229.997 416.354 229.772 416.283 229.56C416.212 229.348 416.094 229.155 415.936 228.997C411.008 224.316 405.827 219.91 400.416 215.797C400.416 214.997 400.416 214.169 400.376 213.397C412.664 214.018 424.757 216.717 436.144 221.377C435.828 222.417 434.388 227.001 433.984 228.257C428.99 225.976 423.791 224.174 418.456 222.877V222.889ZM404.912 248.889C402.615 246.988 400.115 245.349 397.456 244.001C395.322 242.687 393.083 241.553 390.76 240.613C391.192 238.645 391.609 236.674 392.012 234.701C395.055 236.312 398.015 238.076 400.88 239.985C403.9 241.987 406.792 244.175 409.54 246.537C408.572 250.057 406.148 258.317 404.316 263.713C399.205 259.528 393.705 255.842 387.892 252.705C388.711 249.483 389.488 246.251 390.224 243.009C390.888 243.365 391.556 243.713 392.224 244.061C396.125 246.104 399.896 248.385 403.516 250.893C403.78 251.031 404.086 251.068 404.376 250.997C404.666 250.927 404.92 250.753 405.091 250.508C405.262 250.264 405.338 249.965 405.305 249.669C405.272 249.372 405.133 249.098 404.912 248.897V248.889ZM403.572 265.829C403.016 267.409 402.432 268.985 401.836 270.557C396.873 266.542 391.569 262.968 385.984 259.877C386.424 258.277 386.853 256.677 387.272 255.077C402.252 264.401 400.028 263.501 403.572 265.837V265.829ZM413.48 230.497C412.196 234.897 411.396 239.249 410.304 243.649C404.828 239.191 398.847 235.391 392.484 232.329C392.969 229.87 393.429 227.409 393.864 224.945C399.82 227.853 408.824 233.697 408.916 233.745C409.07 233.845 409.243 233.914 409.423 233.948C409.604 233.981 409.79 233.979 409.97 233.941C410.15 233.903 410.321 233.83 410.472 233.726C410.624 233.622 410.754 233.489 410.854 233.335C410.954 233.18 411.023 233.008 411.057 232.827C411.091 232.646 411.088 232.461 411.05 232.281C411.012 232.101 410.939 231.93 410.835 231.778C410.731 231.627 410.598 231.497 410.444 231.397C405.252 228.002 399.883 224.886 394.36 222.061C394.723 219.885 395.069 217.71 395.4 215.537C401.776 220.088 407.819 225.09 413.48 230.505V230.497ZM395.776 212.653C395.748 212.473 395.684 212.301 395.588 212.146C395.491 211.992 395.364 211.86 395.214 211.757C395.064 211.654 394.895 211.582 394.716 211.547C394.538 211.512 394.354 211.514 394.176 211.553C391.363 212.009 388.541 212.374 385.712 212.649C389.823 211.002 393.725 208.875 397.336 206.313C397.548 208.817 397.736 211.317 397.944 214.057C397.236 213.601 396.512 213.113 395.776 212.661V212.653ZM395.2 204.441C390.325 207.879 384.92 210.497 379.2 212.189C379.224 212.107 379.236 212.022 379.236 211.937C379.236 211.137 379.236 211.069 378.088 210.289C379.54 207.929 377.944 205.745 375.456 204.945C374.048 204.493 370.84 204.945 369.856 204.145C370.209 203.722 370.612 203.343 371.056 203.017C371.174 203.137 371.319 203.227 371.479 203.278C371.64 203.329 371.81 203.339 371.976 203.309H372.048C372.904 203.497 373.584 202.509 373.416 201.629C373.339 201.296 373.177 200.989 372.946 200.738C372.715 200.486 372.422 200.3 372.096 200.197C371.688 200.111 371.263 200.149 370.876 200.305C370.816 200.205 370.644 199.953 370.576 199.857C370.406 199.382 370.059 198.991 369.608 198.765C374.334 196.606 378.742 193.812 382.712 190.461C386.864 194.848 391.621 198.619 396.84 201.661C396.9 202.121 396.96 202.569 397.02 203.081C396.4 203.513 395.788 204.001 395.2 204.441ZM395.328 293.737C400.276 298.937 401.8 300.737 401.8 300.737C401.8 300.737 405.976 308.457 406.912 310.425C402.147 306.259 397.616 301.832 393.34 297.165C393.948 296.885 394 296.557 395.316 293.737H395.328ZM403.78 299.805C407.465 294.205 410.919 288.471 414.14 282.605L421.7 299.193C418.199 303.53 414.389 307.608 410.3 311.397C410.072 310.993 404.616 301.201 403.768 299.805H403.78ZM438.536 213.221C433.88 211.185 423.188 207.785 419.904 206.873C419.641 206.815 419.365 206.858 419.133 206.994C418.9 207.13 418.727 207.349 418.649 207.607C418.57 207.864 418.591 208.142 418.708 208.385C418.825 208.628 419.029 208.818 419.28 208.917C431.924 213.077 431.144 213.385 437.796 215.805C437.516 216.769 437.236 217.737 436.952 218.701C425.415 213.579 412.931 210.938 400.308 210.949C400.284 210.465 399.768 202.461 399.728 201.977C408.961 201.407 418.229 202.037 427.3 203.853C427.606 203.86 427.904 203.749 428.132 203.544C428.359 203.339 428.5 203.054 428.524 202.749C428.551 202.469 428.471 202.189 428.299 201.966C428.127 201.743 427.878 201.594 427.6 201.549C422.694 200.008 417.578 199.246 412.436 199.289C408.111 199.007 403.77 199.111 399.464 199.601C399.112 196.721 399.272 196.453 398.876 193.929C413.685 192.834 428.566 194.599 442.708 199.129C441.34 203.393 439.884 208.433 438.524 213.221H438.536ZM303.56 193.841C303.984 193.364 304.248 192.765 304.314 192.13C304.38 191.495 304.245 190.855 303.928 190.301C307.464 191.209 310.931 192.371 314.3 193.777C309.752 193.822 305.224 194.377 300.8 195.429C300.816 195.355 300.824 195.28 300.824 195.205V195.105C301.867 195.06 302.85 194.606 303.56 193.841ZM273.404 207.661C277.364 194.837 285.584 188.061 299.044 189.449C299.842 190.139 300.685 190.775 301.568 191.353C302.128 191.777 301.42 192.441 300.8 192.429C299.456 192.289 299.408 191.829 297.812 191.265C297.551 191.187 297.273 191.193 297.016 191.282C296.759 191.371 296.537 191.539 296.38 191.761C296.266 191.969 296.21 192.205 296.217 192.442C296.224 192.68 296.294 192.911 296.42 193.113C297.031 193.897 297.869 194.474 298.82 194.765C298.852 195.213 298.696 195.469 299.004 195.877C289.896 198.413 281.254 202.391 273.404 207.661ZM289.912 311.721C279.8 312.645 282.392 312.209 279.912 312.477C279.099 312.632 278.265 312.632 277.452 312.477C276.868 311.45 276.462 310.331 276.252 309.169C274.396 303.146 272.926 297.011 271.852 290.801C269.671 278.695 269.585 266.304 271.596 254.169C272.368 248.353 275.001 242.942 279.1 238.745C283.94 234.345 290.976 232.989 297.184 231.305C306.292 256.821 332.676 278.129 357.184 290.165C336.349 301.596 313.51 308.914 289.912 311.721ZM434.848 328.361C427.041 328.259 419.266 327.346 411.648 325.637C391.422 320.271 373.408 308.651 360.18 292.437C360.062 292.123 359.962 291.802 359.88 291.477C361.3 292.44 362.965 292.981 364.68 293.037C365.752 293.056 366.813 292.814 367.772 292.333C369.477 293.947 371.495 295.195 373.7 296.001C378 298.117 382.962 298.446 387.504 296.917C388.121 296.729 388.723 296.493 389.304 296.213C394.986 302.804 401.135 308.977 407.704 314.685C407.754 314.903 407.858 315.106 408.007 315.274C408.155 315.442 408.343 315.57 408.554 315.647C408.765 315.724 408.991 315.747 409.213 315.713C409.435 315.68 409.645 315.592 409.824 315.457C423.248 305.301 432.072 289.897 439.864 276.297C443.608 269.557 451.74 254.777 455.436 246.653C458.19 240.627 460.394 234.364 462.02 227.941C462.226 227.703 462.331 227.395 462.312 227.081C461.796 224.39 460.897 221.787 459.64 219.353C456.423 211.425 451.548 204.277 445.34 198.389C445.544 197.481 444.404 196.769 443.86 196.633C441.855 195.985 439.829 195.389 437.784 194.845C439.728 188.334 441.085 181.662 441.84 174.909C443.237 174.696 444.573 174.186 445.756 173.413C446.307 174.591 446.99 175.704 447.792 176.729C447.125 177.262 446.473 177.815 445.836 178.389C444.752 179.403 444.044 180.755 443.826 182.223C443.608 183.692 443.894 185.191 444.636 186.477C445.811 187.766 447.369 188.644 449.08 188.981C450.118 189.41 451.249 189.564 452.364 189.428C453.479 189.292 454.54 188.871 455.444 188.205C455.49 188.169 455.524 188.119 455.541 188.063C455.558 188.007 455.558 187.947 455.539 187.891C455.521 187.836 455.486 187.787 455.438 187.752C455.391 187.717 455.335 187.698 455.276 187.697C454.149 187.708 453.037 187.43 452.048 186.889C451.059 186.347 450.226 185.561 449.628 184.605C449.391 183.764 449.378 182.877 449.588 182.03C449.798 181.182 450.226 180.405 450.828 179.773C456.227 183.319 462.489 185.33 468.944 185.589C471.664 185.659 474.376 185.918 477.06 186.365C477.06 186.365 478.584 188.977 478.732 189.165C477.892 189.741 477.09 190.372 476.332 191.053C475.814 191.709 475.467 192.484 475.323 193.308C475.179 194.131 475.241 194.978 475.506 195.771C475.77 196.565 476.227 197.28 476.836 197.853C477.446 198.426 478.188 198.838 478.996 199.053C484.656 237.853 478.032 279.497 459.28 323.081C452.118 327.917 443.368 329.808 434.848 328.361ZM669.248 145.093C634.148 180.985 586.716 202.593 542.088 224.217C530.033 230.401 517.321 235.212 504.192 238.561C504.69 229.371 504.363 220.156 503.216 211.025C503.216 210.756 503.14 210.492 502.996 210.265C502.852 210.037 502.646 209.856 502.403 209.741C502.16 209.627 501.889 209.584 501.622 209.618C501.355 209.652 501.103 209.761 500.896 209.933C500.656 210.094 500.466 210.319 500.348 210.583C500.23 210.847 500.189 211.138 500.228 211.425C505.204 247.713 493.236 286.769 481.484 324.477C478.082 335.792 472.632 346.386 465.404 355.733C458.449 364.571 448.448 370.497 437.356 372.353C469.272 317.953 493.104 256.025 480.6 194.701C480.563 194.525 480.479 194.362 480.358 194.229C480.238 194.097 480.083 193.998 479.912 193.945C479.739 193.852 479.543 193.809 479.347 193.82C479.151 193.832 478.962 193.899 478.802 194.012C478.641 194.126 478.516 194.282 478.439 194.463C478.362 194.644 478.338 194.842 478.368 195.037C477.26 192.849 479.536 192.201 480.832 190.941C482.275 191.616 483.86 191.932 485.451 191.862C487.043 191.793 488.594 191.339 489.972 190.541C490.025 190.509 490.066 190.461 490.09 190.404C490.113 190.347 490.117 190.284 490.101 190.224C490.085 190.164 490.051 190.111 490.002 190.073C489.953 190.035 489.894 190.014 489.832 190.013C489.007 189.952 488.225 189.621 487.606 189.072C486.987 188.522 486.566 187.785 486.408 186.973C593.672 163.733 663.912 133.265 666.328 133.517C668.787 135.919 670.615 138.891 671.652 142.169C671.536 143.141 670.056 144.245 669.24 145.093H669.248ZM682.788 132.085C681.302 135.585 678.51 138.368 675.004 139.841C674.676 139.997 674.348 140.153 674.024 140.317C672.702 137.183 670.994 134.227 668.94 131.517C669.274 129.587 669.758 127.687 670.388 125.833C670.814 124.909 671.498 124.128 672.359 123.585C673.219 123.042 674.218 122.76 675.236 122.774C676.253 122.787 677.244 123.096 678.09 123.661C678.936 124.227 679.599 125.026 680 125.961C680.171 126.254 680.289 126.575 680.348 126.909C679.866 127.187 679.317 127.327 678.761 127.313C678.205 127.299 677.663 127.131 677.196 126.829C676.951 126.702 676.676 126.646 676.401 126.668C676.126 126.689 675.863 126.787 675.641 126.951C675.419 127.115 675.247 127.337 675.145 127.593C675.043 127.85 675.015 128.129 675.064 128.401C675.249 129.296 675.23 130.222 675.009 131.11C674.788 131.997 674.371 132.824 673.788 133.529C673.596 133.838 673.526 134.208 673.59 134.566C673.655 134.924 673.85 135.246 674.138 135.469C674.426 135.692 674.786 135.8 675.15 135.773C675.513 135.745 675.853 135.584 676.104 135.321C677.34 133.874 678.055 132.054 678.132 130.153C678.878 130.237 679.633 130.169 680.352 129.953C681.07 129.736 681.737 129.375 682.312 128.893C682.728 128.656 683.038 128.267 683.176 127.809C683.54 127.773 683.904 127.745 684.272 127.721C683.962 129.23 683.467 130.696 682.8 132.085H682.788Z" fill="url(#paint0_linear_197_4313)"/>
<path d="M468.116 146.432C468.748 148.944 470.56 151.42 472.556 149.58C474.056 148.2 472.764 144.028 471.42 142.98C470.076 141.932 466.952 141.8 468.116 146.432Z" fill="url(#paint1_linear_197_4313)"/>
<path d="M485.941 141.04C486.709 143.84 488.989 144.02 489.941 142.764C491.101 141.204 489.877 138.052 488.869 136.924C487.449 135.36 484.705 136.524 485.941 141.04Z" fill="url(#paint2_linear_197_4313)"/>
<path d="M483.959 145.361C486.731 149.401 487.559 151.341 488.687 153.125C487.475 153.388 486.286 153.747 485.131 154.201C484.844 154.305 484.602 154.504 484.443 154.765C484.285 155.026 484.221 155.333 484.262 155.635C484.303 155.938 484.445 156.217 484.667 156.427C484.888 156.637 485.175 156.765 485.479 156.789C487.496 156.564 489.447 155.936 491.215 154.941C492.543 153.481 490.491 150.801 489.811 149.669C487.82 146.167 485.422 142.913 482.667 139.973C482.484 139.827 482.256 139.75 482.022 139.754C481.788 139.759 481.563 139.846 481.386 140C481.21 140.154 481.093 140.365 481.056 140.596C481.019 140.827 481.064 141.064 481.183 141.265C482.027 142.684 482.954 144.051 483.959 145.361Z" fill="url(#paint3_linear_197_4313)"/>
<path d="M464.239 143.281C464.286 143.508 464.41 143.711 464.59 143.857C464.771 144.003 464.995 144.082 465.227 144.081H465.627C465.793 144.081 465.956 144.04 466.102 143.962C466.248 143.883 466.373 143.769 466.464 143.631C466.555 143.493 466.611 143.334 466.625 143.168C466.64 143.003 466.613 142.837 466.547 142.685C466.546 141.612 466.911 140.571 467.582 139.734C468.252 138.897 469.188 138.314 470.235 138.081C472.263 138.081 472.867 136.845 472.287 135.917C472.23 135.775 472.143 135.648 472.031 135.545C470.937 135.241 469.778 135.264 468.695 135.609C467.613 135.954 466.656 136.607 465.939 137.489C465.224 138.255 464.698 139.178 464.403 140.183C464.108 141.189 464.052 142.25 464.239 143.281Z" fill="url(#paint4_linear_197_4313)"/>
<path d="M470.968 155.916C471.414 161.252 473.811 166.236 477.7 169.916C480.068 171.728 482.716 170.636 485.096 168.816C487.393 167.11 489.347 164.987 490.856 162.556C490.986 162.286 491.019 161.979 490.949 161.688C490.88 161.396 490.712 161.137 490.474 160.955C490.235 160.773 489.942 160.678 489.642 160.687C489.342 160.696 489.055 160.808 488.828 161.004C486.743 163.76 484.156 166.099 481.204 167.896C480.732 168.025 480.232 168.007 479.771 167.844C479.31 167.681 478.91 167.381 478.624 166.984C476.415 164.464 474.853 161.443 474.072 158.184C476.402 159.218 478.888 159.857 481.428 160.076C484.81 160.853 488.359 160.355 491.396 158.676C492.568 158.028 491.428 155.876 490.32 156.708C487.588 157.86 484.558 158.107 481.676 157.412C478.596 157.056 475.631 156.032 472.988 154.412C472.754 154.306 472.496 154.265 472.24 154.293C471.985 154.32 471.741 154.416 471.535 154.569C471.329 154.723 471.168 154.929 471.068 155.166C470.968 155.402 470.934 155.661 470.968 155.916Z" fill="url(#paint5_linear_197_4313)"/>
<path d="M208.8 256C222.244 260.048 238.8 258.476 249.804 248.556C255.582 243.213 260.446 236.96 264.204 230.044C264.9 229.112 264.372 227.532 262.584 227.84C253.443 229.364 244.125 229.509 234.94 228.272C234.706 228.267 234.475 228.32 234.267 228.426C234.059 228.532 233.88 228.687 233.747 228.879C233.613 229.071 233.529 229.292 233.502 229.524C233.475 229.756 233.506 229.991 233.592 230.208C229.1 236.593 222.599 241.289 215.127 243.548C207.654 245.808 199.641 245.499 192.364 242.672C192.085 242.618 191.795 242.648 191.533 242.759C191.271 242.87 191.048 243.057 190.893 243.295C190.738 243.534 190.658 243.813 190.662 244.098C190.667 244.382 190.757 244.659 190.92 244.892C195.446 250.517 201.752 254.434 208.8 256ZM260 231.004C256.019 237.655 250.87 243.532 244.8 248.352C244.879 248.177 244.917 247.986 244.913 247.793C244.909 247.601 244.862 247.411 244.775 247.239C244.688 247.067 244.565 246.917 244.413 246.799C244.261 246.681 244.084 246.598 243.896 246.556C243.472 246.311 243.018 246.124 242.544 246C242.586 245.291 242.466 244.582 242.193 243.926C241.92 243.271 241.501 242.686 240.968 242.216C239.854 241.412 238.484 241.045 237.117 241.185C235.751 241.325 234.483 241.963 233.556 242.976C231.748 244.476 230.124 246.904 228.044 246.144C226.984 245.784 227.1 245.344 227.168 245.08C227.376 244.561 227.689 244.09 228.086 243.696C228.484 243.303 228.958 242.995 229.48 242.792C229.551 242.909 229.646 243.01 229.758 243.088C229.871 243.167 229.998 243.221 230.132 243.248C230.56 243.348 230.804 243.152 231.212 242.848C232.292 242.08 231.116 240.404 229.644 240.296C228.366 240.4 227.168 240.956 226.264 241.864C225.984 241.903 225.7 241.903 225.42 241.864H224.976C229.236 239.111 232.877 235.503 235.668 231.268C243.746 232.257 251.92 232.169 259.976 231.008L260 231.004ZM223.536 243.832C223.664 244.001 223.837 244.131 224.035 244.207C224.233 244.283 224.448 244.303 224.656 244.264C224.432 245.183 224.579 246.153 225.065 246.964C225.551 247.776 226.336 248.363 227.252 248.6C230.452 249.712 233.184 246.924 234.116 245.96C234.946 244.974 236.02 244.224 237.232 243.784C237.705 243.623 238.222 243.64 238.683 243.832C239.145 244.024 239.521 244.379 239.74 244.828C239.939 245.298 239.95 245.826 239.773 246.304C239.595 246.782 239.241 247.174 238.784 247.4C237.567 247.801 236.293 248.005 235.012 248.004C234.654 247.969 234.296 248.075 234.015 248.299C233.733 248.523 233.55 248.848 233.504 249.204C233.481 249.498 233.567 249.79 233.745 250.025C233.924 250.26 234.183 250.42 234.472 250.476C235.743 250.846 237.092 250.851 238.365 250.49C239.638 250.129 240.784 249.418 241.672 248.436C242.756 248.756 242.872 249.184 243.576 249.192C239.865 251.721 235.69 253.488 231.292 254.392C224.57 255.685 217.645 255.462 211.02 253.74C205.786 252.79 200.906 250.44 196.9 246.94C205.898 248.926 215.314 247.478 223.3 242.88C223.248 243.214 223.324 243.556 223.512 243.836L223.536 243.832Z" fill="url(#paint6_linear_197_4313)"/>
<path d="M79.3233 239.5C79.3502 239.77 79.453 240.026 79.6198 240.24C79.7866 240.453 80.0105 240.615 80.2656 240.706C80.5207 240.798 80.7964 240.815 81.0608 240.756C81.3252 240.697 81.5674 240.564 81.7593 240.372C89.6508 231.553 99.3752 224.566 110.251 219.9C115.481 217.72 121.139 216.763 126.795 217.1C132.45 217.438 137.954 219.062 142.887 221.848C143.15 221.983 143.447 222.037 143.74 222.004C144.033 221.971 144.31 221.852 144.537 221.663C144.763 221.474 144.929 221.222 145.013 220.939C145.098 220.656 145.097 220.355 145.011 220.072C142.538 213.22 139.276 206.679 135.291 200.58C135.166 200.425 135.011 200.296 134.836 200.201C134.66 200.107 134.467 200.048 134.268 200.029C134.07 200.01 133.869 200.031 133.679 200.091C133.488 200.15 133.312 200.247 133.159 200.376C120.663 196.465 107.141 197.521 95.4033 203.324C89.4552 205.81 84.6945 210.494 82.1113 216.4C79.498 223.802 78.5462 231.689 79.3233 239.5ZM133.275 202.8C136.187 207.53 138.728 212.478 140.875 217.6C132.212 213.72 122.448 213.056 113.339 215.728C113.489 215.549 113.572 215.322 113.571 215.088C113.571 214.08 113.351 214.288 112.879 213.172C113.582 212.96 114.234 212.607 114.796 212.134C115.358 211.662 115.818 211.08 116.147 210.424C117.319 207.536 114.023 204.824 110.527 204.4C109.733 204.366 108.942 204.278 108.159 204.136C107.963 204.073 107.799 203.936 107.701 203.754C107.603 203.572 107.58 203.359 107.635 203.16C108.214 202.308 109.071 201.683 110.059 201.392C110.154 201.362 110.243 201.316 110.323 201.256C117.992 200.02 125.841 200.548 133.275 202.8ZM105.399 202.328C104.643 204.392 105.675 206.328 108.523 206.764C110.109 206.666 111.678 207.133 112.951 208.084C113.243 208.34 113.907 208.984 113.751 209.348C112.803 211.192 109.511 210.98 107.655 209.504C107.495 209.404 107.316 209.339 107.128 209.315C106.941 209.29 106.751 209.307 106.57 209.362C106.39 209.418 106.224 209.512 106.083 209.638C105.942 209.764 105.831 209.919 105.755 210.092C105.698 210.295 105.686 210.507 105.72 210.715C105.755 210.922 105.835 211.12 105.955 211.292C106.526 211.936 107.222 212.457 108 212.823C108.779 213.189 109.624 213.392 110.483 213.42C110.603 213.996 110.823 214.547 111.131 215.048C111.243 215.284 111.402 215.495 111.598 215.668C111.794 215.84 112.023 215.971 112.271 216.052C100.709 220.297 90.2724 227.132 81.7593 236.032C81.5773 230.249 82.298 224.473 83.8953 218.912C85.051 215.851 86.8243 213.059 89.1047 210.712C91.3852 208.365 94.1242 206.512 97.1513 205.268C99.8252 204.088 102.582 203.106 105.399 202.328Z" fill="url(#paint7_linear_197_4313)"/>
<path d="M742.428 210.308C742.528 210.008 742.556 209.688 742.508 209.375C742.46 209.062 742.339 208.764 742.153 208.507C741.968 208.25 741.725 208.041 741.443 207.897C741.161 207.752 740.849 207.677 740.532 207.676C740.086 207.639 739.641 207.751 739.267 207.996C738.893 208.241 738.611 208.605 738.468 209.028C662.58 430.772 526.98 626.4 320.136 740.4C319.66 740.724 319.323 741.214 319.191 741.774C319.058 742.334 319.141 742.923 319.421 743.425C319.702 743.927 320.161 744.306 320.707 744.487C321.253 744.667 321.847 744.636 322.372 744.4C525.54 634.864 668.276 432.768 742.428 210.308Z" fill="url(#paint8_linear_197_4313)"/>
<path d="M751.535 194.625C735.785 366.457 669.249 529.713 560.399 663.601C551.727 674.229 551.819 673.773 551.819 674.777C551.798 675.23 551.918 675.678 552.163 676.06C552.408 676.442 552.765 676.738 553.186 676.909C553.606 677.079 554.069 677.114 554.51 677.011C554.952 676.907 555.35 676.668 555.651 676.329C644.814 570.235 707.281 444.337 737.831 309.161C746.326 271.554 752.251 233.412 755.563 195.001C755.799 192.353 751.763 192.241 751.535 194.625Z" fill="url(#paint9_linear_197_4313)"/>
<path d="M666.838 130.365C620.818 147.669 573.91 162.51 526.311 174.825C516.447 177.401 490.045 183.789 486.737 184.593C487.676 181.937 489.525 179.702 491.959 178.285C503.655 170.113 506.456 171.485 511.992 165.773C513.239 164.458 513.987 162.749 514.108 160.942C514.228 159.134 513.714 157.341 512.653 155.873C510.321 153.285 505.755 152.861 504.887 149.773C503.115 143.405 514.169 133.772 513.593 125.188C512.937 115.42 500.39 102.18 481.322 99.4165C470.463 97.6907 459.378 97.9864 448.626 100.289C440.553 101.958 433.167 106.013 427.426 111.929C422.91 116.621 416.13 122.096 413.85 128.328C412.49 131.928 412.036 136.085 409.052 138.137C407.861 138.777 406.548 139.164 405.199 139.271C403.85 139.379 402.491 139.205 401.213 138.761C387.533 135.309 379.268 121.24 366.192 115.136C360.373 112.505 353.936 111.553 347.604 112.387C341.273 113.221 335.299 115.808 330.36 119.856C328.102 122.375 325.279 124.325 322.126 125.548C320.185 125.89 318.193 125.802 316.29 125.288C301.458 121.48 291.43 111.812 277.15 109.816C270.509 108.914 263.751 109.636 257.451 111.92C251.15 114.203 245.495 117.981 240.974 122.928C238.756 125.105 237.066 127.762 236.035 130.694C235.005 133.625 234.663 136.755 235.031 139.841C237.031 148.209 246.06 152.373 249.856 153.777C256.256 156.145 263.367 157.845 268.559 162.429C269.395 163.05 270.024 163.909 270.366 164.893C271.098 167.189 268.572 169.293 266.272 169.829C263.677 170.035 261.096 170.399 258.545 170.921C258.484 170.932 258.427 170.964 258.386 171.01C258.345 171.057 258.322 171.115 258.317 171.177C258.313 171.238 258.33 171.3 258.365 171.351C258.399 171.402 258.448 171.441 258.506 171.461C264.5 173.616 270.889 174.452 277.235 173.913C280.404 173.54 283.379 172.198 285.757 170.071C288.135 167.943 289.799 165.133 290.52 162.025C290.738 160.176 290.822 158.314 290.777 156.453C291.505 150.053 295.768 151.433 301.024 155.173C306.85 159.387 313.581 162.18 320.68 163.329C327.778 164.478 335.047 163.95 341.906 161.789C347.294 160.065 350.492 154.501 356.164 154.501C357.553 154.502 358.91 154.894 360.086 155.632C361.262 156.37 362.209 157.423 362.815 158.673C363.256 160.448 363.79 162.198 364.415 163.917C350.29 165.081 336.434 168.447 323.348 173.893C316.165 176.914 309.777 181.555 304.684 187.453C299.554 186.24 294.212 186.24 289.082 187.453C276.282 190.721 272.21 202.14 270.25 210.672C270.234 210.923 270.29 211.173 270.409 211.394C270.528 211.615 270.706 211.799 270.924 211.923C271.141 212.048 271.389 212.11 271.64 212.101C271.891 212.092 272.136 212.013 272.344 211.872C280.013 206.372 288.493 202.102 297.479 199.216C293.919 208.532 293.622 218.779 296.638 228.284C288.75 230.356 280.168 232.212 275.3 238.856C271.171 244.771 268.789 251.728 268.431 258.933C267.092 277.747 269.56 296.638 275.686 314.476C275.736 314.632 275.808 314.779 275.901 314.912C270.937 317.609 266.129 320.584 261.501 323.824C258.368 325.483 255.201 327.083 251.993 328.624C252.005 328.534 252.005 328.443 251.993 328.352C251.9 327.128 251.422 325.964 250.633 325.024C249.843 324.084 248.78 323.415 247.59 323.112C243.988 322.189 240.29 321.698 236.572 321.652C213.464 319.396 214.03 319.252 210.514 319.252C209.049 319.082 207.565 319.294 206.206 319.867C204.847 320.44 203.661 321.356 202.76 322.524C202.471 323.024 202.292 323.581 202.241 324.156C202.19 324.731 202.267 325.311 202.464 325.853C202.662 326.396 202.974 326.889 203.383 327.297C203.791 327.706 204.286 328.019 204.829 328.216C215.585 335.044 218.598 333.08 226.626 338.764C168.39 357.844 116.187 348.576 111.667 349.492C110.84 349.873 110.073 350.377 109.397 350.988C105.982 348.212 102.382 345.672 98.6189 343.389C97.3032 342.607 95.7773 342.247 94.2509 342.359C92.7245 342.471 91.2727 343.048 90.0846 344.012C87.1326 346.188 84.8847 348.9 82.1767 351.124C71.0927 360.228 57.4631 364.224 57.1271 371.192C56.9391 375.08 60.1252 375.308 61.5252 375.408C73.8332 376.032 82.6225 371.124 99.9705 370.776C101.075 370.752 101.243 370.8 101.571 370.648C102.031 379.62 110.568 383.677 119.064 386.361C181.816 406.296 258.573 405.7 337.349 376.712C340.503 375.212 343.739 373.891 347.042 372.756C334.242 390.064 333.347 390.852 331.355 395.224C323.027 392.088 320.71 390.732 317.294 389.396C307.636 393.195 297.678 396.176 287.52 398.308C278.52 400.214 269.403 401.529 260.231 402.244C263.635 405.784 261.688 404.512 294.068 435.556C301.957 444.15 311.205 451.388 321.443 456.981C328.583 460.666 336.451 462.729 344.481 463.02C352.004 462.579 359.256 460.051 365.424 455.72C377.705 447.29 388.745 437.181 398.222 425.688C417.57 402.324 419.943 401.892 434.175 375.184C437.375 377.184 466.05 373.124 481.678 333.88C485.681 323.182 489.14 312.286 492.036 301.236C498.061 281.845 502.213 261.92 504.436 241.736C526.9 236.256 539.675 228.812 575.715 211.388C599.15 200.182 621.627 187.072 642.917 172.189C654.575 163.741 665.368 154.164 675.145 143.596C675.315 143.335 675.401 143.028 675.39 142.716C678.493 141.471 680.764 139.01 683.225 136.745C687.672 132.65 689.721 124.621 682.761 125.78C681.564 124.477 680.916 121.948 679.286 121.325C674.953 119.67 670.052 120.38 666.838 130.365ZM101.614 368.428C93.2678 368.091 84.9184 368.989 76.8347 371.092C71.8353 372.062 66.7589 372.58 61.6668 372.64C59.7468 372.436 60.4316 370.32 61.2076 369.364C65.9476 364.272 69.4106 364.704 85.5106 352.36C88.3866 349.86 92.1448 344.513 95.8128 345.561C97.8838 346.434 99.7995 347.631 101.494 349.108L107.569 353.36C104.586 357.929 102.56 363.055 101.614 368.428ZM228.814 338.06C227.62 336.09 225.758 334.615 223.566 333.904C217.691 331.852 212.041 329.205 206.704 326.004C206.16 325.636 205.536 325.076 205.648 324.484C205.796 323.684 207.058 322.768 208.338 322.484C210.818 322.108 210.924 322.304 242.592 325.432C245.744 325.74 248.836 326.232 249.036 328.452C249.035 328.707 249.101 328.957 249.23 329.176C249.358 329.396 249.539 329.577 249.762 329.701C242.938 332.867 235.947 335.658 228.818 338.06H228.814ZM463.013 136.192C467.28 134.197 471.444 131.986 475.487 129.568C477.014 128.823 478.714 128.501 480.408 128.636C482.102 128.772 483.73 129.361 485.119 130.34C484.624 130.534 484.185 130.848 483.841 131.252C483.496 131.657 483.254 132.141 483.141 132.66C483.134 132.936 483.226 133.206 483.394 133.425C483.563 133.643 483.799 133.797 484.068 133.859C484.337 133.922 484.618 133.891 484.866 133.77C485.114 133.649 485.316 133.447 485.433 133.196C485.54 132.981 485.713 132.807 485.93 132.703C486.148 132.599 486.394 132.572 486.63 132.624C487.324 132.834 487.957 133.212 488.47 133.724C488.847 134.106 489.328 134.37 489.852 134.484C490.055 134.495 490.256 134.455 490.44 134.368C490.624 134.28 490.783 134.149 490.903 133.984L491.547 134.132C495.099 140.799 497.316 148.093 498.077 155.609C498.305 158.787 497.855 161.978 496.752 164.967C495.648 167.957 493.918 170.677 491.68 172.945C486.116 177.805 481.398 177.229 478.79 181.745C476.71 184.813 480.33 183.173 472.762 183.229C465.981 183.312 459.304 181.574 453.423 178.197C454.803 177.411 456.267 176.785 457.787 176.329C459.972 175.639 461.857 174.229 463.138 172.329C463.932 170.396 463.997 168.239 463.318 166.262C462.638 164.286 461.263 162.624 459.448 161.589C458.205 160.909 457.104 159.998 456.204 158.905C452.284 152.701 460.07 143.009 454.706 136.105C456.009 136.699 457.424 137.014 458.855 137.029C460.287 137.044 461.703 136.759 463.018 136.192H463.013ZM439.783 153.685C442.155 152.861 447.073 156.233 448.313 158.113C450.025 160.689 455.389 167.429 455.397 170.025C455.266 170.703 454.995 171.347 454.599 171.913C454.203 172.48 453.69 172.957 453.097 173.313C452.089 173.913 451.108 174.554 450.154 175.237C449.288 174.237 448.51 173.167 447.824 172.037C449.013 170.821 449.867 169.319 450.304 167.677C450.315 167.634 450.317 167.59 450.308 167.548C450.3 167.505 450.279 167.465 450.252 167.431C450.226 167.396 450.193 167.368 450.154 167.349C450.115 167.33 450.069 167.32 450.025 167.32C440.113 167.316 436.003 154.989 439.787 153.685H439.783ZM368.406 166.541C373.158 167.741 373.651 164.113 410.031 167.021C420.183 169.601 431.256 174.953 439.74 175.001C439.02 177.561 438.107 183.9 435.183 194.04C423.249 191.113 410.905 190.214 398.673 191.381C398.498 191.195 398.274 191.066 398.025 191.012C397.776 190.958 397.515 190.98 397.279 191.076C397.042 191.172 396.84 191.338 396.699 191.55C396.559 191.763 396.485 192.014 396.489 192.269C396.544 194.292 396.731 196.309 397.047 198.308C392.266 195.355 387.96 191.693 384.277 187.449C384.021 187.259 383.708 187.161 383.389 187.171C383.071 187.181 382.766 187.299 382.523 187.505C376.913 192.612 370.256 196.434 363.017 198.702C355.777 200.97 348.127 201.63 340.606 200.636C340.367 200.637 340.131 200.7 339.924 200.819C339.716 200.938 339.543 201.109 339.422 201.316C339.301 201.522 339.236 201.757 339.233 201.996C339.23 202.235 339.293 202.471 339.409 202.68C343.801 208.837 349.433 214.006 355.941 217.856C356.525 219.56 357.046 221.282 357.507 223.02C357.507 223.02 354.21 223.212 352.83 223.272C352.591 223.309 352.367 223.412 352.182 223.569C351.998 223.726 351.862 223.931 351.788 224.161C351.713 224.392 351.704 224.638 351.762 224.873C351.82 225.109 351.941 225.323 352.114 225.492C366.942 245.408 370.218 261.404 375.314 275.716C375.678 276.743 375.799 277.84 375.666 278.921C375.533 280.002 375.149 281.037 374.546 281.944C372.733 285.49 369.744 288.293 366.089 289.872C364.461 290.212 362.005 288.672 360.777 287.988C348.758 282.343 337.508 275.188 327.3 266.696C317.589 258.753 309.548 248.965 303.641 237.896C300.308 231.889 298.343 225.22 297.887 218.365C297.431 211.511 298.494 204.64 301.002 198.244C304.366 197.414 307.797 196.874 311.253 196.628C316.912 197.685 322.318 199.801 327.193 202.864C327.46 203.022 327.777 203.076 328.081 203.017C328.385 202.958 328.66 202.789 328.849 202.544C329.038 202.298 329.127 201.992 329.107 201.683C329.086 201.374 328.953 201.083 328.733 200.864C323.933 194.24 316.789 190.713 307.305 188.097C322.093 173.061 347.394 168.297 368.406 166.541ZM448.137 216.02L458.538 231.756C457.258 235.167 455.91 238.555 454.492 241.92C451.011 233.552 446.082 225.863 439.929 219.208C441.793 213.208 443.647 207.1 445.151 200.98C450.202 206.497 454.319 212.801 457.337 219.644C459.337 224.004 458.934 224.28 460.194 227.212L459.739 228.492L450.476 214.492C450.374 214.339 450.242 214.207 450.089 214.104C449.937 214.001 449.768 213.929 449.587 213.893C449.407 213.856 449.223 213.855 449.042 213.89C448.862 213.925 448.69 213.995 448.536 214.096C448.383 214.198 448.249 214.328 448.146 214.481C448.043 214.633 447.972 214.804 447.935 214.984C447.899 215.165 447.896 215.35 447.931 215.531C447.966 215.711 448.036 215.883 448.137 216.036V216.02ZM433.158 254.896L441.023 269.392C435.917 278.807 430.261 287.912 424.083 296.66L416.248 279.46C418.093 275.975 419.851 272.446 421.526 268.872L426.803 278.328C426.984 278.653 427.287 278.893 427.644 278.994C428.002 279.096 428.384 279.051 428.708 278.87C429.033 278.69 429.272 278.387 429.374 278.03C429.475 277.672 429.43 277.289 429.249 276.964C424.121 267.788 423.343 266.196 422.959 265.764C426.559 257.764 430.441 247.712 433.145 240.068L440.624 254.696C440.706 254.863 440.819 255.011 440.959 255.133C441.099 255.255 441.263 255.348 441.439 255.406C441.615 255.465 441.799 255.487 441.984 255.473C442.169 255.459 442.351 255.408 442.516 255.323C442.681 255.239 442.83 255.122 442.95 254.98C443.069 254.838 443.16 254.674 443.216 254.497C443.271 254.32 443.288 254.134 443.271 253.949C443.254 253.764 443.204 253.584 443.117 253.42L434.415 236.408C434.975 234.766 435.527 233.111 436.071 231.444L442.658 243.044C442.749 243.204 442.873 243.345 443.018 243.458C443.163 243.571 443.326 243.654 443.503 243.703C443.68 243.752 443.87 243.765 444.052 243.743C444.235 243.72 444.407 243.661 444.567 243.57C444.727 243.48 444.87 243.358 444.983 243.213C445.096 243.068 445.179 242.902 445.228 242.724C445.277 242.547 445.289 242.362 445.267 242.179C445.244 241.997 445.186 241.82 445.095 241.66L437.251 227.816C437.431 227.244 438.972 222.312 438.972 222.312C444.97 229.13 449.719 236.951 453.003 245.416C449.859 252.584 446.407 259.61 442.649 266.492L435.621 253.548C435.535 253.383 435.416 253.236 435.273 253.116C435.13 252.997 434.967 252.907 434.789 252.852C434.61 252.798 434.42 252.779 434.235 252.797C434.05 252.816 433.871 252.871 433.707 252.96C433.543 253.049 433.399 253.17 433.282 253.315C433.166 253.461 433.08 253.628 433.029 253.807C432.978 253.986 432.964 254.174 432.986 254.359C433.009 254.544 433.066 254.723 433.158 254.884V254.896ZM392.207 285.948C392.396 285.738 392.577 285.514 392.747 285.276C393.1 284.549 393.214 283.73 393.074 282.934C392.934 282.139 392.546 281.408 391.967 280.844C391.28 280.37 390.485 280.079 389.654 279.999C388.823 279.92 387.985 280.056 387.221 280.392C385.973 280.695 384.694 280.86 383.411 280.884C383.917 280.469 384.334 279.957 384.642 279.379C384.95 278.801 385.145 278.168 385.209 277.516C385.076 276.758 384.685 276.069 384.102 275.567C383.518 275.065 382.777 274.782 382.008 274.764C383.362 270.535 384.643 266.28 385.848 262C391.64 265.6 392.248 266.08 397.012 269.476C398.348 270.718 399.876 271.733 401.539 272.48C397.483 283.1 397.453 283.232 394.241 290.2C394.105 290.524 393.279 292.888 392.983 293.564C392.508 293.283 392.062 292.956 391.649 292.588C391.581 292.293 391.468 292.008 391.319 291.744C394.627 289.756 394.051 286.696 392.207 285.948ZM388.414 293.548L388.367 293.596C386.026 294.625 383.473 295.072 380.922 294.898C378.371 294.725 375.898 293.936 373.718 292.6C372.62 292.13 371.602 291.496 370.693 290.72C372.085 289.705 373.319 288.492 374.361 287.12C376.218 285.126 377.536 282.692 378.193 280.048C379.16 278.748 380.548 277.822 382.119 277.424C381.907 277.824 382.518 277.776 381.098 278.964C380.171 279.635 379.52 280.621 379.266 281.736C379.219 281.934 379.22 282.14 379.262 282.338C379.303 282.537 379.388 282.724 379.51 282.887C379.633 283.049 379.786 283.182 379.965 283.277C380.145 283.372 380.346 283.427 380.549 283.436C383.181 283.683 385.835 283.448 388.384 282.744C389.132 282.716 390.545 282.344 389.881 283.688C389.406 284.529 388.686 285.201 387.813 285.612C387.603 285.63 387.398 285.699 387.221 285.814C387.044 285.929 386.901 286.087 386.8 286.272C386.7 286.458 386.646 286.665 386.646 286.876C386.646 287.087 386.7 287.295 386.8 287.48C386.8 289.236 389.859 288.308 390.855 288.452C390.214 289.24 389.334 289.801 388.349 290.052C386.601 290.132 386.16 291.352 386.612 292.208C386.992 292.948 388.05 293.172 388.414 293.572V293.548ZM382.351 249.256C381.351 248.956 367.205 246.02 366.805 245.936C365.189 242.558 363.44 239.242 361.558 235.988C361.703 234.27 361.639 232.54 361.369 230.836C364.421 231.236 367.545 231.54 370.573 231.82C377.197 232.432 382.37 233.044 389.598 233.948C389.305 235.359 389.007 236.763 388.706 238.16C384.654 237.35 380.565 236.753 376.451 236.372C376.202 236.352 375.954 236.425 375.756 236.579C375.558 236.732 375.425 236.954 375.383 237.2C375.34 237.447 375.393 237.701 375.529 237.911C375.664 238.121 375.874 238.273 376.116 238.336C377.688 238.736 381.468 239.164 388.148 240.648C385.476 252.696 382.177 264.424 378.545 276.344C378.369 276.496 378.203 276.648 378.039 276.8C377.565 274.017 376.678 271.32 375.404 268.8C373.444 261.846 370.96 255.051 367.973 248.472C370.025 248.984 372.077 249.448 374.121 249.924C376.727 250.657 379.372 251.246 382.042 251.688C382.342 251.688 382.632 251.577 382.857 251.378C383.082 251.18 383.227 250.906 383.265 250.608C383.303 250.31 383.231 250.008 383.063 249.76C382.895 249.511 382.641 249.332 382.351 249.256ZM357.314 214.748C362.27 215.416 367.26 215.817 372.259 215.948C373.779 216 381.97 215.836 387.538 215.216C388.378 215.216 392.042 214.384 393.194 214.276C392.961 216.481 392.587 218.668 392.074 220.824C391.598 223.556 390.281 230.624 390.117 231.428C383.485 230.628 367.765 228.76 361.069 228.568C360.287 223.847 359.027 219.217 357.314 214.748ZM359.357 232.324C358.023 230.191 356.631 228.076 355.186 225.98L358.181 225.816C358.664 227.96 359.058 230.126 359.357 232.312V232.324ZM354.366 213.712C354.434 213.872 354.5 214.036 354.564 214.196C352.235 212.458 350.026 210.564 347.952 208.528C346.324 206.925 344.793 205.228 343.365 203.444C351.907 204.121 360.487 202.749 368.393 199.444C368.229 200.612 368.533 200.796 369.045 201.608C366.757 203.572 367.35 205.608 369.594 206.668C370.603 207.04 371.681 207.19 372.752 207.108C373.992 207.08 375.695 207.172 376.327 208.24C376.727 208.896 375.211 209.388 374.387 209.208C371.771 208.636 371.311 207.72 370.491 208.252C370.311 208.378 370.17 208.554 370.088 208.757C370.005 208.961 369.985 209.185 370.028 209.4C370.028 210.2 372.026 212.116 374.606 212.116C375.206 212.106 375.804 212.03 376.387 211.888C376.495 211.968 377.416 212.688 377.528 212.74C376.972 212.892 376.41 213.032 375.85 213.168C369.108 213.284 362.368 212.876 355.688 211.948C355.471 211.935 355.254 211.976 355.057 212.067C354.86 212.158 354.686 212.297 354.555 212.47C354.425 212.644 354.339 212.847 354.306 213.061C354.273 213.276 354.294 213.496 354.366 213.7V213.712ZM418.908 222.836C418.745 222.823 418.578 222.844 418.423 222.899C418.269 222.953 418.13 223.04 418.012 223.154C417.893 223.267 417.798 223.405 417.737 223.557C417.676 223.709 417.649 223.873 417.655 224.036C417.665 224.263 417.747 224.48 417.891 224.655C418.036 224.83 418.233 224.952 418.454 225.004C422.054 226.02 424.688 227.004 427.104 227.904C429.447 228.441 431.649 229.464 433.57 230.908C433.122 232.258 432.665 233.604 432.201 234.948L425.293 232.096C425.121 232.016 424.938 231.971 424.748 231.964C424.558 231.958 424.367 231.99 424.19 232.058C424.013 232.127 423.854 232.231 423.718 232.364C423.583 232.496 423.473 232.655 423.401 232.831C423.328 233.006 423.291 233.195 423.294 233.385C423.296 233.574 423.337 233.762 423.414 233.936C423.49 234.109 423.601 234.265 423.74 234.395C423.879 234.524 424.046 234.624 424.225 234.688L431.283 237.605C426.611 251.44 420.849 264.884 414.051 277.808L407.902 274.892C407.736 274.814 407.558 274.768 407.375 274.759C407.191 274.75 407.007 274.777 406.834 274.839C406.661 274.901 406.499 274.996 406.362 275.12C406.226 275.243 406.115 275.392 406.036 275.558C405.957 275.725 405.912 275.905 405.903 276.089C405.894 276.272 405.923 276.456 405.985 276.629C406.046 276.803 406.14 276.962 406.263 277.099C406.387 277.235 406.535 277.346 406.701 277.424L412.704 280.276C409.557 286.042 406.179 291.674 402.573 297.172C400.876 295.016 398.966 293.037 396.871 291.264C403.039 277.664 413.516 248.94 416.072 231.232C416.267 231.123 416.431 230.969 416.557 230.784C416.683 230.599 416.767 230.388 416.797 230.167C416.828 229.945 416.804 229.72 416.733 229.508C416.662 229.296 416.543 229.103 416.385 228.944C411.457 224.264 406.276 219.857 400.866 215.744C400.866 214.944 400.867 214.116 400.827 213.344C413.115 213.966 425.208 216.664 436.595 221.324C436.279 222.364 434.841 226.948 434.437 228.204C429.443 225.924 424.243 224.122 418.908 222.824V222.836ZM405.362 248.836C403.066 246.936 400.564 245.297 397.905 243.948C395.771 242.634 393.534 241.501 391.211 240.56C391.643 238.592 392.062 236.622 392.464 234.648C395.507 236.26 398.464 238.023 401.329 239.932C404.349 241.935 407.244 244.123 409.992 246.484C409.024 250.004 406.598 258.264 404.766 263.66C399.655 259.476 394.158 255.79 388.345 252.652C389.164 249.431 389.939 246.199 390.675 242.956C391.339 243.312 392.007 243.66 392.675 244.008C396.575 246.051 400.348 248.333 403.968 250.84C404.232 250.979 404.536 251.016 404.826 250.945C405.116 250.874 405.372 250.701 405.543 250.456C405.714 250.212 405.79 249.913 405.757 249.616C405.724 249.32 405.583 249.045 405.362 248.844V248.836ZM404.024 265.776C403.468 267.356 402.882 268.932 402.286 270.504C397.323 266.49 392.021 262.916 386.436 259.824C386.876 258.224 387.304 256.624 387.723 255.024C402.703 264.348 400.48 263.448 404.024 265.784V265.776ZM413.931 230.444C412.647 234.844 411.848 239.196 410.756 243.596C405.28 239.138 399.299 235.339 392.936 232.276C393.422 229.818 393.879 227.356 394.314 224.892C400.27 227.8 409.274 233.644 409.366 233.692C409.52 233.793 409.695 233.862 409.876 233.895C410.057 233.929 410.241 233.927 410.421 233.889C410.601 233.851 410.772 233.778 410.923 233.674C411.075 233.57 411.205 233.437 411.305 233.282C411.405 233.128 411.473 232.956 411.507 232.775C411.54 232.594 411.541 232.409 411.502 232.229C411.464 232.049 411.392 231.878 411.288 231.726C411.184 231.575 411.047 231.445 410.893 231.344C405.701 227.95 400.334 224.834 394.811 222.008C395.174 219.832 395.519 217.658 395.85 215.484C402.226 220.036 408.27 225.038 413.931 230.452V230.444ZM396.227 212.6C396.2 212.421 396.135 212.248 396.038 212.094C395.942 211.94 395.815 211.807 395.665 211.704C395.515 211.601 395.346 211.53 395.167 211.495C394.989 211.46 394.805 211.462 394.627 211.5C391.813 211.956 388.99 212.322 386.161 212.596C390.272 210.95 394.178 208.823 397.789 206.26C398.001 208.764 398.186 211.264 398.394 214.004C397.686 213.548 396.963 213.06 396.227 212.608V212.6ZM395.652 204.388C390.778 207.827 385.372 210.444 379.652 212.136C379.676 212.055 379.687 211.97 379.686 211.884C379.686 211.084 379.689 211.016 378.541 210.236C379.993 207.876 378.394 205.692 375.906 204.892C374.498 204.44 371.291 204.892 370.307 204.092C370.66 203.67 371.064 203.291 371.508 202.964C371.626 203.085 371.768 203.175 371.929 203.226C372.089 203.277 372.261 203.287 372.426 203.256H372.499C373.355 203.444 374.036 202.456 373.868 201.576C373.792 201.244 373.628 200.936 373.396 200.685C373.165 200.434 372.872 200.248 372.546 200.144C372.138 200.059 371.715 200.097 371.328 200.252C371.268 200.152 371.096 199.9 371.028 199.804C370.857 199.33 370.509 198.939 370.058 198.712C374.783 196.554 379.192 193.76 383.162 190.408C387.314 194.795 392.073 198.567 397.291 201.608C397.351 202.068 397.412 202.516 397.472 203.028C396.852 203.46 396.24 203.948 395.652 204.388ZM395.781 293.684C400.729 298.884 402.252 300.684 402.252 300.684C402.252 300.684 406.426 308.404 407.362 310.372C402.597 306.206 398.066 301.78 393.79 297.112C394.398 296.832 394.452 296.504 395.768 293.684H395.781ZM404.23 299.752C407.915 294.152 411.37 288.419 414.592 282.552L422.152 299.14C418.651 303.477 414.84 307.556 410.752 311.344C410.524 310.94 405.069 301.148 404.221 299.752H404.23ZM438.989 213.168C434.333 211.132 423.638 207.732 420.354 206.82C420.091 206.763 419.815 206.806 419.582 206.942C419.349 207.078 419.18 207.297 419.101 207.555C419.023 207.812 419.045 208.09 419.161 208.333C419.278 208.576 419.482 208.765 419.732 208.864C432.376 213.024 431.595 213.332 438.247 215.752C437.967 216.716 437.686 217.684 437.402 218.648C425.865 213.527 413.381 210.886 400.758 210.896C400.734 210.412 400.219 202.408 400.179 201.924C409.412 201.355 418.681 201.985 427.752 203.8C428.058 203.808 428.356 203.697 428.584 203.492C428.812 203.287 428.95 203.002 428.974 202.696C429.002 202.417 428.923 202.137 428.751 201.914C428.58 201.691 428.33 201.542 428.052 201.496C423.146 199.956 418.03 199.193 412.888 199.236C408.564 198.954 404.219 199.059 399.913 199.548C399.561 196.668 399.721 196.4 399.325 193.876C414.134 192.782 429.018 194.547 443.16 199.076C441.792 203.34 440.336 208.38 438.976 213.168H438.989ZM304.01 193.789C304.434 193.311 304.699 192.713 304.765 192.078C304.831 191.443 304.696 190.803 304.379 190.249C307.915 191.157 311.38 192.319 314.75 193.724C310.202 193.77 305.675 194.324 301.251 195.376C301.267 195.303 301.277 195.228 301.277 195.152V195.052C302.32 195.008 303.3 194.554 304.01 193.789ZM273.854 207.608C277.814 194.784 286.036 188.009 299.496 189.397C300.294 190.087 301.136 190.723 302.019 191.301C302.579 191.725 301.871 192.388 301.251 192.376C299.907 192.236 299.861 191.777 298.265 191.213C298.004 191.135 297.723 191.141 297.466 191.23C297.21 191.319 296.988 191.487 296.831 191.709C296.718 191.917 296.661 192.152 296.668 192.39C296.675 192.628 296.744 192.859 296.87 193.06C297.481 193.845 298.322 194.421 299.273 194.712C299.305 195.16 299.145 195.416 299.453 195.824C290.345 198.361 281.704 202.339 273.854 207.608ZM290.361 311.668C280.249 312.592 282.843 312.156 280.363 312.424C279.551 312.58 278.717 312.58 277.905 312.424C277.32 311.398 276.913 310.279 276.703 309.116C274.848 303.094 273.376 296.958 272.301 290.748C270.12 278.642 270.036 266.252 272.048 254.116C272.82 248.3 275.453 242.89 279.552 238.692C284.392 234.292 291.426 232.936 297.634 231.252C306.742 256.768 333.128 278.076 357.636 290.112C336.801 301.543 313.959 308.862 290.361 311.668ZM435.299 328.308C427.492 328.206 419.717 327.293 412.099 325.584C391.872 320.219 373.859 308.599 360.631 292.384C360.513 292.07 360.412 291.75 360.331 291.424C361.751 292.388 363.417 292.929 365.132 292.984C366.204 293.003 367.263 292.762 368.221 292.28C369.927 293.894 371.946 295.143 374.151 295.948C378.451 298.064 383.413 298.394 387.955 296.864C388.572 296.677 389.176 296.441 389.757 296.16C395.439 302.751 401.587 308.925 408.156 314.632C408.206 314.851 408.308 315.054 408.456 315.222C408.604 315.39 408.794 315.518 409.005 315.595C409.216 315.672 409.444 315.694 409.666 315.661C409.888 315.628 410.096 315.54 410.275 315.404C423.699 305.248 432.523 289.844 440.315 276.244C444.059 269.504 452.19 254.724 455.886 246.6C458.64 240.574 460.846 234.311 462.473 227.888C462.679 227.651 462.783 227.342 462.764 227.028C462.249 224.338 461.348 221.735 460.091 219.3C456.875 211.372 451.998 204.224 445.79 198.336C445.994 197.428 444.854 196.716 444.31 196.58C442.304 195.932 440.279 195.336 438.234 194.792C440.178 188.281 441.538 181.61 442.293 174.857C443.691 174.644 445.023 174.134 446.206 173.361C446.757 174.539 447.442 175.652 448.244 176.677C447.578 177.21 446.925 177.763 446.288 178.337C445.204 179.351 444.493 180.703 444.275 182.171C444.058 183.64 444.344 185.139 445.086 186.425C446.261 187.714 447.82 188.592 449.532 188.929C450.569 189.358 451.699 189.512 452.814 189.376C453.929 189.24 454.991 188.819 455.895 188.152C455.941 188.116 455.976 188.067 455.994 188.011C456.011 187.955 456.008 187.895 455.989 187.839C455.971 187.784 455.938 187.735 455.891 187.7C455.843 187.665 455.786 187.646 455.727 187.645C454.6 187.656 453.49 187.378 452.501 186.837C451.512 186.295 450.678 185.509 450.081 184.553C449.844 183.712 449.828 182.825 450.038 181.978C450.248 181.13 450.676 180.352 451.278 179.721C456.677 183.267 462.939 185.277 469.394 185.537C472.114 185.607 474.828 185.866 477.512 186.313C477.512 186.313 479.037 188.925 479.185 189.113C478.345 189.689 477.541 190.32 476.782 191.001C476.264 191.657 475.918 192.432 475.774 193.256C475.63 194.079 475.694 194.926 475.959 195.719C476.223 196.513 476.679 197.228 477.289 197.801C477.898 198.373 478.639 198.786 479.447 199C485.107 237.8 478.483 279.444 459.731 323.028C452.569 327.865 443.819 329.756 435.299 328.308ZM669.7 145.041C634.6 180.933 587.167 202.54 542.539 224.164C530.483 230.349 517.771 235.16 504.642 238.508C505.14 229.319 504.816 220.104 503.668 210.972C503.669 210.703 503.589 210.44 503.445 210.213C503.301 209.985 503.097 209.804 502.853 209.689C502.61 209.575 502.339 209.532 502.072 209.566C501.805 209.599 501.554 209.709 501.347 209.88C501.107 210.042 500.916 210.267 500.798 210.531C500.68 210.795 500.638 211.086 500.678 211.372C505.654 247.66 493.688 286.716 481.936 324.424C478.534 335.74 473.082 346.334 465.854 355.68C458.899 364.518 448.901 370.445 437.809 372.3C469.725 317.9 493.556 255.972 481.052 194.648C481.014 194.473 480.932 194.31 480.811 194.177C480.69 194.044 480.537 193.946 480.365 193.892C480.192 193.799 479.995 193.756 479.799 193.768C479.603 193.78 479.414 193.847 479.254 193.96C479.093 194.074 478.966 194.23 478.889 194.411C478.812 194.592 478.79 194.79 478.82 194.984C477.712 192.796 479.987 192.149 481.283 190.889C482.726 191.564 484.309 191.88 485.9 191.81C487.492 191.741 489.044 191.287 490.423 190.489C490.476 190.457 490.52 190.409 490.543 190.352C490.566 190.295 490.567 190.231 490.551 190.172C490.536 190.112 490.501 190.059 490.453 190.021C490.404 189.983 490.343 189.962 490.281 189.961C489.456 189.899 488.677 189.569 488.059 189.019C487.44 188.47 487.015 187.733 486.857 186.921C594.121 163.681 664.362 133.212 666.778 133.464C669.237 135.867 671.066 138.839 672.103 142.117C671.987 143.089 670.507 144.193 669.691 145.041H669.7ZM683.237 132.032C681.752 135.533 678.96 138.315 675.454 139.788C675.126 139.944 674.8 140.101 674.476 140.265C673.154 137.131 671.445 134.175 669.391 131.464C669.725 129.535 670.207 127.635 670.837 125.78C671.263 124.856 671.95 124.076 672.811 123.533C673.671 122.99 674.668 122.708 675.686 122.722C676.703 122.735 677.693 123.043 678.539 123.609C679.385 124.175 680.052 124.973 680.453 125.908C680.624 126.201 680.741 126.522 680.8 126.856C680.318 127.135 679.769 127.275 679.213 127.26C678.656 127.246 678.114 127.079 677.647 126.776C677.402 126.65 677.128 126.594 676.853 126.615C676.578 126.637 676.315 126.735 676.093 126.899C675.871 127.062 675.697 127.285 675.596 127.541C675.494 127.797 675.465 128.077 675.514 128.348C675.699 129.244 675.679 130.17 675.458 131.058C675.237 131.945 674.822 132.772 674.24 133.476C674.048 133.786 673.978 134.155 674.042 134.514C674.107 134.872 674.299 135.194 674.587 135.417C674.875 135.64 675.237 135.748 675.6 135.72C675.963 135.693 676.305 135.532 676.557 135.268C677.793 133.822 678.505 132.002 678.582 130.1C679.328 130.185 680.086 130.117 680.805 129.901C681.523 129.684 682.186 129.323 682.761 128.84C683.177 128.603 683.49 128.215 683.628 127.756C683.992 127.72 684.354 127.692 684.722 127.668C684.412 129.178 683.918 130.644 683.25 132.032H683.237Z" fill="black"/>
<path d="M468.567 146.38C469.199 148.892 471.011 151.368 473.007 149.528C474.507 148.148 473.215 143.976 471.871 142.928C470.527 141.88 467.403 141.748 468.567 146.38Z" fill="black"/>
<path d="M486.394 140.988C487.162 143.788 489.442 143.968 490.394 142.712C491.554 141.152 490.33 138 489.322 136.872C487.902 135.308 485.158 136.472 486.394 140.988Z" fill="black"/>
<path d="M484.41 145.309C487.182 149.349 488.01 151.289 489.138 153.073C487.926 153.335 486.737 153.695 485.582 154.149C485.296 154.253 485.053 154.452 484.895 154.713C484.736 154.974 484.672 155.281 484.713 155.583C484.754 155.886 484.897 156.165 485.118 156.375C485.34 156.585 485.626 156.713 485.93 156.737C487.947 156.512 489.898 155.883 491.666 154.889C492.994 153.429 490.942 150.749 490.262 149.617C488.271 146.115 485.873 142.86 483.118 139.921C482.936 139.775 482.707 139.697 482.473 139.702C482.239 139.707 482.014 139.794 481.838 139.948C481.661 140.102 481.544 140.312 481.507 140.544C481.47 140.775 481.515 141.012 481.634 141.213C482.478 142.632 483.405 143.999 484.41 145.309Z" fill="black"/>
<path d="M464.692 143.228C464.739 143.455 464.864 143.659 465.044 143.805C465.224 143.951 465.449 144.03 465.68 144.029H466.08C466.246 144.029 466.409 143.988 466.556 143.909C466.702 143.831 466.826 143.717 466.917 143.579C467.008 143.44 467.064 143.281 467.078 143.116C467.093 142.951 467.066 142.785 467 142.633C466.999 141.56 467.364 140.519 468.035 139.682C468.705 138.845 469.641 138.262 470.688 138.029C472.716 138.029 473.32 136.793 472.74 135.865C472.684 135.723 472.596 135.596 472.484 135.493C471.39 135.189 470.231 135.211 469.149 135.557C468.067 135.902 467.109 136.555 466.392 137.437C465.677 138.203 465.151 139.126 464.856 140.131C464.561 141.137 464.505 142.197 464.692 143.228Z" fill="black"/>
<path d="M471.419 155.864C471.866 161.2 474.262 166.184 478.151 169.864C480.519 171.676 483.167 170.584 485.547 168.764C487.844 167.058 489.798 164.935 491.307 162.504C491.437 162.234 491.47 161.927 491.401 161.635C491.331 161.344 491.163 161.085 490.925 160.903C490.687 160.72 490.393 160.626 490.093 160.635C489.793 160.644 489.506 160.756 489.279 160.952C487.194 163.708 484.607 166.047 481.655 167.844C481.183 167.973 480.683 167.955 480.222 167.792C479.761 167.629 479.361 167.329 479.075 166.932C476.866 164.412 475.304 161.391 474.523 158.132C476.853 159.165 479.339 159.805 481.879 160.024C485.261 160.801 488.81 160.303 491.847 158.624C493.019 157.976 491.879 155.824 490.771 156.656C488.039 157.808 485.01 158.055 482.127 157.36C479.047 157.004 476.082 155.98 473.439 154.36C473.205 154.254 472.947 154.213 472.691 154.241C472.436 154.268 472.192 154.364 471.986 154.517C471.78 154.671 471.619 154.877 471.519 155.113C471.419 155.35 471.385 155.609 471.419 155.864Z" fill="black"/>
<path d="M209.249 255.948C222.693 259.996 239.249 258.424 250.253 248.504C256.031 243.161 260.896 236.907 264.653 229.992C265.349 229.06 264.821 227.48 263.033 227.788C253.892 229.312 244.574 229.457 235.389 228.22C235.156 228.215 234.925 228.268 234.716 228.373C234.508 228.479 234.329 228.635 234.196 228.827C234.063 229.018 233.979 229.24 233.952 229.472C233.925 229.704 233.955 229.939 234.041 230.156C229.549 236.541 223.049 241.237 215.576 243.496C208.104 245.755 200.09 245.447 192.813 242.62C192.534 242.565 192.245 242.596 191.983 242.707C191.72 242.818 191.497 243.004 191.342 243.243C191.187 243.482 191.107 243.761 191.112 244.046C191.116 244.33 191.206 244.607 191.369 244.84C195.896 250.465 202.201 254.382 209.249 255.948ZM260.449 230.952C256.468 237.603 251.319 243.48 245.249 248.3C245.328 248.124 245.367 247.933 245.362 247.741C245.358 247.548 245.311 247.359 245.224 247.187C245.138 247.015 245.014 246.865 244.862 246.746C244.71 246.628 244.533 246.545 244.345 246.504C243.922 246.258 243.467 246.071 242.993 245.948C243.035 245.239 242.915 244.53 242.642 243.874C242.369 243.219 241.95 242.634 241.417 242.164C240.304 241.36 238.933 240.992 237.566 241.133C236.2 241.273 234.932 241.91 234.005 242.924C232.197 244.424 230.573 246.852 228.493 246.092C227.433 245.732 227.549 245.292 227.617 245.028C227.825 244.509 228.138 244.038 228.536 243.644C228.933 243.25 229.408 242.943 229.929 242.74C230.001 242.857 230.095 242.958 230.208 243.036C230.32 243.114 230.447 243.169 230.581 243.196C231.009 243.296 231.253 243.1 231.661 242.796C232.741 242.028 231.565 240.352 230.093 240.244C228.816 240.347 227.617 240.903 226.713 241.812C226.433 241.851 226.149 241.851 225.869 241.812H225.425C229.685 239.059 233.326 235.451 236.117 231.216C244.196 232.205 252.37 232.117 260.425 230.956L260.449 230.952ZM223.985 243.78C224.114 243.949 224.286 244.078 224.484 244.155C224.682 244.231 224.897 244.251 225.105 244.212C224.882 245.131 225.029 246.101 225.514 246.912C226 247.723 226.786 248.311 227.701 248.548C230.901 249.66 233.633 246.872 234.565 245.908C235.395 244.922 236.47 244.171 237.681 243.732C238.155 243.57 238.671 243.587 239.133 243.78C239.595 243.972 239.97 244.326 240.189 244.776C240.388 245.246 240.4 245.774 240.222 246.252C240.044 246.73 239.69 247.122 239.233 247.348C238.016 247.749 236.743 247.953 235.461 247.952C235.103 247.917 234.745 248.022 234.464 248.246C234.183 248.47 233.999 248.795 233.953 249.152C233.93 249.446 234.016 249.738 234.195 249.973C234.373 250.207 234.632 250.368 234.921 250.424C236.192 250.794 237.541 250.799 238.814 250.438C240.087 250.077 241.233 249.365 242.121 248.384C243.205 248.704 243.321 249.132 244.025 249.14C240.315 251.668 236.139 253.436 231.741 254.34C225.019 255.632 218.094 255.41 211.469 253.688C206.235 252.738 201.355 250.388 197.349 246.888C206.348 248.874 215.763 247.426 223.749 242.828C223.698 243.162 223.773 243.503 223.961 243.784L223.985 243.78Z" fill="black"/>
<path d="M79.7764 239.448C79.8033 239.718 79.9061 239.974 80.0729 240.188C80.2397 240.401 80.4637 240.563 80.7187 240.654C80.9738 240.745 81.2496 240.763 81.514 240.703C81.7784 240.644 82.0206 240.511 82.2124 240.32C90.1039 231.501 99.8283 224.514 110.704 219.848C115.934 217.668 121.592 216.711 127.248 217.048C132.903 217.386 138.407 219.01 143.34 221.796C143.603 221.93 143.9 221.985 144.193 221.952C144.486 221.919 144.764 221.8 144.99 221.611C145.217 221.421 145.382 221.17 145.467 220.887C145.551 220.604 145.55 220.302 145.464 220.02C142.991 213.168 139.729 206.627 135.744 200.528C135.619 200.373 135.464 200.244 135.289 200.149C135.113 200.054 134.92 199.996 134.721 199.977C134.523 199.958 134.322 199.979 134.132 200.038C133.941 200.098 133.765 200.195 133.612 200.324C121.116 196.413 107.594 197.469 95.8564 203.272C89.9083 205.758 85.1476 210.441 82.5644 216.348C79.9511 223.75 78.9993 231.637 79.7764 239.448ZM133.728 202.748C136.64 207.478 139.181 212.426 141.328 217.548C132.665 213.668 122.901 213.004 113.792 215.676C113.943 215.497 114.025 215.27 114.024 215.036C114.024 214.028 113.804 214.236 113.332 213.12C114.035 212.908 114.687 212.555 115.249 212.082C115.811 211.61 116.271 211.028 116.6 210.372C117.772 207.484 114.476 204.772 110.98 204.348C110.186 204.314 109.395 204.226 108.612 204.084C108.416 204.02 108.252 203.883 108.154 203.701C108.057 203.52 108.033 203.307 108.088 203.108C108.667 202.256 109.524 201.631 110.512 201.34C110.607 201.309 110.696 201.263 110.776 201.204C118.445 199.967 126.295 200.495 133.728 202.748ZM105.852 202.276C105.096 204.34 106.128 206.276 108.976 206.712C110.562 206.613 112.131 207.081 113.404 208.032C113.696 208.288 114.36 208.932 114.204 209.296C113.256 211.14 109.964 210.928 108.108 209.452C107.948 209.352 107.769 209.287 107.581 209.263C107.394 209.238 107.204 209.254 107.024 209.31C106.843 209.366 106.677 209.46 106.536 209.586C106.396 209.712 106.284 209.867 106.208 210.04C106.151 210.242 106.139 210.455 106.173 210.663C106.208 210.87 106.288 211.067 106.408 211.24C106.979 211.884 107.675 212.405 108.453 212.771C109.232 213.136 110.077 213.34 110.936 213.368C111.057 213.944 111.276 214.495 111.584 214.996C111.696 215.232 111.855 215.443 112.051 215.616C112.247 215.788 112.476 215.919 112.724 216C101.163 220.245 90.7255 227.079 82.2124 235.98C82.0305 230.197 82.7511 224.421 84.3484 218.86C85.5042 215.798 87.2774 213.007 89.5579 210.66C91.8383 208.313 94.5773 206.46 97.6044 205.216C100.278 204.036 103.035 203.053 105.852 202.276Z" fill="black"/>
<path d="M742.881 210.256C742.981 209.956 743.009 209.636 742.961 209.323C742.913 209.01 742.792 208.712 742.607 208.455C742.421 208.198 742.178 207.989 741.896 207.844C741.614 207.7 741.302 207.624 740.985 207.624C740.54 207.586 740.094 207.699 739.72 207.944C739.346 208.189 739.065 208.553 738.921 208.976C663.033 430.72 527.433 626.348 320.589 740.348C320.113 740.672 319.776 741.162 319.644 741.721C319.511 742.281 319.594 742.871 319.874 743.373C320.155 743.875 320.614 744.254 321.16 744.434C321.706 744.615 322.301 744.584 322.825 744.348C525.993 634.812 668.729 432.716 742.881 210.256Z" fill="black"/>
<path d="M751.99 194.572C736.24 366.404 669.704 529.661 560.854 663.548C552.182 674.176 552.274 673.72 552.274 674.724C552.253 675.178 552.373 675.626 552.618 676.008C552.863 676.39 553.22 676.686 553.641 676.856C554.061 677.027 554.524 677.062 554.965 676.958C555.407 676.855 555.805 676.616 556.106 676.276C645.269 570.183 707.737 444.285 738.286 309.109C746.781 271.502 752.706 233.36 756.018 194.949C756.254 192.301 752.218 192.188 751.99 194.572Z" fill="black"/>
<defs>
<linearGradient id="paint0_linear_197_4313" x1="20" y1="777.577" x2="673.781" y2="1041.1" gradientUnits="userSpaceOnUse">
<stop stop-color="#35C0A7"/>
<stop offset="1" stop-color="#5BD9BB"/>
</linearGradient>
<linearGradient id="paint1_linear_197_4313" x1="467.861" y1="150.219" x2="472.853" y2="151.587" gradientUnits="userSpaceOnUse">
<stop stop-color="#35C0A7"/>
<stop offset="1" stop-color="#5BD9BB"/>
</linearGradient>
<linearGradient id="paint2_linear_197_4313" x1="485.629" y1="143.509" x2="490.099" y2="144.691" gradientUnits="userSpaceOnUse">
<stop stop-color="#35C0A7"/>
<stop offset="1" stop-color="#5BD9BB"/>
</linearGradient>
<linearGradient id="paint3_linear_197_4313" x1="481.043" y1="156.789" x2="491.032" y2="159.281" gradientUnits="userSpaceOnUse">
<stop stop-color="#35C0A7"/>
<stop offset="1" stop-color="#5BD9BB"/>
</linearGradient>
<linearGradient id="paint4_linear_197_4313" x1="464.131" y1="144.081" x2="471.427" y2="146.875" gradientUnits="userSpaceOnUse">
<stop stop-color="#35C0A7"/>
<stop offset="1" stop-color="#5BD9BB"/>
</linearGradient>
<linearGradient id="paint5_linear_197_4313" x1="470.955" y1="170.846" x2="487.619" y2="179.282" gradientUnits="userSpaceOnUse">
<stop stop-color="#35C0A7"/>
<stop offset="1" stop-color="#5BD9BB"/>
</linearGradient>
<linearGradient id="paint6_linear_197_4313" x1="190.662" y1="258.074" x2="228.445" y2="294.983" gradientUnits="userSpaceOnUse">
<stop stop-color="#35C0A7"/>
<stop offset="1" stop-color="#5BD9BB"/>
</linearGradient>
<linearGradient id="paint7_linear_197_4313" x1="79.0605" y1="240.79" x2="126.803" y2="270.327" gradientUnits="userSpaceOnUse">
<stop stop-color="#35C0A7"/>
<stop offset="1" stop-color="#5BD9BB"/>
</linearGradient>
<linearGradient id="paint8_linear_197_4313" x1="319.129" y1="744.603" x2="704.129" y2="866.194" gradientUnits="userSpaceOnUse">
<stop stop-color="#35C0A7"/>
<stop offset="1" stop-color="#5BD9BB"/>
</linearGradient>
<linearGradient id="paint9_linear_197_4313" x1="551.816" y1="677.069" x2="749.944" y2="710.464" gradientUnits="userSpaceOnUse">
<stop stop-color="#35C0A7"/>
<stop offset="1" stop-color="#5BD9BB"/>
</linearGradient>
</defs>
</svg>
