<svg width="729" height="729" viewBox="0 0 729 729" fill="none" xmlns="http://www.w3.org/2000/svg">
<path d="M709.735 49.0921C709.458 42.206 708.944 35.3235 708.471 28.441C708.471 20.4041 701.814 18.7144 698.224 21.9918C672.03 46.6377 627.483 85.2925 603.271 106.475C602.371 107.27 601.733 108.318 601.44 109.482C601.147 110.646 601.213 111.871 601.629 112.997C602.046 114.122 602.793 115.096 603.773 115.788C604.753 116.481 605.92 116.862 607.12 116.879C606.956 117.487 606.803 118.103 606.668 118.729C564.773 134.483 522.067 147.994 478.734 159.205C469.754 161.55 445.716 167.365 442.705 168.097C443.559 165.68 445.245 163.645 447.461 162.355C458.108 154.915 460.658 156.164 465.697 150.964C466.832 149.767 467.513 148.212 467.623 146.566C467.733 144.92 467.264 143.288 466.298 141.951C464.175 139.595 460.02 139.209 459.23 136.398C457.617 130.6 467.678 121.832 467.154 114.017C466.557 105.124 455.137 93.0709 437.778 90.5546C427.892 88.9835 417.8 89.2526 408.012 91.3484C400.662 92.868 393.939 96.5597 388.712 101.945C384.601 106.217 378.428 111.202 376.352 116.876C375.114 120.153 374.699 123.936 371.983 125.805C370.898 126.388 369.703 126.74 368.475 126.838C367.247 126.935 366.012 126.777 364.849 126.373C352.395 123.23 344.868 110.423 332.964 104.866C327.666 102.471 321.805 101.604 316.04 102.363C310.276 103.122 304.839 105.477 300.343 109.163C298.287 111.456 295.719 113.231 292.849 114.345C291.082 114.656 289.268 114.575 287.535 114.108C274.033 110.641 264.903 101.84 251.903 100.023C245.857 99.2011 239.703 99.8581 233.967 101.937C228.231 104.016 223.084 107.455 218.969 111.959C216.95 113.941 215.412 116.36 214.474 119.029C213.536 121.698 213.222 124.547 213.558 127.356C215.379 134.974 223.598 138.765 227.053 140.043C232.88 142.199 239.354 143.746 244.081 147.92C244.842 148.486 245.415 149.267 245.727 150.163C246.393 152.253 244.092 154.168 241.998 154.656C239.635 154.844 237.285 155.176 234.963 155.651C234.908 155.661 234.858 155.69 234.82 155.732C234.783 155.774 234.761 155.828 234.757 155.884C234.754 155.94 234.769 155.996 234.8 156.042C234.831 156.089 234.877 156.124 234.93 156.142C240.386 158.104 246.202 158.866 251.98 158.374C254.865 158.035 257.574 156.814 259.739 154.877C261.904 152.94 263.417 150.382 264.073 147.552C264.272 145.869 264.351 144.173 264.31 142.479C264.973 136.653 268.851 137.909 273.636 141.314C278.94 145.151 285.069 147.694 291.532 148.74C297.994 149.785 304.612 149.305 310.856 147.337C315.761 145.767 318.671 140.702 323.834 140.702C325.098 140.704 326.336 141.061 327.407 141.732C328.478 142.404 329.338 143.363 329.89 144.5C330.291 146.116 330.778 147.71 331.347 149.274C318.487 150.334 305.872 153.399 293.959 158.356C287.42 161.107 281.605 165.332 276.968 170.701C272.298 169.597 267.435 169.597 262.766 170.701C251.113 173.676 247.406 184.073 245.621 191.84C245.607 192.068 245.657 192.296 245.765 192.497C245.873 192.698 246.036 192.865 246.234 192.979C246.432 193.093 246.658 193.149 246.887 193.14C247.115 193.132 247.336 193.06 247.526 192.933C254.508 187.925 262.229 184.037 270.409 181.411C267.168 189.891 266.898 199.22 269.645 207.874C262.464 209.76 254.649 211.45 250.217 217.498C246.458 222.882 244.291 229.217 243.965 235.775C242.746 252.903 244.993 270.101 250.57 286.341C250.616 286.483 250.682 286.617 250.767 286.738C246.247 289.193 241.871 291.902 237.657 294.852C234.805 296.362 231.918 297.818 228.998 299.222C229.009 299.139 229.009 299.056 228.998 298.974C228.914 297.86 228.482 296.8 227.763 295.944C227.044 295.088 226.075 294.479 224.992 294.203C221.713 293.362 218.345 292.916 214.96 292.874C193.923 290.821 194.44 290.689 191.239 290.689C189.905 290.534 188.553 290.727 187.316 291.249C186.079 291.771 184.998 292.604 184.178 293.668C183.914 294.123 183.753 294.63 183.707 295.154C183.66 295.677 183.729 296.205 183.909 296.699C184.088 297.193 184.374 297.642 184.746 298.013C185.118 298.385 185.566 298.671 186.061 298.85C195.853 305.066 198.598 303.278 205.907 308.453C152.89 325.823 105.364 317.385 101.249 318.219C100.496 318.566 99.7996 319.025 99.1846 319.581C96.0753 317.053 92.7963 314.742 89.3707 312.662C88.1728 311.951 86.7855 311.624 85.3959 311.725C84.0063 311.827 82.6813 312.352 81.5997 313.23C78.9122 315.211 76.8657 317.68 74.4003 319.705C64.3097 327.993 51.903 331.631 51.5971 337.975C51.4259 341.514 54.3282 341.722 55.6028 341.813C66.8078 342.381 74.8082 337.913 90.6015 337.596C91.6066 337.574 91.7595 337.618 92.0581 337.479C92.4769 345.647 100.248 349.34 107.983 351.783C165.111 369.933 234.992 369.39 306.708 343C309.579 341.634 312.525 340.432 315.532 339.399C303.879 355.155 303.063 355.873 301.249 359.853C293.668 356.998 291.559 355.764 288.45 354.547C279.657 358.006 270.589 360.72 261.342 362.661C253.148 364.395 244.85 365.592 236.499 366.244C239.598 369.467 237.825 368.309 267.303 396.571C274.485 404.394 282.905 410.983 292.226 416.075C298.726 419.43 305.887 421.308 313.197 421.573C320.047 421.171 326.649 418.87 332.264 414.927C343.445 407.253 353.497 398.05 362.125 387.587C379.739 366.317 381.898 365.923 394.855 341.609C397.768 343.43 423.874 339.734 438.102 304.006C441.746 294.267 444.893 284.348 447.53 274.288C453.014 256.634 456.795 238.495 458.819 220.12C479.269 215.131 490.9 208.354 523.711 192.492C545.045 182.29 565.507 170.354 584.888 156.805C595.502 149.115 605.331 140.396 614.232 130.775C614.387 130.537 614.464 130.258 614.454 129.974C617.28 128.84 619.745 126.961 621.587 124.537C623.429 122.113 624.58 119.235 624.916 116.209C626.303 116.209 627.687 116.308 629.06 116.504C610.339 159.219 568.079 215.073 539.216 254.11C453.276 370.206 327.953 516.271 201.348 584.503C198.223 586.163 170.566 602.186 168.669 600.329L184.214 616.151C151.747 637.923 114.982 652.468 76.4068 658.801C76.0791 658.827 75.7709 658.967 75.5365 659.198C75.4665 659.339 75.4301 659.495 75.4301 659.653C75.4301 659.811 75.4665 659.967 75.5365 660.108C76.629 665.661 80.2705 666.528 98.0849 681.957C76.7236 694.211 53.4579 702.004 18.2079 706.119V706.873C64.7357 711.778 108.689 698.049 130.094 685.784C122.498 679.179 112.447 675.024 104.811 668.378C129.697 662.246 188.173 646.496 222.592 623.671C217.451 618.449 204.869 610.496 199.684 605.274C201.464 607.251 235.054 588.734 238.615 586.877C315.721 546.125 382.288 494.885 448.579 430.324C469.783 409.713 490.82 389.455 510.612 367.657C537.261 338.291 597.535 266.601 651.339 192.033C663.217 176.383 674.055 159.969 683.781 142.898C684.648 141.165 685.835 141.394 686.553 143.135C688.173 147.089 689.597 150.651 690.944 154.423C691.397 155.644 692.235 156.684 693.333 157.385C694.43 158.085 695.726 158.409 697.024 158.306C698.322 158.203 699.551 157.679 700.524 156.814C701.497 155.949 702.161 154.79 702.415 153.513C708.647 119.076 711.102 84.0617 709.735 49.0921ZM92.0982 335.458C84.5 335.151 76.8982 335.969 69.5389 337.884C64.9876 338.767 60.3661 339.238 55.7302 339.293C53.9823 339.107 54.605 337.181 55.3114 336.31C59.6267 331.675 62.7802 332.068 77.4374 320.83C80.0556 318.554 83.475 313.686 86.8143 314.64C88.6998 315.435 90.4465 316.525 91.9889 317.87L97.5204 321.741C94.8042 325.9 92.9596 330.566 92.0982 335.458ZM207.899 307.812C206.812 306.018 205.116 304.675 203.121 304.028C197.772 302.16 192.628 299.75 187.768 296.836C187.273 296.501 186.705 295.991 186.807 295.453C186.942 294.724 188.093 293.89 189.258 293.632C191.516 293.289 191.61 293.468 220.44 296.316C223.31 296.596 226.125 297.044 226.307 299.065C226.305 299.296 226.366 299.524 226.482 299.724C226.599 299.924 226.767 300.089 226.97 300.201C220.757 303.084 214.392 305.625 207.903 307.812H207.899ZM421.111 124.035C424.995 122.218 428.784 120.205 432.465 118.004C433.855 117.325 435.403 117.032 436.945 117.156C438.488 117.28 439.969 117.815 441.234 118.707C440.783 118.884 440.383 119.169 440.069 119.537C439.755 119.906 439.537 120.346 439.435 120.819C439.428 121.07 439.509 121.316 439.662 121.515C439.816 121.714 440.033 121.854 440.278 121.911C440.522 121.968 440.779 121.939 441.005 121.829C441.231 121.72 441.412 121.535 441.518 121.307C441.615 121.111 441.776 120.952 441.974 120.858C442.172 120.764 442.396 120.738 442.61 120.787C443.242 120.977 443.818 121.321 444.285 121.788C444.628 122.136 445.064 122.376 445.542 122.48C445.726 122.489 445.911 122.453 446.078 122.373C446.245 122.294 446.39 122.174 446.499 122.025L447.086 122.159C450.319 128.228 452.339 134.869 453.032 141.711C453.24 144.605 452.827 147.509 451.822 150.231C450.818 152.952 449.244 155.428 447.206 157.493C442.14 161.918 437.847 161.393 435.473 165.505C433.579 168.298 436.875 166.805 429.985 166.856C423.812 166.931 417.731 165.349 412.378 162.274C413.634 161.56 414.967 160.989 416.351 160.574C418.34 159.946 420.058 158.662 421.223 156.932C421.947 155.173 422.005 153.209 421.386 151.41C420.768 149.61 419.515 148.098 417.862 147.155C416.731 146.536 415.729 145.706 414.909 144.711C411.34 139.063 418.43 130.24 413.547 123.955C414.733 124.496 416.019 124.783 417.322 124.796C418.625 124.81 419.917 124.551 421.114 124.035H421.111ZM399.96 139.959C402.12 139.209 406.599 142.279 407.728 143.99C409.286 146.336 414.17 152.471 414.177 154.835C414.058 155.453 413.81 156.039 413.449 156.554C413.088 157.07 412.623 157.504 412.083 157.828C411.165 158.374 410.272 158.958 409.403 159.58C408.615 158.67 407.904 157.696 407.28 156.667C408.362 155.56 409.14 154.193 409.538 152.697C409.548 152.659 409.549 152.619 409.541 152.58C409.533 152.541 409.516 152.505 409.492 152.473C409.468 152.442 409.437 152.417 409.401 152.399C409.365 152.382 409.326 152.373 409.286 152.373C400.263 152.37 396.519 141.146 399.964 139.959H399.96ZM334.981 151.663C339.307 152.756 339.755 149.453 372.875 152.1C382.117 154.449 392.197 159.321 399.92 159.365C399.265 161.695 398.435 167.467 395.773 176.699C384.908 174.033 373.673 173.215 362.536 174.277C362.377 174.108 362.171 173.991 361.944 173.942C361.717 173.892 361.48 173.912 361.265 174C361.05 174.087 360.867 174.238 360.739 174.432C360.611 174.625 360.544 174.853 360.548 175.085C360.598 176.927 360.767 178.764 361.054 180.584C356.702 177.895 352.783 174.562 349.431 170.697C349.197 170.525 348.913 170.436 348.622 170.445C348.332 170.454 348.054 170.561 347.832 170.748C342.725 175.398 336.664 178.877 330.073 180.942C323.482 183.007 316.52 183.608 309.672 182.703C309.454 182.704 309.24 182.761 309.052 182.87C308.863 182.978 308.705 183.134 308.595 183.322C308.484 183.51 308.425 183.723 308.422 183.941C308.42 184.159 308.474 184.374 308.58 184.564C312.578 190.169 317.705 194.875 323.63 198.38C324.162 199.932 324.638 201.499 325.058 203.081C325.058 203.081 322.057 203.256 320.801 203.311C320.583 203.344 320.379 203.438 320.211 203.58C320.043 203.723 319.918 203.91 319.85 204.12C319.783 204.33 319.775 204.554 319.828 204.768C319.88 204.982 319.992 205.178 320.149 205.332C333.648 223.463 336.631 238.026 341.27 251.055C341.601 251.989 341.711 252.988 341.59 253.972C341.468 254.957 341.119 255.899 340.571 256.725C338.92 259.952 336.197 262.504 332.869 263.942C331.387 264.252 329.151 262.85 328.033 262.227C317.092 257.088 306.85 250.574 297.557 242.843C288.716 235.612 281.395 226.701 276.017 216.624C272.983 211.156 271.194 205.084 270.78 198.844C270.365 192.603 271.334 186.348 273.618 180.526C276.68 179.77 279.801 179.278 282.947 179.055C288.1 180.017 293.024 181.943 297.462 184.732C297.706 184.875 297.993 184.924 298.27 184.87C298.547 184.817 298.794 184.663 298.967 184.44C299.139 184.216 299.223 183.938 299.204 183.656C299.186 183.375 299.065 183.11 298.864 182.911C294.494 176.881 287.991 173.669 279.357 171.287C292.819 157.599 315.852 153.262 334.981 151.663ZM407.568 196.709L417.036 211.035C415.87 214.14 414.642 217.224 413.35 220.288C410.182 212.669 405.693 205.67 400.092 199.611C401.789 194.149 403.478 188.588 404.847 183.017C409.446 188.038 413.192 193.778 415.94 200.008C417.76 203.977 417.396 204.229 418.543 206.898L418.128 208.063L409.694 195.318C409.602 195.178 409.483 195.058 409.344 194.964C409.206 194.871 409.05 194.805 408.886 194.772C408.722 194.738 408.553 194.737 408.389 194.769C408.224 194.801 408.068 194.865 407.928 194.957C407.789 195.05 407.668 195.168 407.575 195.307C407.481 195.446 407.416 195.602 407.382 195.766C407.349 195.93 407.348 196.099 407.38 196.263C407.411 196.427 407.475 196.584 407.568 196.723V196.709ZM393.93 232.101L401.089 245.298C396.441 253.868 391.292 262.158 385.667 270.122L378.534 254.463C380.214 251.29 381.816 248.077 383.341 244.824L388.144 253.433C388.308 253.728 388.584 253.946 388.909 254.039C389.235 254.132 389.583 254.091 389.879 253.926C390.174 253.762 390.392 253.486 390.485 253.161C390.577 252.836 390.537 252.487 390.372 252.191C385.704 243.837 384.994 242.388 384.644 241.995C387.922 234.712 391.454 225.561 393.916 218.602L400.725 231.919C400.8 232.07 400.904 232.205 401.032 232.316C401.159 232.427 401.307 232.512 401.468 232.565C401.628 232.618 401.798 232.639 401.966 232.626C402.134 232.613 402.299 232.566 402.449 232.489C402.6 232.412 402.733 232.306 402.842 232.177C402.951 232.048 403.033 231.898 403.084 231.737C403.135 231.576 403.153 231.406 403.137 231.238C403.122 231.07 403.073 230.906 402.994 230.757L395.074 215.27C395.583 213.774 396.086 212.268 396.581 210.751L402.579 221.311C402.661 221.457 402.772 221.584 402.904 221.687C403.036 221.79 403.188 221.866 403.349 221.911C403.51 221.955 403.679 221.967 403.845 221.947C404.011 221.926 404.172 221.873 404.318 221.79C404.463 221.707 404.591 221.597 404.694 221.464C404.797 221.332 404.873 221.181 404.917 221.02C404.962 220.858 404.974 220.689 404.953 220.523C404.932 220.357 404.879 220.197 404.796 220.051L397.655 207.448C397.819 206.927 399.221 202.437 399.221 202.437C404.682 208.643 409.006 215.763 411.996 223.47C409.134 229.996 405.992 236.392 402.571 242.658L396.17 230.874C396.092 230.723 395.985 230.589 395.855 230.48C395.724 230.372 395.574 230.29 395.412 230.24C395.25 230.19 395.079 230.173 394.91 230.19C394.742 230.207 394.578 230.257 394.429 230.338C394.28 230.419 394.148 230.529 394.042 230.661C393.936 230.794 393.858 230.946 393.811 231.109C393.765 231.272 393.751 231.443 393.772 231.612C393.792 231.78 393.846 231.943 393.93 232.09V232.101ZM356.648 260.37C356.821 260.178 356.984 259.974 357.14 259.758C357.46 259.096 357.564 258.35 357.437 257.626C357.309 256.902 356.957 256.236 356.43 255.723C355.804 255.291 355.079 255.026 354.322 254.954C353.565 254.882 352.803 255.005 352.107 255.312C350.971 255.588 349.809 255.738 348.64 255.76C349.101 255.381 349.483 254.916 349.763 254.389C350.044 253.863 350.218 253.287 350.275 252.694C350.155 252.003 349.799 251.376 349.267 250.919C348.736 250.462 348.063 250.204 347.362 250.188C348.595 246.338 349.761 242.465 350.858 238.568C356.131 241.846 356.685 242.283 361.022 245.374C362.237 246.505 363.63 247.429 365.144 248.109C361.451 257.777 361.422 257.897 358.498 264.241C358.374 264.536 357.624 266.688 357.355 267.303C356.921 267.047 356.514 266.75 356.138 266.415C356.076 266.146 355.976 265.887 355.84 265.647C358.851 263.837 358.327 261.051 356.648 260.37ZM353.196 267.289L353.152 267.333C351.021 268.269 348.695 268.675 346.373 268.518C344.051 268.36 341.802 267.642 339.817 266.426C338.817 265.997 337.888 265.42 337.06 264.714C338.328 263.79 339.454 262.686 340.403 261.437C342.093 259.621 343.293 257.406 343.892 254.999C344.772 253.815 346.034 252.972 347.464 252.61C347.271 252.974 347.828 252.93 346.536 254.012C345.692 254.623 345.099 255.52 344.868 256.535C344.825 256.715 344.823 256.903 344.861 257.083C344.899 257.264 344.976 257.435 345.088 257.583C345.199 257.73 345.341 257.852 345.505 257.938C345.668 258.025 345.848 258.074 346.033 258.083C348.43 258.307 350.847 258.094 353.167 257.453C353.848 257.428 355.137 257.089 354.532 258.313C354.1 259.078 353.441 259.69 352.646 260.064C352.455 260.08 352.27 260.143 352.109 260.248C351.948 260.353 351.816 260.496 351.725 260.665C351.633 260.834 351.585 261.023 351.585 261.215C351.585 261.407 351.633 261.596 351.725 261.765C351.725 263.363 354.511 262.519 355.417 262.65C354.833 263.367 354.034 263.878 353.138 264.106C351.546 264.179 351.142 265.29 351.554 266.069C351.9 266.743 352.865 266.947 353.196 267.311V267.289ZM347.675 226.966C346.765 226.693 333.889 224.02 333.524 223.944C332.053 220.868 330.461 217.849 328.747 214.887C328.879 213.323 328.822 211.748 328.576 210.197C331.354 210.561 334.194 210.838 336.951 211.093C342.981 211.65 347.694 212.207 354.274 213.03C354.007 214.314 353.736 215.593 353.462 216.865C349.774 216.127 346.049 215.584 342.304 215.237C342.077 215.218 341.851 215.285 341.671 215.424C341.491 215.564 341.37 215.766 341.331 215.991C341.293 216.215 341.34 216.446 341.464 216.638C341.587 216.829 341.778 216.967 341.998 217.025C343.429 217.389 346.871 217.779 352.952 219.13C350.519 230.098 347.519 240.775 344.212 251.627C344.052 251.765 343.899 251.903 343.75 252.042C343.318 249.508 342.509 247.053 341.35 244.759C339.566 238.428 337.304 232.241 334.584 226.253C336.452 226.719 338.324 227.141 340.185 227.574C342.557 228.241 344.964 228.777 347.395 229.18C347.668 229.179 347.932 229.079 348.137 228.898C348.342 228.717 348.473 228.468 348.508 228.196C348.542 227.925 348.477 227.651 348.323 227.425C348.17 227.198 347.94 227.035 347.675 226.966ZM324.883 195.551C329.395 196.159 333.937 196.523 338.488 196.643C339.872 196.691 347.329 196.541 352.398 195.977C353.163 195.977 356.499 195.219 357.548 195.121C357.336 197.128 356.996 199.119 356.528 201.082C356.095 203.569 354.897 210.004 354.747 210.736C348.71 210.008 334.395 208.307 328.299 208.132C327.587 203.834 326.443 199.619 324.883 195.551ZM326.74 211.552C325.526 209.61 324.262 207.684 322.946 205.776L325.673 205.627C326.113 207.579 326.468 209.55 326.74 211.541V211.552ZM322.199 194.608C322.261 194.753 322.319 194.903 322.378 195.048C320.258 193.465 318.247 191.741 316.358 189.888C314.876 188.429 313.481 186.883 312.181 185.26C319.958 185.875 327.769 184.627 334.966 181.618C334.817 182.682 335.098 182.849 335.564 183.588C333.481 185.376 334.02 187.23 336.063 188.195C336.981 188.533 337.96 188.669 338.936 188.595C340.065 188.57 341.616 188.654 342.191 189.626C342.555 190.223 341.175 190.671 340.425 190.507C338.044 189.987 337.625 189.153 336.878 189.637C336.714 189.751 336.586 189.911 336.511 190.097C336.436 190.282 336.417 190.486 336.456 190.682C336.456 191.41 338.277 193.155 340.625 193.155C341.172 193.145 341.715 193.076 342.246 192.947C342.344 193.02 343.182 193.675 343.284 193.723C342.778 193.861 342.268 193.989 341.758 194.112C335.619 194.217 329.482 193.846 323.401 193.002C323.204 192.99 323.006 193.027 322.827 193.11C322.647 193.193 322.491 193.319 322.372 193.477C322.253 193.635 322.175 193.82 322.145 194.015C322.115 194.21 322.133 194.41 322.199 194.597V194.608ZM380.955 202.914C380.807 202.901 380.657 202.921 380.516 202.971C380.375 203.02 380.247 203.1 380.139 203.203C380.031 203.306 379.946 203.431 379.891 203.57C379.835 203.708 379.809 203.857 379.816 204.006C379.824 204.213 379.9 204.41 380.032 204.569C380.163 204.728 380.343 204.84 380.544 204.888C383.821 205.813 386.217 206.708 388.417 207.528C390.55 208.016 392.556 208.948 394.305 210.263C393.897 211.491 393.482 212.717 393.06 213.941L386.771 211.344C386.614 211.271 386.445 211.23 386.272 211.224C386.099 211.218 385.927 211.247 385.766 211.309C385.604 211.372 385.458 211.466 385.334 211.587C385.21 211.708 385.113 211.853 385.047 212.013C384.98 212.172 384.948 212.344 384.95 212.517C384.952 212.69 384.989 212.86 385.059 213.018C385.129 213.176 385.23 213.319 385.357 213.437C385.483 213.554 385.632 213.645 385.795 213.704L392.222 216.358C387.969 228.955 382.723 241.193 376.535 252.959L370.937 250.305C370.786 250.233 370.622 250.192 370.455 250.184C370.288 250.175 370.12 250.2 369.963 250.256C369.805 250.312 369.66 250.399 369.535 250.512C369.411 250.624 369.31 250.76 369.239 250.911C369.167 251.062 369.126 251.226 369.117 251.394C369.109 251.561 369.134 251.728 369.19 251.886C369.246 252.044 369.333 252.189 369.446 252.313C369.558 252.437 369.694 252.538 369.845 252.61L375.307 255.206C372.443 260.455 369.369 265.582 366.087 270.588C364.541 268.625 362.802 266.823 360.894 265.21C366.509 252.828 376.047 226.679 378.373 210.558C378.551 210.457 378.702 210.318 378.817 210.15C378.931 209.981 379.005 209.789 379.033 209.587C379.061 209.386 379.042 209.18 378.977 208.987C378.913 208.794 378.805 208.619 378.661 208.475C374.175 204.214 369.458 200.202 364.532 196.458C364.532 195.729 364.532 194.975 364.496 194.273C375.682 194.839 386.692 197.295 397.058 201.537C396.771 202.484 395.46 206.657 395.092 207.801C390.545 205.724 385.812 204.084 380.955 202.903V202.914ZM368.625 226.584C366.534 224.854 364.258 223.361 361.837 222.134C359.895 220.938 357.856 219.906 355.741 219.05C356.135 217.258 356.515 215.464 356.881 213.667C359.651 215.134 362.346 216.74 364.954 218.478C367.704 220.301 370.337 222.293 372.838 224.443C371.957 227.647 369.75 235.167 368.083 240.079C363.429 236.27 358.423 232.914 353.13 230.058C353.876 227.125 354.583 224.183 355.253 221.231C355.858 221.555 356.466 221.872 357.074 222.189C360.625 224.049 364.059 226.126 367.354 228.408C367.595 228.534 367.873 228.568 368.137 228.504C368.401 228.439 368.633 228.281 368.788 228.058C368.944 227.836 369.013 227.564 368.983 227.294C368.953 227.024 368.826 226.774 368.625 226.591V226.584ZM367.405 242.006C366.899 243.444 366.367 244.879 365.825 246.31C361.307 242.655 356.478 239.402 351.393 236.587C351.794 235.131 352.185 233.674 352.566 232.217C366.203 240.706 364.179 239.886 367.405 242.013V242.006ZM376.425 209.84C375.256 213.846 374.528 217.808 373.534 221.814C368.548 217.755 363.103 214.296 357.311 211.508C357.753 209.27 358.171 207.029 358.567 204.786C363.989 207.433 372.187 212.753 372.27 212.797C372.411 212.888 372.568 212.951 372.732 212.982C372.897 213.013 373.066 213.011 373.23 212.976C373.394 212.941 373.549 212.875 373.687 212.78C373.825 212.685 373.943 212.564 374.035 212.424C374.126 212.283 374.189 212.126 374.219 211.962C374.25 211.797 374.248 211.628 374.213 211.464C374.179 211.301 374.112 211.145 374.017 211.007C373.923 210.869 373.802 210.751 373.661 210.659C368.934 207.569 364.047 204.732 359.019 202.16C359.349 200.179 359.665 198.199 359.966 196.221C365.771 200.364 371.271 204.918 376.425 209.847V209.84ZM360.308 193.595C360.283 193.432 360.224 193.275 360.136 193.134C360.048 192.994 359.933 192.873 359.796 192.779C359.66 192.686 359.505 192.621 359.343 192.589C359.18 192.557 359.013 192.559 358.851 192.594C356.29 193.009 353.722 193.342 351.146 193.592C354.888 192.093 358.44 190.156 361.728 187.823C361.921 190.103 362.092 192.379 362.282 194.873C361.637 194.458 360.978 194.014 360.308 193.603V193.595ZM359.783 186.119C355.346 189.25 350.425 191.632 345.217 193.173C345.239 193.098 345.25 193.021 345.25 192.943C345.25 192.215 345.25 192.153 344.205 191.443C345.527 189.295 344.074 187.306 341.809 186.578C340.527 186.167 337.607 186.578 336.711 185.85C337.032 185.465 337.399 185.12 337.803 184.823C337.91 184.933 338.043 185.014 338.189 185.061C338.335 185.107 338.49 185.117 338.641 185.089H338.706C339.486 185.26 340.105 184.36 339.952 183.559C339.882 183.256 339.735 182.977 339.524 182.748C339.313 182.519 339.046 182.35 338.75 182.256C338.378 182.178 337.992 182.212 337.639 182.354C337.585 182.263 337.428 182.033 337.366 181.946C337.211 181.514 336.895 181.158 336.485 180.952C340.787 178.987 344.801 176.443 348.415 173.392C352.195 177.386 356.526 180.819 361.276 183.588C361.331 184.007 361.386 184.415 361.44 184.881C360.876 185.274 360.319 185.719 359.783 186.119ZM359.9 267.413C364.405 272.147 365.792 273.785 365.792 273.785C365.792 273.785 369.594 280.814 370.446 282.605C366.108 278.812 361.983 274.782 358.09 270.534C358.644 270.279 358.691 269.98 359.889 267.413H359.9ZM367.595 272.937C370.95 267.839 374.094 262.619 377.026 257.278L383.909 272.38C380.721 276.328 377.253 280.041 373.53 283.49C373.323 283.122 368.356 274.208 367.584 272.937H367.595ZM399.236 194.112C394.997 192.259 385.263 189.164 382.274 188.333C382.034 188.281 381.783 188.32 381.572 188.444C381.36 188.568 381.202 188.767 381.131 189.002C381.059 189.236 381.079 189.489 381.185 189.71C381.292 189.931 381.477 190.104 381.705 190.194C393.216 193.981 392.506 194.262 398.562 196.465C398.307 197.342 398.052 198.224 397.794 199.101C387.291 194.438 375.925 192.034 364.434 192.044C364.412 191.603 363.942 184.317 363.906 183.876C372.311 183.357 380.749 183.931 389.007 185.584C389.286 185.59 389.557 185.49 389.764 185.303C389.971 185.116 390.099 184.857 390.121 184.579C390.146 184.324 390.072 184.069 389.916 183.866C389.76 183.664 389.533 183.528 389.28 183.486C384.814 182.084 380.156 181.39 375.475 181.429C371.538 181.172 367.586 181.267 363.665 181.713C363.345 179.091 363.491 178.847 363.13 176.549C376.612 175.552 390.16 177.16 403.034 181.283C401.789 185.165 400.463 189.753 399.225 194.112H399.236ZM276.356 176.469C276.742 176.035 276.983 175.49 277.043 174.912C277.103 174.334 276.98 173.751 276.691 173.246C279.91 174.073 283.066 175.131 286.133 176.411C281.994 176.453 277.871 176.957 273.843 177.915C273.858 177.848 273.865 177.779 273.865 177.711V177.62C274.815 177.579 275.71 177.166 276.356 176.469ZM248.902 189.051C252.508 177.376 259.991 171.207 272.245 172.471C272.971 173.099 273.739 173.678 274.543 174.204C275.052 174.59 274.408 175.195 273.843 175.184C272.62 175.056 272.576 174.637 271.123 174.124C270.886 174.054 270.633 174.059 270.399 174.14C270.165 174.221 269.962 174.373 269.819 174.576C269.716 174.766 269.665 174.98 269.671 175.196C269.677 175.412 269.741 175.623 269.856 175.806C270.412 176.52 271.175 177.045 272.041 177.31C272.07 177.718 271.928 177.951 272.208 178.323C263.917 180.632 256.049 184.254 248.902 189.051ZM263.931 283.785C254.725 284.626 257.085 284.229 254.827 284.473C254.087 284.615 253.328 284.615 252.588 284.473C252.056 283.539 251.686 282.52 251.495 281.462C249.806 275.979 248.468 270.393 247.49 264.74C245.504 253.719 245.425 242.439 247.257 231.391C247.96 226.096 250.356 221.17 254.088 217.349C258.494 213.343 264.9 212.109 270.551 210.576C278.843 233.805 302.863 253.203 325.174 264.161C306.207 274.567 285.415 281.23 263.931 283.785ZM395.878 298.934C388.771 298.841 381.693 298.01 374.757 296.454C356.344 291.569 339.944 280.991 327.902 266.229C327.794 265.943 327.703 265.652 327.629 265.355C328.922 266.232 330.437 266.725 331.999 266.775C332.975 266.793 333.941 266.573 334.814 266.135C336.366 267.604 338.203 268.74 340.21 269.474C344.125 271.4 348.642 271.7 352.777 270.308C353.339 270.137 353.887 269.922 354.416 269.667C359.589 275.667 365.187 281.287 371.167 286.483C371.213 286.682 371.307 286.867 371.442 287.02C371.578 287.173 371.749 287.29 371.941 287.36C372.133 287.429 372.339 287.45 372.541 287.42C372.743 287.39 372.934 287.309 373.097 287.186C385.318 277.94 393.351 263.917 400.445 251.536C403.853 245.4 411.257 231.944 414.621 224.548C417.129 219.062 419.135 213.361 420.615 207.513C420.803 207.297 420.898 207.016 420.881 206.73C420.412 204.281 419.592 201.911 418.449 199.695C415.52 192.477 411.081 185.97 405.43 180.61C405.616 179.783 404.578 179.135 404.083 179.011C402.257 178.421 400.413 177.878 398.551 177.383C400.321 171.456 401.557 165.382 402.244 159.234C403.516 159.041 404.732 158.576 405.809 157.872C406.31 158.945 406.932 159.958 407.662 160.891C407.055 161.376 406.462 161.88 405.882 162.402C404.895 163.326 404.25 164.556 404.052 165.893C403.854 167.23 404.113 168.595 404.789 169.765C405.859 170.939 407.277 171.738 408.835 172.045C409.78 172.436 410.809 172.576 411.824 172.452C412.839 172.328 413.805 171.945 414.629 171.338C414.671 171.305 414.702 171.26 414.717 171.209C414.733 171.158 414.732 171.104 414.715 171.053C414.698 171.002 414.666 170.958 414.623 170.926C414.581 170.895 414.529 170.877 414.476 170.876C413.449 170.886 412.437 170.633 411.537 170.14C410.636 169.647 409.878 168.931 409.334 168.061C409.118 167.296 409.106 166.488 409.297 165.717C409.489 164.945 409.878 164.237 410.426 163.662C415.342 166.89 421.043 168.721 426.919 168.957C429.395 169.021 431.864 169.257 434.307 169.663C434.307 169.663 435.695 172.041 435.83 172.212C435.065 172.737 434.335 173.311 433.645 173.931C433.173 174.529 432.857 175.234 432.726 175.984C432.595 176.734 432.652 177.505 432.892 178.227C433.133 178.949 433.549 179.6 434.104 180.122C434.659 180.643 435.334 181.019 436.07 181.214C441.223 216.537 435.192 254.449 418.121 294.127C411.601 298.53 403.635 300.252 395.878 298.934ZM609.272 132.09C577.318 164.765 534.136 184.437 493.508 204.123C482.533 209.753 470.96 214.133 459.008 217.181C459.461 208.816 459.164 200.426 458.119 192.113C458.12 191.868 458.05 191.628 457.919 191.421C457.788 191.214 457.601 191.049 457.379 190.945C457.158 190.841 456.911 190.802 456.668 190.832C456.425 190.863 456.196 190.963 456.007 191.119C455.789 191.266 455.616 191.471 455.509 191.711C455.401 191.951 455.363 192.217 455.399 192.477C459.929 225.513 449.034 261.069 438.335 295.398C435.238 305.699 430.276 315.344 423.696 323.853C417.365 331.899 408.26 337.294 398.162 338.983C427.217 289.459 448.914 233.08 437.53 177.252C437.496 177.092 437.42 176.944 437.31 176.823C437.2 176.702 437.06 176.613 436.904 176.564C436.746 176.479 436.568 176.44 436.39 176.451C436.211 176.462 436.039 176.522 435.893 176.625C435.747 176.729 435.633 176.871 435.563 177.036C435.493 177.2 435.471 177.381 435.498 177.558C434.489 175.566 436.562 174.976 437.741 173.829C439.055 174.444 440.498 174.732 441.946 174.668C443.395 174.605 444.807 174.192 446.062 173.465C446.111 173.436 446.148 173.392 446.169 173.34C446.191 173.288 446.194 173.231 446.18 173.176C446.166 173.122 446.134 173.074 446.09 173.039C446.045 173.005 445.991 172.985 445.935 172.984C445.184 172.929 444.472 172.628 443.908 172.128C443.345 171.627 442.962 170.956 442.818 170.217C540.469 149.059 604.414 121.322 606.614 121.551C608.852 123.738 610.517 126.444 611.461 129.428C611.355 130.313 610.008 131.318 609.265 132.09H609.272ZM621.599 120.248C620.246 123.434 617.704 125.968 614.512 127.309C614.214 127.451 613.915 127.593 613.62 127.742C612.417 124.889 610.862 122.198 608.992 119.73C609.296 117.974 609.737 116.244 610.31 114.556C610.697 113.715 611.32 113.004 612.104 112.51C612.887 112.015 613.797 111.759 614.723 111.771C615.649 111.783 616.552 112.064 617.322 112.579C618.092 113.094 618.696 113.821 619.06 114.672C619.216 114.939 619.324 115.231 619.377 115.535C618.939 115.789 618.439 115.916 617.932 115.903C617.426 115.89 616.933 115.738 616.508 115.463C616.285 115.347 616.034 115.296 615.784 115.316C615.534 115.336 615.294 115.425 615.092 115.574C614.89 115.723 614.733 115.926 614.641 116.159C614.548 116.392 614.522 116.647 614.567 116.894C614.735 117.709 614.718 118.552 614.517 119.36C614.316 120.168 613.936 120.921 613.405 121.562C613.23 121.844 613.166 122.18 613.225 122.507C613.284 122.833 613.462 123.126 613.724 123.329C613.986 123.531 614.314 123.63 614.645 123.605C614.975 123.58 615.285 123.433 615.514 123.194C616.639 121.877 617.29 120.22 617.36 118.489C618.039 118.566 618.726 118.504 619.381 118.307C620.035 118.11 620.642 117.781 621.165 117.342C621.544 117.126 621.826 116.772 621.952 116.355C622.283 116.322 622.615 116.297 622.95 116.275C622.667 117.649 622.217 118.983 621.61 120.248H621.599Z" fill="url(#paint0_linear_58_2369)"/>
<path d="M426.165 133.31C426.74 135.596 428.39 137.851 430.207 136.175C431.572 134.919 430.396 131.121 429.173 130.167C427.949 129.213 425.105 129.093 426.165 133.31Z" fill="url(#paint1_linear_58_2369)"/>
<path d="M442.391 128.401C443.09 130.95 445.166 131.114 446.033 129.97C447.089 128.55 445.975 125.68 445.057 124.654C443.764 123.23 441.266 124.289 442.391 128.401Z" fill="url(#paint2_linear_58_2369)"/>
<path d="M440.589 132.334C443.112 136.012 443.866 137.778 444.893 139.402C443.789 139.641 442.707 139.969 441.656 140.382C441.395 140.477 441.174 140.658 441.03 140.895C440.886 141.133 440.827 141.412 440.864 141.688C440.901 141.963 441.031 142.217 441.233 142.409C441.435 142.6 441.696 142.716 441.973 142.738C443.808 142.533 445.584 141.961 447.195 141.056C448.404 139.727 446.535 137.287 445.916 136.256C444.103 133.068 441.92 130.105 439.413 127.429C439.246 127.296 439.038 127.226 438.825 127.23C438.612 127.235 438.407 127.314 438.246 127.454C438.086 127.594 437.979 127.786 437.945 127.996C437.912 128.206 437.953 128.422 438.062 128.605C438.83 129.897 439.674 131.142 440.589 132.334Z" fill="url(#paint3_linear_58_2369)"/>
<path d="M422.636 130.44C422.679 130.647 422.792 130.832 422.956 130.965C423.12 131.098 423.324 131.17 423.535 131.169H423.899C424.05 131.169 424.199 131.132 424.332 131.06C424.465 130.989 424.578 130.885 424.661 130.759C424.744 130.633 424.795 130.488 424.808 130.338C424.821 130.188 424.797 130.036 424.737 129.898C424.736 128.921 425.068 127.974 425.679 127.212C426.289 126.449 427.141 125.918 428.095 125.706C429.941 125.706 430.491 124.581 429.963 123.736C429.911 123.607 429.831 123.492 429.73 123.398C428.733 123.121 427.678 123.142 426.693 123.456C425.708 123.77 424.836 124.365 424.184 125.167C423.533 125.865 423.054 126.705 422.785 127.62C422.516 128.536 422.465 129.501 422.636 130.44Z" fill="url(#paint4_linear_58_2369)"/>
<path d="M428.761 141.943C429.168 146.801 431.35 151.338 434.89 154.689C437.046 156.338 439.456 155.344 441.623 153.687C443.714 152.134 445.493 150.201 446.867 147.988C446.985 147.742 447.015 147.463 446.952 147.197C446.889 146.932 446.736 146.696 446.519 146.53C446.302 146.364 446.035 146.278 445.762 146.287C445.489 146.295 445.227 146.397 445.021 146.575C443.122 149.085 440.767 151.213 438.08 152.85C437.65 152.967 437.195 152.951 436.776 152.802C436.356 152.654 435.991 152.381 435.731 152.019C433.72 149.725 432.298 146.975 431.587 144.008C433.709 144.949 435.972 145.531 438.284 145.731C441.362 146.438 444.594 145.984 447.358 144.456C448.425 143.866 447.388 141.907 446.379 142.664C443.892 143.713 441.134 143.938 438.51 143.305C435.706 142.981 433.007 142.049 430.6 140.574C430.387 140.478 430.152 140.44 429.919 140.466C429.687 140.491 429.465 140.578 429.278 140.717C429.09 140.857 428.943 141.044 428.852 141.26C428.762 141.476 428.73 141.712 428.761 141.943Z" fill="url(#paint5_linear_58_2369)"/>
<path d="M190.088 233.058C202.327 236.744 217.399 235.312 227.417 226.281C232.677 221.417 237.106 215.724 240.527 209.428C241.16 208.58 240.68 207.142 239.052 207.422C230.73 208.809 222.247 208.941 213.885 207.815C213.673 207.811 213.462 207.859 213.273 207.955C213.083 208.051 212.921 208.193 212.799 208.367C212.678 208.542 212.601 208.744 212.577 208.955C212.552 209.166 212.58 209.38 212.658 209.578C208.569 215.39 202.651 219.666 195.848 221.722C189.045 223.779 181.749 223.498 175.125 220.925C174.87 220.875 174.607 220.902 174.369 221.003C174.13 221.105 173.927 221.275 173.786 221.492C173.644 221.709 173.571 221.963 173.576 222.223C173.58 222.482 173.662 222.733 173.81 222.946C177.931 228.066 183.671 231.633 190.088 233.058ZM236.699 210.302C233.075 216.357 228.387 221.707 222.862 226.096C222.933 225.936 222.969 225.762 222.965 225.587C222.961 225.411 222.918 225.239 222.839 225.082C222.76 224.926 222.647 224.789 222.509 224.681C222.37 224.574 222.21 224.498 222.039 224.461C221.653 224.237 221.239 224.067 220.808 223.954C220.846 223.309 220.737 222.663 220.488 222.066C220.239 221.47 219.858 220.937 219.373 220.51C218.359 219.777 217.112 219.443 215.867 219.57C214.623 219.698 213.469 220.279 212.625 221.201C210.979 222.567 209.501 224.777 207.607 224.086C206.642 223.758 206.748 223.357 206.81 223.117C206.999 222.644 207.284 222.215 207.646 221.857C208.008 221.499 208.44 221.218 208.915 221.034C208.98 221.14 209.066 221.232 209.168 221.303C209.27 221.375 209.386 221.424 209.508 221.449C209.898 221.54 210.12 221.362 210.491 221.085C211.475 220.386 210.404 218.86 209.064 218.762C207.901 218.856 206.81 219.362 205.987 220.189C205.732 220.224 205.473 220.224 205.218 220.189H204.814C208.692 217.683 212.007 214.398 214.548 210.543C221.903 211.443 229.344 211.363 236.678 210.306L236.699 210.302ZM203.503 221.981C203.62 222.134 203.777 222.252 203.957 222.322C204.137 222.391 204.333 222.409 204.523 222.374C204.319 223.211 204.453 224.094 204.895 224.832C205.338 225.571 206.053 226.106 206.886 226.321C209.799 227.334 212.287 224.796 213.135 223.918C213.89 223.02 214.869 222.337 215.972 221.937C216.403 221.79 216.873 221.805 217.293 221.98C217.714 222.155 218.056 222.478 218.255 222.887C218.436 223.315 218.447 223.796 218.285 224.231C218.123 224.666 217.801 225.023 217.385 225.229C216.277 225.594 215.117 225.78 213.951 225.779C213.625 225.747 213.299 225.843 213.043 226.047C212.787 226.251 212.62 226.547 212.578 226.871C212.557 227.139 212.635 227.405 212.798 227.618C212.96 227.832 213.196 227.978 213.459 228.029C214.616 228.366 215.844 228.37 217.003 228.042C218.162 227.713 219.206 227.066 220.014 226.172C221.001 226.463 221.106 226.853 221.747 226.86C218.369 229.162 214.568 230.771 210.564 231.594C204.445 232.771 198.14 232.568 192.109 231.001C187.344 230.136 182.902 227.997 179.254 224.81C187.446 226.618 196.018 225.3 203.288 221.114C203.241 221.418 203.31 221.729 203.481 221.984L203.503 221.981Z" fill="url(#paint6_linear_58_2369)"/>
<path d="M72.2153 218.037C72.2397 218.282 72.3333 218.516 72.4852 218.71C72.637 218.905 72.8409 219.052 73.0731 219.135C73.3054 219.218 73.5564 219.234 73.7971 219.18C74.0378 219.126 74.2583 219.005 74.433 218.831C81.6172 210.802 90.4702 204.441 100.372 200.193C105.132 198.209 110.283 197.337 115.432 197.644C120.581 197.952 125.592 199.43 130.083 201.967C130.322 202.089 130.592 202.138 130.859 202.108C131.126 202.079 131.378 201.971 131.585 201.798C131.791 201.626 131.942 201.397 132.018 201.139C132.095 200.882 132.095 200.607 132.016 200.35C129.765 194.112 126.795 188.157 123.168 182.605C123.054 182.463 122.913 182.346 122.753 182.26C122.593 182.174 122.417 182.12 122.236 182.103C122.055 182.086 121.873 182.105 121.699 182.159C121.526 182.213 121.365 182.302 121.227 182.419C109.851 178.859 97.5398 179.82 86.8542 185.103C81.4392 187.366 77.1051 191.63 74.7534 197.007C72.3743 203.746 71.5078 210.926 72.2153 218.037ZM121.332 184.626C123.983 188.932 126.296 193.436 128.251 198.1C120.364 194.567 111.476 193.963 103.183 196.395C103.319 196.232 103.394 196.026 103.394 195.813C103.394 194.895 103.194 195.084 102.764 194.068C103.404 193.875 103.997 193.554 104.509 193.124C105.02 192.693 105.439 192.164 105.739 191.567C106.806 188.937 103.806 186.468 100.623 186.082C99.8996 186.051 99.1794 185.971 98.4671 185.842C98.2883 185.784 98.1388 185.659 98.0499 185.494C97.961 185.328 97.9395 185.135 97.99 184.954C98.517 184.178 99.297 183.609 100.197 183.344C100.283 183.316 100.364 183.274 100.437 183.22C107.418 182.094 114.565 182.575 121.332 184.626ZM95.9544 184.196C95.2662 186.075 96.2057 187.838 98.7984 188.235C100.242 188.145 101.671 188.571 102.83 189.436C103.095 189.669 103.7 190.256 103.558 190.587C102.695 192.266 99.6979 192.073 98.0082 190.729C97.8626 190.638 97.699 190.579 97.5285 190.557C97.3581 190.534 97.1848 190.549 97.0206 190.6C96.8564 190.651 96.7051 190.736 96.577 190.851C96.4489 190.966 96.3471 191.107 96.2785 191.264C96.226 191.449 96.2151 191.642 96.2466 191.831C96.2781 192.02 96.3512 192.2 96.4606 192.357C96.9799 192.943 97.6133 193.417 98.3221 193.75C99.0309 194.083 99.8001 194.268 100.583 194.294C100.692 194.819 100.892 195.32 101.173 195.776C101.274 195.991 101.419 196.183 101.597 196.34C101.776 196.497 101.984 196.617 102.211 196.69C91.6849 200.555 82.1831 206.777 74.433 214.88C74.2673 209.615 74.9234 204.357 76.3775 199.294C77.4297 196.507 79.044 193.965 81.1201 191.829C83.1962 189.692 85.6897 188.005 88.4456 186.873C90.8799 185.799 93.3895 184.904 95.9544 184.196Z" fill="url(#paint7_linear_58_2369)"/>
<path d="M675.894 191.461C675.985 191.188 676.01 190.896 675.966 190.611C675.923 190.326 675.812 190.056 675.643 189.822C675.475 189.588 675.253 189.397 674.997 189.265C674.74 189.134 674.456 189.065 674.168 189.065C673.762 189.031 673.356 189.133 673.016 189.356C672.675 189.579 672.419 189.91 672.289 190.296C603.201 392.168 479.753 570.264 291.446 674.048C291.013 674.342 290.706 674.788 290.585 675.298C290.465 675.808 290.54 676.344 290.795 676.801C291.051 677.258 291.469 677.603 291.966 677.768C292.463 677.932 293.004 677.904 293.482 677.689C478.443 577.97 608.387 393.985 675.894 191.461Z" fill="url(#paint8_linear_58_2369)"/>
<path d="M684.185 177.183C669.847 333.616 609.273 482.241 510.178 604.13C502.284 613.806 502.367 613.391 502.367 614.305C502.348 614.717 502.458 615.126 502.681 615.473C502.904 615.821 503.229 616.091 503.612 616.246C503.994 616.401 504.416 616.433 504.818 616.339C505.22 616.244 505.582 616.027 505.856 615.718C587.028 519.132 643.898 404.517 671.709 281.454C679.444 247.218 684.837 212.495 687.852 177.525C688.067 175.114 684.393 175.013 684.185 177.183Z" fill="url(#paint9_linear_58_2369)"/>
<path d="M607.078 118.682C565.182 134.436 522.477 147.947 479.144 159.157C470.164 161.502 446.128 167.318 443.117 168.05C443.971 165.632 445.655 163.597 447.871 162.307C458.518 154.868 461.069 156.117 466.109 150.916C467.244 149.72 467.925 148.164 468.035 146.518C468.144 144.873 467.676 143.24 466.71 141.904C464.587 139.548 460.43 139.162 459.64 136.35C458.027 130.553 468.09 121.784 467.566 113.969C466.969 105.077 455.546 93.0233 438.187 90.507C428.301 88.9359 418.21 89.2051 408.421 91.3009C401.072 92.8205 394.347 96.5123 389.121 101.898C385.009 106.169 378.837 111.155 376.761 116.828C375.523 120.105 375.111 123.889 372.394 125.757C371.309 126.341 370.114 126.692 368.886 126.79C367.658 126.888 366.421 126.73 365.257 126.325C352.803 123.183 345.279 110.375 333.374 104.818C328.077 102.423 322.217 101.556 316.453 102.315C310.689 103.075 305.25 105.43 300.753 109.115C298.698 111.408 296.128 113.183 293.257 114.297C291.49 114.608 289.677 114.528 287.945 114.06C274.442 110.594 265.312 101.792 252.312 99.975C246.266 99.1536 240.114 99.8106 234.378 101.89C228.642 103.969 223.494 107.408 219.378 111.912C217.359 113.894 215.82 116.312 214.882 118.981C213.944 121.65 213.633 124.499 213.968 127.308C215.789 134.926 224.008 138.717 227.464 139.995C233.291 142.151 239.765 143.699 244.492 147.872C245.253 148.438 245.825 149.22 246.136 150.115C246.803 152.206 244.503 154.121 242.41 154.609C240.046 154.797 237.697 155.129 235.374 155.603C235.319 155.614 235.267 155.643 235.23 155.685C235.193 155.727 235.171 155.78 235.167 155.836C235.164 155.892 235.179 155.948 235.21 155.995C235.242 156.042 235.286 156.077 235.339 156.095C240.796 158.057 246.612 158.818 252.39 158.327C255.275 157.988 257.983 156.767 260.148 154.829C262.312 152.892 263.828 150.334 264.484 147.504C264.682 145.821 264.759 144.126 264.718 142.432C265.381 136.605 269.261 137.862 274.046 141.266C279.351 145.103 285.478 147.646 291.941 148.692C298.404 149.738 305.021 149.258 311.265 147.29C316.17 145.72 319.082 140.655 324.246 140.655C325.51 140.656 326.745 141.013 327.816 141.685C328.887 142.356 329.748 143.316 330.3 144.453C330.701 146.069 331.188 147.662 331.757 149.227C318.898 150.287 306.284 153.351 294.371 158.309C287.831 161.06 282.015 165.284 277.378 170.654C272.709 169.55 267.845 169.55 263.175 170.654C251.522 173.629 247.815 184.025 246.031 191.793C246.016 192.021 246.067 192.248 246.175 192.45C246.283 192.651 246.446 192.818 246.644 192.931C246.842 193.045 247.068 193.101 247.296 193.093C247.525 193.085 247.747 193.013 247.937 192.885C254.919 187.877 262.639 183.99 270.82 181.363C267.578 189.844 267.308 199.173 270.054 207.826C262.873 209.713 255.06 211.402 250.628 217.451C246.869 222.835 244.701 229.169 244.374 235.728C243.156 252.856 245.402 270.054 250.98 286.294C251.025 286.435 251.09 286.569 251.175 286.691C246.656 289.146 242.279 291.854 238.066 294.804C235.213 296.314 232.33 297.771 229.41 299.174C229.421 299.092 229.421 299.009 229.41 298.926C229.325 297.812 228.89 296.752 228.171 295.896C227.453 295.041 226.485 294.432 225.402 294.156C222.123 293.315 218.756 292.869 215.371 292.827C194.333 290.773 194.849 290.642 191.648 290.642C190.314 290.487 188.963 290.679 187.726 291.201C186.489 291.723 185.409 292.557 184.589 293.621C184.326 294.075 184.163 294.582 184.117 295.106C184.07 295.63 184.14 296.157 184.32 296.651C184.499 297.145 184.784 297.594 185.156 297.966C185.527 298.338 185.978 298.623 186.472 298.803C196.264 305.019 199.007 303.231 206.316 308.405C153.299 325.775 105.775 317.338 101.66 318.172C100.906 318.518 100.208 318.978 99.5932 319.534C96.4839 317.006 93.2063 314.694 89.7807 312.615C88.5828 311.903 87.1937 311.576 85.8041 311.678C84.4145 311.779 83.0928 312.305 82.0112 313.183C79.3237 315.164 77.2773 317.633 74.8119 319.658C64.7213 327.946 52.3131 331.584 52.0073 337.927C51.8361 341.467 54.7366 341.674 56.0112 341.765C67.2162 342.333 75.2178 337.865 91.0112 337.548C92.0162 337.527 92.1696 337.57 92.4682 337.432C92.887 345.6 100.659 349.292 108.394 351.736C165.522 369.885 235.4 369.343 307.117 342.952C309.988 341.587 312.934 340.384 315.941 339.351C304.288 355.108 303.473 355.825 301.66 359.805C294.078 356.951 291.969 355.716 288.859 354.5C280.066 357.958 271 360.672 261.753 362.613C253.559 364.348 245.26 365.545 236.91 366.196C240.009 369.419 238.236 368.261 267.714 396.523C274.896 404.347 283.316 410.936 292.636 416.027C299.136 419.383 306.299 421.26 313.609 421.526C320.458 421.124 327.06 418.823 332.675 414.88C343.856 407.205 353.906 398.002 362.535 387.539C380.149 366.269 382.309 365.876 395.265 341.561C398.178 343.382 424.284 339.686 438.511 303.959C442.156 294.219 445.304 284.3 447.941 274.24C453.425 256.587 457.206 238.448 459.23 220.073C479.681 215.084 491.31 208.307 524.121 192.444C545.455 182.243 565.918 170.307 585.3 156.757C595.914 149.067 605.739 140.348 614.64 130.728C614.795 130.49 614.873 130.21 614.863 129.927C617.688 128.793 619.756 126.552 621.996 124.49C626.044 120.762 627.91 113.452 621.574 114.508C620.484 113.321 619.893 111.019 618.41 110.452C614.465 108.946 610.003 109.592 607.078 118.682ZM92.5073 335.411C84.9091 335.104 77.3079 335.921 69.9487 337.836C65.3973 338.719 60.7759 339.191 56.1401 339.245C54.3921 339.06 55.0156 337.133 55.7221 336.263C60.0373 331.627 63.1899 332.021 77.8471 320.783C80.4654 318.507 83.8867 313.638 87.226 314.592C89.1115 315.387 90.8555 316.478 92.3979 317.822L97.9291 321.693C95.2129 325.852 93.3686 330.519 92.5073 335.411ZM208.308 307.764C207.221 305.971 205.526 304.628 203.531 303.981C198.182 302.112 193.039 299.703 188.179 296.789C187.684 296.454 187.116 295.944 187.218 295.405C187.353 294.677 188.502 293.843 189.667 293.584C191.925 293.242 192.021 293.42 220.851 296.268C223.721 296.548 226.536 296.996 226.718 299.017C226.717 299.249 226.777 299.476 226.894 299.676C227.011 299.876 227.176 300.041 227.378 300.154C221.166 303.036 214.802 305.577 208.312 307.764H208.308ZM421.519 123.987C425.403 122.17 429.194 120.158 432.874 117.957C434.265 117.278 435.812 116.985 437.355 117.108C438.897 117.232 440.379 117.768 441.644 118.66C441.193 118.836 440.794 119.121 440.48 119.49C440.166 119.858 439.946 120.299 439.843 120.772C439.837 121.023 439.92 121.269 440.074 121.467C440.227 121.666 440.442 121.806 440.687 121.863C440.932 121.921 441.188 121.892 441.414 121.782C441.639 121.672 441.823 121.488 441.929 121.26C442.027 121.063 442.184 120.905 442.382 120.81C442.58 120.716 442.805 120.691 443.019 120.739C443.651 120.93 444.227 121.274 444.695 121.74C445.038 122.088 445.476 122.328 445.953 122.432C446.137 122.442 446.321 122.405 446.488 122.326C446.655 122.247 446.8 122.127 446.91 121.977L447.496 122.112C450.729 128.181 452.748 134.822 453.441 141.663C453.648 144.557 453.239 147.462 452.234 150.183C451.229 152.905 449.655 155.381 447.617 157.446C442.551 161.87 438.257 161.346 435.882 165.457C433.989 168.25 437.284 166.757 430.394 166.808C424.221 166.884 418.142 165.302 412.789 162.227C414.044 161.512 415.377 160.942 416.761 160.526C418.75 159.898 420.467 158.615 421.632 156.885C422.356 155.125 422.415 153.162 421.796 151.362C421.178 149.563 419.926 148.05 418.273 147.107C417.142 146.488 416.14 145.659 415.32 144.664C411.751 139.016 418.84 130.192 413.956 123.907C415.142 124.448 416.43 124.735 417.734 124.749C419.037 124.763 420.326 124.503 421.523 123.987H421.519ZM400.371 139.912C402.53 139.162 407.007 142.231 408.136 143.943C409.695 146.288 414.578 152.424 414.585 154.787C414.466 155.405 414.22 155.991 413.859 156.507C413.498 157.023 413.031 157.457 412.492 157.781C411.574 158.327 410.681 158.911 409.812 159.532C409.024 158.623 408.315 157.648 407.691 156.619C408.773 155.513 409.551 154.145 409.949 152.65C409.959 152.611 409.961 152.571 409.953 152.532C409.945 152.494 409.926 152.457 409.902 152.426C409.878 152.395 409.848 152.369 409.812 152.352C409.776 152.335 409.734 152.326 409.695 152.326C400.671 152.322 396.93 141.099 400.374 139.912H400.371ZM335.39 151.616C339.716 152.708 340.165 149.405 373.285 152.053C382.527 154.401 392.608 159.274 400.331 159.317C399.676 161.648 398.845 167.42 396.183 176.651C385.318 173.986 374.081 173.167 362.945 174.23C362.786 174.061 362.582 173.944 362.355 173.894C362.128 173.845 361.89 173.865 361.675 173.952C361.46 174.04 361.276 174.19 361.148 174.384C361.02 174.578 360.953 174.806 360.956 175.038C361.006 176.88 361.177 178.717 361.464 180.537C357.112 177.848 353.192 174.514 349.839 170.65C349.606 170.477 349.321 170.388 349.031 170.397C348.741 170.407 348.463 170.514 348.242 170.701C343.134 175.351 337.075 178.83 330.484 180.895C323.893 182.96 316.929 183.561 310.081 182.656C309.864 182.656 309.649 182.714 309.46 182.822C309.271 182.931 309.114 183.087 309.003 183.274C308.893 183.462 308.834 183.676 308.831 183.894C308.829 184.111 308.886 184.326 308.992 184.517C312.99 190.121 318.117 194.827 324.042 198.333C324.574 199.884 325.048 201.451 325.468 203.034C325.468 203.034 322.467 203.209 321.21 203.263C320.992 203.297 320.788 203.39 320.621 203.533C320.453 203.676 320.329 203.863 320.261 204.072C320.193 204.282 320.185 204.507 320.238 204.721C320.29 204.935 320.401 205.13 320.558 205.284C334.057 223.416 337.04 237.978 341.679 251.008C342.011 251.942 342.121 252.941 341.999 253.925C341.878 254.909 341.529 255.851 340.98 256.677C339.329 259.905 336.608 262.457 333.281 263.895C331.799 264.204 329.563 262.802 328.445 262.18C317.503 257.04 307.261 250.527 297.968 242.796C289.127 235.565 281.807 226.653 276.429 216.577C273.395 211.108 271.606 205.036 271.191 198.796C270.776 192.556 271.743 186.301 274.027 180.478C277.089 179.722 280.213 179.23 283.359 179.007C288.511 179.969 293.433 181.895 297.871 184.684C298.114 184.827 298.402 184.876 298.679 184.823C298.956 184.769 299.206 184.616 299.378 184.392C299.55 184.169 299.632 183.89 299.613 183.609C299.594 183.327 299.473 183.062 299.273 182.864C294.903 176.833 288.399 173.621 279.765 171.24C293.228 157.551 316.261 153.214 335.39 151.616ZM407.976 196.661L417.445 210.987C416.279 214.092 415.053 217.176 413.761 220.24C410.593 212.622 406.105 205.622 400.503 199.564C402.2 194.101 403.888 188.541 405.257 182.969C409.855 187.991 413.604 193.73 416.351 199.96C418.172 203.93 417.805 204.181 418.953 206.85L418.539 208.016L410.105 195.27C410.013 195.131 409.892 195.01 409.753 194.917C409.615 194.823 409.46 194.758 409.296 194.724C409.132 194.691 408.965 194.69 408.8 194.722C408.636 194.753 408.479 194.817 408.339 194.91C408.2 195.002 408.078 195.121 407.984 195.26C407.89 195.398 407.826 195.554 407.792 195.718C407.759 195.882 407.757 196.051 407.789 196.215C407.82 196.38 407.884 196.536 407.976 196.676V196.661ZM394.339 232.053L401.499 245.25C396.851 253.821 391.702 262.11 386.078 270.075L378.945 254.416C380.625 251.243 382.225 248.03 383.749 244.777L388.554 253.385C388.719 253.681 388.994 253.899 389.32 253.992C389.645 254.084 389.993 254.044 390.289 253.879C390.584 253.714 390.801 253.439 390.894 253.113C390.987 252.788 390.945 252.439 390.781 252.144C386.112 243.79 385.404 242.341 385.054 241.947C388.332 234.664 391.866 225.513 394.328 218.554L401.136 231.871C401.211 232.023 401.313 232.158 401.441 232.269C401.568 232.38 401.718 232.464 401.878 232.517C402.039 232.57 402.206 232.591 402.374 232.578C402.543 232.565 402.708 232.519 402.859 232.442C403.009 232.365 403.144 232.259 403.253 232.13C403.362 232 403.445 231.851 403.496 231.69C403.546 231.529 403.562 231.359 403.546 231.191C403.531 231.022 403.485 230.859 403.406 230.71L395.484 215.222C395.994 213.727 396.496 212.22 396.992 210.703L402.988 221.263C403.07 221.409 403.184 221.537 403.316 221.64C403.448 221.743 403.596 221.819 403.757 221.863C403.919 221.907 404.091 221.92 404.257 221.899C404.423 221.878 404.58 221.825 404.726 221.742C404.872 221.66 405.002 221.549 405.105 221.417C405.208 221.285 405.283 221.134 405.328 220.972C405.372 220.811 405.383 220.642 405.363 220.476C405.342 220.31 405.289 220.149 405.206 220.003L398.066 207.4C398.23 206.879 399.632 202.389 399.632 202.389C405.093 208.596 409.416 215.716 412.406 223.423C409.543 229.949 406.401 236.344 402.98 242.61L396.581 230.826C396.504 230.675 396.395 230.542 396.265 230.433C396.135 230.324 395.986 230.242 395.824 230.192C395.662 230.143 395.489 230.125 395.32 230.142C395.151 230.159 394.988 230.21 394.839 230.291C394.69 230.372 394.559 230.481 394.453 230.614C394.347 230.746 394.269 230.898 394.222 231.062C394.176 231.225 394.163 231.396 394.183 231.564C394.203 231.732 394.255 231.895 394.339 232.042V232.053ZM357.058 260.323C357.23 260.131 357.395 259.927 357.55 259.711C357.871 259.049 357.975 258.303 357.847 257.579C357.72 256.854 357.367 256.189 356.839 255.676C356.214 255.244 355.491 254.979 354.734 254.907C353.977 254.835 353.215 254.958 352.519 255.264C351.383 255.54 350.219 255.69 349.05 255.712C349.511 255.334 349.891 254.868 350.171 254.342C350.452 253.816 350.629 253.24 350.687 252.646C350.567 251.956 350.21 251.329 349.679 250.872C349.148 250.415 348.473 250.157 347.773 250.141C349.006 246.29 350.172 242.417 351.269 238.521C356.542 241.798 357.096 242.235 361.433 245.327C362.648 246.457 364.04 247.381 365.554 248.062C361.862 257.73 361.834 257.85 358.91 264.193C358.786 264.488 358.035 266.641 357.765 267.256C357.332 267 356.926 266.702 356.55 266.367C356.488 266.098 356.386 265.839 356.249 265.599C359.261 263.789 358.737 261.003 357.058 260.323ZM353.605 267.241L353.562 267.285C351.431 268.221 349.107 268.628 346.785 268.47C344.462 268.312 342.211 267.595 340.226 266.378C339.226 265.95 338.3 265.373 337.472 264.667C338.74 263.743 339.863 262.639 340.812 261.389C342.502 259.574 343.702 257.358 344.3 254.951C345.181 253.768 346.444 252.924 347.874 252.562C347.681 252.927 348.238 252.883 346.945 253.964C346.101 254.575 345.508 255.472 345.277 256.488C345.234 256.668 345.235 256.855 345.273 257.036C345.311 257.217 345.388 257.387 345.499 257.535C345.611 257.683 345.75 257.804 345.914 257.891C346.077 257.977 346.26 258.027 346.445 258.036C348.841 258.26 351.257 258.046 353.578 257.406C354.259 257.38 355.545 257.041 354.941 258.265C354.509 259.03 353.853 259.642 353.058 260.017C352.867 260.032 352.68 260.095 352.519 260.2C352.358 260.305 352.228 260.448 352.136 260.617C352.045 260.786 351.996 260.975 351.996 261.167C351.996 261.359 352.045 261.548 352.136 261.717C352.136 263.316 354.921 262.471 355.828 262.602C355.243 263.319 354.443 263.83 353.546 264.059C351.955 264.132 351.553 265.242 351.964 266.022C352.31 266.695 353.274 266.899 353.605 267.263V267.241ZM348.085 226.919C347.175 226.646 334.297 223.973 333.933 223.896C332.462 220.82 330.87 217.802 329.156 214.84C329.288 213.275 329.23 211.7 328.984 210.15C331.762 210.514 334.606 210.79 337.363 211.045C343.393 211.602 348.103 212.16 354.683 212.983C354.416 214.267 354.145 215.545 353.871 216.817C350.182 216.08 346.459 215.536 342.714 215.189C342.487 215.17 342.262 215.237 342.081 215.377C341.901 215.517 341.78 215.719 341.742 215.943C341.703 216.168 341.751 216.399 341.874 216.59C341.998 216.781 342.189 216.92 342.41 216.977C343.841 217.342 347.281 217.731 353.363 219.082C350.93 230.05 347.927 240.727 344.621 251.579C344.46 251.718 344.309 251.856 344.16 251.994C343.728 249.46 342.92 247.005 341.761 244.711C339.977 238.38 337.716 232.194 334.996 226.205C336.864 226.671 338.732 227.094 340.593 227.527C342.965 228.194 345.373 228.73 347.804 229.133C348.077 229.132 348.342 229.032 348.546 228.851C348.751 228.67 348.883 228.42 348.917 228.149C348.952 227.878 348.887 227.603 348.734 227.377C348.581 227.151 348.35 226.988 348.085 226.919ZM325.292 195.503C329.804 196.111 334.347 196.476 338.898 196.596C340.282 196.643 347.739 196.494 352.808 195.929C353.573 195.929 356.908 195.172 357.956 195.074C357.745 197.08 357.405 199.072 356.937 201.035C356.504 203.522 355.305 209.957 355.156 210.688C349.118 209.96 334.806 208.26 328.71 208.085C327.999 203.787 326.852 199.571 325.292 195.503ZM327.152 211.504C325.938 209.562 324.671 207.637 323.355 205.729L326.081 205.579C326.521 207.531 326.88 209.503 327.152 211.493V211.504ZM322.609 194.56C322.671 194.706 322.73 194.855 322.789 195.001C320.668 193.418 318.657 191.694 316.769 189.841C315.287 188.381 313.893 186.836 312.593 185.212C320.37 185.828 328.181 184.58 335.378 181.571C335.229 182.634 335.506 182.802 335.972 183.541C333.889 185.329 334.429 187.182 336.472 188.147C337.39 188.485 338.372 188.622 339.347 188.548C340.476 188.522 342.026 188.606 342.601 189.578C342.965 190.176 341.586 190.624 340.835 190.46C338.454 189.939 338.035 189.105 337.289 189.589C337.124 189.704 336.996 189.864 336.921 190.049C336.846 190.235 336.828 190.438 336.867 190.635C336.867 191.363 338.686 193.107 341.035 193.107C341.581 193.098 342.125 193.028 342.656 192.9C342.754 192.972 343.593 193.628 343.695 193.675C343.189 193.814 342.677 193.941 342.167 194.065C336.029 194.17 329.893 193.799 323.812 192.954C323.615 192.942 323.417 192.979 323.238 193.062C323.058 193.145 322.9 193.271 322.781 193.429C322.662 193.587 322.584 193.772 322.554 193.967C322.524 194.163 322.543 194.363 322.609 194.549V194.56ZM381.367 202.866C381.218 202.854 381.066 202.873 380.925 202.923C380.784 202.973 380.658 203.052 380.55 203.155C380.442 203.259 380.356 203.384 380.3 203.522C380.244 203.661 380.22 203.81 380.226 203.959C380.235 204.165 380.309 204.363 380.441 204.522C380.572 204.681 380.752 204.793 380.953 204.84C384.23 205.765 386.628 206.661 388.828 207.48C390.961 207.969 392.965 208.9 394.714 210.215C394.306 211.443 393.891 212.669 393.468 213.893L387.179 211.297C387.023 211.223 386.856 211.182 386.683 211.176C386.51 211.17 386.336 211.199 386.175 211.262C386.014 211.324 385.869 211.419 385.746 211.54C385.622 211.661 385.523 211.805 385.456 211.965C385.39 212.125 385.357 212.296 385.359 212.469C385.361 212.642 385.398 212.813 385.468 212.971C385.538 213.129 385.639 213.271 385.765 213.389C385.892 213.507 386.044 213.598 386.206 213.656L392.632 216.311C388.379 228.907 383.134 241.146 376.945 252.912L371.347 250.257C371.196 250.186 371.034 250.144 370.867 250.136C370.699 250.128 370.532 250.152 370.374 250.209C370.217 250.265 370.069 250.352 369.945 250.464C369.821 250.577 369.72 250.712 369.648 250.864C369.576 251.015 369.535 251.179 369.527 251.346C369.518 251.514 369.545 251.681 369.601 251.839C369.657 251.996 369.743 252.141 369.855 252.266C369.967 252.39 370.102 252.491 370.253 252.562L375.718 255.159C372.854 260.407 369.778 265.535 366.496 270.541C364.95 268.578 363.212 266.776 361.304 265.162C366.919 252.781 376.458 226.631 378.785 210.51C378.962 210.41 379.112 210.27 379.226 210.102C379.34 209.934 379.417 209.741 379.445 209.54C379.473 209.338 379.451 209.133 379.386 208.94C379.322 208.747 379.213 208.571 379.07 208.427C374.583 204.166 369.867 200.154 364.941 196.41C364.941 195.682 364.942 194.928 364.906 194.225C376.092 194.791 387.102 197.247 397.468 201.49C397.181 202.437 395.871 206.61 395.503 207.753C390.957 205.677 386.223 204.037 381.367 202.856V202.866ZM369.035 226.536C366.944 224.806 364.666 223.314 362.246 222.086C360.303 220.89 358.266 219.858 356.152 219.002C356.545 217.21 356.926 215.416 357.292 213.62C360.063 215.087 362.754 216.692 365.363 218.43C368.112 220.253 370.748 222.245 373.249 224.395C372.368 227.6 370.159 235.119 368.492 240.032C363.838 236.222 358.835 232.867 353.542 230.01C354.288 227.078 354.993 224.135 355.664 221.183C356.268 221.507 356.876 221.824 357.484 222.141C361.035 224.001 364.47 226.078 367.765 228.361C368.006 228.487 368.282 228.521 368.546 228.456C368.81 228.392 369.043 228.233 369.199 228.011C369.354 227.788 369.424 227.516 369.394 227.246C369.364 226.976 369.235 226.727 369.035 226.544V226.536ZM367.816 241.958C367.31 243.397 366.776 244.831 366.234 246.263C361.716 242.608 356.889 239.354 351.804 236.54C352.205 235.083 352.595 233.626 352.976 232.17C366.614 240.658 364.589 239.839 367.816 241.966V241.958ZM376.835 209.793C375.666 213.798 374.939 217.76 373.945 221.766C368.959 217.707 363.515 214.249 357.722 211.46C358.164 209.222 358.58 206.981 358.976 204.738C364.398 207.386 372.595 212.706 372.679 212.75C372.819 212.841 372.979 212.904 373.144 212.934C373.309 212.965 373.476 212.963 373.64 212.928C373.804 212.894 373.959 212.827 374.097 212.732C374.235 212.638 374.353 212.517 374.445 212.376C374.536 212.236 374.598 212.079 374.628 211.914C374.659 211.75 374.659 211.581 374.624 211.417C374.59 211.253 374.524 211.098 374.429 210.96C374.334 210.821 374.21 210.703 374.07 210.612C369.343 207.522 364.457 204.685 359.429 202.113C359.759 200.132 360.073 198.152 360.374 196.173C366.179 200.317 371.681 204.87 376.835 209.8V209.793ZM360.718 193.548C360.693 193.384 360.634 193.227 360.546 193.087C360.458 192.947 360.343 192.826 360.206 192.732C360.07 192.638 359.916 192.573 359.753 192.541C359.591 192.509 359.423 192.511 359.261 192.546C356.7 192.962 354.13 193.294 351.554 193.544C355.297 192.045 358.852 190.109 362.14 187.776C362.333 190.056 362.501 192.331 362.691 194.826C362.046 194.411 361.388 193.967 360.718 193.555V193.548ZM360.195 186.072C355.757 189.202 350.836 191.585 345.628 193.125C345.65 193.051 345.66 192.974 345.66 192.896C345.66 192.168 345.662 192.106 344.617 191.396C345.939 189.247 344.483 187.259 342.218 186.531C340.936 186.119 338.016 186.531 337.121 185.802C337.442 185.417 337.81 185.073 338.214 184.775C338.321 184.885 338.451 184.967 338.597 185.013C338.743 185.059 338.9 185.069 339.05 185.041H339.117C339.896 185.212 340.516 184.313 340.363 183.512C340.293 183.209 340.144 182.929 339.933 182.7C339.722 182.472 339.456 182.302 339.16 182.208C338.788 182.13 338.403 182.165 338.05 182.306C337.996 182.215 337.839 181.986 337.777 181.898C337.622 181.466 337.305 181.11 336.894 180.904C341.196 178.939 345.21 176.396 348.824 173.345C352.604 177.338 356.936 180.772 361.687 183.541C361.742 183.96 361.796 184.367 361.851 184.834C361.287 185.227 360.73 185.671 360.195 186.072ZM360.312 267.365C364.817 272.099 366.203 273.738 366.203 273.738C366.203 273.738 370.003 280.766 370.855 282.558C366.517 278.765 362.392 274.735 358.499 270.486C359.053 270.231 359.102 269.933 360.3 267.365H360.312ZM368.003 272.889C371.358 267.791 374.504 262.572 377.437 257.231L384.32 272.332C381.132 276.281 377.663 279.994 373.941 283.443C373.733 283.075 368.768 274.16 367.996 272.889H368.003ZM399.648 194.065C395.409 192.211 385.673 189.116 382.683 188.286C382.443 188.233 382.192 188.273 381.98 188.397C381.768 188.52 381.614 188.719 381.542 188.954C381.471 189.189 381.491 189.442 381.597 189.663C381.704 189.884 381.888 190.056 382.117 190.147C393.628 193.934 392.916 194.214 398.972 196.417C398.717 197.295 398.461 198.176 398.203 199.054C387.7 194.391 376.335 191.987 364.843 191.996C364.821 191.556 364.352 184.269 364.316 183.829C372.722 183.31 381.159 183.884 389.417 185.536C389.696 185.543 389.968 185.442 390.175 185.255C390.382 185.069 390.508 184.81 390.531 184.531C390.555 184.277 390.484 184.022 390.328 183.819C390.171 183.616 389.944 183.48 389.691 183.439C385.225 182.037 380.567 181.342 375.886 181.381C371.949 181.125 367.994 181.22 364.074 181.665C363.753 179.044 363.899 178.8 363.539 176.502C377.02 175.505 390.57 177.112 403.445 181.236C402.199 185.118 400.874 189.706 399.636 194.065H399.648ZM276.765 176.422C277.151 175.987 277.392 175.443 277.453 174.864C277.513 174.286 277.39 173.704 277.101 173.199C280.32 174.026 283.475 175.083 286.542 176.363C282.402 176.405 278.281 176.909 274.253 177.867C274.268 177.8 274.277 177.732 274.277 177.663V177.572C275.226 177.532 276.119 177.118 276.765 176.422ZM249.312 189.003C252.917 177.328 260.402 171.16 272.656 172.423C273.382 173.052 274.149 173.631 274.953 174.157C275.462 174.543 274.818 175.147 274.253 175.136C273.03 175.009 272.988 174.59 271.535 174.077C271.297 174.006 271.042 174.012 270.808 174.093C270.574 174.174 270.373 174.326 270.23 174.528C270.126 174.718 270.075 174.932 270.081 175.148C270.088 175.365 270.15 175.575 270.265 175.759C270.822 176.473 271.587 176.998 272.453 177.263C272.482 177.671 272.336 177.904 272.617 178.275C264.325 180.584 256.458 184.206 249.312 189.003ZM264.339 283.738C255.134 284.579 257.495 284.182 255.238 284.426C254.498 284.567 253.739 284.567 252.999 284.426C252.467 283.491 252.097 282.473 251.906 281.414C250.216 275.931 248.876 270.346 247.898 264.692C245.912 253.671 245.836 242.391 247.667 231.343C248.371 226.048 250.767 221.123 254.499 217.301C258.906 213.296 265.309 212.061 270.96 210.528C279.252 233.758 303.274 253.156 325.585 264.113C306.618 274.52 285.823 281.182 264.339 283.738ZM396.289 298.886C389.181 298.793 382.103 297.962 375.167 296.406C356.754 291.522 340.355 280.943 328.312 266.182C328.204 265.896 328.113 265.604 328.039 265.308C329.332 266.185 330.848 266.677 332.41 266.728C333.386 266.745 334.349 266.525 335.222 266.087C336.775 267.556 338.613 268.693 340.621 269.426C344.535 271.353 349.052 271.652 353.187 270.26C353.749 270.089 354.299 269.875 354.828 269.619C360 275.62 365.598 281.24 371.578 286.436C371.623 286.635 371.716 286.819 371.851 286.972C371.986 287.125 372.159 287.242 372.351 287.312C372.543 287.382 372.751 287.403 372.953 287.372C373.155 287.342 373.344 287.262 373.507 287.139C385.728 277.893 393.761 263.869 400.855 251.488C404.263 245.352 411.666 231.897 415.031 224.501C417.538 219.015 419.546 213.313 421.027 207.466C421.215 207.25 421.31 206.969 421.292 206.683C420.823 204.233 420.003 201.864 418.859 199.647C415.93 192.43 411.491 185.922 405.839 180.562C406.025 179.735 404.987 179.087 404.492 178.963C402.666 178.373 400.822 177.831 398.96 177.336C400.73 171.408 401.969 165.334 402.656 159.186C403.928 158.993 405.141 158.529 406.218 157.824C406.72 158.898 407.344 159.91 408.074 160.843C407.467 161.329 406.873 161.833 406.292 162.355C405.306 163.278 404.659 164.509 404.46 165.846C404.262 167.183 404.523 168.547 405.199 169.718C406.268 170.892 407.687 171.691 409.246 171.997C410.19 172.388 411.219 172.529 412.234 172.405C413.249 172.281 414.215 171.897 415.039 171.291C415.081 171.258 415.113 171.213 415.128 171.162C415.144 171.111 415.141 171.056 415.124 171.006C415.108 170.955 415.077 170.911 415.035 170.879C414.992 170.847 414.94 170.83 414.886 170.828C413.86 170.839 412.849 170.586 411.949 170.093C411.048 169.6 410.29 168.884 409.746 168.013C409.53 167.248 409.515 166.441 409.706 165.669C409.898 164.898 410.287 164.19 410.835 163.614C415.751 166.843 421.452 168.673 427.328 168.909C429.804 168.973 432.275 169.209 434.718 169.616C434.718 169.616 436.107 171.994 436.242 172.165C435.477 172.69 434.744 173.264 434.054 173.884C433.582 174.481 433.267 175.187 433.136 175.936C433.005 176.686 433.064 177.457 433.304 178.179C433.545 178.902 433.96 179.553 434.515 180.074C435.07 180.596 435.744 180.971 436.48 181.167C441.633 216.489 435.602 254.401 418.531 294.08C412.011 298.483 404.045 300.204 396.289 298.886ZM609.683 132.042C577.729 164.718 534.546 184.389 493.917 204.075C482.942 209.705 471.37 214.086 459.417 217.134C459.871 208.768 459.575 200.378 458.531 192.066C458.531 191.821 458.459 191.581 458.328 191.374C458.197 191.167 458.01 191.002 457.789 190.897C457.567 190.793 457.321 190.754 457.078 190.785C456.835 190.816 456.606 190.915 456.417 191.072C456.199 191.218 456.025 191.423 455.917 191.664C455.81 191.904 455.772 192.169 455.808 192.43C460.338 225.466 449.444 261.022 438.746 295.35C435.649 305.651 430.685 315.296 424.105 323.805C417.773 331.851 408.672 337.246 398.574 338.936C427.629 289.411 449.324 233.033 437.941 177.205C437.907 177.045 437.832 176.897 437.722 176.776C437.612 176.655 437.472 176.565 437.316 176.516C437.158 176.432 436.979 176.392 436.8 176.403C436.622 176.414 436.45 176.475 436.304 176.578C436.158 176.681 436.042 176.823 435.972 176.988C435.902 177.153 435.882 177.334 435.91 177.51C434.901 175.519 436.972 174.929 438.152 173.782C439.465 174.396 440.906 174.684 442.355 174.621C443.804 174.557 445.217 174.144 446.472 173.417C446.52 173.389 446.56 173.345 446.581 173.293C446.603 173.241 446.604 173.183 446.589 173.129C446.575 173.075 446.544 173.026 446.499 172.992C446.455 172.957 446.399 172.938 446.343 172.937C445.592 172.881 444.883 172.58 444.32 172.08C443.756 171.58 443.37 170.909 443.226 170.169C540.877 149.012 604.823 121.274 607.023 121.504C609.261 123.691 610.927 126.396 611.871 129.38C611.765 130.265 610.418 131.27 609.675 132.042H609.683ZM622.007 120.2C620.655 123.387 618.113 125.92 614.921 127.261C614.623 127.403 614.326 127.545 614.031 127.694C612.827 124.842 611.272 122.15 609.402 119.683C609.706 117.926 610.145 116.196 610.718 114.508C611.106 113.667 611.732 112.956 612.515 112.462C613.298 111.968 614.206 111.711 615.132 111.724C616.058 111.736 616.96 112.017 617.73 112.532C618.5 113.046 619.107 113.774 619.472 114.625C619.628 114.892 619.735 115.184 619.789 115.488C619.35 115.741 618.85 115.869 618.343 115.856C617.837 115.843 617.343 115.69 616.917 115.415C616.695 115.3 616.445 115.249 616.195 115.268C615.945 115.288 615.705 115.378 615.503 115.526C615.301 115.675 615.143 115.878 615.05 116.111C614.957 116.345 614.932 116.599 614.976 116.846C615.144 117.662 615.126 118.505 614.925 119.313C614.724 120.12 614.346 120.873 613.816 121.515C613.641 121.796 613.577 122.133 613.636 122.459C613.695 122.785 613.87 123.078 614.132 123.281C614.394 123.484 614.724 123.582 615.054 123.557C615.385 123.533 615.696 123.386 615.925 123.146C617.051 121.829 617.699 120.172 617.769 118.441C618.448 118.518 619.138 118.456 619.792 118.259C620.447 118.062 621.05 117.734 621.574 117.294C621.953 117.078 622.237 116.725 622.363 116.307C622.694 116.274 623.024 116.249 623.359 116.227C623.076 117.601 622.627 118.936 622.019 120.2H622.007Z" fill="black"/>
<path d="M426.576 133.262C427.151 135.549 428.801 137.803 430.618 136.128C431.983 134.872 430.807 131.073 429.584 130.119C428.36 129.165 425.516 129.045 426.576 133.262Z" fill="black"/>
<path d="M442.803 128.353C443.502 130.902 445.578 131.066 446.445 129.923C447.501 128.503 446.387 125.633 445.469 124.606C444.176 123.182 441.678 124.242 442.803 128.353Z" fill="black"/>
<path d="M440.999 132.287C443.522 135.965 444.276 137.731 445.303 139.355C444.199 139.594 443.117 139.921 442.066 140.335C441.804 140.429 441.583 140.61 441.439 140.848C441.295 141.085 441.237 141.365 441.274 141.64C441.311 141.916 441.441 142.17 441.643 142.361C441.845 142.552 442.106 142.668 442.383 142.691C444.218 142.486 445.994 141.914 447.604 141.008C448.813 139.679 446.945 137.239 446.326 136.209C444.513 133.021 442.33 130.058 439.823 127.382C439.656 127.249 439.448 127.178 439.235 127.183C439.022 127.187 438.817 127.266 438.656 127.406C438.496 127.546 438.389 127.738 438.355 127.948C438.321 128.159 438.363 128.375 438.471 128.558C439.24 129.849 440.084 131.095 440.999 132.287Z" fill="black"/>
<path d="M423.048 130.393C423.091 130.599 423.204 130.785 423.368 130.917C423.532 131.05 423.736 131.122 423.947 131.121H424.311C424.462 131.121 424.611 131.084 424.744 131.013C424.877 130.941 424.99 130.838 425.073 130.712C425.156 130.586 425.207 130.441 425.22 130.29C425.233 130.14 425.209 129.989 425.149 129.85C425.148 128.874 425.48 127.926 426.091 127.164C426.701 126.402 427.553 125.871 428.507 125.659C430.353 125.659 430.903 124.534 430.375 123.689C430.323 123.56 430.243 123.444 430.142 123.35C429.145 123.074 428.09 123.094 427.105 123.408C426.12 123.723 425.248 124.317 424.596 125.12C423.945 125.817 423.466 126.657 423.197 127.573C422.928 128.488 422.877 129.454 423.048 130.393Z" fill="black"/>
<path d="M429.172 141.896C429.578 146.753 431.76 151.291 435.301 154.641C437.456 156.291 439.867 155.297 442.034 153.64C444.125 152.087 445.904 150.154 447.278 147.941C447.396 147.695 447.426 147.416 447.363 147.15C447.299 146.885 447.146 146.649 446.929 146.483C446.713 146.317 446.445 146.231 446.172 146.239C445.899 146.247 445.638 146.349 445.431 146.528C443.533 149.037 441.178 151.166 438.491 152.802C438.061 152.92 437.606 152.903 437.186 152.755C436.766 152.606 436.402 152.333 436.142 151.972C434.131 149.678 432.708 146.928 431.998 143.961C434.119 144.901 436.382 145.484 438.694 145.683C441.773 146.391 445.005 145.937 447.769 144.409C448.836 143.819 447.798 141.86 446.79 142.617C444.302 143.666 441.544 143.89 438.92 143.258C436.116 142.934 433.417 142.002 431.011 140.527C430.798 140.43 430.563 140.393 430.33 140.418C430.097 140.443 429.876 140.53 429.688 140.67C429.501 140.81 429.354 140.997 429.263 141.213C429.172 141.428 429.141 141.664 429.172 141.896Z" fill="black"/>
<path d="M190.497 233.011C202.736 236.696 217.808 235.265 227.826 226.234C233.086 221.369 237.515 215.676 240.936 209.381C241.569 208.532 241.089 207.094 239.461 207.374C231.139 208.761 222.656 208.894 214.294 207.768C214.082 207.763 213.871 207.811 213.682 207.907C213.492 208.004 213.329 208.145 213.208 208.32C213.086 208.494 213.01 208.696 212.985 208.907C212.961 209.118 212.989 209.332 213.067 209.53C208.978 215.343 203.059 219.618 196.257 221.675C189.454 223.731 182.158 223.451 175.534 220.877C175.279 220.827 175.016 220.855 174.777 220.956C174.539 221.057 174.336 221.227 174.195 221.444C174.053 221.661 173.98 221.916 173.985 222.175C173.989 222.434 174.071 222.686 174.219 222.898C178.34 228.019 184.08 231.585 190.497 233.011ZM237.108 210.255C233.484 216.309 228.796 221.66 223.271 226.048C223.342 225.888 223.377 225.714 223.374 225.539C223.37 225.364 223.327 225.191 223.248 225.035C223.169 224.878 223.056 224.741 222.918 224.634C222.779 224.526 222.619 224.451 222.448 224.413C222.062 224.189 221.648 224.019 221.217 223.907C221.255 223.261 221.146 222.616 220.897 222.019C220.648 221.422 220.267 220.89 219.782 220.462C218.768 219.73 217.52 219.395 216.276 219.523C215.032 219.65 213.878 220.231 213.034 221.154C211.388 222.519 209.91 224.73 208.016 224.038C207.051 223.71 207.157 223.31 207.219 223.069C207.408 222.596 207.693 222.168 208.055 221.809C208.417 221.451 208.849 221.171 209.323 220.986C209.389 221.093 209.475 221.184 209.577 221.256C209.679 221.327 209.795 221.377 209.917 221.401C210.307 221.493 210.529 221.314 210.9 221.037C211.883 220.338 210.813 218.812 209.473 218.714C208.31 218.808 207.219 219.314 206.396 220.142C206.141 220.177 205.882 220.177 205.627 220.142H205.223C209.101 217.635 212.416 214.35 214.957 210.495C222.311 211.395 229.753 211.315 237.087 210.258L237.108 210.255ZM203.912 221.933C204.029 222.087 204.186 222.205 204.366 222.274C204.546 222.344 204.742 222.362 204.932 222.326C204.728 223.163 204.862 224.046 205.304 224.785C205.747 225.523 206.462 226.058 207.295 226.274C210.208 227.286 212.696 224.748 213.544 223.87C214.299 222.973 215.278 222.289 216.381 221.889C216.812 221.742 217.282 221.758 217.702 221.933C218.123 222.108 218.465 222.43 218.664 222.84C218.845 223.268 218.855 223.748 218.694 224.183C218.532 224.619 218.21 224.976 217.794 225.181C216.686 225.546 215.526 225.732 214.36 225.731C214.034 225.699 213.708 225.795 213.452 225.999C213.196 226.203 213.029 226.499 212.987 226.824C212.966 227.091 213.044 227.357 213.207 227.571C213.369 227.784 213.605 227.931 213.868 227.982C215.025 228.318 216.253 228.323 217.412 227.994C218.571 227.666 219.615 227.018 220.423 226.125C221.41 226.416 221.515 226.806 222.156 226.813C218.778 229.115 214.977 230.724 210.973 231.547C204.854 232.723 198.549 232.52 192.518 230.953C187.753 230.088 183.31 227.949 179.663 224.763C187.855 226.571 196.427 225.253 203.697 221.066C203.65 221.371 203.719 221.681 203.89 221.937L203.912 221.933Z" fill="black"/>
<path d="M72.6259 217.989C72.6504 218.235 72.744 218.468 72.8958 218.663C73.0477 218.857 73.2516 219.004 73.4838 219.087C73.716 219.171 73.967 219.186 74.2077 219.132C74.4485 219.078 74.6689 218.957 74.8436 218.783C82.0279 210.754 90.8808 204.393 100.782 200.146C105.543 198.161 110.694 197.29 115.843 197.597C120.992 197.904 126.002 199.383 130.493 201.919C130.733 202.042 131.003 202.091 131.27 202.061C131.537 202.031 131.789 201.923 131.995 201.751C132.201 201.578 132.352 201.349 132.429 201.092C132.506 200.834 132.505 200.56 132.427 200.303C130.175 194.064 127.206 188.109 123.578 182.557C123.464 182.416 123.323 182.298 123.163 182.212C123.003 182.126 122.828 182.073 122.647 182.055C122.466 182.038 122.284 182.057 122.11 182.111C121.937 182.166 121.776 182.254 121.637 182.372C110.261 178.811 97.9505 179.772 87.2649 185.055C81.8498 187.319 77.5157 191.582 75.1641 196.96C72.785 203.698 71.9184 210.878 72.6259 217.989ZM121.743 184.578C124.393 188.884 126.707 193.389 128.662 198.052C120.775 194.519 111.886 193.915 103.593 196.348C103.73 196.184 103.805 195.978 103.805 195.765C103.805 194.847 103.604 195.037 103.175 194.021C103.814 193.828 104.408 193.506 104.92 193.076C105.431 192.646 105.85 192.116 106.15 191.519C107.217 188.89 104.216 186.421 101.033 186.035C100.31 186.004 99.59 185.924 98.8777 185.795C98.6989 185.737 98.5494 185.612 98.4605 185.446C98.3716 185.281 98.3502 185.087 98.4007 184.906C98.9277 184.13 99.7076 183.561 100.607 183.297C100.694 183.269 100.775 183.227 100.848 183.173C107.829 182.047 114.975 182.528 121.743 184.578ZM96.3651 184.149C95.6768 186.028 96.6163 187.79 99.2091 188.187C100.653 188.097 102.081 188.523 103.24 189.389C103.506 189.622 104.111 190.208 103.969 190.54C103.106 192.218 100.109 192.025 98.4189 190.682C98.2732 190.59 98.1096 190.531 97.9392 190.509C97.7687 190.487 97.5954 190.502 97.4312 190.552C97.267 190.603 97.1157 190.689 96.9876 190.804C96.8596 190.918 96.7577 191.059 96.6891 191.217C96.6367 191.401 96.6258 191.595 96.6573 191.784C96.6888 191.973 96.7618 192.152 96.8712 192.309C97.3906 192.895 98.024 193.37 98.7327 193.703C99.4415 194.036 100.211 194.221 100.993 194.247C101.103 194.771 101.302 195.273 101.583 195.729C101.685 195.944 101.83 196.136 102.008 196.293C102.186 196.45 102.395 196.569 102.621 196.643C92.0955 200.507 82.5938 206.729 74.8436 214.832C74.678 209.567 75.334 204.309 76.7882 199.246C77.8404 196.459 79.4547 193.918 81.5308 191.781C83.6069 189.644 86.1004 187.957 88.8562 186.825C91.2905 185.751 93.8002 184.856 96.3651 184.149Z" fill="black"/>
<path d="M676.306 191.414C676.397 191.14 676.422 190.849 676.378 190.564C676.335 190.279 676.224 190.008 676.056 189.774C675.887 189.54 675.665 189.35 675.409 189.218C675.152 189.086 674.868 189.018 674.58 189.018C674.174 188.983 673.768 189.086 673.428 189.309C673.087 189.532 672.831 189.863 672.701 190.248C603.613 392.12 480.166 570.217 291.858 674C291.425 674.295 291.118 674.741 290.998 675.25C290.877 675.76 290.952 676.297 291.208 676.754C291.463 677.211 291.881 677.556 292.378 677.72C292.875 677.884 293.416 677.857 293.894 677.642C478.855 577.922 608.799 393.937 676.306 191.414Z" fill="black"/>
<path d="M684.597 177.135C670.259 333.568 609.686 482.194 510.591 604.083C502.696 613.759 502.779 613.344 502.779 614.258C502.761 614.67 502.87 615.078 503.093 615.426C503.316 615.773 503.641 616.043 504.024 616.198C504.406 616.353 504.828 616.386 505.23 616.291C505.632 616.197 505.995 615.98 506.268 615.67C587.441 519.085 644.31 404.469 672.121 281.407C679.856 247.171 685.249 212.447 688.264 177.478C688.479 175.067 684.805 174.965 684.597 177.135Z" fill="black"/>
<defs>
<linearGradient id="paint0_linear_58_2369" x1="18.2079" y1="707.893" x2="613.399" y2="947.802" gradientUnits="userSpaceOnUse">
<stop stop-color="#35C0A7"/>
<stop offset="1" stop-color="#5BD9BB"/>
</linearGradient>
<linearGradient id="paint1_linear_58_2369" x1="425.933" y1="136.756" x2="430.477" y2="138.003" gradientUnits="userSpaceOnUse">
<stop stop-color="#35C0A7"/>
<stop offset="1" stop-color="#5BD9BB"/>
</linearGradient>
<linearGradient id="paint2_linear_58_2369" x1="442.108" y1="130.648" x2="446.177" y2="131.724" gradientUnits="userSpaceOnUse">
<stop stop-color="#35C0A7"/>
<stop offset="1" stop-color="#5BD9BB"/>
</linearGradient>
<linearGradient id="paint3_linear_58_2369" x1="437.934" y1="142.738" x2="447.027" y2="145.007" gradientUnits="userSpaceOnUse">
<stop stop-color="#35C0A7"/>
<stop offset="1" stop-color="#5BD9BB"/>
</linearGradient>
<linearGradient id="paint4_linear_58_2369" x1="422.537" y1="131.169" x2="429.179" y2="133.712" gradientUnits="userSpaceOnUse">
<stop stop-color="#35C0A7"/>
<stop offset="1" stop-color="#5BD9BB"/>
</linearGradient>
<linearGradient id="paint5_linear_58_2369" x1="428.75" y1="155.535" x2="443.92" y2="163.215" gradientUnits="userSpaceOnUse">
<stop stop-color="#35C0A7"/>
<stop offset="1" stop-color="#5BD9BB"/>
</linearGradient>
<linearGradient id="paint6_linear_58_2369" x1="173.575" y1="234.946" x2="207.972" y2="268.547" gradientUnits="userSpaceOnUse">
<stop stop-color="#35C0A7"/>
<stop offset="1" stop-color="#5BD9BB"/>
</linearGradient>
<linearGradient id="paint7_linear_58_2369" x1="71.9761" y1="219.211" x2="115.44" y2="246.101" gradientUnits="userSpaceOnUse">
<stop stop-color="#35C0A7"/>
<stop offset="1" stop-color="#5BD9BB"/>
</linearGradient>
<linearGradient id="paint8_linear_58_2369" x1="290.529" y1="677.873" x2="641.027" y2="788.568" gradientUnits="userSpaceOnUse">
<stop stop-color="#35C0A7"/>
<stop offset="1" stop-color="#5BD9BB"/>
</linearGradient>
<linearGradient id="paint9_linear_58_2369" x1="502.365" y1="616.392" x2="682.737" y2="646.794" gradientUnits="userSpaceOnUse">
<stop stop-color="#35C0A7"/>
<stop offset="1" stop-color="#5BD9BB"/>
</linearGradient>
</defs>
</svg>
