<svg width="15" height="12" viewBox="0 0 15 12" fill="none" xmlns="http://www.w3.org/2000/svg">
<path d="M0 11.792V8.83789C0 7.84505 0.16276 6.81152 0.488281 5.7373C0.830078 4.64681 1.31836 3.60514 1.95312 2.6123C2.58789 1.60319 3.35286 0.732422 4.24805 0L6.81152 1.78223C6.06283 2.85645 5.48503 3.96322 5.07812 5.10254C4.67122 6.22559 4.46777 7.44629 4.46777 8.76465V11.792H0ZM7.69043 11.792V8.83789C7.69043 7.84505 7.85319 6.81152 8.17871 5.7373C8.52051 4.64681 9.00879 3.60514 9.64355 2.6123C10.2783 1.60319 11.0433 0.732422 11.9385 0L14.502 1.78223C13.7533 2.85645 13.1755 3.96322 12.7686 5.10254C12.3617 6.22559 12.1582 7.44629 12.1582 8.76465V11.792H7.69043Z" fill="black"/>
</svg>
