<svg width="292" height="437" viewBox="0 0 292 437" fill="none" xmlns="http://www.w3.org/2000/svg">
<g clip-path="url(#clip0_2181_323)">
<g opacity="0.2">
<path opacity="0.7" d="M-77 495C-77 374.679 29.0285 277 160 277C290.971 277 397 374.679 397 495C397 615.321 290.971 713 160 713C29.0286 713 -77 615.321 -77 495Z" stroke="#2C2A29" stroke-width="2"/>
<path d="M-77 569C-77 448.679 29.0285 351 160 351C290.971 351 397 448.679 397 569C397 689.321 290.971 787 160 787C29.0286 787 -77 689.321 -77 569Z" stroke="#2C2A29" stroke-width="2"/>
<path opacity="0.5" d="M-77 442.5C-77 322.457 29.0263 225 160 225C290.974 225 397 322.457 397 442.5C397 562.543 290.974 660 160 660C29.0263 660 -77 562.543 -77 442.5Z" stroke="#2C2A29" stroke-width="2"/>
<path opacity="0.3" d="M-77 399C-77 278.679 29.0285 181 160 181C290.971 181 397 278.679 397 399C397 519.321 290.971 617 160 617C29.0286 617 -77 519.321 -77 399Z" stroke="#2C2A29" stroke-width="2"/>
</g>
</g>
<defs>
<clipPath id="clip0_2181_323">
<rect width="292" height="437" fill="white"/>
</clipPath>
</defs>
</svg>
