<svg width="120" height="120" viewBox="0 0 120 120" fill="none" xmlns="http://www.w3.org/2000/svg">
<path d="M110.626 26.25V56.25C110.626 56.7473 110.429 57.2242 110.077 57.5758C109.725 57.9275 109.248 58.125 108.751 58.125C108.254 58.125 107.777 57.9275 107.425 57.5758C107.074 57.2242 106.876 56.7473 106.876 56.25V30.7781L65.0776 72.5766C64.9035 72.7509 64.6967 72.8892 64.4691 72.9836C64.2414 73.0779 63.9974 73.1265 63.751 73.1265C63.5046 73.1265 63.2607 73.0779 63.033 72.9836C62.8054 72.8892 62.5986 72.7509 62.4245 72.5766L45.001 55.1531L12.5776 87.5766C12.2258 87.9284 11.7486 88.126 11.251 88.126C10.7535 88.126 10.2763 87.9284 9.92448 87.5766C9.57265 87.2247 9.375 86.7476 9.375 86.25C9.375 85.7524 9.57265 85.2753 9.92448 84.9234L43.6745 51.1734C43.8486 50.9991 44.0554 50.8608 44.283 50.7664C44.5107 50.6721 44.7546 50.6235 45.001 50.6235C45.2474 50.6235 45.4914 50.6721 45.7191 50.7664C45.9467 50.8608 46.1535 50.9991 46.3276 51.1734L63.751 68.5969L104.223 28.125H78.751C78.2538 28.125 77.7768 27.9275 77.4252 27.5758C77.0736 27.2242 76.876 26.7473 76.876 26.25C76.876 25.7527 77.0736 25.2758 77.4252 24.9242C77.7768 24.5725 78.2538 24.375 78.751 24.375H108.751C109.248 24.375 109.725 24.5725 110.077 24.9242C110.429 25.2758 110.626 25.7527 110.626 26.25Z" fill="#518575"/>
</svg>
