<svg width="80" height="80" viewBox="0 0 80 80" fill="none" xmlns="http://www.w3.org/2000/svg">
<path d="M23.334 46.6666L30.9773 39.0233C31.6024 38.3983 32.4501 38.0473 33.334 38.0473C34.2179 38.0473 35.0656 38.3983 35.6907 39.0233L40.9773 44.3099C41.6024 44.9348 42.4501 45.2859 43.334 45.2859C44.2179 45.2859 45.0656 44.9348 45.6907 44.3099L56.6673 33.3333M48.334 33.3333H56.6673V41.6666" stroke="#2C2A29" stroke-width="5" stroke-linecap="round" stroke-linejoin="round"/>
<path d="M73.3327 40.0001C73.3327 55.7134 73.3327 63.5701 68.4494 68.4501C63.5727 73.3334 55.7127 73.3334 39.9994 73.3334C24.286 73.3334 16.4293 73.3334 11.546 68.4501C6.66602 63.5734 6.66602 55.7134 6.66602 40.0001C6.66602 24.2867 6.66602 16.4301 11.546 11.5467C16.4327 6.66675 24.286 6.66675 39.9994 6.66675C55.7127 6.66675 63.5694 6.66675 68.4494 11.5467C71.696 14.7934 72.7827 19.3567 73.1494 26.6667" stroke="#2C2A29" stroke-width="5" stroke-linecap="round"/>
</svg>
