<svg width="100" height="100" viewBox="0 0 100 100" fill="none" xmlns="http://www.w3.org/2000/svg">
<path d="M19.3917 80.608V76.4414H32.2917L27.9 72.0997C24.6639 68.958 22.3306 65.5122 20.9 61.7622C19.4667 58.0122 18.75 54.215 18.75 50.3705C18.75 43.6761 20.6583 37.6192 24.475 32.1997C28.2917 26.7803 33.3278 22.9108 39.5833 20.5914V25.0164C34.5278 27.1414 30.4861 30.508 27.4583 35.1164C24.4306 39.7247 22.9167 44.808 22.9167 50.3664C22.9167 53.7608 23.5611 57.0525 24.85 60.2414C26.1361 63.4358 28.1361 66.39 30.85 69.1039L35.0958 73.3497V60.7372H39.2625V80.6122L19.3917 80.608ZM60.4167 79.408V74.983C65.4722 72.858 69.5139 69.4914 72.5417 64.883C75.5694 60.2747 77.0833 55.1914 77.0833 49.633C77.0833 46.2386 76.4403 42.9469 75.1542 39.758C73.8653 36.5636 71.8653 33.6108 69.1542 30.8997L64.9042 26.6497V39.2622H60.7375V19.3872H80.6125V23.5539H67.7083L72.1 27.8997C75.2889 31.0886 77.6111 34.5469 79.0667 38.2747C80.5222 41.9997 81.25 45.7858 81.25 49.633C81.25 56.3275 79.3417 62.383 75.525 67.7997C71.7083 73.2164 66.6722 77.0858 60.4167 79.408Z" fill="#518575"/>
</svg>
