<svg width="80" height="80" viewBox="0 0 80 80" fill="none" xmlns="http://www.w3.org/2000/svg">
<path d="M33.3327 12.5C33.9957 12.5 34.6316 12.2366 35.1005 11.7678C35.5693 11.2989 35.8327 10.663 35.8327 10C35.8327 9.33696 35.5693 8.70108 35.1005 8.23224C34.6316 7.7634 33.9957 7.5 33.3327 7.5V12.5ZM46.666 7.5C46.003 7.5 45.3671 7.7634 44.8983 8.23224C44.4294 8.70108 44.166 9.33696 44.166 10C44.166 10.663 44.4294 11.2989 44.8983 11.7678C45.3671 12.2366 46.003 12.5 46.666 12.5V7.5ZM43.3327 72.5C43.9957 72.5 44.6316 72.2366 45.1005 71.7678C45.5693 71.2989 45.8327 70.6631 45.8327 70C45.8327 69.337 45.5693 68.7011 45.1005 68.2322C44.6316 67.7634 43.9957 67.5 43.3327 67.5V72.5ZM70.8327 43.3333C70.8327 43.9964 71.0961 44.6323 71.5649 45.1011C72.0338 45.5699 72.6696 45.8333 73.3327 45.8333C73.9957 45.8333 74.6316 45.5699 75.1005 45.1011C75.5693 44.6323 75.8327 43.9964 75.8327 43.3333H70.8327ZM46.666 42.5C47.3291 42.5 47.9649 42.2366 48.4338 41.7678C48.9026 41.2989 49.166 40.663 49.166 40C49.166 39.337 48.9026 38.7011 48.4338 38.2322C47.9649 37.7634 47.3291 37.5 46.666 37.5V42.5ZM59.9994 37.5C59.3363 37.5 58.7004 37.7634 58.2316 38.2322C57.7627 38.7011 57.4994 39.337 57.4994 40C57.4994 40.663 57.7627 41.2989 58.2316 41.7678C58.7004 42.2366 59.3363 42.5 59.9994 42.5V37.5ZM9.16602 43.3333V40H4.16602V43.3333H9.16602ZM9.16602 40V36.6667H4.16602V40H9.16602ZM43.3327 67.5H33.3327V72.5H43.3327V67.5ZM70.8327 36.6667V40H75.8327V36.6667H70.8327ZM4.16602 43.3333C4.16602 49.5467 4.15935 54.46 4.67602 58.2967C5.20269 62.2033 6.30935 65.3667 8.80269 67.8633L12.336 64.33C10.9294 62.9167 10.0827 60.9833 9.63269 57.63C9.17269 54.2067 9.16602 49.69 9.16602 43.3333H4.16602ZM33.3327 67.5C26.976 67.5 22.4627 67.4933 19.0327 67.0333C15.6827 66.5833 13.7494 65.7367 12.3394 64.3267L8.80602 67.86C11.2994 70.36 14.4627 71.4633 18.3694 71.99C22.2027 72.5067 27.1194 72.5 33.3327 72.5V67.5ZM46.666 12.5C53.0227 12.5 57.5394 12.5067 60.966 12.9667C64.316 13.4167 66.2494 14.2633 67.6594 15.6733L71.1927 12.14C68.6994 9.64 65.536 8.53667 61.6294 8.01C57.796 7.49334 52.8794 7.5 46.666 7.5V12.5ZM75.8327 36.6667C75.8327 30.4533 75.8394 25.54 75.3227 21.7033C74.796 17.7967 73.6894 14.6333 71.196 12.1367L67.6627 15.67C69.0694 17.0833 69.916 19.0167 70.366 22.37C70.826 25.7967 70.8327 30.31 70.8327 36.6667H75.8327ZM33.3327 7.5C27.1194 7.5 22.206 7.49334 18.3694 8.01C14.4627 8.53667 11.2994 9.64334 8.80269 12.1367L12.336 15.67C13.7494 14.2633 15.6827 13.4167 19.036 12.9667C22.4627 12.5067 26.976 12.5 33.3327 12.5V7.5ZM9.16602 36.6667C9.16602 30.31 9.17269 25.7967 9.63269 22.3667C10.0827 19.0167 10.9294 17.0833 12.3394 15.6733L8.80602 12.14C6.30602 14.6333 5.20269 17.7967 4.67602 21.7033C4.15935 25.5367 4.16602 30.4533 4.16602 36.6667H9.16602ZM70.8327 40V43.3333H75.8327V40H70.8327ZM6.66602 42.5H46.666V37.5H6.66602V42.5ZM59.9994 42.5H73.3327V37.5H59.9994V42.5Z" fill="#2C2A29"/>
<path d="M45 25.0001H60M20 58.3334V51.6667M20 28.3334V21.6667M30 58.3334V51.6667M30 28.3334V21.6667" stroke="#2C2A29" stroke-width="5" stroke-linecap="round"/>
<path d="M51.9479 60L50.3212 61.9C51.2579 62.7 52.6379 62.7 53.5746 61.9L51.9479 60ZM55.5212 60.2333C56.0251 59.8024 56.3372 59.1889 56.3888 58.5278C56.4403 57.8667 56.2272 57.2122 55.7962 56.7083C55.3652 56.2044 54.7517 55.8924 54.0907 55.8408C53.4296 55.7892 52.7751 56.0024 52.2712 56.4333L55.5212 60.2333ZM51.6279 56.4333C51.124 56.0019 50.4693 55.7883 49.8079 55.8396C49.1466 55.8909 48.5326 56.2028 48.1012 56.7067C47.6698 57.2106 47.4562 57.8652 47.5075 58.5266C47.5587 59.188 47.8706 59.8019 48.3745 60.2333L51.6279 56.4333ZM67.9646 55.45C68.3491 55.9902 68.9325 56.3554 69.5864 56.4654C70.2403 56.5755 70.9111 56.4212 71.4512 56.0367C71.9914 55.6521 72.3566 55.0687 72.4667 54.4148C72.5767 53.761 72.4224 53.0902 72.0379 52.55L67.9646 55.45ZM61.6845 47.5C55.3045 47.5 49.4512 52 49.4512 58.3333H54.4512C54.4512 55.4633 57.3079 52.5 61.6845 52.5V47.5ZM49.4512 58.3333V60H54.4512V58.3333H49.4512ZM53.5746 61.9L55.5212 60.2333L52.2712 56.4333L50.3212 58.1L53.5746 61.9ZM53.5746 58.1L51.6279 56.4333L48.3745 60.2333L50.3212 61.9L53.5746 58.1ZM72.0379 52.55C69.8179 49.4333 65.9412 47.5 61.6845 47.5V52.5C64.4712 52.5 66.7645 53.7667 67.9646 55.45L72.0379 52.55ZM71.3846 60L73.0145 58.1C72.5615 57.7118 71.9845 57.4984 71.3879 57.4984C70.7912 57.4984 70.2143 57.7118 69.7612 58.1L71.3846 60ZM67.8145 59.7667C67.3106 60.1976 66.9986 60.8111 66.947 61.4722C66.8954 62.1333 67.1086 62.7878 67.5395 63.2917C67.9705 63.7956 68.584 64.1076 69.2451 64.1592C69.9062 64.2108 70.5606 63.9976 71.0646 63.5667L67.8145 59.7667ZM71.7079 63.5667C72.2118 63.9981 72.8665 64.2117 73.5278 64.1604C74.1892 64.1091 74.8031 63.7972 75.2345 63.2933C75.666 62.7894 75.8795 62.1348 75.8283 61.4734C75.777 60.812 75.4651 60.1981 74.9612 59.7667L71.7079 63.5667ZM55.3712 64.55C55.1808 64.2825 54.9396 64.0552 54.6613 63.881C54.383 63.7067 54.0732 63.589 53.7494 63.5346C53.4256 63.4801 53.0943 63.4899 52.7743 63.5635C52.4544 63.637 52.152 63.7729 51.8845 63.9633C51.6171 64.1537 51.3898 64.395 51.2155 64.6733C51.0413 64.9515 50.9236 65.2614 50.8691 65.5852C50.8146 65.9089 50.8245 66.2403 50.898 66.5602C50.9716 66.8802 51.1075 67.1825 51.2979 67.45L55.3712 64.55ZM61.6512 72.5C68.0312 72.5 73.8846 68 73.8846 61.6667H68.8846C68.8846 64.5367 66.0279 67.5 61.6512 67.5V72.5ZM73.8846 61.6667V60H68.8846V61.6667H73.8846ZM69.7612 58.1L67.8145 59.7667L71.0646 63.5667L73.0145 61.9L69.7612 58.1ZM69.7612 61.9L71.7079 63.5667L74.9612 59.7667L73.0145 58.1L69.7612 61.9ZM51.2979 67.45C53.5179 70.5667 57.3946 72.5 61.6512 72.5V67.5C58.8646 67.5 56.5712 66.2333 55.3712 64.55L51.2979 67.45Z" fill="#2C2A29"/>
</svg>
