<svg width="121" height="20" viewBox="0 0 121 20" fill="none" xmlns="http://www.w3.org/2000/svg">
<path d="M12.277 8.34488C14.7863 9.11952 16.8616 10.5987 16.7296 13.0728C16.6674 14.2405 16.4063 15.2695 15.5135 15.8092C14.4372 14.9631 13.3286 14.0087 12.1117 13.5231C10.1497 12.7402 7.97588 12.2463 5.94414 11.6191C3.43481 10.8444 1.11479 9.20736 1.41966 6.67565C1.55001 5.59317 1.69835 5.02107 2.59119 4.48144C3.66747 5.32752 4.89244 5.95523 6.10936 6.44084C8.07128 7.22374 10.2452 7.71765 12.277 8.34488Z" fill="#003357"/>
<path d="M1.51424 4.85493C2.00799 2.16372 4.74149 0.558364 7.63382 0.415425L16.0182 0.00106295C16.5558 -0.0255052 16.9644 0.450323 16.8251 0.940672C15.9149 4.14375 15.7643 7.47331 11.6955 7.47331C9.2679 7.47331 5.36967 7.25685 2.02835 9.13413C1.2318 8.04571 1.24294 6.33361 1.51424 4.85493Z" fill="#00D7B0"/>
<path d="M16.6708 15.1451C16.1771 17.8363 13.4436 19.4416 10.5512 19.5846L2.16687 19.9989C1.62928 20.0255 1.22068 19.5497 1.36001 19.0593C2.27014 15.8562 2.42073 12.5267 6.48957 12.5267C8.91716 12.5267 12.8154 12.7432 16.1567 10.8659C16.9533 11.9543 16.9421 13.6664 16.6708 15.1451Z" fill="#00D7B0"/>
<path d="M32.4007 15.137C31.654 15.137 30.94 15.025 30.2587 14.801C29.5773 14.5677 29.0407 14.269 28.6487 13.905L29.1667 12.813C29.54 13.1397 30.016 13.4104 30.5947 13.625C31.1733 13.8397 31.7753 13.947 32.4007 13.947C32.97 13.947 33.432 13.8817 33.7867 13.751C34.1413 13.6204 34.4027 13.443 34.5707 13.219C34.7387 12.9857 34.8227 12.7244 34.8227 12.435C34.8227 12.099 34.7107 11.8284 34.4867 11.623C34.272 11.4177 33.9873 11.2544 33.6327 11.133C33.2873 11.0024 32.9047 10.8904 32.4847 10.797C32.0647 10.7037 31.64 10.5964 31.2107 10.475C30.7907 10.3444 30.4033 10.181 30.0487 9.98504C29.7033 9.78904 29.4233 9.5277 29.2087 9.20104C28.994 8.86504 28.8867 8.4357 28.8867 7.91304C28.8867 7.40904 29.0173 6.94704 29.2787 6.52704C29.5493 6.0977 29.96 5.75704 30.5107 5.50504C31.0707 5.2437 31.78 5.11304 32.6387 5.11304C33.208 5.11304 33.7727 5.1877 34.3327 5.33704C34.8927 5.48637 35.378 5.70104 35.7887 5.98104L35.3267 7.10104C34.9067 6.82104 34.4633 6.62037 33.9967 6.49904C33.53 6.36837 33.0773 6.30304 32.6387 6.30304C32.088 6.30304 31.6353 6.37304 31.2807 6.51304C30.926 6.65304 30.6647 6.8397 30.4967 7.07304C30.338 7.30637 30.2587 7.5677 30.2587 7.85704C30.2587 8.20237 30.366 8.4777 30.5807 8.68304C30.8047 8.88837 31.0893 9.0517 31.4347 9.17304C31.7893 9.29437 32.1767 9.40637 32.5967 9.50904C33.0167 9.60237 33.4367 9.7097 33.8567 9.83104C34.286 9.95237 34.6733 10.111 35.0187 10.307C35.3733 10.503 35.658 10.7644 35.8727 11.091C36.0873 11.4177 36.1947 11.8377 36.1947 12.351C36.1947 12.8457 36.0593 13.3077 35.7887 13.737C35.518 14.157 35.098 14.4977 34.5287 14.759C33.9687 15.011 33.2593 15.137 32.4007 15.137Z" fill="#003357"/>
<path d="M39.64 15.025V5.22504H43.462C44.3207 5.22504 45.0533 5.36037 45.66 5.63104C46.2667 5.9017 46.7333 6.2937 47.06 6.80704C47.3867 7.32037 47.55 7.9317 47.55 8.64104C47.55 9.35037 47.3867 9.9617 47.06 10.475C46.7333 10.979 46.2667 11.371 45.66 11.651C45.0533 11.9217 44.3207 12.057 43.462 12.057H40.41L41.04 11.399V15.025H39.64ZM41.04 11.539L40.41 10.839H43.42C44.316 10.839 44.9927 10.6477 45.45 10.265C45.9167 9.88237 46.15 9.34104 46.15 8.64104C46.15 7.94104 45.9167 7.3997 45.45 7.01704C44.9927 6.63437 44.316 6.44304 43.42 6.44304H40.41L41.04 5.74304V11.539Z" fill="#003357"/>
<path d="M51.0068 15.025V5.22504H52.4068V13.807H57.7128V15.025H51.0068Z" fill="#003357"/>
<path d="M61.9933 9.45304H67.0333V10.643H61.9933V9.45304ZM62.1193 13.807H67.8313V15.025H60.7193V5.22504H67.6353V6.44304H62.1193V13.807Z" fill="#003357"/>
<path d="M71.4982 15.025V5.22504H72.6462L79.1282 13.275H78.5262V5.22504H79.9262V15.025H78.7782L72.2962 6.97504H72.8982V15.025H71.4982Z" fill="#003357"/>
<path d="M84.2595 15.025V5.22504H88.3895C89.4349 5.22504 90.3542 5.43037 91.1475 5.84104C91.9502 6.2517 92.5709 6.8257 93.0095 7.56304C93.4575 8.30037 93.6815 9.15437 93.6815 10.125C93.6815 11.0957 93.4575 11.9497 93.0095 12.687C92.5709 13.4244 91.9502 13.9984 91.1475 14.409C90.3542 14.8197 89.4349 15.025 88.3895 15.025H84.2595ZM85.6595 13.807H88.3055C89.1175 13.807 89.8175 13.653 90.4055 13.345C91.0029 13.037 91.4649 12.6077 91.7915 12.057C92.1182 11.497 92.2815 10.853 92.2815 10.125C92.2815 9.3877 92.1182 8.7437 91.7915 8.19304C91.4649 7.64237 91.0029 7.21304 90.4055 6.90504C89.8175 6.59704 89.1175 6.44304 88.3055 6.44304H85.6595V13.807Z" fill="#003357"/>
<path d="M97.2259 15.025V5.22504H98.6259V15.025H97.2259Z" fill="#003357"/>
<path d="M104.22 9.85904H109.274V11.063H104.22V9.85904ZM104.36 15.025H102.96V5.22504H109.876V6.44304H104.36V15.025Z" fill="#003357"/>
<path d="M115.613 15.025V11.273L115.935 12.141L111.721 5.22504H113.219L116.761 11.063H115.949L119.505 5.22504H120.891L116.691 12.141L116.999 11.273V15.025H115.613Z" fill="#003357"/>
</svg>
