<svg width="271" height="32" viewBox="0 0 271 32" fill="none" xmlns="http://www.w3.org/2000/svg">
<path opacity="0.4" fill-rule="evenodd" clip-rule="evenodd" d="M231.55 20.8064H243.565L243.762 20.7966C244.666 20.7049 245.385 19.9855 245.478 19.0808L245.488 18.8835V14.5583C245.488 13.5628 244.731 12.7436 243.762 12.6453L243.565 12.6355H231.55L231.353 12.6453C230.383 12.7439 229.627 13.563 229.627 14.5583V18.8835C229.627 19.8789 230.383 20.698 231.353 20.7966L231.55 20.8064ZM243.565 20.0857H231.55C230.886 20.0857 230.348 19.5472 230.348 18.8835V14.5583C230.348 13.8947 230.886 13.3562 231.55 13.3562H243.565C244.229 13.3562 244.767 13.8947 244.767 14.5583V18.8835C244.767 19.5471 244.229 20.0857 243.565 20.0857ZM247.166 16.7209C247.166 17.3504 246.789 17.9186 246.209 18.1628V15.279C246.789 15.5232 247.166 16.0914 247.166 16.7209Z" fill="white"/>
<rect x="231.069" y="14.0774" width="12.9772" height="5.28699" rx="0.961271" fill="white"/>
<path fill-rule="evenodd" clip-rule="evenodd" d="M219.291 14.2754C220.888 14.2755 222.425 14.8893 223.583 15.9901C223.67 16.075 223.809 16.074 223.895 15.9877L224.728 15.1465C224.772 15.1028 224.796 15.0435 224.796 14.9818C224.795 14.9201 224.771 14.8611 224.727 14.8178C221.688 11.9055 216.893 11.9055 213.855 14.8178C213.811 14.861 213.786 14.92 213.785 14.9817C213.785 15.0434 213.809 15.1027 213.852 15.1465L214.686 15.9877C214.772 16.0741 214.911 16.0752 214.998 15.9901C216.156 14.8892 217.693 14.2754 219.291 14.2754ZM219.291 17.0119C220.169 17.0118 221.015 17.3381 221.666 17.9273C221.754 18.0109 221.892 18.0091 221.978 17.9232L222.81 17.0821C222.854 17.0379 222.879 16.9781 222.878 16.9159C222.877 16.8537 222.852 16.7944 222.807 16.7511C220.826 14.9081 217.757 14.9081 215.776 16.7511C215.731 16.7944 215.706 16.8537 215.705 16.9159C215.705 16.9782 215.729 17.038 215.773 17.0821L216.605 17.9232C216.691 18.0091 216.83 18.0109 216.918 17.9273C217.568 17.3385 218.414 17.0123 219.291 17.0119ZM220.958 18.8531C220.96 18.9154 220.935 18.9756 220.891 19.0193L219.451 20.4725C219.408 20.5152 219.351 20.5392 219.291 20.5392C219.231 20.5392 219.173 20.5152 219.131 20.4725L217.691 19.0193C217.646 18.9755 217.622 18.9154 217.623 18.853C217.624 18.7907 217.651 18.7316 217.698 18.6898C218.617 17.912 219.964 17.912 220.884 18.6898C220.93 18.7316 220.957 18.7907 220.958 18.8531Z" fill="white"/>
<path fill-rule="evenodd" clip-rule="evenodd" d="M209.44 12.8757H208.719C208.32 12.8757 207.998 13.1985 207.998 13.5967V19.8449C207.998 20.2431 208.32 20.5659 208.719 20.5659H209.44C209.838 20.5659 210.16 20.2431 210.16 19.8449V13.5967C210.16 13.1985 209.838 12.8757 209.44 12.8757ZM205.354 14.558H206.075C206.473 14.558 206.796 14.8807 206.796 15.2789V19.8449C206.796 20.2431 206.473 20.5659 206.075 20.5659H205.354C204.956 20.5659 204.633 20.2431 204.633 19.8449V15.2789C204.633 14.8807 204.956 14.558 205.354 14.558ZM202.711 16.2402H201.99C201.592 16.2402 201.269 16.563 201.269 16.9611V19.8449C201.269 20.2431 201.592 20.5659 201.99 20.5659H202.711C203.109 20.5659 203.432 20.2431 203.432 19.8449V16.9611C203.432 16.563 203.109 16.2402 202.711 16.2402ZM199.346 17.6821H198.625C198.227 17.6821 197.904 18.0049 197.904 18.403V19.8449C197.904 20.2431 198.227 20.5659 198.625 20.5659H199.346C199.744 20.5659 200.067 20.2431 200.067 19.8449V18.403C200.067 18.0049 199.744 17.6821 199.346 17.6821Z" fill="white"/>
<path d="M26.3022 12.1581V19.3486H24.8828V13.7943L23.1776 14.3365V13.2177L26.1494 12.1581H26.3022ZM29.9738 16.0811L28.8403 15.81L29.2494 12.1729H33.2808V13.3212H30.4174L30.24 14.9131C30.3352 14.8572 30.4798 14.7981 30.6737 14.7357C30.8675 14.6699 31.0844 14.6371 31.3242 14.6371C31.6725 14.6371 31.9813 14.6913 32.2507 14.7997C32.5202 14.9082 32.7485 15.0659 32.9358 15.2729C33.1264 15.4798 33.2709 15.7328 33.3695 16.0318C33.4681 16.3308 33.5173 16.6692 33.5173 17.0471C33.5173 17.3658 33.4681 17.6697 33.3695 17.9588C33.2709 18.2447 33.1214 18.5009 32.921 18.7277C32.7206 18.9511 32.4692 19.1269 32.167 19.255C31.8647 19.3831 31.5066 19.4472 31.0926 19.4472C30.7837 19.4472 30.4847 19.4012 30.1956 19.3092C29.9098 19.2172 29.6518 19.0809 29.4218 18.9001C29.1951 18.7194 29.0128 18.5009 28.8748 18.2447C28.7401 17.9851 28.6694 17.6894 28.6629 17.3576H30.0724C30.0921 17.5613 30.1447 17.737 30.2301 17.8849C30.3188 18.0295 30.4355 18.1412 30.58 18.22C30.7246 18.2989 30.8938 18.3383 31.0876 18.3383C31.2684 18.3383 31.4228 18.3038 31.5509 18.2348C31.6791 18.1658 31.7825 18.0705 31.8614 17.949C31.9403 17.8241 31.9978 17.6796 32.0339 17.5153C32.0733 17.3477 32.093 17.167 32.093 16.9731C32.093 16.7793 32.07 16.6035 32.024 16.4458C31.978 16.2881 31.9074 16.1518 31.8121 16.0368C31.7168 15.9218 31.5953 15.833 31.4474 15.7706C31.3029 15.7082 31.1336 15.677 30.9398 15.677C30.6769 15.677 30.4732 15.7181 30.3287 15.8002C30.1874 15.8823 30.0691 15.976 29.9738 16.0811ZM34.5474 18.6636C34.5474 18.4533 34.6197 18.2775 34.7642 18.1362C34.9121 17.995 35.1076 17.9243 35.3507 17.9243C35.5938 17.9243 35.7877 17.995 35.9323 18.1362C36.0801 18.2775 36.154 18.4533 36.154 18.6636C36.154 18.8739 36.0801 19.0496 35.9323 19.1909C35.7877 19.3322 35.5938 19.4028 35.3507 19.4028C35.1076 19.4028 34.9121 19.3322 34.7642 19.1909C34.6197 19.0496 34.5474 18.8739 34.5474 18.6636ZM34.5474 14.5977C34.5474 14.3874 34.6197 14.2116 34.7642 14.0703C34.9121 13.929 35.1076 13.8584 35.3507 13.8584C35.5938 13.8584 35.7877 13.929 35.9323 14.0703C36.0801 14.2116 36.154 14.3874 36.154 14.5977C36.154 14.8079 36.0801 14.9837 35.9323 15.125C35.7877 15.2663 35.5938 15.3369 35.3507 15.3369C35.1076 15.3369 34.9121 15.2663 34.7642 15.125C34.6197 14.9837 34.5474 14.8079 34.5474 14.5977ZM42.1125 15.1299V16.3719C42.1125 16.9107 42.055 17.3756 41.94 17.7666C41.825 18.1543 41.659 18.473 41.4422 18.7227C41.2286 18.9691 40.974 19.1515 40.6783 19.2698C40.3826 19.3881 40.054 19.4472 39.6926 19.4472C39.4035 19.4472 39.1341 19.4111 38.8844 19.3388C38.6347 19.2632 38.4096 19.1466 38.2092 18.9889C38.012 18.8312 37.8412 18.6324 37.6966 18.3925C37.5553 18.1494 37.4469 17.8603 37.3713 17.5251C37.2958 17.19 37.258 16.8056 37.258 16.3719V15.1299C37.258 14.5911 37.3155 14.1295 37.4305 13.7451C37.5488 13.3574 37.7147 13.0403 37.9282 12.7939C38.1451 12.5475 38.4014 12.3667 38.6971 12.2518C38.9928 12.1335 39.3213 12.0743 39.6828 12.0743C39.9719 12.0743 40.2397 12.1121 40.4861 12.1877C40.7358 12.26 40.9609 12.3733 41.1613 12.5277C41.3617 12.6822 41.5325 12.8809 41.6738 13.1241C41.8151 13.3639 41.9235 13.6514 41.9991 13.9865C42.0747 14.3184 42.1125 14.6995 42.1125 15.1299ZM40.6881 16.5592V14.9377C40.6881 14.6782 40.6734 14.4515 40.6438 14.2576C40.6175 14.0638 40.5764 13.8995 40.5206 13.7648C40.4647 13.6268 40.3957 13.5151 40.3136 13.4296C40.2314 13.3442 40.1378 13.2818 40.0327 13.2424C39.9275 13.2029 39.8109 13.1832 39.6828 13.1832C39.5218 13.1832 39.3788 13.2144 39.254 13.2769C39.1324 13.3393 39.0289 13.4395 38.9435 13.5775C38.8581 13.7122 38.7924 13.8929 38.7464 14.1196C38.7036 14.343 38.6823 14.6157 38.6823 14.9377V16.5592C38.6823 16.8187 38.6954 17.0471 38.7217 17.2442C38.7513 17.4413 38.794 17.6106 38.8499 17.7518C38.909 17.8898 38.978 18.0032 39.0568 18.0919C39.139 18.1773 39.2326 18.2397 39.3378 18.2792C39.4462 18.3186 39.5645 18.3383 39.6926 18.3383C39.8503 18.3383 39.99 18.3071 40.1115 18.2447C40.2364 18.179 40.3415 18.0771 40.4269 17.9391C40.5157 17.7978 40.5814 17.6138 40.6241 17.3871C40.6668 17.1604 40.6881 16.8844 40.6881 16.5592ZM46.7402 12.099H46.9472V13.2325H46.8634C46.4889 13.2325 46.1554 13.2884 45.863 13.4001C45.5705 13.5118 45.3225 13.6711 45.1188 13.8781C44.9183 14.0818 44.7639 14.3282 44.6555 14.6174C44.5504 14.9065 44.4978 15.2301 44.4978 15.5883V16.7809C44.4978 17.0372 44.5224 17.2639 44.5717 17.4611C44.6243 17.6549 44.6982 17.8175 44.7935 17.949C44.8921 18.0771 45.0071 18.174 45.1385 18.2397C45.2699 18.3022 45.4178 18.3334 45.582 18.3334C45.7365 18.3334 45.8761 18.3005 46.001 18.2348C46.1291 18.1691 46.2375 18.0771 46.3262 17.9588C46.4182 17.8373 46.4872 17.696 46.5332 17.535C46.5825 17.3707 46.6071 17.1916 46.6071 16.9978C46.6071 16.8039 46.5825 16.6249 46.5332 16.4606C46.4872 16.2963 46.4182 16.155 46.3262 16.0368C46.2342 15.9152 46.1225 15.8215 45.9911 15.7558C45.8597 15.6901 45.7118 15.6573 45.5475 15.6573C45.3241 15.6573 45.127 15.7098 44.9561 15.815C44.7886 15.9168 44.6571 16.0483 44.5619 16.2092C44.4666 16.3702 44.4157 16.5395 44.4091 16.7169L43.9803 16.4409C43.9902 16.1879 44.0427 15.948 44.138 15.7213C44.2366 15.4946 44.3713 15.2942 44.5421 15.1201C44.7163 14.9427 44.9249 14.8047 45.1681 14.7061C45.4112 14.6042 45.6855 14.5533 45.9911 14.5533C46.3262 14.5533 46.6203 14.6174 46.8733 14.7455C47.1296 14.8737 47.3431 15.0494 47.514 15.2729C47.6848 15.4963 47.813 15.7542 47.8984 16.0466C47.9838 16.339 48.0265 16.6512 48.0265 16.983C48.0265 17.3313 47.969 17.6549 47.854 17.9539C47.7423 18.2529 47.5797 18.5141 47.3661 18.7375C47.1558 18.9609 46.9028 19.1351 46.6071 19.2599C46.3114 19.3848 45.9796 19.4472 45.6116 19.4472C45.2305 19.4472 44.8838 19.3782 44.5717 19.2402C44.2629 19.0989 43.9967 18.9018 43.7733 18.6488C43.5499 18.3958 43.3774 18.0952 43.2558 17.7469C43.1376 17.3986 43.0784 17.0175 43.0784 16.6035V16.0515C43.0784 15.4733 43.1622 14.9443 43.3298 14.4646C43.5006 13.9816 43.7454 13.5643 44.0641 13.2128C44.3828 12.8579 44.7672 12.5836 45.2173 12.3897C45.6675 12.1959 46.1751 12.099 46.7402 12.099Z" fill="white"/>
</svg>
