<svg width="176" height="176" viewBox="0 0 176 176" fill="none" xmlns="http://www.w3.org/2000/svg">
<rect width="176" height="176" rx="40" fill="url(#paint0_linear_137_4608)"/>
<path d="M104.884 45.4463L108.909 46.5338C113.831 47.8658 118.318 50.465 121.923 54.0723C125.527 57.6795 128.122 62.1687 129.45 67.0921L130.534 71.113L122.492 73.2838L121.405 69.263C120.456 65.7462 118.601 62.5397 116.026 59.9633C113.451 57.3868 110.246 55.5306 106.73 54.5796L102.709 53.488L104.884 45.4463ZM42.1671 46.3338H77.9171L84.1129 74.2088L76.3629 81.9588C80.9197 89.0506 86.9493 95.0787 94.0421 99.6338L101.792 91.888L129.667 98.0838V133.834H125.5C109.46 133.861 93.7563 129.235 80.2921 120.517C70.3639 114.092 61.9089 105.637 55.4838 95.7088C46.7655 82.2446 42.1398 66.5407 42.1671 50.5005V46.3338ZM50.6129 54.6671C51.3151 67.6668 55.4076 80.2562 62.4838 91.1838C68.2685 100.121 75.8798 107.732 84.8171 113.517C95.7447 120.593 108.334 124.686 121.334 125.388V104.767L104.446 101.017L95.3879 110.08L92.6254 108.509C82.1364 102.548 73.4527 93.8645 67.4921 83.3755L65.9213 80.613L74.9838 71.5546L71.2338 54.6671H50.6129ZM101.075 59.5213L105.1 60.6088C107.562 61.2748 109.805 62.5744 111.607 64.378C113.409 66.1817 114.707 68.4263 115.371 70.888L116.455 74.9088L108.413 77.0796L107.325 73.0588C107.04 72.0037 106.484 71.0418 105.711 70.269C104.938 69.4962 103.976 68.9396 102.921 68.6546L98.9004 67.5671L101.075 59.5213Z" fill="white"/>
<defs>
<linearGradient id="paint0_linear_137_4608" x1="-2.62815e-06" y1="176" x2="151.671" y2="236.745" gradientUnits="userSpaceOnUse">
<stop stop-color="#35C0A7"/>
<stop offset="1" stop-color="#5BD9BB"/>
</linearGradient>
</defs>
</svg>
