<svg width="176" height="176" viewBox="0 0 176 176" fill="none" xmlns="http://www.w3.org/2000/svg">
<rect width="176" height="176" rx="40" fill="#CFC9FA"/>
<path d="M126.281 88H120.812C120.383 88 120.031 88.3516 120.031 88.7812V120.031H55.9688V55.9688H87.2188C87.6484 55.9688 88 55.6172 88 55.1875V49.7188C88 49.2891 87.6484 48.9375 87.2188 48.9375H52.0625C50.334 48.9375 48.9375 50.334 48.9375 52.0625V123.938C48.9375 125.666 50.334 127.062 52.0625 127.062H123.938C125.666 127.062 127.062 125.666 127.062 123.938V88.7812C127.062 88.3516 126.711 88 126.281 88Z" fill="#43318A"/>
<path d="M72.756 90.2363L72.5704 101.848C72.5606 102.717 73.2638 103.43 74.1329 103.43H74.172L85.6954 103.146C85.8907 103.137 86.086 103.059 86.2228 102.922L126.838 62.3945C127.141 62.0918 127.141 61.5938 126.838 61.291L114.699 49.1621C114.543 49.0059 114.348 48.9375 114.143 48.9375C113.938 48.9375 113.742 49.0156 113.586 49.1621L72.9806 89.6895C72.8395 89.837 72.7593 90.0323 72.756 90.2363ZM78.9571 92.541L114.143 57.4336L118.557 61.8379L83.3517 96.9648L78.8888 97.0723L78.9571 92.541Z" fill="#43318A"/>
</svg>
